<svg width="103" height="98" viewBox="0 0 103 98" fill="none" xmlns="http://www.w3.org/2000/svg">
<path fill-rule="evenodd" clip-rule="evenodd" d="M45 0H57L58.5859 12.6873C63.2318 13.6014 67.5615 15.3969 71.3934 17.8926L83.6734 8.34146L92.1586 16.8267L82.5077 29.2351C84.7286 32.8021 86.351 36.7803 87.2348 41.0294L103 43V55L87.0052 56.9993C85.9663 61.3552 84.1466 65.4082 81.7023 69.0021L82.259 68.4453L92.1585 81.1732L83.6732 89.6585L70.9453 79.759L72.002 78.7023C68.057 81.3855 63.5589 83.3159 58.7141 84.2872L57 98H45L43.2582 84.0656C38.8043 83.0377 34.6622 81.1946 30.9975 78.702L32.0546 79.759L19.3266 89.6585L10.8413 81.1733L20.7408 68.4453L21.298 69.0025C18.8535 65.4085 17.0337 61.3554 15.9948 56.9993L0 55V43L15.7652 41.0294C16.649 36.7803 18.2715 32.802 20.4924 29.2349L10.8414 16.8265L19.3267 8.34123L31.6068 17.8924C35.1548 15.5817 39.1295 13.8712 43.3869 12.9049L45 0ZM51 67C60.9411 67 69 58.9412 69 49C69 39.0588 60.9411 31 51 31C41.0589 31 33 39.0588 33 49C33 58.9412 41.0589 67 51 67Z" fill="#5353EC"/>
</svg>
