<svg width="467" height="91" viewBox="0 0 467 91" fill="none" xmlns="http://www.w3.org/2000/svg">
<rect width="467" height="91" rx="16" fill="#7673C0"/>
<g clip-path="url(#clip0)">
<path fill-rule="evenodd" clip-rule="evenodd" d="M71.6 20.5C74.0298 20.5 76 22.515 76 25V66C76 68.485 74.0298 70.5 71.6 70.5H36.4C33.9702 70.5 32 68.485 32 66V25C32 22.515 33.9702 20.5 36.4 20.5H71.6ZM71.6 23H36.4C35.322 23 34.4444 23.8969 34.4444 25V66C34.4444 67.1025 35.322 68 36.4 68H71.6C72.6786 68 73.5556 67.1025 73.5556 66V25C73.5556 23.8969 72.6786 23 71.6 23ZM43.6111 53L49.1111 58L43.6111 63V53ZM48.5 28V42.1944C50.9408 41.3819 54.3526 40.5 57.6667 40.5C60.6886 40.5 62.4975 41.715 63.4826 42.7344C65.4978 44.8188 65.6082 47.4501 65.6113 47.9475L65.6112 63H60.7222V48.0688C60.6984 46.9019 60.149 45.5 57.6667 45.5C52.9185 45.5 47.6182 47.833 47.1046 48.0643L47.0645 48.0825L43.6111 49.6825V28H48.5ZM65.6111 28C65.2811 30.84 64.1554 33.5625 61.9444 36.125H57.0556C58.9769 33.5469 60.1832 30.8337 60.7222 28H65.6111Z" fill="white"/>
</g>
<rect x="108" width="4" height="91" fill="black" fill-opacity="0.1"/>
<path d="M148.808 56.5C148.189 56.5 147.699 56.3293 147.336 55.988C146.995 55.6467 146.824 55.1667 146.824 54.548V35.892C146.824 35.2733 146.995 34.7933 147.336 34.452C147.699 34.1107 148.189 33.94 148.808 33.94H155.144C158.835 33.94 161.693 34.932 163.72 36.916C165.768 38.8787 166.792 41.6413 166.792 45.204C166.792 48.788 165.768 51.572 163.72 53.556C161.693 55.5187 158.835 56.5 155.144 56.5H148.808ZM154.888 53.14C160.072 53.14 162.664 50.4947 162.664 45.204C162.664 39.9347 160.072 37.3 154.888 37.3H150.952V53.14H154.888ZM182.661 52.212C183.024 52.212 183.312 52.3507 183.525 52.628C183.76 52.9053 183.877 53.2787 183.877 53.748C183.877 54.4093 183.482 54.964 182.693 55.412C181.968 55.8173 181.146 56.148 180.229 56.404C179.312 56.6387 178.437 56.756 177.605 56.756C175.088 56.756 173.093 56.0307 171.621 54.58C170.149 53.1293 169.413 51.1453 169.413 48.628C169.413 47.028 169.733 45.6093 170.373 44.372C171.013 43.1347 171.909 42.1747 173.061 41.492C174.234 40.8093 175.557 40.468 177.029 40.468C178.437 40.468 179.664 40.7773 180.709 41.396C181.754 42.0147 182.565 42.8893 183.141 44.02C183.717 45.1507 184.005 46.484 184.005 48.02C184.005 48.9373 183.6 49.396 182.789 49.396H173.349C173.477 50.868 173.893 51.956 174.597 52.66C175.301 53.3427 176.325 53.684 177.669 53.684C178.352 53.684 178.949 53.5987 179.461 53.428C179.994 53.2573 180.592 53.0227 181.253 52.724C181.893 52.3827 182.362 52.212 182.661 52.212ZM177.125 43.284C176.037 43.284 175.162 43.6253 174.501 44.308C173.861 44.9907 173.477 45.972 173.349 47.252H180.581C180.538 45.9507 180.218 44.9693 179.621 44.308C179.024 43.6253 178.192 43.284 177.125 43.284ZM195.949 40.468C197.293 40.468 198.488 40.8093 199.533 41.492C200.6 42.1747 201.421 43.1453 201.997 44.404C202.594 45.6413 202.893 47.0707 202.893 48.692C202.893 50.3133 202.594 51.732 201.997 52.948C201.421 54.164 200.61 55.1027 199.565 55.764C198.52 56.4253 197.314 56.756 195.949 56.756C194.84 56.756 193.848 56.5213 192.973 56.052C192.098 55.5827 191.426 54.932 190.957 54.1V60.628C190.957 61.1827 190.776 61.62 190.413 61.94C190.05 62.26 189.57 62.42 188.973 62.42C188.376 62.42 187.885 62.2493 187.501 61.908C187.138 61.5667 186.957 61.1187 186.957 60.564V42.42C186.957 41.844 187.128 41.3853 187.469 41.044C187.832 40.7027 188.312 40.532 188.909 40.532C189.506 40.532 189.986 40.7027 190.349 41.044C190.712 41.3853 190.893 41.844 190.893 42.42V43.22C191.362 42.3453 192.034 41.6733 192.909 41.204C193.805 40.7133 194.818 40.468 195.949 40.468ZM194.893 53.652C196.152 53.652 197.133 53.2253 197.837 52.372C198.541 51.4973 198.893 50.2707 198.893 48.692C198.893 47.0707 198.541 45.812 197.837 44.916C197.133 44.02 196.152 43.572 194.893 43.572C193.613 43.572 192.621 44.0093 191.917 44.884C191.234 45.7587 190.893 47.0067 190.893 48.628C190.893 50.228 191.234 51.4653 191.917 52.34C192.621 53.2147 193.613 53.652 194.893 53.652ZM207.84 56.692C207.264 56.692 206.784 56.532 206.4 56.212C206.037 55.8707 205.856 55.3907 205.856 54.772V35.668C205.856 35.0493 206.037 34.58 206.4 34.26C206.784 33.94 207.264 33.78 207.84 33.78C208.416 33.78 208.896 33.94 209.28 34.26C209.664 34.58 209.856 35.0493 209.856 35.668V54.772C209.856 55.3907 209.664 55.8707 209.28 56.212C208.896 56.532 208.416 56.692 207.84 56.692ZM220.797 56.756C219.197 56.756 217.789 56.4253 216.573 55.764C215.378 55.1027 214.45 54.1533 213.789 52.916C213.127 51.6787 212.797 50.2387 212.797 48.596C212.797 46.9533 213.127 45.524 213.789 44.308C214.45 43.0707 215.378 42.1213 216.573 41.46C217.789 40.7987 219.197 40.468 220.797 40.468C222.397 40.468 223.794 40.7987 224.989 41.46C226.205 42.1213 227.133 43.0707 227.773 44.308C228.434 45.524 228.765 46.9533 228.765 48.596C228.765 50.2387 228.434 51.6787 227.773 52.916C227.133 54.1533 226.205 55.1027 224.989 55.764C223.794 56.4253 222.397 56.756 220.797 56.756ZM220.765 53.652C222.066 53.652 223.058 53.2253 223.741 52.372C224.423 51.5187 224.765 50.26 224.765 48.596C224.765 46.9533 224.423 45.7053 223.741 44.852C223.058 43.9773 222.077 43.54 220.797 43.54C219.517 43.54 218.525 43.9773 217.821 44.852C217.138 45.7053 216.797 46.9533 216.797 48.596C216.797 50.26 217.138 51.5187 217.821 52.372C218.503 53.2253 219.485 53.652 220.765 53.652ZM242.409 41.684C242.58 41.3 242.804 41.0227 243.081 40.852C243.38 40.66 243.7 40.564 244.041 40.564C244.532 40.564 244.969 40.7347 245.353 41.076C245.758 41.396 245.961 41.8013 245.961 42.292C245.961 42.5267 245.897 42.772 245.769 43.028L237.033 61.332C236.67 62.0573 236.105 62.42 235.337 62.42C234.846 62.42 234.409 62.26 234.025 61.94C233.662 61.6413 233.481 61.2573 233.481 60.788C233.481 60.5533 233.545 60.2867 233.673 59.988L235.849 55.412L229.897 43.028C229.79 42.8147 229.737 42.5693 229.737 42.292C229.737 41.8013 229.94 41.3853 230.345 41.044C230.772 40.7027 231.252 40.532 231.785 40.532C232.148 40.532 232.478 40.628 232.777 40.82C233.076 40.9907 233.31 41.268 233.481 41.652L237.961 51.54L242.409 41.684ZM277.54 41.716C277.689 41.332 277.903 41.044 278.18 40.852C278.479 40.66 278.799 40.564 279.14 40.564C279.631 40.564 280.068 40.7347 280.452 41.076C280.857 41.396 281.06 41.8013 281.06 42.292C281.06 42.5693 281.007 42.8147 280.9 43.028L275.62 55.412C275.449 55.8173 275.183 56.1267 274.82 56.34C274.479 56.5533 274.095 56.66 273.668 56.66C273.263 56.66 272.879 56.5533 272.516 56.34C272.175 56.1267 271.919 55.8173 271.748 55.412L267.94 46.26L264.26 55.412C264.089 55.8173 263.823 56.1267 263.46 56.34C263.119 56.5533 262.735 56.66 262.308 56.66C261.903 56.66 261.519 56.5533 261.156 56.34C260.793 56.1267 260.527 55.8173 260.356 55.412L255.108 43.028C255.001 42.7507 254.948 42.516 254.948 42.324C254.948 41.8333 255.161 41.4173 255.588 41.076C256.015 40.7133 256.484 40.532 256.996 40.532C257.359 40.532 257.689 40.628 257.988 40.82C258.287 41.012 258.511 41.3 258.66 41.684L262.436 51.444L266.308 41.78C266.479 41.3747 266.724 41.076 267.044 40.884C267.364 40.6707 267.716 40.564 268.1 40.564C268.484 40.564 268.836 40.6707 269.156 40.884C269.476 41.076 269.721 41.3747 269.892 41.78L273.796 51.476L277.54 41.716ZM285.99 56.692C285.414 56.692 284.934 56.532 284.55 56.212C284.187 55.8707 284.006 55.3907 284.006 54.772V42.42C284.006 41.8013 284.187 41.332 284.55 41.012C284.934 40.692 285.414 40.532 285.99 40.532C286.566 40.532 287.046 40.692 287.43 41.012C287.814 41.332 288.006 41.8013 288.006 42.42V54.772C288.006 55.3907 287.814 55.8707 287.43 56.212C287.046 56.532 286.566 56.692 285.99 56.692ZM285.99 37.684C285.264 37.684 284.688 37.492 284.262 37.108C283.835 36.7027 283.622 36.18 283.622 35.54C283.622 34.9 283.835 34.388 284.262 34.004C284.688 33.62 285.264 33.428 285.99 33.428C286.694 33.428 287.259 33.62 287.686 34.004C288.134 34.388 288.358 34.9 288.358 35.54C288.358 36.18 288.144 36.7027 287.718 37.108C287.291 37.492 286.715 37.684 285.99 37.684ZM300.626 53.716C301.693 53.78 302.226 54.26 302.226 55.156C302.226 55.668 302.013 56.0627 301.586 56.34C301.181 56.596 300.594 56.7027 299.826 56.66L298.962 56.596C295.378 56.34 293.586 54.42 293.586 50.836V43.86H291.986C291.41 43.86 290.962 43.732 290.642 43.476C290.343 43.22 290.194 42.8467 290.194 42.356C290.194 41.8653 290.343 41.492 290.642 41.236C290.962 40.98 291.41 40.852 291.986 40.852H293.586V37.908C293.586 37.332 293.767 36.8733 294.13 36.532C294.493 36.1907 294.983 36.02 295.602 36.02C296.199 36.02 296.679 36.1907 297.042 36.532C297.405 36.8733 297.586 37.332 297.586 37.908V40.852H300.306C300.882 40.852 301.319 40.98 301.618 41.236C301.938 41.492 302.098 41.8653 302.098 42.356C302.098 42.8467 301.938 43.22 301.618 43.476C301.319 43.732 300.882 43.86 300.306 43.86H297.586V51.124C297.586 52.7027 298.311 53.5453 299.762 53.652L300.626 53.716ZM313.143 40.468C316.812 40.468 318.647 42.612 318.647 46.9V54.772C318.647 55.3693 318.465 55.8387 318.103 56.18C317.761 56.5213 317.281 56.692 316.663 56.692C316.044 56.692 315.553 56.5213 315.191 56.18C314.828 55.8387 314.647 55.3693 314.647 54.772V46.9C314.647 45.7693 314.412 44.948 313.943 44.436C313.495 43.9027 312.78 43.636 311.799 43.636C310.647 43.636 309.719 43.9987 309.015 44.724C308.332 45.4493 307.991 46.42 307.991 47.636V54.772C307.991 55.3693 307.809 55.8387 307.447 56.18C307.084 56.5213 306.593 56.692 305.975 56.692C305.356 56.692 304.865 56.5213 304.503 56.18C304.161 55.8387 303.991 55.3693 303.991 54.772V35.636C303.991 35.0813 304.172 34.6333 304.535 34.292C304.919 33.9507 305.409 33.78 306.007 33.78C306.604 33.78 307.084 33.94 307.447 34.26C307.809 34.58 307.991 35.0173 307.991 35.572V43.028C308.524 42.196 309.228 41.5667 310.103 41.14C310.999 40.692 312.012 40.468 313.143 40.468ZM348.741 33.78C349.36 33.78 349.85 33.972 350.213 34.356C350.576 34.7187 350.757 35.2093 350.757 35.828V54.612C350.757 55.2307 350.565 55.732 350.181 56.116C349.818 56.5 349.338 56.692 348.741 56.692C348.122 56.692 347.632 56.5 347.269 56.116C346.906 55.732 346.725 55.2307 346.725 54.612V46.708H335.173V54.612C335.173 55.2307 334.981 55.732 334.597 56.116C334.234 56.5 333.744 56.692 333.125 56.692C332.528 56.692 332.037 56.5 331.653 56.116C331.29 55.732 331.109 55.2307 331.109 54.612V35.828C331.109 35.2093 331.29 34.7187 331.653 34.356C332.016 33.972 332.506 33.78 333.125 33.78C333.744 33.78 334.234 33.972 334.597 34.356C334.981 34.7187 335.173 35.2093 335.173 35.828V43.38H346.725V35.828C346.725 35.2093 346.906 34.7187 347.269 34.356C347.632 33.972 348.122 33.78 348.741 33.78ZM367.321 52.212C367.684 52.212 367.972 52.3507 368.185 52.628C368.42 52.9053 368.537 53.2787 368.537 53.748C368.537 54.4093 368.142 54.964 367.353 55.412C366.628 55.8173 365.806 56.148 364.889 56.404C363.972 56.6387 363.097 56.756 362.265 56.756C359.748 56.756 357.753 56.0307 356.281 54.58C354.809 53.1293 354.073 51.1453 354.073 48.628C354.073 47.028 354.393 45.6093 355.033 44.372C355.673 43.1347 356.569 42.1747 357.721 41.492C358.894 40.8093 360.217 40.468 361.689 40.468C363.097 40.468 364.324 40.7773 365.369 41.396C366.414 42.0147 367.225 42.8893 367.801 44.02C368.377 45.1507 368.665 46.484 368.665 48.02C368.665 48.9373 368.26 49.396 367.449 49.396H358.009C358.137 50.868 358.553 51.956 359.257 52.66C359.961 53.3427 360.985 53.684 362.329 53.684C363.012 53.684 363.609 53.5987 364.121 53.428C364.654 53.2573 365.252 53.0227 365.913 52.724C366.553 52.3827 367.022 52.212 367.321 52.212ZM361.785 43.284C360.697 43.284 359.822 43.6253 359.161 44.308C358.521 44.9907 358.137 45.972 358.009 47.252H365.241C365.198 45.9507 364.878 44.9693 364.281 44.308C363.684 43.6253 362.852 43.284 361.785 43.284ZM380.353 40.532C380.908 40.4893 381.345 40.6067 381.665 40.884C381.985 41.1613 382.145 41.5773 382.145 42.132C382.145 42.708 382.006 43.1347 381.729 43.412C381.452 43.6893 380.95 43.8707 380.225 43.956L379.265 44.052C378.006 44.18 377.078 44.6067 376.481 45.332C375.905 46.0573 375.617 46.964 375.617 48.052V54.772C375.617 55.3907 375.425 55.8707 375.041 56.212C374.657 56.532 374.177 56.692 373.601 56.692C373.025 56.692 372.545 56.532 372.161 56.212C371.798 55.8707 371.617 55.3907 371.617 54.772V42.388C371.617 41.7907 371.798 41.332 372.161 41.012C372.545 40.692 373.014 40.532 373.569 40.532C374.124 40.532 374.572 40.692 374.913 41.012C375.254 41.3107 375.425 41.748 375.425 42.324V43.604C375.83 42.6653 376.428 41.94 377.217 41.428C378.028 40.916 378.924 40.628 379.905 40.564L380.353 40.532ZM390.37 56.756C388.77 56.756 387.362 56.4253 386.146 55.764C384.952 55.1027 384.024 54.1533 383.362 52.916C382.701 51.6787 382.37 50.2387 382.37 48.596C382.37 46.9533 382.701 45.524 383.362 44.308C384.024 43.0707 384.952 42.1213 386.146 41.46C387.362 40.7987 388.77 40.468 390.37 40.468C391.97 40.468 393.368 40.7987 394.562 41.46C395.778 42.1213 396.706 43.0707 397.346 44.308C398.008 45.524 398.338 46.9533 398.338 48.596C398.338 50.2387 398.008 51.6787 397.346 52.916C396.706 54.1533 395.778 55.1027 394.562 55.764C393.368 56.4253 391.97 56.756 390.37 56.756ZM390.338 53.652C391.64 53.652 392.632 53.2253 393.314 52.372C393.997 51.5187 394.338 50.26 394.338 48.596C394.338 46.9533 393.997 45.7053 393.314 44.852C392.632 43.9773 391.65 43.54 390.37 43.54C389.09 43.54 388.098 43.9773 387.394 44.852C386.712 45.7053 386.37 46.9533 386.37 48.596C386.37 50.26 386.712 51.5187 387.394 52.372C388.077 53.2253 389.058 53.652 390.338 53.652ZM415.241 53.396C415.667 53.8013 415.881 54.26 415.881 54.772C415.881 55.2627 415.699 55.7 415.337 56.084C414.995 56.468 414.59 56.66 414.121 56.66C413.651 56.66 413.214 56.468 412.809 56.084L405.321 49.3V54.772C405.321 55.3907 405.129 55.86 404.745 56.18C404.361 56.5 403.881 56.66 403.305 56.66C402.729 56.66 402.249 56.5 401.865 56.18C401.502 55.86 401.321 55.3907 401.321 54.772V35.668C401.321 35.0493 401.502 34.58 401.865 34.26C402.249 33.94 402.729 33.78 403.305 33.78C403.881 33.78 404.361 33.94 404.745 34.26C405.129 34.58 405.321 35.0493 405.321 35.668V47.7L412.169 41.14C412.553 40.756 412.99 40.564 413.481 40.564C413.971 40.564 414.398 40.7453 414.761 41.108C415.123 41.4707 415.305 41.8973 415.305 42.388C415.305 42.8787 415.102 43.3267 414.697 43.732L409.673 48.404L415.241 53.396ZM430.509 40.532C431.128 40.532 431.618 40.7027 431.981 41.044C432.344 41.3853 432.525 41.844 432.525 42.42V54.836C432.525 55.3907 432.333 55.8387 431.949 56.18C431.586 56.5213 431.106 56.692 430.509 56.692C429.933 56.692 429.474 56.532 429.133 56.212C428.792 55.892 428.621 55.4547 428.621 54.9V54.1C428.13 54.9533 427.469 55.6147 426.637 56.084C425.805 56.532 424.866 56.756 423.821 56.756C419.981 56.756 418.061 54.6013 418.061 50.292V42.42C418.061 41.844 418.242 41.3853 418.605 41.044C418.968 40.7027 419.448 40.532 420.045 40.532C420.664 40.532 421.154 40.7027 421.517 41.044C421.88 41.3853 422.061 41.844 422.061 42.42V50.324C422.061 51.4333 422.285 52.2547 422.733 52.788C423.181 53.3213 423.885 53.588 424.845 53.588C425.954 53.588 426.84 53.2253 427.501 52.5C428.184 51.7533 428.525 50.772 428.525 49.556V42.42C428.525 41.844 428.706 41.3853 429.069 41.044C429.432 40.7027 429.912 40.532 430.509 40.532Z" fill="white"/>
<defs>
<clipPath id="clip0">
<rect width="44" height="50" fill="white" transform="translate(32 20.5)"/>
</clipPath>
</defs>
</svg>
