<svg width="618" height="554" viewBox="0 0 618 554" fill="none" xmlns="http://www.w3.org/2000/svg">
<path fill-rule="evenodd" clip-rule="evenodd" d="M217.132 408.953C219.76 325.072 262.411 178.423 421.644 130.083C423.771 129.437 425.289 127.471 425.289 125.247V5.07104C425.289 0.61652 430.674 -1.61432 433.824 1.53551L615.753 183.464C617.706 185.417 617.706 188.583 615.753 190.536L433.824 372.464C430.674 375.614 425.289 373.383 425.289 368.929V246.333C425.289 243.445 422.881 241.147 420.017 241.515C377.976 246.909 290.163 286.948 226.173 410.904C223.782 415.535 216.969 414.163 217.132 408.953ZM25 148C11.1929 148 0 159.193 0 173V529C0 542.807 11.1929 554 25 554H381C394.807 554 406 542.807 406 529V411.181C406 397.374 394.807 386.181 381 386.181C367.193 386.181 356 397.374 356 411.181V504H50V198H238.6C252.407 198 263.6 186.807 263.6 173C263.6 159.193 252.407 148 238.6 148H25Z" fill="black"/>
</svg>
