<svg width="24" height="24" viewBox="0 0 24 24" fill="none" xmlns="http://www.w3.org/2000/svg">
<path d="M5.08569 10.6172H10.8343L7.06855 1.71436L18.9143 13.3829H13.1657L16.9314 22.2858L5.08569 10.6172Z" fill="url(#paint0_radial)"/>
<path d="M6.03418 11.0057L15.8056 20.6343L12.5713 12.9943H17.9599L8.18847 3.36572L11.4228 11.0057H6.03418Z" fill="url(#paint1_radial)"/>
<path d="M18.9143 13.3829L7.06855 1.71436L10.84 10.6172H5.08569L16.9314 22.2858L13.16 13.3829H18.9143ZM15.8114 20.6344L6.03998 11.0058H11.4285L8.18855 3.36578L17.96 12.9944H12.5714L15.8114 20.6344Z" fill="url(#paint2_radial)"/>
<path opacity="0.24" d="M5.08569 10.6172H10.8343L7.06855 1.71436L18.9143 13.3829H13.1657L16.9314 22.2858L5.08569 10.6172Z" fill="url(#paint3_radial)"/>
<path d="M5.08569 10.6172H10.8343L7.06855 1.71436L18.9143 13.3829H13.1657L16.9314 22.2858L5.08569 10.6172Z" fill="url(#paint4_radial)"/>
<path d="M5.08569 10.6172H10.8343L7.06855 1.71436L18.9143 13.3829H13.1657L16.9314 22.2858L5.08569 10.6172Z" fill="url(#paint5_radial)"/>
<path opacity="0.24" d="M5.08569 10.6172H10.8343L7.06855 1.71436L18.9143 13.3829H13.1657L16.9314 22.2858L5.08569 10.6172Z" fill="url(#paint6_radial)"/>
<defs>
<radialGradient id="paint0_radial" cx="0" cy="0" r="1" gradientUnits="userSpaceOnUse" gradientTransform="translate(7.64003 5.61185) scale(12.9107 12.9184)">
<stop stop-color="#FFE343"/>
<stop offset="0.5492" stop-color="#FFE241"/>
<stop offset="0.7469" stop-color="#FFDF3A"/>
<stop offset="0.8874" stop-color="#FEDA2F"/>
<stop offset="1" stop-color="#FED31E"/>
</radialGradient>
<radialGradient id="paint1_radial" cx="0" cy="0" r="1" gradientUnits="userSpaceOnUse" gradientTransform="translate(10.0946 5.6507) scale(15.1161 15.1252)">
<stop stop-color="#FFEC5F"/>
<stop offset="1" stop-color="#FFEC5F" stop-opacity="0"/>
</radialGradient>
<radialGradient id="paint2_radial" cx="0" cy="0" r="1" gradientUnits="userSpaceOnUse" gradientTransform="translate(28.5966 19.7977) scale(35.0717 35.0928)">
<stop stop-color="#D86D00"/>
<stop offset="0.3292" stop-color="#DC6C0A" stop-opacity="0.6708"/>
<stop offset="0.8792" stop-color="#E86823" stop-opacity="0.1208"/>
<stop offset="1" stop-color="#EB672A" stop-opacity="0"/>
</radialGradient>
<radialGradient id="paint3_radial" cx="0" cy="0" r="1" gradientUnits="userSpaceOnUse" gradientTransform="translate(11.4258 1.47305) rotate(71.7336) scale(27.0963 11.2853)">
<stop stop-color="white"/>
<stop offset="1" stop-color="white" stop-opacity="0"/>
</radialGradient>
<radialGradient id="paint4_radial" cx="0" cy="0" r="1" gradientUnits="userSpaceOnUse" gradientTransform="translate(18.5501 2.18091) scale(19.3495 19.3611)">
<stop stop-color="#FF8000" stop-opacity="0"/>
<stop offset="0.5434" stop-color="#FD7F00" stop-opacity="0.5434"/>
<stop offset="0.7391" stop-color="#F67C00" stop-opacity="0.7391"/>
<stop offset="0.8781" stop-color="#EB7600" stop-opacity="0.8781"/>
<stop offset="0.9903" stop-color="#DA6E00" stop-opacity="0.9903"/>
<stop offset="1" stop-color="#D86D00"/>
</radialGradient>
<radialGradient id="paint5_radial" cx="0" cy="0" r="1" gradientUnits="userSpaceOnUse" gradientTransform="translate(12.1859 14.0065) rotate(58.3384) scale(6.92754 3.30027)">
<stop stop-color="#FFEC5F"/>
<stop offset="1" stop-color="#FFEC5F" stop-opacity="0"/>
</radialGradient>
<radialGradient id="paint6_radial" cx="0" cy="0" r="1" gradientUnits="userSpaceOnUse" gradientTransform="translate(10.4845 7.00215) rotate(58.3384) scale(6.92754 3.30027)">
<stop stop-color="white"/>
<stop offset="1" stop-color="white" stop-opacity="0"/>
</radialGradient>
</defs>
</svg>
