<svg width="24" height="24" viewBox="0 0 24 24" fill="none" xmlns="http://www.w3.org/2000/svg">
<path d="M7.7543 19.503C7.54859 19.9373 7.18859 20.2801 6.73716 20.4516L2.08002 22.2744C1.86288 22.3316 1.66859 22.1316 1.72002 21.9144L3.54288 17.2573C3.72002 16.8116 4.05716 16.4459 4.49145 16.2402L10.6172 13.3716L7.7543 19.503Z" fill="url(#paint0_linear)"/>
<path d="M7.7543 19.503C7.54859 19.9373 7.18859 20.2801 6.73716 20.4516L2.08002 22.2744C1.86288 22.3316 1.66859 22.1316 1.72002 21.9144L3.54288 17.2573C3.72002 16.8116 4.05716 16.4459 4.49145 16.2402L10.6172 13.3716L7.7543 19.503Z" fill="url(#paint1_linear)"/>
<g opacity="0.5">
<path opacity="0.5" d="M4.94864 20.6057L5.0115 20.5657C4.86864 20.3372 4.52579 20.1943 4.09721 20.0115C3.69721 19.84 3.22293 19.64 2.74293 19.3086L2.71436 19.3772C3.19436 19.7086 3.66864 19.9086 4.06293 20.08C4.48579 20.2572 4.81721 20.3943 4.94864 20.6057Z" fill="#E89043"/>
<path opacity="0.5" d="M5.49144 20.0346C5.14858 19.8118 4.8743 19.7718 4.61144 19.7375C4.18287 19.6746 3.74287 19.6175 2.97144 18.7261L2.94287 18.8004C3.7143 19.6804 4.16573 19.7432 4.60001 19.8061C4.86858 19.8461 5.12001 19.8804 5.45144 20.0918C5.78858 20.3089 5.92001 20.5775 5.90287 20.7775L5.97715 20.7489C5.98287 20.5318 5.8343 20.2575 5.49144 20.0346Z" fill="#E89043"/>
<path opacity="0.5" d="M6.71436 18.7316C6.76579 18.823 6.76579 18.903 6.7315 18.9659C6.68007 19.0516 6.48579 19.183 5.79436 19.1487C4.70293 19.0916 3.7715 18.6802 3.13721 18.3259L3.10864 18.3945C3.74864 18.7545 4.68579 19.1659 5.78864 19.223C6.34864 19.2516 6.68579 19.1773 6.79436 19.0059C6.84579 18.9202 6.84579 18.8173 6.78293 18.703C6.60579 18.3716 5.9715 17.943 5.1315 17.5887C4.64007 17.383 4.1315 17.2173 3.61721 17.103L3.58864 17.1716C5.11436 17.5087 6.4515 18.2345 6.71436 18.7316Z" fill="#E89043"/>
<path opacity="0.5" d="M4.22298 18.2117C4.13726 18.1717 4.04012 18.126 3.94298 18.0803C3.76012 17.9888 3.56012 17.8917 3.33155 17.7945L3.30298 17.8631C3.52584 17.9545 3.72584 18.0574 3.90869 18.1431C4.00584 18.1888 4.09726 18.2345 4.18869 18.2803C4.42298 18.3888 4.53726 18.3431 4.58869 18.3031C4.64583 18.2574 4.66869 18.1888 4.65726 18.1088C4.64012 17.9945 4.53726 17.8403 4.30869 17.7603L4.28584 17.8288C4.48583 17.8974 4.57155 18.0231 4.58869 18.1203C4.60012 18.1774 4.58298 18.2174 4.54869 18.246C4.48583 18.2917 4.37155 18.2803 4.22298 18.2117Z" fill="#E89043"/>
<path opacity="0.5" d="M2.49708 19.937L2.46851 20.0056C3.05136 20.4856 3.63422 21.0456 3.89708 21.5599L3.95993 21.537C3.69136 20.9999 3.09136 20.4284 2.49708 19.937Z" fill="#E89043"/>
<path opacity="0.5" d="M6.54296 19.8058C6.20582 19.6801 5.88582 19.5658 5.57725 19.543L5.57153 19.6173C5.86868 19.6344 6.18296 19.7487 6.51439 19.8744C6.79439 19.9773 7.08582 20.0801 7.37154 20.1315C7.38868 20.1144 7.40582 20.0915 7.42868 20.0687C7.13153 20.023 6.83439 19.9144 6.54296 19.8058Z" fill="#E89043"/>
<path opacity="0.5" d="M2.32008 20.3945L2.2915 20.4631C2.54293 20.5717 2.72579 20.6917 2.72579 20.6917L2.76579 20.6288C2.75436 20.6231 2.5715 20.5031 2.32008 20.3945Z" fill="#E89043"/>
<path opacity="0.5" d="M3.10286 19.9717C2.94857 19.846 2.79428 19.7146 2.63428 19.5889L2.60571 19.6574C2.76 19.7774 2.90857 19.9032 3.05714 20.0232C3.40571 20.3146 3.73143 20.5889 4.14286 20.8117C4.45143 20.9832 4.72 21.0917 4.94857 21.1489L5.06857 21.1032C4.82285 21.0517 4.52571 20.9432 4.17714 20.7489C3.77714 20.5317 3.45143 20.2632 3.10286 19.9717Z" fill="#E89043"/>
</g>
<path d="M16.6913 8.81721L6.90846 18.6001C6.86275 18.6458 6.8056 18.6801 6.73703 18.6915L5.65703 18.8801C5.33703 18.9372 5.06275 18.6572 5.11989 18.3429L5.31417 17.2572C5.3256 17.1944 5.35417 17.1315 5.4056 17.0858L15.1827 7.30864C15.3085 7.18293 15.5085 7.18293 15.6342 7.30864L16.6913 8.36578C16.817 8.4915 16.817 8.6915 16.6913 8.81721Z" fill="url(#paint2_linear)"/>
<path d="M15.4116 7.08024L5.33155 17.1602C5.33155 17.1602 5.25155 17.1717 5.22869 17.1774L3.68012 17.4517C3.60012 17.4631 3.53155 17.4117 3.5144 17.3431L3.69726 16.8688C3.77726 16.6688 3.89726 16.4802 4.05155 16.3317L14.3544 6.02881L15.4116 7.08024Z" fill="url(#paint3_linear)"/>
<path d="M16.9201 8.58887L6.84014 18.6689C6.84014 18.6689 6.82871 18.7489 6.823 18.7717L6.54871 20.3203C6.53729 20.4003 6.58871 20.4689 6.65729 20.486L7.13157 20.3032C7.33157 20.2232 7.52014 20.1032 7.66871 19.9489L17.9716 9.64601L16.9201 8.58887Z" fill="url(#paint4_linear)"/>
<path d="M17.0516 8.72567L6.93729 18.84L6.68014 20.2742C6.66871 20.3485 6.70871 20.4171 6.77729 20.4457L6.65729 20.4914C6.58871 20.4742 6.53729 20.4057 6.54871 20.3257L6.823 18.7771C6.82871 18.7542 6.84014 18.6742 6.84014 18.6742L7.00014 18.5142L16.9201 8.59424L17.0516 8.72567Z" fill="url(#paint5_linear)"/>
<path d="M14.2515 5.92585L18.0743 9.74871L20.8115 7.01156C20.8686 6.95442 20.8686 6.86299 20.8115 6.80585L17.2 3.18299C17.1429 3.12585 17.0515 3.12585 16.9943 3.18299L14.2515 5.92585Z" fill="url(#paint6_linear)"/>
<path d="M17.3541 3.34296L17.177 3.20011L18.1256 2.25153C18.8399 1.53725 19.9941 1.53725 20.7084 2.25153L21.7427 3.28582C22.457 4.00011 22.457 5.15439 21.7427 5.86868L20.817 6.80011L17.3541 3.34296Z" fill="url(#paint7_linear)"/>
<path d="M15.6516 7.32569L17.9145 9.58855L20.7545 6.74284L18.4973 4.47998L15.6516 7.32569Z" fill="url(#paint8_linear)"/>
<path d="M18.8458 8.98314L15.023 5.16028C14.6801 5.08599 14.4344 5.33171 14.5087 5.67456L18.3315 9.49742C18.6687 9.57171 18.9201 9.32028 18.8458 8.98314Z" fill="url(#paint9_linear)"/>
<path d="M20.0858 7.73704L16.2629 3.91418C15.9201 3.8399 15.6744 4.08561 15.7487 4.42847L19.5715 8.25133C19.9144 8.33133 20.1601 8.0799 20.0858 7.73704Z" fill="url(#paint10_linear)"/>
<path d="M20.6 7.22288L16.7771 3.40002C16.4342 3.32574 16.1885 3.57145 16.2628 3.91431L20.0857 7.73717C20.4285 7.81717 20.6743 7.56574 20.6 7.22288Z" fill="url(#paint11_linear)"/>
<path d="M19.7144 6.99981C19.2972 6.58266 16.7201 4.00552 16.3029 3.58838C16.2515 3.67981 16.2401 3.78838 16.2629 3.91409L20.0858 7.73695C20.3829 7.80552 20.6115 7.62266 20.6115 7.34838C20.6115 7.56552 20.1601 7.45123 19.7144 6.99981Z" fill="url(#paint12_linear)"/>
<path d="M19.2 7.51446C18.7828 7.09731 16.2057 4.52017 15.7885 4.10303C15.7371 4.19446 15.7257 4.30303 15.7485 4.42874L19.5714 8.2516C19.8685 8.32017 20.0971 8.13732 20.0971 7.86303C20.0971 8.08017 19.6457 7.96589 19.2 7.51446Z" fill="url(#paint13_linear)"/>
<path d="M17.9544 8.7542C17.5372 8.33706 14.9601 5.75992 14.5429 5.34277C14.4915 5.4342 14.4801 5.54277 14.5029 5.66849L18.3258 9.49134C18.6229 9.55991 18.8515 9.37706 18.8515 9.10277C18.8572 9.31991 18.4058 9.20563 17.9544 8.7542Z" fill="url(#paint14_linear)"/>
<path d="M14.5086 5.66895L14.3943 5.78323L18.2171 9.60609L18.3314 9.49752L14.5086 5.66895Z" fill="url(#paint15_linear)"/>
<path d="M15.7486 4.42871L15.6343 4.543L19.4571 8.36585L19.5714 8.25157L15.7486 4.42871Z" fill="url(#paint16_linear)"/>
<path d="M20.0856 7.73708L16.2627 3.91422C16.177 3.89708 16.097 3.89708 16.0227 3.91422L19.9541 7.84565C19.9941 7.88565 20.0399 7.91423 20.0913 7.93137C20.1027 7.87994 20.1027 7.81137 20.0856 7.73708Z" fill="url(#paint17_linear)"/>
<path d="M3.60573 21.68L2.08002 22.2742C1.86288 22.3314 1.66859 22.1314 1.72002 21.9142L2.1543 20.8057C2.57716 21.1771 3.09716 21.4628 3.60573 21.68Z" fill="url(#paint18_linear)"/>
<path d="M6.82867 18.6746L6.98295 18.5317L6.66867 20.2746C6.65724 20.3489 6.69724 20.4175 6.76581 20.446L6.64581 20.4917C6.57724 20.4746 6.52581 20.406 6.53724 20.326L6.81152 18.7775C6.81724 18.7546 6.82867 18.6746 6.82867 18.6746Z" fill="url(#paint19_linear)"/>
<path d="M5.23438 18.7315C5.31437 18.8744 5.56009 18.8972 5.66295 18.8801L6.84009 18.6744L16.9201 8.59436L16.8287 8.50293L6.8458 18.4801L6.8058 18.4858L5.68009 18.6858L5.23438 18.7315Z" fill="url(#paint20_linear)"/>
<path d="M5.2343 18.7315L5.50859 17.1944L5.5143 17.1544L15.4972 7.17151L15.4057 7.08008L5.33145 17.1601L5.12573 18.3372" fill="url(#paint21_linear)"/>
<path d="M15.2743 6.94873L5.15997 17.063L3.72569 17.3202C3.6514 17.3316 3.58283 17.2916 3.55426 17.223L3.50854 17.343C3.52569 17.4116 3.59426 17.463 3.67426 17.4516L5.22283 17.1773C5.24569 17.1716 5.32569 17.1602 5.32569 17.1602L5.48569 17.0002L15.4114 7.08016L15.2743 6.94873Z" fill="url(#paint22_linear)"/>
<path d="M15.4116 7.08024L5.33155 17.1602C5.33155 17.1602 5.25155 17.1717 5.22869 17.1774L3.68012 17.4517C3.60012 17.4631 3.53155 17.4117 3.5144 17.3431L3.69726 16.8688C3.77726 16.6688 3.89726 16.4802 4.05155 16.3317L14.3544 6.02881L15.4116 7.08024Z" fill="url(#paint23_linear)"/>
<path d="M16.9201 8.58887L6.84014 18.6689C6.84014 18.6689 6.82871 18.7489 6.823 18.7717L6.54871 20.3203C6.53729 20.4003 6.58871 20.4689 6.65729 20.486L7.13157 20.3032C7.33157 20.2232 7.52014 20.1032 7.66871 19.9489L17.9716 9.64601L16.9201 8.58887Z" fill="url(#paint24_linear)"/>
<path d="M20.8171 6.80001L21.7543 5.86286C22.2229 5.39429 22.3829 4.73143 22.2343 4.12572L21.8286 4.53143C21.2571 5.10286 20.4229 5.19429 19.96 4.73143L17.8057 2.57715L17.1829 3.20001L17.36 3.34286L20.8171 6.80001Z" fill="url(#paint25_linear)"/>
<path d="M19.9544 4.73715C20.4173 5.2 21.2516 5.10858 21.823 4.53715L22.1373 4.22286L20.9716 3.05143C20.1716 2.25143 18.9258 2.17143 18.0344 2.81715L19.9544 4.73715Z" fill="url(#paint26_linear)"/>
<path d="M21.1658 4.45117L21.1544 4.45689H21.1487V4.4626C21.1373 4.47974 21.143 4.49117 21.1487 4.49689V4.5026C21.1487 4.50831 21.1487 4.50831 21.1544 4.50831L21.1601 4.51403H21.183L21.2001 4.49689V4.47974L21.1944 4.47403C21.1887 4.45689 21.183 4.45117 21.1658 4.45117Z" fill="#EF4A4A"/>
<path d="M21.3316 4.6626L21.3145 4.67403C21.3145 4.67403 21.3145 4.67403 21.3088 4.67403C21.3031 4.67403 21.3031 4.67974 21.3031 4.67974L21.2974 4.69688V4.7026C21.3031 4.70831 21.3088 4.71403 21.3145 4.71403H21.3316L21.3374 4.70831L21.3431 4.7026C21.3488 4.69688 21.3545 4.68546 21.3545 4.67974C21.3545 4.67403 21.3488 4.66831 21.3431 4.6626H21.3316Z" fill="#EF4A4A"/>
<path d="M22.0458 4.70248C22.0458 4.70248 22.0515 4.70248 22.0458 4.70248L22.0515 4.69676V4.67962L22.0458 4.6739C22.0401 4.66248 22.023 4.65676 22.0058 4.6739H22.0001L21.9944 4.69676L22.0001 4.70248C22.0058 4.70819 22.0172 4.7139 22.023 4.7139C22.0344 4.7139 22.0458 4.70819 22.0458 4.70248Z" fill="#EF4A4A"/>
<path d="M21.886 4.57709H21.8917C21.8917 4.57709 21.8974 4.57709 21.8974 4.57138C21.9031 4.56566 21.9031 4.56566 21.9031 4.55995C21.9031 4.55995 21.9088 4.55995 21.9088 4.55423C21.9145 4.54852 21.9145 4.53709 21.9088 4.52566L21.9031 4.51995H21.8917V4.53137V4.51995H21.8802C21.8688 4.51423 21.8574 4.51995 21.8517 4.52566C21.8517 4.52566 21.8517 4.53137 21.8459 4.53137V4.53709C21.8459 4.54852 21.8517 4.55423 21.8517 4.55423L21.8574 4.55995C21.8574 4.56566 21.8631 4.56566 21.8631 4.56566C21.8688 4.57709 21.8745 4.5828 21.886 4.57709Z" fill="#EF4A4A"/>
<path d="M21.5144 5.37706C21.5316 5.39421 21.5487 5.38849 21.5544 5.38278H21.5601C21.5601 5.38278 21.5658 5.38278 21.5658 5.37706L21.5716 5.37135C21.5716 5.37135 21.5716 5.37135 21.5773 5.37135L21.583 5.35992V5.35421V5.34849C21.583 5.34278 21.583 5.34278 21.583 5.33707V5.32564V5.31992C21.583 5.31421 21.583 5.30278 21.5716 5.29707C21.5601 5.28564 21.543 5.28564 21.5373 5.29135H21.5316V5.29707C21.5258 5.29707 21.5258 5.30278 21.5201 5.30278L21.5087 5.31421L21.503 5.31992V5.32564L21.4973 5.33135C21.4973 5.33135 21.4973 5.33707 21.4916 5.33707L21.4858 5.34849L21.4916 5.35421V5.35992C21.4916 5.36564 21.4973 5.37135 21.4973 5.37135C21.4973 5.37707 21.4973 5.38278 21.503 5.38849L21.5087 5.39421L21.5144 5.37706Z" fill="#EF4A4A"/>
<path d="M22.0231 4.17692L22.0402 4.18263H22.046C22.0517 4.18263 22.0574 4.17692 22.0574 4.17692C22.0688 4.16549 22.0631 4.15406 22.0574 4.14263C22.0574 4.14263 22.0517 4.14263 22.0517 4.13692C22.0517 4.13692 22.046 4.12549 22.0345 4.12549C22.0231 4.12549 22.0174 4.12549 22.0117 4.1312L22.006 4.13692V4.14835L22.0002 4.16549V4.1712C22.006 4.17692 22.0117 4.18263 22.0174 4.18263C22.0231 4.17692 22.0231 4.17692 22.0231 4.17692Z" fill="#EF4A4A"/>
<path d="M20.6116 6.3252H20.5887H20.5773V6.33091C20.5716 6.33091 20.5659 6.33662 20.5544 6.34234L20.5487 6.34805V6.35377C20.543 6.35948 20.543 6.37091 20.5487 6.38234V6.38805L20.5544 6.39377C20.5601 6.39948 20.5716 6.39948 20.5773 6.40519H20.583L20.5887 6.41091L20.6059 6.39948V6.39377L20.6116 6.39948C20.6116 6.39948 20.6173 6.39948 20.6173 6.39377C20.6116 6.39948 20.6116 6.40519 20.6116 6.41091V6.42805L20.6173 6.43376C20.6287 6.45091 20.6459 6.45091 20.6573 6.43948L20.663 6.43376V6.42805L20.6687 6.41662V6.41091C20.6687 6.40519 20.663 6.39948 20.6573 6.39377C20.6516 6.38805 20.6459 6.38234 20.6459 6.38234H20.6401L20.6287 6.38805C20.6287 6.38805 20.6287 6.38234 20.6344 6.38234C20.6401 6.37662 20.6401 6.37091 20.6401 6.36519C20.6459 6.35948 20.6459 6.35377 20.6459 6.34805V6.34234C20.6287 6.33662 20.6173 6.33091 20.6116 6.3252Z" fill="#EF4A4A"/>
<path d="M21.8516 5.32541V5.31398C21.8573 5.30826 21.8631 5.29684 21.8573 5.28541C21.8573 5.28541 21.8573 5.28541 21.8573 5.27969C21.8573 5.27398 21.8573 5.26826 21.8516 5.26826V5.26255L21.8345 5.25684H21.8288C21.8231 5.25684 21.8231 5.26255 21.8173 5.26255H21.8116L21.8059 5.26826C21.8002 5.26826 21.7945 5.27398 21.7888 5.27398C21.7888 5.27398 21.7888 5.27398 21.7831 5.27969V5.28541V5.29684L21.7773 5.30255V5.32541L21.8059 5.34826L21.8231 5.34255H21.8288C21.8345 5.34255 21.8402 5.33684 21.8402 5.33112C21.8459 5.33112 21.8516 5.32541 21.8516 5.32541Z" fill="#EF4A4A"/>
<path d="M21.7546 4.95402C21.7603 4.95402 21.766 4.94831 21.7718 4.94259C21.7832 4.93116 21.7832 4.91402 21.7832 4.90259V4.89688C21.7718 4.87973 21.7546 4.85688 21.7146 4.87973C21.7089 4.87973 21.7032 4.88545 21.6975 4.88545L21.6917 4.89116V4.89688C21.6917 4.90259 21.686 4.90259 21.686 4.90831C21.686 4.91402 21.686 4.91402 21.686 4.91973C21.686 4.92545 21.686 4.93116 21.686 4.93116V4.93688L21.6917 4.94259C21.7032 4.95402 21.7146 4.95973 21.726 4.95973C21.7318 4.95973 21.7432 4.95973 21.7546 4.95402Z" fill="#EF4A4A"/>
<path d="M21.1886 5.88574C21.1715 5.88574 21.1601 5.89717 21.1486 5.90289C21.1429 5.91431 21.1372 5.92574 21.1372 5.93717V5.9486L21.1543 5.95431C21.1543 5.95431 21.1543 5.95431 21.1601 5.95431C21.1658 5.96003 21.1772 5.96574 21.1943 5.96574L21.2001 5.96003C21.2058 5.95431 21.2058 5.95431 21.2058 5.95431L21.2115 5.9486C21.2172 5.94288 21.2172 5.94289 21.2229 5.93717V5.93146L21.2172 5.91431H21.2115C21.2058 5.9086 21.2001 5.90288 21.2001 5.89717V5.89146L21.1886 5.88574Z" fill="#EF4A4A"/>
<path d="M21.0915 5.97705C21.0857 5.97705 21.08 5.98277 21.08 5.98277L21.0743 5.98848V6.00562C21.0686 6.01705 21.0743 6.02277 21.0743 6.02848V6.03419V6.03991C21.08 6.05134 21.0915 6.05705 21.0915 6.05705H21.0972L21.1143 6.05134V6.04562C21.12 6.03991 21.12 6.03419 21.12 6.02848L21.1315 6.01705V6.01134C21.1315 5.99991 21.1257 5.99419 21.1257 5.98848C21.1257 5.98848 21.1257 5.98848 21.1257 5.98277V5.97705H21.0915Z" fill="#EF4A4A"/>
<path d="M21.3886 5.70835C21.3657 5.70835 21.3657 5.72549 21.3657 5.73121V5.74264L21.3829 5.75406H21.3886C21.4 5.75406 21.4171 5.74835 21.4229 5.73121C21.4229 5.72549 21.4229 5.71978 21.4114 5.70835L21.4057 5.70264L21.3886 5.70835Z" fill="#EF4A4A"/>
<path d="M18.5658 3.85727L18.5601 3.8687V3.87441V3.88013C18.5601 3.90298 18.5715 3.90298 18.5772 3.9087H18.5829C18.5829 3.9087 18.5886 3.9087 18.5943 3.91441H18.6001L18.6172 3.90298V3.88013L18.6058 3.86298H18.6001C18.5886 3.85155 18.5772 3.85155 18.5658 3.85727Z" fill="#EF4A4A"/>
<path d="M18.8229 3.92578L18.8171 3.94864C18.8171 3.94864 18.8171 3.94864 18.8171 3.95435C18.8171 3.96007 18.8171 3.96007 18.8171 3.96007V3.96578L18.8229 3.97721H18.8286C18.8343 3.98292 18.8457 3.98292 18.8514 3.97721L18.8628 3.96578V3.96007V3.95435C18.8628 3.94292 18.8628 3.93721 18.8571 3.9315C18.8514 3.92578 18.8457 3.92578 18.8343 3.92578H18.8229Z" fill="#EF4A4A"/>
<path d="M19.417 3.52579V3.52007V3.51436L19.4056 3.50293H19.3999C19.3885 3.50293 19.3713 3.50293 19.3713 3.52579V3.5315L19.3828 3.55436H19.3885C19.3999 3.55436 19.4056 3.55436 19.4113 3.54864C19.4171 3.54293 19.417 3.5315 19.417 3.52579Z" fill="#EF4A4A"/>
<path d="M19.2116 3.52555L19.2173 3.51984V3.51412C19.2173 3.50841 19.2173 3.50269 19.2173 3.50269V3.49698C19.2173 3.48555 19.2116 3.47984 19.2002 3.47412H19.1944L19.183 3.47984L19.1887 3.49126L19.183 3.48555L19.1773 3.49126C19.1659 3.49698 19.1602 3.50269 19.1602 3.51412V3.51984V3.52555C19.1659 3.53126 19.1716 3.53698 19.1773 3.53698H19.183C19.1887 3.53698 19.1887 3.53698 19.1887 3.53698C19.1944 3.53126 19.2059 3.53126 19.2116 3.52555Z" fill="#EF4A4A"/>
<path d="M20.0914 4.05702L20.0743 4.06273L20.0686 4.07416C20.0628 4.07988 20.0628 4.09131 20.0571 4.10845C20.0571 4.11416 20.0571 4.11416 20.0571 4.11988V4.12559L20.0686 4.13131C20.0686 4.13702 20.0743 4.14273 20.08 4.14845C20.0914 4.15416 20.1086 4.15988 20.12 4.14845C20.1371 4.14273 20.1486 4.13131 20.1486 4.12559L20.1543 4.11988V4.10273C20.1543 4.09702 20.1543 4.09702 20.1543 4.09131V4.08559V4.07988C20.1543 4.07416 20.1486 4.06845 20.1428 4.06845C20.1371 4.06273 20.1314 4.05702 20.1257 4.05702H20.12H20.0914C20.0914 4.05131 20.0914 4.05131 20.0914 4.05702Z" fill="#EF4A4A"/>
<path d="M21.0799 4.7028L21.1028 4.69137V4.68565L21.1085 4.67994L21.097 4.65137H21.0742L21.057 4.6628V4.66851V4.67422C21.0513 4.69137 21.0685 4.7028 21.0799 4.7028Z" fill="#EF4A4A"/>
<path d="M21.5486 4.7084L21.56 4.72555H21.5657C21.5829 4.73126 21.5943 4.71983 21.6 4.71412L21.6057 4.7084L21.6 4.68555L21.5943 4.67983H21.5886C21.56 4.67412 21.5543 4.69126 21.5486 4.7084Z" fill="#EF4A4A"/>
<path d="M21.16 4.50284V4.49141C21.1543 4.47998 21.1371 4.47998 21.1314 4.47998C21.12 4.47998 21.1143 4.49141 21.1143 4.50284V4.50855L21.1314 4.5257H21.1371C21.1428 4.5257 21.1543 4.53141 21.16 4.51998C21.16 4.51427 21.16 4.50855 21.16 4.50284Z" fill="#EF4A4A"/>
<path d="M19.3999 4.38267C19.4228 4.38838 19.4342 4.37124 19.4342 4.35981V4.3541C19.4342 4.3541 19.4342 4.34838 19.4399 4.34838V4.34267C19.4399 4.34267 19.4399 4.34267 19.4399 4.33696V4.32553C19.4399 4.32553 19.4399 4.31981 19.4342 4.31981C19.4342 4.3141 19.4285 4.3141 19.4285 4.30838V4.30267L19.4228 4.29124L19.4171 4.28553C19.4114 4.27981 19.4056 4.2741 19.3942 4.2741C19.3771 4.26839 19.3656 4.28553 19.3599 4.29124L19.3542 4.29696V4.30267C19.3542 4.30838 19.3485 4.30838 19.3485 4.3141L19.3428 4.33124V4.33696L19.3485 4.34267C19.3485 4.34267 19.3485 4.34838 19.3485 4.3541V4.35981V4.37124H19.3542C19.3542 4.37124 19.3542 4.37696 19.3599 4.37696C19.3656 4.38267 19.3656 4.38267 19.3713 4.38267C19.3771 4.38838 19.3771 4.38838 19.3885 4.3941H19.3942L19.3999 4.38267Z" fill="#EF4A4A"/>
<path d="M20.2572 4.42871L20.24 4.43443C20.2343 4.43443 20.2343 4.43443 20.2286 4.44014L20.2229 4.45157C20.2229 4.45728 20.2286 4.46871 20.2343 4.47442C20.2458 4.48014 20.2629 4.48585 20.28 4.46871L20.2858 4.463L20.28 4.45157C20.28 4.44585 20.2743 4.43443 20.2572 4.42871Z" fill="#EF4A4A"/>
<path d="M19.8744 4.44522L19.8687 4.42808H19.863C19.863 4.42808 19.8573 4.42236 19.8516 4.42236H19.8459L19.8287 4.42808L19.823 4.43951C19.823 4.45665 19.8344 4.46808 19.8459 4.46808C19.863 4.46808 19.8687 4.45665 19.8744 4.44522Z" fill="#EF4A4A"/>
<path d="M19.6059 3.15387L19.6231 3.14815C19.6288 3.14244 19.6288 3.14244 19.6288 3.13672C19.6288 3.1253 19.6174 3.11387 19.6059 3.11387H19.6002H19.5945C19.5945 3.11387 19.5831 3.10815 19.5773 3.11387C19.5659 3.11958 19.5659 3.1253 19.5659 3.13101V3.13672L19.5716 3.14815C19.5716 3.14815 19.5716 3.14815 19.5716 3.15387V3.15958L19.5773 3.17672H19.5831C19.5831 3.1653 19.5888 3.1653 19.6059 3.15387C19.6002 3.15958 19.6002 3.15958 19.6059 3.15387Z" fill="#EF4A4A"/>
<path d="M19.6173 5.47413L19.6287 5.46271V5.44556L19.623 5.43985C19.623 5.43413 19.6173 5.42842 19.6173 5.42842C19.6173 5.42271 19.6116 5.41699 19.6059 5.41699H19.6002L19.5887 5.42842C19.5887 5.42842 19.5887 5.42842 19.583 5.42842C19.5602 5.42842 19.5602 5.43985 19.5544 5.45128C19.5544 5.46271 19.5602 5.46842 19.5602 5.47413L19.5659 5.47985L19.5716 5.48556L19.5773 5.49128H19.5944C19.6059 5.47985 19.6173 5.47413 19.6173 5.47413Z" fill="#EF4A4A"/>
<path d="M20.5488 3.83398C20.5316 3.83398 20.5202 3.8397 20.5202 3.84541L20.5145 3.85113V3.85684V3.86827V3.87398H20.5088C20.5088 3.8797 20.5145 3.88541 20.5202 3.89113C20.5202 3.90256 20.5316 3.90827 20.5374 3.90827H20.5431H20.5488C20.5545 3.90827 20.5545 3.91398 20.5602 3.91398L20.5716 3.9197H20.5945L20.6116 3.90827V3.90256C20.6116 3.90256 20.6116 3.90256 20.6116 3.89684C20.6116 3.89684 20.6116 3.89113 20.6116 3.88541C20.6116 3.8797 20.6116 3.87398 20.6116 3.86827L20.6002 3.86256H20.5945C20.5888 3.86256 20.5888 3.86256 20.5831 3.86256C20.5831 3.85684 20.5774 3.85113 20.5716 3.84541C20.5659 3.84541 20.5602 3.8397 20.5488 3.84541L20.5431 3.8397L20.5488 3.83398Z" fill="#EF4A4A"/>
<path d="M20.7143 3.36005L20.7257 3.35434V3.34863C20.7257 3.34291 20.7257 3.34291 20.7257 3.3372C20.7257 3.33148 20.7257 3.32577 20.7257 3.32577V3.32005V3.31434C20.7257 3.30863 20.7257 3.30863 20.72 3.30291V3.2972H20.7143L20.7029 3.28005C20.6972 3.27434 20.6915 3.26863 20.68 3.27434C20.6743 3.27434 20.6686 3.28005 20.6629 3.28577V3.29148H20.6572V3.2972C20.6572 3.2972 20.6572 3.2972 20.6572 3.30291C20.6515 3.30863 20.6458 3.31434 20.6458 3.32005C20.6458 3.32577 20.6458 3.33148 20.6515 3.3372V3.34863H20.6686C20.6686 3.34863 20.6743 3.35434 20.6858 3.35434L20.6915 3.36005H20.7143Z" fill="#EF4A4A"/>
<path d="M21.0401 6.18849C21.0458 6.18849 21.0572 6.18849 21.063 6.18849L21.0687 6.18278V6.16563V6.15992H21.063C21.063 6.15421 21.0572 6.14849 21.0515 6.14278V6.13706H21.0401V6.13135L21.0115 6.13706C21.0058 6.13706 20.9944 6.14278 20.9944 6.15992V6.16563L21.0001 6.18278H21.0058V6.18849L21.023 6.19421H21.0287L21.0344 6.18849C21.0344 6.18849 21.0344 6.18849 21.0401 6.18849Z" fill="#EF4A4A"/>
<path d="M21.0344 2.94824L21.0229 2.95967V2.96538C21.0229 2.97681 21.0229 2.98824 21.0229 2.99396V2.99967V3.00538L21.0344 3.02253H21.0401C21.063 3.02253 21.0801 3.0111 21.0915 2.98824L21.0972 2.98253L21.0858 2.9711V2.96538C21.0801 2.95967 21.0744 2.95967 21.0687 2.95967C21.0572 2.94824 21.0515 2.94824 21.0344 2.94824Z" fill="#EF4A4A"/>
<path d="M21.2915 3.53096C21.2858 3.53096 21.2801 3.53096 21.2744 3.53096L21.2629 3.53667V3.54239C21.2629 3.55953 21.2744 3.57096 21.2858 3.57096L21.2915 3.57668H21.2972C21.3029 3.57668 21.3086 3.57668 21.3144 3.57668C21.3201 3.58239 21.3201 3.58239 21.3258 3.58239H21.3315L21.3486 3.57096V3.56525C21.3486 3.5481 21.3372 3.53667 21.3201 3.53096C21.3201 3.52525 21.3086 3.51953 21.2972 3.51953C21.2972 3.52525 21.2915 3.52525 21.2915 3.53096Z" fill="#EF4A4A"/>
<path d="M20.1773 2.91988C20.1773 2.91988 20.1773 2.91417 20.1773 2.90845C20.1773 2.90274 20.1773 2.89703 20.1773 2.89703V2.89131L20.1658 2.87988H20.1601C20.1544 2.87988 20.143 2.87988 20.1373 2.8856C20.1315 2.8856 20.1315 2.89131 20.1315 2.90274V2.90845C20.1258 2.90845 20.1201 2.91988 20.1201 2.93131V2.93703L20.1258 2.94274V2.95417L20.1373 2.97131H20.143C20.1601 2.97703 20.1715 2.9656 20.1773 2.9656H20.183L20.1773 2.91988Z" fill="#EF4A4A"/>
<path d="M21.6059 3.31436V3.30865L21.5887 3.2915H21.583C21.5659 3.2915 21.5544 3.30293 21.5544 3.31436V3.32008V3.32579V3.3315V3.33722L21.5659 3.34865H21.583L21.6002 3.33722L21.6059 3.31436Z" fill="#EF4A4A"/>
<path d="M21.4115 3.66866C21.4058 3.67437 21.4058 3.67437 21.4058 3.68008V3.6858L21.4172 3.70866H21.4229C21.4343 3.70866 21.44 3.70865 21.4458 3.70294C21.4515 3.69723 21.4572 3.69151 21.4572 3.6858C21.4572 3.68008 21.4572 3.66866 21.4515 3.66294L21.4458 3.65723L21.4229 3.66294L21.4115 3.66866Z" fill="#EF4A4A"/>
<path d="M20.6 3.07422C20.5943 3.07993 20.5886 3.08565 20.5886 3.09136V3.09708C20.5829 3.10279 20.5771 3.1085 20.5771 3.11422V3.11993L20.5886 3.13136C20.5886 3.13708 20.5943 3.1485 20.6057 3.1485C20.6114 3.1485 20.6114 3.1485 20.6171 3.1485C20.6229 3.1485 20.6286 3.1485 20.6286 3.1485C20.6343 3.14279 20.64 3.13708 20.64 3.13136V3.12565C20.6457 3.11993 20.6514 3.11422 20.6514 3.1085C20.6514 3.10279 20.6514 3.09136 20.6343 3.08565H20.6286C20.6229 3.08565 20.6229 3.08565 20.6229 3.08565C20.6229 3.08565 20.6172 3.07993 20.6114 3.07993H20.6057L20.6 3.07422Z" fill="#EF4A4A"/>
<path d="M20.3315 5.89703L20.32 5.90845C20.3143 5.91417 20.3086 5.91988 20.3086 5.93131C20.3086 5.93703 20.3086 5.94274 20.3143 5.94845C20.32 5.95417 20.32 5.95417 20.3257 5.95417H20.3315H20.3543L20.36 5.94845C20.3657 5.94274 20.3657 5.93703 20.3657 5.93131C20.3715 5.91988 20.3772 5.91417 20.3772 5.90845V5.90274L20.3657 5.87988H20.36C20.3486 5.87988 20.3372 5.87988 20.3315 5.87988V5.89703Z" fill="#EF4A4A"/>
<path d="M19.8001 5.26841C19.7944 5.26841 19.783 5.27412 19.783 5.29127V5.29698L19.8001 5.30841H19.8058C19.8115 5.30841 19.8172 5.30841 19.823 5.30841C19.8287 5.30841 19.8401 5.30841 19.8458 5.30841H19.8515L19.863 5.29698V5.29127C19.863 5.27412 19.8573 5.2627 19.8344 5.2627C19.8344 5.2627 19.8344 5.2627 19.8287 5.2627H19.823L19.8001 5.26841Z" fill="#EF4A4A"/>
<path d="M21.9258 4.46826C21.9258 4.47398 21.9258 4.47398 21.9258 4.46826C21.9201 4.46826 21.9201 4.46826 21.9144 4.46826H21.9029C21.8972 4.46826 21.8972 4.47398 21.8915 4.47398H21.8858L21.8744 4.49112V4.49683V4.50255C21.8744 4.50255 21.8744 4.50255 21.8744 4.50826C21.8744 4.50826 21.8687 4.51398 21.8687 4.51969V4.5254C21.8687 4.53112 21.8687 4.53683 21.8744 4.54255V4.54826V4.55398L21.8801 4.5654H21.8858C21.8915 4.5654 21.8972 4.57112 21.9029 4.5654H21.9144C21.9258 4.5654 21.9372 4.5654 21.9544 4.5654H21.9601L21.9715 4.55969V4.55398V4.54826L21.9772 4.53683V4.53112C21.9772 4.5254 21.9772 4.5254 21.9772 4.51969C21.9772 4.50255 21.9715 4.47398 21.9429 4.46826H21.9258Z" fill="#EF4A4A"/>
<path d="M20.8114 4.1939H20.8057L20.7943 4.19961C20.7943 4.20533 20.7886 4.20533 20.7886 4.21104C20.7886 4.21676 20.7886 4.22819 20.7943 4.23961C20.7943 4.24533 20.8 4.26247 20.8114 4.26247C20.8172 4.26247 20.8286 4.26247 20.8343 4.25104L20.84 4.24533V4.23961C20.84 4.23961 20.84 4.23961 20.8457 4.2339L20.8572 4.22819L20.8514 4.21676H20.8572V4.21104C20.8629 4.20533 20.8629 4.20533 20.8629 4.19961V4.18819C20.8572 4.18247 20.8457 4.17676 20.84 4.17676C20.8229 4.17676 20.8172 4.18247 20.8114 4.1939Z" fill="#EF4A4A"/>
<path d="M20.583 4.66837C20.583 4.66265 20.583 4.65694 20.583 4.65694L20.5773 4.65122H20.5716C20.5602 4.64551 20.5545 4.64551 20.5373 4.64551C20.5259 4.65122 20.5202 4.65694 20.5145 4.66265H20.5087V4.67408C20.503 4.67979 20.503 4.67979 20.503 4.67979L20.4973 4.68551L20.503 4.69122V4.69694C20.503 4.71408 20.5145 4.71979 20.5202 4.71979H20.5259H20.5316C20.5373 4.72551 20.5487 4.73122 20.5602 4.72551H20.5659L20.5716 4.71408C20.5773 4.71408 20.583 4.71408 20.583 4.70837C20.5887 4.70265 20.5887 4.69694 20.5887 4.69122C20.5887 4.68551 20.5887 4.68551 20.5887 4.67979C20.583 4.66837 20.583 4.66837 20.583 4.66837Z" fill="#EF4A4A"/>
<path d="M20.1373 3.67457V3.66314L20.1315 3.65743C20.1315 3.65171 20.1201 3.646 20.1087 3.646C20.103 3.646 20.0916 3.65171 20.0916 3.65743V3.66314L20.0973 3.66885V3.67457L20.1087 3.69171H20.1201C20.1258 3.69171 20.1373 3.686 20.1373 3.67457Z" fill="#EF4A4A"/>
<path d="M19.6629 3.64551C19.6629 3.6398 19.6686 3.63408 19.6686 3.62837C19.6686 3.61122 19.6629 3.5998 19.6572 3.58837L19.6514 3.58265C19.6343 3.57694 19.6057 3.57123 19.5829 3.61122C19.5771 3.61694 19.5771 3.62265 19.5771 3.62837V3.6398H19.5829C19.5829 3.64551 19.5829 3.64551 19.5886 3.65122C19.5886 3.65694 19.5943 3.65694 19.5943 3.65694C19.5943 3.66265 19.6 3.66265 19.6057 3.66837V3.67408H19.6114C19.6286 3.6798 19.64 3.67408 19.6457 3.66837C19.6514 3.66837 19.6572 3.65694 19.6629 3.64551Z" fill="#EF4A4A"/>
<path d="M21.7828 3.92002C21.7771 3.92002 21.7714 3.92002 21.7714 3.92002H21.7657H21.7485H21.7428C21.7257 3.93716 21.72 3.96002 21.72 3.97145V3.97716L21.7257 3.98288H21.72L21.7257 3.99431C21.7371 4.01145 21.76 4.01716 21.7771 4.01716C21.7828 4.01716 21.7885 4.01145 21.7943 4.01145L21.8057 4.00573V4.00002H21.8114V3.98288C21.8114 3.98288 21.8171 3.97716 21.8171 3.97145C21.8171 3.96573 21.8171 3.96002 21.8114 3.95431L21.8057 3.94288L21.8 3.93716H21.7943C21.7943 3.93716 21.7943 3.93716 21.7943 3.93145C21.7943 3.93145 21.7943 3.92573 21.7885 3.92573L21.7771 3.92002H21.7714C21.7885 3.91431 21.7828 3.92002 21.7828 3.92002Z" fill="#EF4A4A"/>
<path d="M21.4687 3.72544C21.463 3.72544 21.4573 3.73116 21.4516 3.73687L21.4344 3.74258V3.7483C21.4287 3.75401 21.4287 3.75973 21.4287 3.76544C21.4287 3.77115 21.4287 3.77115 21.4287 3.77687V3.78258V3.7883L21.4401 3.80544C21.4459 3.81115 21.4459 3.81687 21.4573 3.81687C21.4573 3.81687 21.463 3.81687 21.4744 3.81687H21.4801C21.4859 3.81687 21.4916 3.81115 21.4973 3.80544L21.503 3.79401C21.503 3.79401 21.503 3.79401 21.503 3.7883L21.5087 3.77687V3.77115C21.5087 3.76544 21.5144 3.76544 21.5144 3.75401V3.7483L21.503 3.73687L21.4973 3.73116H21.4916C21.4916 3.73116 21.4916 3.73116 21.4859 3.73116C21.4801 3.72544 21.4801 3.72544 21.4744 3.71973L21.4687 3.72544Z" fill="#EF4A4A"/>
<path d="M20.8116 3.65708H20.8059H20.8002L20.7887 3.66851H20.783H20.7773L20.7659 3.67994V3.68565C20.7659 3.69708 20.7716 3.71422 20.7887 3.71994C20.7944 3.71994 20.8002 3.71994 20.8002 3.71994C20.8002 3.71994 20.8002 3.71994 20.8059 3.71994L20.8116 3.72565H20.8287L20.8459 3.71422V3.69708L20.8516 3.69137L20.8402 3.66851C20.8402 3.6628 20.8345 3.65708 20.823 3.65137L20.8116 3.65708Z" fill="#EF4A4A"/>
<path d="M20.04 5.07979C20.0343 5.07979 20.0229 5.07979 20.0172 5.09122L20.0115 5.09693L20.0286 5.11979H20.0343C20.04 5.11979 20.0515 5.11979 20.0572 5.11407C20.0629 5.10836 20.0629 5.10265 20.0686 5.09693C20.0686 5.09693 20.0686 5.09122 20.0686 5.0855V5.07979L20.0515 5.06836L20.04 5.07979Z" fill="#EF4A4A"/>
<path d="M19.4286 5.11431C19.4286 5.12002 19.4229 5.12002 19.4286 5.11431C19.4229 5.12002 19.4229 5.12002 19.4229 5.12574V5.13145L19.4343 5.1486C19.4343 5.16002 19.44 5.16574 19.4514 5.16574V5.17145C19.4629 5.17717 19.4743 5.17717 19.4743 5.17145H19.48L19.4914 5.16002V5.15431C19.4914 5.1486 19.4914 5.14288 19.4857 5.13717V5.12574V5.12002C19.48 5.1086 19.4686 5.1086 19.4629 5.10288H19.4571L19.4514 5.09717L19.4286 5.11431Z" fill="#EF4A4A"/>
<path d="M20.4516 5.02866V5.02295C20.4459 5.01152 20.4344 5.0058 20.423 5.01152C20.4116 5.01152 20.4001 5.02295 20.4001 5.03438C20.4001 5.04581 20.4059 5.05152 20.4116 5.05723L20.4173 5.06295L20.4344 5.05723C20.4459 5.04581 20.4516 5.04009 20.4516 5.02866Z" fill="#EF4A4A"/>
<path d="M20.0743 4.78857C20.0629 4.78857 20.0572 4.78857 20.0515 4.78857L20.0458 4.79429C20.0458 4.79429 20.04 4.8 20.04 4.81143V4.81715V4.82286L20.0515 4.82857C20.0515 4.82857 20.0515 4.82857 20.0515 4.83429C20.0515 4.84 20.0515 4.84 20.0515 4.84572V4.85143L20.0572 4.85715H20.0629C20.08 4.85715 20.0858 4.85143 20.0915 4.84L20.0972 4.83429L20.0858 4.81715C20.0858 4.81715 20.0858 4.81143 20.0858 4.80572C20.0915 4.8 20.0857 4.79429 20.0743 4.78857Z" fill="#EF4A4A"/>
<path d="M20.6516 4.75425C20.6459 4.75996 20.6401 4.76568 20.6401 4.77139C20.6401 4.77711 20.6401 4.78282 20.6459 4.78854L20.6516 4.79425H20.6573C20.663 4.79996 20.663 4.81139 20.6687 4.82282V4.82854L20.6859 4.83996H20.6916C20.6916 4.83996 20.6916 4.83996 20.6973 4.83996C20.703 4.83996 20.7087 4.84568 20.7144 4.83996C20.7201 4.83996 20.7259 4.83996 20.7316 4.83996H20.7373L20.7487 4.83425C20.7544 4.82854 20.7544 4.82854 20.7544 4.82282V4.81711L20.7487 4.81139V4.80568V4.79996V4.79425L20.743 4.78854V4.78282V4.77711L20.7316 4.76568H20.7259C20.7201 4.76568 20.7144 4.76568 20.7144 4.76568C20.7087 4.76568 20.703 4.75996 20.6916 4.76568C20.6916 4.75996 20.6859 4.75996 20.6801 4.75425L20.6744 4.74854L20.6516 4.75425Z" fill="#EF4A4A"/>
<path d="M18.8858 4.06846H18.8801C18.8744 4.06846 18.8687 4.06274 18.863 4.06846C18.8573 4.06846 18.8516 4.07417 18.8516 4.0856V4.09131L18.8573 4.10274C18.8573 4.10846 18.8573 4.11417 18.863 4.1256L18.8687 4.13132H18.8916L18.8973 4.1256C18.9087 4.11417 18.9087 4.10846 18.9144 4.09703C18.9144 4.09131 18.9144 4.09131 18.9144 4.0856H18.9258L18.9087 4.07989C18.8973 4.07417 18.8973 4.07417 18.8858 4.06846Z" fill="#EF4A4A"/>
<path d="M21.1201 5.07427C21.1201 5.0857 21.1258 5.09141 21.1315 5.09713L21.1373 5.10284L21.1544 5.09713C21.1601 5.09713 21.1658 5.09141 21.1658 5.07999V5.07427L21.1544 5.05713H21.1487C21.143 5.05713 21.1315 5.05713 21.1201 5.06284C21.1258 5.06284 21.1201 5.06856 21.1201 5.07427Z" fill="#EF4A4A"/>
<path d="M19.3314 1.84567C19.3543 1.85138 19.36 1.83424 19.36 1.82852V1.81709L19.3486 1.79995H19.3429C19.3315 1.79995 19.3143 1.79424 19.3086 1.81709C19.3086 1.82281 19.3086 1.82852 19.3143 1.83995L19.32 1.84567H19.3314Z" fill="#EF4A4A"/>
<path d="M20.8687 4.0402L20.8744 4.03448V4.02877V4.02306C20.8801 4.00591 20.8687 3.99448 20.863 3.99448H20.8573L20.8516 3.98877H20.8459L20.8287 4.0002L20.823 4.02306L20.8287 4.0402H20.8344C20.8459 4.0402 20.8516 4.0402 20.8687 4.0402Z" fill="#EF4A4A"/>
<path d="M20.6287 3.91994L20.6401 3.90279C20.6401 3.90279 20.6401 3.90279 20.6401 3.89708C20.6401 3.89136 20.6401 3.89136 20.6458 3.89136V3.88565L20.6401 3.86851C20.6344 3.86279 20.6287 3.86279 20.6172 3.86279L20.6058 3.87422V3.87994V3.88565C20.6001 3.89708 20.6058 3.90279 20.6058 3.90851C20.6115 3.91422 20.6115 3.91994 20.623 3.91994H20.6287Z" fill="#EF4A4A"/>
<path d="M19.9658 4.1767V4.18242V4.18813L19.9715 4.20527H19.9772C19.9887 4.21099 20.0058 4.21099 20.0115 4.18813L20.0172 4.18242L20.0115 4.15956H20.0058C19.9944 4.15384 19.9887 4.15384 19.983 4.15956C19.9715 4.16527 19.9658 4.1767 19.9658 4.1767Z" fill="#EF4A4A"/>
<path d="M20.1658 4.22871L20.1601 4.23443V4.24014C20.1601 4.24586 20.1601 4.25157 20.1601 4.25157C20.1601 4.25157 20.1601 4.25728 20.1543 4.25728C20.1486 4.26871 20.1543 4.28014 20.1658 4.28014H20.1715L20.1829 4.27443V4.263L20.1886 4.26871L20.1943 4.263C20.2058 4.263 20.2115 4.25157 20.2172 4.24586V4.24014V4.23443C20.2115 4.22871 20.2058 4.223 20.2058 4.223H20.2001L20.1943 4.21729C20.1829 4.223 20.1715 4.21729 20.1658 4.22871Z" fill="#EF4A4A"/>
<path d="M18.5886 2.67432L18.5658 2.68003V2.68575L18.5601 2.69146L18.5658 2.72003L18.5886 2.72575L18.6058 2.72003V2.71432V2.7086C18.6115 2.69146 18.6001 2.68003 18.5886 2.67432Z" fill="#EF4A4A"/>
<path d="M18.1315 2.57127L18.1258 2.55412H18.1201C18.1029 2.54841 18.0915 2.55412 18.0858 2.55984L18.0801 2.56555L18.0858 2.5827V2.58841H18.0915C18.1144 2.59984 18.1258 2.58841 18.1315 2.57127Z" fill="#EF4A4A"/>
<path d="M18.4629 2.85723V2.86866C18.4686 2.88009 18.48 2.8858 18.4915 2.8858C18.5029 2.8858 18.5086 2.88009 18.5143 2.86866V2.86294L18.5029 2.8458H18.4972C18.4915 2.8458 18.4857 2.84009 18.4743 2.8458C18.4743 2.8458 18.4686 2.85152 18.4629 2.85723Z" fill="#EF4A4A"/>
<path d="M20.1601 3.34854C20.1372 3.34283 20.1258 3.35425 20.1201 3.35997V3.36568L20.1144 3.3714L20.1086 3.37711C20.1086 3.37711 20.1086 3.37711 20.1086 3.38283V3.39425V3.39997C20.1086 3.40568 20.1086 3.40568 20.1144 3.4114L20.1201 3.42283C20.1201 3.42283 20.1201 3.42854 20.1258 3.42854C20.1315 3.43425 20.1315 3.44568 20.1486 3.43997C20.1658 3.44568 20.1772 3.43425 20.1829 3.42854L20.1887 3.42283V3.41711C20.1944 3.4114 20.1944 3.4114 20.1944 3.40568L20.2001 3.39425V3.38854V3.38283C20.2001 3.38283 20.2001 3.37711 20.2001 3.3714V3.36568V3.35425H20.1944V3.34854C20.1944 3.34283 20.1887 3.34283 20.1829 3.33711C20.1829 3.3314 20.1772 3.32568 20.1715 3.32568H20.1658L20.1601 3.34854Z" fill="#EF4A4A"/>
<path d="M19.3314 3.12011H19.3486C19.3543 3.12011 19.3543 3.12011 19.36 3.12011L19.3657 3.11439C19.3657 3.10868 19.3657 3.09725 19.36 3.09153C19.3486 3.08011 19.3372 3.07439 19.3143 3.08582L19.3086 3.09153L19.3143 3.10296C19.3143 3.10296 19.32 3.11439 19.3314 3.12011Z" fill="#EF4A4A"/>
<path d="M19.7085 3.18838L19.7142 3.20553H19.7199L19.7256 3.21124L19.7314 3.21696L19.7542 3.21124L19.7599 3.19981C19.7656 3.18267 19.7542 3.17124 19.7428 3.16553C19.7314 3.16553 19.7199 3.17124 19.7085 3.18838Z" fill="#EF4A4A"/>
<path d="M19.7028 4.50278H19.6857C19.68 4.5085 19.68 4.5085 19.68 4.51421C19.6743 4.52564 19.6857 4.53707 19.6971 4.54279H19.7028H19.7086C19.7086 4.54279 19.72 4.5485 19.7257 4.5485C19.7371 4.5485 19.7428 4.53707 19.7428 4.53707L19.7486 4.53136L19.7428 4.51993V4.51421L19.7371 4.49707C19.7257 4.49707 19.7143 4.49707 19.7028 4.50278C19.7028 4.50278 19.7086 4.49707 19.7028 4.50278Z" fill="#EF4A4A"/>
<path d="M20.1829 2.23389L20.1715 2.24532L20.1658 2.26246L20.1715 2.26817C20.1715 2.27389 20.1715 2.2796 20.1772 2.2796C20.1772 2.28531 20.1829 2.29103 20.1886 2.29674L20.1943 2.30246L20.2058 2.29674C20.2058 2.29674 20.2058 2.29674 20.2115 2.29674C20.2286 2.29674 20.2401 2.29103 20.2401 2.2796C20.2458 2.26817 20.2401 2.26246 20.2343 2.25674L20.2286 2.25103V2.24532L20.2229 2.2396L20.2058 2.23389C20.1943 2.23389 20.1829 2.23389 20.1829 2.23389Z" fill="#EF4A4A"/>
<path d="M19.5029 2.28542C19.5201 2.29113 19.5315 2.28542 19.5315 2.27971L19.5372 2.27399V2.26828V2.25685V2.25114H19.5429C19.5429 2.24542 19.5372 2.23971 19.5315 2.23399C19.5315 2.22256 19.5258 2.21685 19.5201 2.21685H19.5144H19.5087C19.5087 2.21114 19.5029 2.21114 19.4972 2.21114L19.4915 2.20542L19.4687 2.19971L19.4515 2.21114V2.21685C19.4515 2.21685 19.4515 2.21685 19.4515 2.22256C19.4515 2.22256 19.4458 2.22828 19.4458 2.23399C19.4458 2.23971 19.4458 2.24542 19.4458 2.25114V2.25685L19.4515 2.26828C19.4572 2.26828 19.4572 2.27399 19.4629 2.27399C19.4629 2.27971 19.4629 2.28542 19.4687 2.29113C19.4744 2.29685 19.4801 2.29685 19.4915 2.29685L19.4972 2.30256L19.5029 2.28542Z" fill="#EF4A4A"/>
<path d="M20.7316 2.61133H20.7145V2.61704C20.7145 2.61704 20.7087 2.62276 20.7087 2.62847C20.7087 2.63419 20.7087 2.6399 20.7087 2.6399V2.64561V2.65133C20.7087 2.65704 20.7087 2.65704 20.7087 2.66276V2.66847L20.7145 2.68561C20.7202 2.69133 20.7259 2.69704 20.7373 2.69704C20.743 2.69704 20.7487 2.69133 20.7545 2.68561L20.7602 2.6799H20.7659L20.7716 2.67419C20.7716 2.67419 20.7716 2.67419 20.7716 2.66847C20.7773 2.66847 20.783 2.66276 20.783 2.65704C20.783 2.65133 20.783 2.64561 20.7773 2.6399L20.783 2.62847L20.7659 2.62276C20.7659 2.62276 20.7602 2.61704 20.7487 2.61704L20.743 2.61133H20.7316Z" fill="#EF4A4A"/>
<path d="M18.2345 3.86289C18.2288 3.86289 18.2173 3.85718 18.2116 3.86289H18.2059L18.2002 3.88003V3.88575L18.2059 3.89146C18.2059 3.89718 18.2059 3.90289 18.2116 3.9086V3.91432H18.2231V3.92003H18.2516C18.2573 3.92003 18.2688 3.91432 18.2745 3.90289V3.89718L18.2688 3.88003L18.2631 3.87432V3.86861L18.2516 3.86289H18.2459H18.2402C18.2402 3.86861 18.2402 3.86289 18.2345 3.86289Z" fill="#EF4A4A"/>
<path d="M20.0573 2.6113L20.0802 2.60558L20.0859 2.59987V2.59416C20.0916 2.58844 20.0974 2.58273 20.0974 2.57701V2.5713V2.56558C20.0974 2.55987 20.0974 2.54844 20.0859 2.54273L20.0802 2.53701H20.0745C20.0631 2.53701 20.0573 2.53701 20.0459 2.53701H20.0402H20.0345L20.0231 2.55416H20.0288L20.0231 2.54844C20.0231 2.54844 20.0231 2.55416 20.0173 2.55416C20.0173 2.54844 20.0173 2.53701 20.0173 2.53701L20.0116 2.51987H20.0059C19.9888 2.50844 19.9716 2.51987 19.9659 2.5313L19.9602 2.53701L19.9659 2.54273V2.55416C19.9716 2.55987 19.9773 2.56558 19.9831 2.56558C19.9888 2.5713 19.9945 2.5713 20.0002 2.5713H20.0059L20.0173 2.56558V2.55987V2.56558C20.0173 2.5713 20.0173 2.57701 20.0231 2.58273C20.0231 2.58844 20.0231 2.59416 20.0231 2.59987L20.0288 2.60558C20.0345 2.6113 20.0516 2.6113 20.0573 2.6113Z" fill="#EF4A4A"/>
<path d="M18.32 3.22305C18.32 3.21734 18.32 3.21162 18.3143 3.20591L18.3029 3.2002H18.2972C18.28 3.20591 18.28 3.22305 18.28 3.23448V3.2402V3.24591C18.28 3.25162 18.28 3.25734 18.2857 3.26305C18.2857 3.26877 18.28 3.27448 18.2857 3.2802V3.28591L18.3029 3.29734H18.3086C18.3257 3.29163 18.3315 3.27448 18.3257 3.26305C18.3257 3.25734 18.3315 3.25162 18.3257 3.2402C18.3257 3.22877 18.3257 3.22877 18.32 3.22305Z" fill="#EF4A4A"/>
<path d="M19.0916 4.61133C19.0916 4.61133 19.0916 4.61705 19.0916 4.62276C19.0916 4.62848 19.0916 4.63419 19.0916 4.6399V4.64562L19.103 4.66276H19.1087C19.1144 4.66848 19.1258 4.66848 19.1316 4.66276C19.1373 4.66276 19.143 4.65705 19.143 4.65133V4.64562C19.1487 4.64562 19.1544 4.6399 19.1601 4.62848V4.62276L19.1544 4.61705L19.1601 4.60562L19.1544 4.58848H19.1487C19.1316 4.58276 19.1201 4.58848 19.1144 4.58848C19.1144 4.58848 19.1144 4.58848 19.1087 4.58848H19.103L19.0916 4.61133Z" fill="#EF4A4A"/>
<path d="M18.2231 3.05713H18.2288L18.2403 3.03428V3.02856C18.2345 3.01142 18.2174 3.00571 18.2117 3.01142H18.206H18.2003H18.1945H18.1888L18.1831 3.02856L18.1888 3.0457L18.206 3.05713H18.2231Z" fill="#EF4A4A"/>
<path d="M18.2456 3.38867C18.2399 3.38867 18.2342 3.38867 18.2342 3.38867H18.2285L18.217 3.40581V3.41153C18.2228 3.42296 18.2285 3.42867 18.2285 3.42867C18.2342 3.43439 18.2399 3.43439 18.2456 3.42867C18.2513 3.42867 18.2628 3.41724 18.2628 3.41153V3.40581L18.2513 3.38867H18.2456Z" fill="#EF4A4A"/>
<path d="M19.1144 3.34852C19.103 3.34281 19.0972 3.34281 19.0915 3.34852H19.0858C19.0801 3.34852 19.0744 3.34281 19.063 3.34852L19.0573 3.35424L19.0515 3.36567C19.0458 3.37138 19.0401 3.3771 19.0458 3.38852C19.0458 3.39424 19.0515 3.39424 19.0515 3.39995C19.0515 3.40567 19.0573 3.40567 19.0573 3.41138C19.063 3.41709 19.0687 3.41709 19.0801 3.41709H19.0858V3.41138C19.0915 3.41709 19.103 3.41709 19.103 3.41138C19.1087 3.41138 19.1144 3.40567 19.1144 3.38852V3.38281C19.1144 3.3771 19.1144 3.3771 19.1144 3.3771C19.1144 3.3771 19.1144 3.37138 19.1144 3.36567V3.35995V3.34852Z" fill="#EF4A4A"/>
<path d="M18.0115 2.94845L18.0229 2.93703C18.0286 2.93131 18.0401 2.9256 18.0401 2.91988C18.0401 2.91417 18.0401 2.90845 18.0344 2.90274C18.0344 2.89703 18.0286 2.89703 18.0229 2.89131L18.0172 2.8856L17.9943 2.87988L17.9886 2.8856C17.9829 2.89131 17.9829 2.89131 17.9772 2.89703C17.9658 2.90274 17.9658 2.91417 17.9601 2.91988L17.9543 2.9256L17.9601 2.94845H17.9658C17.9772 2.95417 17.9886 2.95417 17.9943 2.95417L18.0115 2.94845Z" fill="#EF4A4A"/>
<path d="M19.8799 2.1714C19.8856 2.1714 19.897 2.16569 19.9028 2.14854V2.14283L19.8913 2.12569H19.8856C19.8799 2.12569 19.8742 2.12569 19.8685 2.11997C19.8628 2.11997 19.857 2.11426 19.8456 2.11426H19.8399L19.8285 2.12569V2.1314C19.8228 2.14854 19.8285 2.15997 19.8513 2.16569C19.8513 2.16569 19.8513 2.16569 19.857 2.16569L19.8628 2.1714H19.8799Z" fill="#EF4A4A"/>
<path d="M19.8801 3.53693L19.8858 3.54835C19.8858 3.55407 19.8858 3.5655 19.8916 3.57693C19.8916 3.57693 19.8916 3.57693 19.8973 3.57693C19.8973 3.58264 19.903 3.58264 19.9087 3.58835L19.9144 3.59407H19.9316L19.9373 3.58835C19.9373 3.58835 19.943 3.58264 19.943 3.57693V3.57121L19.9487 3.5655C19.9544 3.55978 19.9544 3.55978 19.9601 3.55407V3.54835V3.54264L19.9544 3.53121L19.9601 3.5255L19.9544 3.50264L19.9201 3.49121L19.9087 3.50264L19.903 3.50835C19.8973 3.51407 19.8973 3.51407 19.8916 3.5255C19.8801 3.53121 19.8801 3.53121 19.8801 3.53693Z" fill="#EF4A4A"/>
<path d="M18.7431 3.23441H18.7488L18.7602 3.22869C18.7602 3.22298 18.7659 3.22298 18.7659 3.21726C18.7659 3.21155 18.7659 3.20012 18.7659 3.18869C18.7659 3.18298 18.7659 3.16583 18.7545 3.16012C18.7488 3.16012 18.7374 3.15441 18.7259 3.16583L18.7202 3.17155V3.17726C18.7202 3.17726 18.7202 3.17726 18.7145 3.18298L18.7088 3.18869V3.20012H18.7031V3.20583C18.6974 3.20583 18.6974 3.21155 18.6917 3.21726V3.22869C18.6974 3.24012 18.7031 3.24583 18.7145 3.24012C18.7317 3.24012 18.7374 3.24012 18.7431 3.23441Z" fill="#EF4A4A"/>
<path d="M19.0688 2.8172C19.0688 2.82291 19.0688 2.82863 19.0688 2.82863L19.0745 2.83434C19.0745 2.83434 19.0802 2.83434 19.0802 2.84006C19.0859 2.84577 19.0974 2.85148 19.1088 2.85148C19.1202 2.85148 19.1317 2.84577 19.1317 2.84006H19.1374V2.82863C19.1431 2.82863 19.1431 2.82291 19.1431 2.82291L19.1488 2.8172V2.81148V2.80577C19.1488 2.78863 19.1431 2.78291 19.1374 2.78291H19.1317H19.1259C19.1202 2.7772 19.1145 2.77148 19.0974 2.77148H19.0917L19.0859 2.7772C19.0802 2.7772 19.0745 2.7772 19.0688 2.78291C19.0631 2.78863 19.0574 2.79434 19.0574 2.80006C19.0688 2.80577 19.0688 2.80577 19.0688 2.8172C19.0688 2.8172 19.0688 2.81148 19.0688 2.8172Z" fill="#EF4A4A"/>
<path d="M19.2915 3.87994V3.89136L19.2972 3.89708C19.2972 3.90279 19.3029 3.91422 19.3144 3.91422C19.3201 3.91422 19.3315 3.91422 19.3372 3.90279L19.3429 3.89708V3.89136V3.88565L19.3315 3.86851L19.3201 3.86279C19.3029 3.86279 19.2972 3.87422 19.2915 3.87994Z" fill="#EF4A4A"/>
<path d="M18 3.54832C18.0057 3.54832 18.0114 3.5426 18.0171 3.5426L18.0342 3.53689V3.53117C18.04 3.52546 18.04 3.51974 18.04 3.51403C18.04 3.50831 18.04 3.50831 18.04 3.5026V3.49689V3.49117L18.0285 3.47403C18.0285 3.46831 18.0228 3.4626 18.0171 3.45689C18.0171 3.45689 18.0114 3.45117 18 3.45117H17.9942C17.9885 3.45117 17.9828 3.45117 17.9771 3.45689L17.9714 3.4626C17.9714 3.4626 17.9714 3.4626 17.9714 3.46831L17.9657 3.47403V3.47974C17.9657 3.47974 17.96 3.48546 17.96 3.49117V3.49689L17.9657 3.50831V3.51403H17.9714C17.9714 3.51403 17.9714 3.51403 17.9714 3.51974C17.9714 3.52546 17.9771 3.52546 17.9828 3.53117L18 3.54832Z" fill="#EF4A4A"/>
<path d="M17.8801 3.34259C17.8915 3.33688 17.9029 3.33117 17.9086 3.31402C17.9086 3.30831 17.9143 3.30259 17.9086 3.29117C17.9086 3.28545 17.9143 3.28545 17.9143 3.27974L17.9201 3.26831L17.9143 3.25688C17.9143 3.25117 17.9143 3.24545 17.9086 3.24545C17.9029 3.23974 17.8972 3.23402 17.8972 3.23402L17.8858 3.22259H17.8801H17.8743C17.8686 3.22259 17.8515 3.21688 17.8344 3.23402C17.8286 3.23402 17.8286 3.23974 17.8286 3.24545H17.8229V3.25117V3.25688C17.8172 3.26831 17.8229 3.27974 17.8286 3.28545V3.29688V3.30259C17.8286 3.30831 17.8344 3.31402 17.8401 3.31974V3.32545H17.8458V3.33117C17.8515 3.33688 17.8572 3.34831 17.8743 3.34259C17.8686 3.34831 17.8743 3.34259 17.8801 3.34259Z" fill="#EF4A4A"/>
<path d="M18.6286 3.75417H18.6343H18.64L18.6571 3.74274C18.6571 3.74274 18.6629 3.74274 18.6686 3.74274H18.6743L18.6857 3.73703V3.73131C18.6914 3.71989 18.6857 3.70274 18.6743 3.69131C18.6686 3.69131 18.6686 3.6856 18.6629 3.6856C18.6629 3.6856 18.6629 3.6856 18.6571 3.6856L18.6514 3.67417L18.6343 3.66846L18.6171 3.67989L18.6114 3.69703L18.6057 3.70274L18.6114 3.7256C18.6114 3.73131 18.6171 3.73703 18.6229 3.74274L18.6286 3.75417Z" fill="#EF4A4A"/>
<path d="M19.6858 2.53131C19.6916 2.53131 19.703 2.53131 19.7144 2.5256L19.7201 2.51988L19.7087 2.49131H19.703C19.6973 2.49131 19.6916 2.48559 19.6801 2.49131C19.6744 2.49131 19.6687 2.49702 19.6687 2.50274V2.50845V2.51417L19.6801 2.53131H19.6858Z" fill="#EF4A4A"/>
<path d="M20.2459 2.74857C20.2573 2.73714 20.2687 2.72571 20.2744 2.71428C20.2801 2.70285 20.2801 2.69142 20.2744 2.67999L20.2687 2.67428H20.2459H20.2402C20.2344 2.67428 20.2173 2.66857 20.2059 2.67999L20.2001 2.68571C20.2001 2.69142 20.1944 2.69142 20.1944 2.69714C20.1944 2.70285 20.1944 2.70285 20.1887 2.70857C20.1887 2.71428 20.1887 2.71999 20.1887 2.72571V2.73142L20.2001 2.74285H20.2059C20.2116 2.74285 20.2173 2.74857 20.223 2.74857H20.2287H20.2459Z" fill="#EF4A4A"/>
<path d="M20.2916 2.62274C20.2973 2.61702 20.2973 2.61702 20.303 2.61131L20.3087 2.60559L20.303 2.58845C20.303 2.57702 20.2973 2.57131 20.2916 2.56559V2.55988C20.2858 2.54845 20.2744 2.55416 20.2687 2.55416H20.263L20.2516 2.56559V2.57131C20.2516 2.57702 20.2516 2.58273 20.2516 2.58845L20.2458 2.59988V2.60559C20.2516 2.61702 20.2573 2.62274 20.263 2.62274C20.263 2.62274 20.263 2.62274 20.2687 2.62274L20.2744 2.62845L20.2916 2.62274Z" fill="#EF4A4A"/>
<path d="M19.0687 2.063L19.063 2.08015V2.08586C19.063 2.09157 19.063 2.09157 19.0687 2.09729V2.103L19.0858 2.12586H19.0916H19.0973C19.103 2.12586 19.1087 2.13157 19.1201 2.12586C19.1258 2.12586 19.1316 2.12015 19.1373 2.11443H19.1544V2.10872H19.1601L19.1773 2.09729H19.183L19.1887 2.08586C19.1887 2.08586 19.1944 2.08015 19.2001 2.07443C19.2058 2.07443 19.2116 2.06872 19.2173 2.063V2.05157V2.04586C19.2173 2.04015 19.2116 2.04015 19.2116 2.03443L19.2058 2.023H19.2001C19.1944 2.023 19.1887 2.01729 19.183 2.01729C19.1773 2.01157 19.1773 2.01157 19.1716 2.00586C19.1658 2.00586 19.1601 2.00586 19.1544 2.00586C19.1487 2.00586 19.143 2.01157 19.143 2.01729C19.143 2.023 19.143 2.02872 19.143 2.02872C19.143 2.02872 19.143 2.02872 19.1373 2.02872H19.1316H19.1201H19.1144C19.1144 2.02872 19.1087 2.02872 19.1087 2.03443C19.0916 2.04015 19.0858 2.05157 19.0858 2.05729C19.0744 2.05729 19.0744 2.05729 19.0687 2.063Z" fill="#EF4A4A"/>
<path d="M18.4344 2.5196V2.54246C18.4344 2.54817 18.4344 2.55388 18.4402 2.55388V2.57103L18.4459 2.57674C18.4573 2.58246 18.4687 2.58246 18.4802 2.57674C18.4916 2.57103 18.4973 2.5596 18.503 2.54817V2.54246L18.5144 2.53103V2.52531C18.5144 2.52531 18.5144 2.52531 18.5144 2.5196C18.5144 2.5196 18.5144 2.5196 18.5144 2.51388C18.5144 2.51388 18.5144 2.51388 18.5144 2.50817C18.5144 2.50246 18.5144 2.49674 18.5144 2.49103C18.5144 2.48531 18.5087 2.4796 18.5087 2.4796C18.5087 2.47388 18.5087 2.46817 18.503 2.46246L18.4973 2.45674H18.4859L18.4802 2.45103L18.4744 2.44531L18.4573 2.45103H18.4516H18.4459H18.4402L18.423 2.45674V2.46246C18.423 2.46246 18.423 2.46817 18.4173 2.46817L18.4116 2.47388L18.4059 2.4796V2.48531L18.4001 2.49103L18.4059 2.51388H18.4116C18.4287 2.5196 18.4344 2.5196 18.4344 2.5196Z" fill="#EF4A4A"/>
<path d="M19.2686 2.49112V2.49683C19.2686 2.50826 19.28 2.51398 19.2914 2.51398C19.3028 2.51398 19.3143 2.50826 19.32 2.49683C19.32 2.49112 19.32 2.47969 19.3143 2.47398L19.3086 2.46826H19.2914C19.28 2.47398 19.2743 2.4854 19.2686 2.49112Z" fill="#EF4A4A"/>
<path d="M19.5885 2.81132C19.6 2.81703 19.6057 2.81703 19.6114 2.81703L19.6228 2.81132C19.6228 2.81132 19.6285 2.8056 19.6285 2.79989V2.79417V2.78846L19.6228 2.78275C19.6228 2.78275 19.6228 2.78275 19.6228 2.77703C19.6228 2.77703 19.6228 2.77132 19.6228 2.7656V2.75989L19.6114 2.74846H19.6057C19.5885 2.74275 19.5771 2.74846 19.5714 2.75417L19.5657 2.75989L19.5714 2.77703L19.5657 2.78275C19.5771 2.78846 19.5771 2.79989 19.5885 2.81132Z" fill="#EF4A4A"/>
<path d="M19.0173 2.71418C19.023 2.71418 19.0287 2.70847 19.0344 2.69704C19.0344 2.69133 19.0344 2.68561 19.0287 2.67418L19.023 2.66847H19.0173C19.0116 2.65704 19.0116 2.65133 19.0116 2.6399V2.63419L18.9944 2.61704H18.9887C18.9887 2.61704 18.9773 2.61133 18.9716 2.61133C18.9659 2.61133 18.9602 2.61133 18.9545 2.61133H18.9487L18.9373 2.61704C18.9316 2.61704 18.9316 2.62276 18.9259 2.62847L18.9202 2.63419V2.6399V2.64561V2.65133V2.65704L18.9259 2.66276C18.9259 2.66276 18.9259 2.66276 18.9259 2.66847V2.67418L18.9373 2.69133H18.943C18.9487 2.69133 18.9487 2.69704 18.9545 2.69704C18.9602 2.69704 18.9659 2.70276 18.9773 2.70276C18.9773 2.70847 18.983 2.71418 18.9887 2.71418L18.9944 2.7199L19.0173 2.71418Z" fill="#EF4A4A"/>
<path d="M21.0287 3.37682H21.0344C21.0401 3.37682 21.0459 3.38254 21.0516 3.38254C21.0573 3.38254 21.063 3.37682 21.0687 3.36539V3.35968L21.063 3.34825C21.063 3.34254 21.0687 3.33682 21.063 3.32539V3.31968L21.0401 3.31396L21.0344 3.31968C21.023 3.32539 21.0173 3.33682 21.0173 3.34254C21.0173 3.34825 21.0173 3.34825 21.0173 3.35397H21.0059L21.0173 3.36539C21.023 3.37111 21.0287 3.37111 21.0287 3.37682Z" fill="#EF4A4A"/>
<path d="M19.0114 2.49171L19.0057 2.46885H19C18.9942 2.46885 18.9828 2.46313 18.9714 2.46885C18.9657 2.47456 18.96 2.48028 18.96 2.48599V2.49171V2.49742L18.9714 2.51456H18.9771C19 2.52028 19.0057 2.50313 19.0114 2.49171Z" fill="#EF4A4A"/>
<path d="M18.6286 2.30299C18.6286 2.29156 18.6286 2.28584 18.6229 2.28013L18.6171 2.27441L18.5943 2.28013C18.5886 2.28013 18.5829 2.28584 18.5771 2.29727V2.30299L18.5829 2.32013H18.5886C18.5943 2.32584 18.6057 2.32584 18.6171 2.32013C18.6229 2.31441 18.6286 2.3087 18.6286 2.30299Z" fill="#EF4A4A"/>
<path d="M18.4802 4.22852L18.4688 4.23994V4.24566C18.4688 4.25709 18.4688 4.26852 18.4688 4.27423V4.27995V4.28566L18.4802 4.3028H18.4859C18.5087 4.3028 18.5259 4.29137 18.5373 4.26852L18.543 4.2628L18.5316 4.25137V4.24566C18.5259 4.23994 18.5202 4.23994 18.5145 4.23994C18.4973 4.2228 18.4916 4.2228 18.4802 4.22852Z" fill="#EF4A4A"/>
<path d="M19.24 4.57149C19.2343 4.57149 19.2286 4.57149 19.2229 4.57149L19.2114 4.5772V4.58292C19.2114 4.60006 19.2229 4.61149 19.2343 4.61149L19.24 4.6172H19.2457C19.2514 4.6172 19.2571 4.6172 19.2628 4.6172C19.2686 4.62291 19.2686 4.62291 19.2743 4.62291H19.28L19.2971 4.61149V4.60577C19.2971 4.58863 19.2857 4.5772 19.2686 4.57149C19.2686 4.56577 19.2571 4.56006 19.2457 4.56006C19.2457 4.57149 19.2457 4.57149 19.24 4.57149Z" fill="#EF4A4A"/>
<path d="M19.0517 4.59415V4.58843L19.0345 4.57129H19.0288C19.0117 4.57129 19.0002 4.58272 19.0002 4.59415V4.59986V4.60557V4.61129V4.617L19.0117 4.62843H19.0288L19.046 4.617L19.0517 4.59415Z" fill="#EF4A4A"/>
<path d="M19.3602 4.70869C19.3545 4.71441 19.3545 4.71441 19.3545 4.72012V4.72584L19.3659 4.74869H19.3716C19.3831 4.74869 19.3888 4.74869 19.3945 4.74298C19.4002 4.73727 19.4059 4.73155 19.4059 4.72584C19.4059 4.72012 19.4059 4.70869 19.4002 4.70298L19.3945 4.69727L19.3716 4.70298L19.3602 4.70869Z" fill="#EF4A4A"/>
<path d="M19.6801 3.90283C19.6744 3.90855 19.6687 3.91426 19.6687 3.91998V3.92569C19.6629 3.9314 19.6572 3.93712 19.6572 3.94283V3.94855L19.6687 3.95998C19.6687 3.96569 19.6744 3.97712 19.6858 3.97712C19.6915 3.97712 19.6915 3.97712 19.6972 3.97712C19.7029 3.97712 19.7087 3.97712 19.7087 3.97712C19.7144 3.9714 19.7201 3.96569 19.7201 3.95998V3.95426C19.7258 3.94855 19.7315 3.94283 19.7315 3.93712C19.7315 3.9314 19.7315 3.91998 19.7144 3.91426H19.7087C19.7029 3.91426 19.7029 3.91426 19.7029 3.91426C19.7029 3.91426 19.6972 3.90855 19.6915 3.90855H19.6858L19.6801 3.90283Z" fill="#EF4A4A"/>
<path d="M20.3087 5.05143C20.3087 5.05714 20.3029 5.05714 20.3029 5.05714C20.2972 5.05143 20.2915 5.05143 20.2915 5.04571L20.2858 5.04L20.2629 5.04571V5.05143V5.05714C20.2629 5.06286 20.2629 5.06857 20.2687 5.07428L20.2744 5.08C20.2744 5.08571 20.2801 5.08571 20.2858 5.08571C20.2858 5.08571 20.2972 5.08571 20.3029 5.08L20.3087 5.08571H20.3144C20.3372 5.09143 20.3429 5.08 20.3487 5.07428V5.06857C20.3544 5.06857 20.3544 5.06857 20.3601 5.06857H20.3658L20.3715 5.06286L20.3829 5.05714V5.04571V5.04V5.03429L20.3715 5.01714H20.3658C20.3658 5.01714 20.3658 5.01714 20.3601 5.01714L20.3544 5H20.3429C20.3372 5.01714 20.3201 5.02286 20.3087 5.05143Z" fill="#EF4A4A"/>
<path d="M21.1259 3.89693C21.1487 3.90265 21.1544 3.88551 21.1544 3.87979V3.86836L21.143 3.85122H21.1373C21.1259 3.85122 21.1087 3.84551 21.103 3.86836C21.103 3.87408 21.103 3.87979 21.1087 3.89122L21.1145 3.89693H21.1259Z" fill="#EF4A4A"/>
<path d="M20.926 6.41697L20.9488 6.41125L20.9546 6.39982C20.9603 6.39411 20.966 6.38268 20.9717 6.37125C20.9717 6.36554 20.9717 6.36554 20.9774 6.35982V6.35411L20.9717 6.3484C20.9717 6.34268 20.9717 6.33697 20.966 6.33125C20.9603 6.31982 20.9431 6.31982 20.9317 6.31982C20.9146 6.31982 20.9031 6.33125 20.8974 6.33125L20.8917 6.33697V6.35411C20.8917 6.35411 20.886 6.35982 20.886 6.36554V6.37125V6.37697C20.886 6.38268 20.8917 6.3884 20.8974 6.3884C20.9031 6.39411 20.9088 6.39982 20.9088 6.40554L20.9146 6.41125L20.926 6.41697C20.926 6.41697 20.9203 6.42268 20.926 6.41697Z" fill="#EF4A4A"/>
<path d="M20.0972 5.57129L20.0743 5.577V5.58272L20.0686 5.58843L20.0743 5.617L20.0972 5.62272L20.1143 5.617V5.61129V5.60557C20.12 5.58843 20.1086 5.577 20.0972 5.57129Z" fill="#EF4A4A"/>
<path d="M19.6344 5.46824L19.6287 5.4511H19.623C19.6059 5.44538 19.5944 5.4511 19.5887 5.45681L19.583 5.46253L19.5887 5.47967V5.48538H19.5944C19.623 5.49681 19.6287 5.48538 19.6344 5.46824Z" fill="#EF4A4A"/>
<path d="M19.9717 5.7542V5.76563C19.9774 5.77706 19.9888 5.78277 20.0002 5.78277C20.0117 5.78277 20.0174 5.77706 20.0231 5.76563V5.75992L20.0117 5.74277H20.006C20.0002 5.74277 19.9945 5.73706 19.9831 5.74277C19.9774 5.74277 19.9774 5.74849 19.9717 5.7542Z" fill="#EF4A4A"/>
<path d="M20.84 6.01708H20.8571C20.8629 6.01708 20.8629 6.01708 20.8686 6.01708L20.8743 6.01136C20.8743 6.00565 20.8743 5.99422 20.8686 5.98851C20.8571 5.97708 20.8457 5.97136 20.8229 5.98279L20.8171 5.98851L20.8229 5.99993C20.8229 5.99993 20.8229 6.01136 20.84 6.01708Z" fill="#EF4A4A"/>
<path d="M21.2173 6.08584L21.223 6.10299H21.2287L21.2344 6.1087L21.2401 6.11442L21.263 6.1087L21.2687 6.09727C21.2744 6.08013 21.263 6.0687 21.2516 6.06299C21.2401 6.06299 21.223 6.0687 21.2173 6.08584Z" fill="#EF4A4A"/>
<path d="M20.2859 3.55421V3.52564L20.2687 3.51993H20.263V3.51421C20.263 3.50278 20.2573 3.49707 20.2516 3.49707H20.2459L20.2287 3.50278C20.2287 3.50278 20.223 3.5085 20.2173 3.51421V3.51993V3.53136V3.53707C20.223 3.54278 20.2287 3.5485 20.2344 3.5485H20.2401C20.2401 3.55421 20.2459 3.55993 20.2516 3.56564L20.2573 3.57136L20.2859 3.55421Z" fill="#EF4A4A"/>
<path d="M21.6915 5.13135L21.68 5.14278L21.6743 5.15992L21.68 5.16563C21.68 5.17135 21.68 5.17706 21.6857 5.17706C21.6857 5.18278 21.6915 5.18849 21.6972 5.1942L21.7029 5.19992L21.7143 5.1942C21.7143 5.1942 21.7143 5.1942 21.72 5.1942C21.7372 5.1942 21.7486 5.18849 21.7486 5.17706C21.7543 5.16563 21.7486 5.15992 21.7429 5.1542L21.7372 5.14849V5.14278L21.7315 5.13706L21.7143 5.13135C21.6972 5.13135 21.6915 5.13135 21.6915 5.13135Z" fill="#EF4A4A"/>
<path d="M20.4515 4.13096C20.4458 4.13096 20.4344 4.12524 20.4287 4.13096H20.423L20.4172 4.1481V4.15382L20.423 4.15953C20.423 4.16524 20.423 4.17096 20.4287 4.17667V4.18239H20.4401V4.1881H20.4687C20.4744 4.1881 20.4858 4.18239 20.4915 4.17096V4.16524L20.4858 4.1481L20.4801 4.14239V4.13667L20.4687 4.13096H20.4629H20.4572C20.4572 4.13096 20.4572 4.13096 20.4515 4.13096Z" fill="#EF4A4A"/>
<path d="M21.8515 4.66306L21.8744 4.65734L21.8801 4.65163V4.64591C21.8858 4.6402 21.8915 4.63449 21.8915 4.62877V4.62306V4.61734C21.8915 4.61163 21.8915 4.6002 21.8801 4.59449L21.8744 4.58877H21.8687C21.8572 4.58877 21.8515 4.58877 21.8401 4.58877H21.8344H21.8287L21.8172 4.60591H21.823L21.8172 4.6002C21.8172 4.6002 21.8172 4.60591 21.8115 4.60591C21.8115 4.6002 21.8115 4.58877 21.8115 4.58877L21.8058 4.57163H21.8001C21.783 4.5602 21.7658 4.57163 21.7601 4.58306L21.7544 4.58877L21.7601 4.59449V4.60591C21.7658 4.61163 21.7715 4.61734 21.7772 4.61734C21.783 4.62306 21.7887 4.62306 21.7944 4.62306H21.8001L21.8115 4.61734V4.61163V4.61734C21.8115 4.62306 21.8115 4.62877 21.8172 4.63449C21.8172 4.6402 21.8172 4.64591 21.8172 4.65163L21.823 4.65734C21.8287 4.65734 21.8458 4.66306 21.8515 4.66306Z" fill="#EF4A4A"/>
<path d="M19.7943 4.08004L19.8057 4.0629L19.8 4.05147C19.8 4.05147 19.7943 4.04575 19.7886 4.04004H19.7829L19.7657 4.04575L19.7543 4.05147V4.05718C19.7486 4.06861 19.76 4.08004 19.76 4.08575V4.09147H19.7943V4.08004Z" fill="#EF4A4A"/>
<path d="M21.0801 4.57101L21.0915 4.55958C21.0972 4.55387 21.1087 4.54816 21.1087 4.54244C21.1087 4.53673 21.1087 4.53101 21.103 4.5253C21.103 4.51958 21.0972 4.51958 21.0915 4.51387L21.0858 4.50816L21.063 4.50244L21.0572 4.50816C21.0515 4.51387 21.0515 4.51387 21.0458 4.51958C21.0344 4.5253 21.0344 4.53673 21.0287 4.54244L21.0229 4.54816L21.0287 4.57101H21.0344C21.0458 4.57673 21.0572 4.57673 21.063 4.57673L21.0801 4.57101Z" fill="#EF4A4A"/>
<path d="M19.2059 3.79436L19.2174 3.77721C19.2231 3.77721 19.2231 3.77721 19.2288 3.7715L19.2345 3.76578V3.74293L19.2288 3.73721C19.2231 3.73721 19.2174 3.72578 19.2059 3.7315C19.2059 3.7315 19.2059 3.72578 19.2002 3.72578L19.1945 3.71436C19.1945 3.71436 19.1945 3.71436 19.1888 3.71436C19.1831 3.71436 19.1831 3.71436 19.1774 3.71436C19.1716 3.71436 19.1716 3.71436 19.1659 3.71436L19.1602 3.72578V3.7315H19.1545C19.1545 3.7315 19.1488 3.73721 19.1431 3.74293C19.1431 3.74864 19.1431 3.75436 19.1488 3.76007V3.76578V3.7715L19.1602 3.78293H19.1659C19.1774 3.80007 19.1888 3.80007 19.2059 3.79436Z" fill="#EF4A4A"/>
<path d="M19.5144 4.51998L19.5087 4.50284L19.503 4.49712H19.4972H19.4915V4.49141L19.4858 4.48569C19.4801 4.47998 19.4687 4.47998 19.4629 4.47998C19.4515 4.47998 19.4458 4.49141 19.4458 4.49712C19.4458 4.50284 19.4458 4.51427 19.4515 4.51998C19.4515 4.52569 19.4515 4.53712 19.4572 4.54284L19.4687 4.54855H19.4744C19.4858 4.54284 19.503 4.54284 19.5144 4.51998Z" fill="#EF4A4A"/>
<path d="M19.2857 4.47407H19.2971C19.3028 4.47407 19.3028 4.46835 19.3086 4.46835C19.3143 4.46835 19.3143 4.46835 19.32 4.46835H19.3257L19.3371 4.45692V4.45121C19.3371 4.4455 19.3371 4.43407 19.3314 4.43407L19.3371 4.42264V4.41692V4.41121V4.4055C19.3371 4.39407 19.3314 4.38835 19.32 4.38264H19.3143H19.3028C19.2971 4.38264 19.28 4.37121 19.2628 4.38835C19.2571 4.38835 19.2514 4.39407 19.2457 4.39407L19.24 4.39978V4.42264L19.2457 4.42835L19.24 4.4455L19.2457 4.45121C19.2457 4.45692 19.2514 4.45692 19.2514 4.45692L19.2571 4.46835H19.2686C19.2686 4.46835 19.2743 4.46835 19.2857 4.47407Z" fill="#EF4A4A"/>
<path d="M20.5944 3.66842C20.6002 3.66842 20.6002 3.6627 20.5944 3.66842C20.6002 3.64556 20.5944 3.62842 20.583 3.62842H20.5773L20.5544 3.63985V3.64556C20.5544 3.64556 20.5544 3.64556 20.5544 3.65128C20.5544 3.65699 20.5544 3.66842 20.5602 3.67985L20.5659 3.68556L20.5887 3.67985L20.5944 3.66842Z" fill="#EF4A4A"/>
<path d="M21.6743 4.22267C21.6801 4.22267 21.6915 4.21696 21.6972 4.19981V4.1941L21.6858 4.17696H21.6801C21.6743 4.17696 21.6686 4.17696 21.6629 4.17124C21.6572 4.17124 21.6515 4.16553 21.6401 4.16553H21.6343L21.6229 4.17696V4.18267C21.6172 4.19981 21.6229 4.21124 21.6458 4.21696C21.6458 4.21696 21.6458 4.21696 21.6515 4.21696L21.6572 4.22267H21.6743Z" fill="#EF4A4A"/>
<path d="M20.2458 6.13138C20.2458 6.13138 20.2515 6.13138 20.2458 6.13138H20.2515L20.2629 6.12566C20.2629 6.11995 20.2686 6.11995 20.2686 6.11423C20.2686 6.10852 20.2686 6.09709 20.2686 6.08566C20.2686 6.07995 20.2686 6.06281 20.2572 6.05709C20.2515 6.05709 20.24 6.05138 20.2286 6.06281L20.2229 6.06852V6.07424C20.2229 6.07424 20.2229 6.07424 20.2172 6.07995L20.2115 6.08566V6.09709H20.2058V6.10281C20.2001 6.10281 20.2 6.10852 20.1943 6.11423V6.12566C20.2 6.13709 20.2058 6.14281 20.2172 6.13709C20.2343 6.14281 20.24 6.13709 20.2458 6.13138Z" fill="#EF4A4A"/>
<path d="M20.5715 5.71417C20.5715 5.71989 20.5715 5.7256 20.5715 5.7256L20.5772 5.73131C20.5772 5.73131 20.5829 5.73131 20.5829 5.73703C20.5886 5.74274 20.6001 5.74846 20.6115 5.74846C20.6229 5.74846 20.6344 5.74274 20.6344 5.73703H20.6401V5.7256C20.6458 5.7256 20.6458 5.71989 20.6458 5.71989L20.6515 5.71417V5.70846V5.70274C20.6515 5.6856 20.6458 5.67989 20.6401 5.67989H20.6344H20.6286C20.6229 5.67417 20.6172 5.66846 20.6001 5.66846H20.5943L20.5886 5.67417C20.5829 5.67417 20.5772 5.67417 20.5715 5.67989C20.5658 5.6856 20.5601 5.69131 20.5601 5.69703C20.5772 5.70274 20.5772 5.70846 20.5715 5.71417C20.5772 5.71417 20.5772 5.71417 20.5715 5.71417Z" fill="#EF4A4A"/>
<path d="M21.1944 5.42828C21.2001 5.42828 21.2115 5.42828 21.223 5.42257L21.2287 5.41685L21.2172 5.38828H21.2115C21.2058 5.38828 21.2001 5.38257 21.1887 5.38828C21.183 5.38828 21.1772 5.394 21.1772 5.39971V5.40542V5.41114L21.1887 5.42828H21.1944Z" fill="#EF4A4A"/>
<path d="M21.7488 5.64554C21.7602 5.63411 21.7716 5.62268 21.7774 5.61125C21.7831 5.59982 21.7831 5.5884 21.7774 5.57697L21.7716 5.57125H21.7488H21.7431C21.7374 5.57125 21.7202 5.56554 21.7088 5.57697L21.7031 5.58268C21.7031 5.5884 21.6974 5.5884 21.6974 5.59411C21.6974 5.59982 21.6974 5.59982 21.6917 5.60554C21.6917 5.61125 21.6917 5.61697 21.6917 5.62268V5.6284L21.7031 5.63982H21.7088C21.7145 5.63982 21.7202 5.64554 21.7259 5.64554H21.7316H21.7488Z" fill="#EF4A4A"/>
<path d="M21.8001 5.51971C21.8058 5.51399 21.8058 5.51399 21.8115 5.50828L21.8172 5.50256L21.8115 5.48542C21.8115 5.47399 21.8058 5.46828 21.8001 5.46256V5.45685C21.7944 5.44542 21.783 5.45114 21.7773 5.45114H21.7715L21.7601 5.46256V5.46828C21.7601 5.47399 21.7601 5.47971 21.7601 5.48542L21.7544 5.49685V5.50256C21.7601 5.51399 21.7658 5.51971 21.7715 5.51971C21.7715 5.51971 21.7715 5.51971 21.7773 5.51971L21.783 5.52542L21.8001 5.51971Z" fill="#EF4A4A"/>
<path d="M20.5772 4.95997L20.5715 4.97712V4.98283C20.5715 4.98855 20.5715 4.98855 20.5772 4.99426V4.99997L20.5944 5.02283H20.6001H20.6058C20.6115 5.02283 20.6172 5.02855 20.6287 5.02283C20.6344 5.02283 20.6401 5.01712 20.6458 5.0114H20.663V5.00569H20.6687L20.6858 4.99426H20.6915L20.6972 4.98283C20.6972 4.98283 20.703 4.97712 20.7087 4.9714C20.7144 4.9714 20.7201 4.96569 20.7258 4.95997V4.94855V4.94283C20.7258 4.93712 20.7201 4.93712 20.7201 4.9314L20.7144 4.91997H20.7087C20.703 4.91997 20.6972 4.91426 20.6915 4.91426C20.6858 4.90855 20.6858 4.90855 20.6801 4.90283C20.6744 4.90283 20.6687 4.90283 20.663 4.90283C20.6572 4.90283 20.6515 4.90855 20.6515 4.91426C20.6515 4.91997 20.6515 4.92569 20.6515 4.92569C20.6515 4.92569 20.6515 4.92569 20.6458 4.92569H20.6401H20.6287H20.623C20.623 4.92569 20.6172 4.92569 20.6172 4.9314C20.6001 4.93712 20.5944 4.94855 20.5944 4.95426C20.583 4.95426 20.5772 4.95997 20.5772 4.95997Z" fill="#EF4A4A"/>
<path d="M19.9715 4.84577V4.86863C19.9715 4.87434 19.9715 4.88005 19.9773 4.88005V4.8972L19.983 4.90291C19.9944 4.90863 20.0058 4.90863 20.0172 4.90291C20.0287 4.8972 20.0344 4.88577 20.0401 4.87434V4.86863L20.0515 4.8572V4.85148C20.0515 4.85148 20.0515 4.85148 20.0515 4.84577C20.0515 4.84577 20.0515 4.84577 20.0515 4.84006C20.0515 4.84006 20.0515 4.84006 20.0515 4.83434C20.0515 4.82863 20.0515 4.82291 20.0515 4.8172C20.0515 4.81148 20.0458 4.80577 20.0458 4.80577C20.0458 4.80006 20.0458 4.79434 20.0401 4.78863L20.0344 4.78291H20.023L20.0172 4.7772L20.0115 4.77148L19.9944 4.7772H19.9887H19.983H19.9773L19.9601 4.78291V4.78863C19.9601 4.78863 19.9601 4.79434 19.9544 4.79434L19.9487 4.80006L19.943 4.80577V4.81148L19.9373 4.8172L19.943 4.84006H19.9487C19.9715 4.84577 19.9715 4.84577 19.9715 4.84577Z" fill="#EF4A4A"/>
<path d="M19.0515 4.58262C19.0515 4.57691 19.0515 4.5712 19.0515 4.56548V4.55977L19.0344 4.54834H19.0287C19.023 4.54834 19.0001 4.54834 18.9944 4.5712V4.57691L19.0001 4.59405H19.0058C19.0172 4.59977 19.0287 4.60548 19.0401 4.59977C19.0401 4.59977 19.0458 4.59405 19.0515 4.58262Z" fill="#EF4A4A"/>
<path d="M20.7773 5.38858V5.39429C20.7773 5.40572 20.7888 5.41144 20.8002 5.41144C20.8116 5.41144 20.8231 5.40572 20.8288 5.39429C20.8288 5.38858 20.8288 5.37715 20.8231 5.37144L20.8173 5.36572H20.8002C20.7888 5.37144 20.7831 5.38287 20.7773 5.38858Z" fill="#EF4A4A"/>
<path d="M21.0973 5.70878C21.1088 5.71449 21.1145 5.71449 21.1202 5.71449L21.1316 5.70878C21.1316 5.70878 21.1373 5.70306 21.1373 5.69735V5.69164V5.68592L21.1316 5.68021C21.1316 5.68021 21.1316 5.68021 21.1316 5.67449C21.1316 5.67449 21.1316 5.66878 21.1316 5.66306V5.65735L21.1202 5.64592H21.1145C21.0973 5.64021 21.0859 5.64592 21.0802 5.65164L21.0745 5.65735L21.0802 5.67449L21.0745 5.68021C21.0802 5.68592 21.0859 5.69735 21.0973 5.70878Z" fill="#EF4A4A"/>
<path d="M20.5259 5.61702C20.5316 5.61702 20.5373 5.6113 20.543 5.59987C20.543 5.59416 20.543 5.58845 20.5373 5.57702L20.5316 5.5713H20.5259C20.5201 5.55987 20.5201 5.55416 20.5201 5.54273V5.53702L20.503 5.51987H20.4973C20.4973 5.51987 20.4859 5.51416 20.4801 5.51416C20.4744 5.51416 20.4687 5.51416 20.463 5.51416H20.4573L20.4459 5.51987C20.4401 5.51987 20.4401 5.52559 20.4344 5.5313L20.4287 5.53702V5.54273V5.54845V5.55416V5.55987L20.4344 5.56559C20.4344 5.56559 20.4344 5.56559 20.4344 5.5713V5.57702L20.4459 5.59416H20.4516C20.4573 5.59416 20.4573 5.59987 20.463 5.59987C20.4687 5.59987 20.4744 5.60559 20.4859 5.60559C20.4859 5.6113 20.4916 5.61702 20.4973 5.61702L20.503 5.62273L20.5259 5.61702Z" fill="#EF4A4A"/>
<path d="M20.5202 5.39405L20.5145 5.37119H20.5088C20.503 5.37119 20.4916 5.36548 20.4802 5.37119C20.4745 5.37691 20.4688 5.38262 20.4688 5.38833V5.39405V5.39976L20.4802 5.4169H20.4859C20.5088 5.4169 20.5145 5.39976 20.5202 5.39405Z" fill="#EF4A4A"/>
<path d="M20.1371 5.19996C20.1371 5.18853 20.1371 5.18282 20.1314 5.1771L20.1257 5.17139L20.1028 5.1771C20.0971 5.1771 20.0914 5.18282 20.0857 5.19424V5.19996L20.0914 5.2171H20.0971C20.1028 5.22281 20.1143 5.22281 20.1257 5.2171C20.1314 5.2171 20.1371 5.21139 20.1371 5.19996Z" fill="#EF4A4A"/>
<path d="M3.60579 21.6802L2.08008 22.2745Z" fill="url(#paint27_linear)"/>
<path d="M2.16012 20.8174L1.72583 21.9202C1.9144 22.1545 2.08583 21.9259 2.30297 21.4688C2.40583 21.246 2.34869 20.9774 2.16012 20.8174Z" fill="url(#paint28_linear)"/>
<defs>
<linearGradient id="paint0_linear" x1="7.32664" y1="20.4475" x2="6.57112" y2="18.6617" gradientUnits="userSpaceOnUse">
<stop stop-color="#EFA25F"/>
<stop offset="1" stop-color="#FCD2A8"/>
</linearGradient>
<linearGradient id="paint1_linear" x1="7.35401" y1="19.5369" x2="5.98438" y2="17.4437" gradientUnits="userSpaceOnUse">
<stop stop-color="#FCD2A8" stop-opacity="0"/>
<stop offset="0.0478245" stop-color="#FACB9E" stop-opacity="0.0487429"/>
<stop offset="0.235" stop-color="#F4B57C" stop-opacity="0.2395"/>
<stop offset="0.3892" stop-color="#F0A767" stop-opacity="0.3967"/>
<stop offset="0.4906" stop-color="#EFA25F" stop-opacity="0.5"/>
<stop offset="0.7958" stop-color="#EA954B" stop-opacity="0.2004"/>
<stop offset="1" stop-color="#E89043" stop-opacity="0"/>
</linearGradient>
<linearGradient id="paint2_linear" x1="12.1272" y1="14.1208" x2="8.64668" y2="11.8627" gradientUnits="userSpaceOnUse">
<stop stop-color="#3C2200"/>
<stop offset="1" stop-color="#512D00"/>
</linearGradient>
<linearGradient id="paint3_linear" x1="10.526" y1="13.3187" x2="8.58783" y2="11.3289" gradientUnits="userSpaceOnUse">
<stop stop-color="#F8BE00"/>
<stop offset="1" stop-color="#FCCE38"/>
</linearGradient>
<linearGradient id="paint4_linear" x1="10.9976" y1="13.7819" x2="12.9874" y2="15.7201" gradientUnits="userSpaceOnUse">
<stop stop-color="#FBA23B"/>
<stop offset="1" stop-color="#FCCE38"/>
</linearGradient>
<linearGradient id="paint5_linear" x1="12.3566" y1="14.8282" x2="10.6614" y2="13.9711" gradientUnits="userSpaceOnUse">
<stop stop-color="#FBA23B"/>
<stop offset="1" stop-color="#FF8000"/>
</linearGradient>
<linearGradient id="paint6_linear" x1="15.6735" y1="4.50225" x2="19.4982" y2="8.32687" gradientUnits="userSpaceOnUse">
<stop stop-color="#CFDCDE"/>
<stop offset="0.2323" stop-color="white"/>
<stop offset="1" stop-color="#A9BCBE"/>
</linearGradient>
<linearGradient id="paint7_linear" x1="19.622" y1="5.24985" x2="19.9062" y2="1.89037" gradientUnits="userSpaceOnUse">
<stop stop-color="#FF6688"/>
<stop offset="1" stop-color="#FB9C9C"/>
</linearGradient>
<linearGradient id="paint8_linear" x1="17.0746" y1="5.90299" x2="19.3358" y2="8.16417" gradientUnits="userSpaceOnUse">
<stop stop-color="#BBCACC" stop-opacity="0"/>
<stop offset="0.4864" stop-color="#DEE7E8"/>
<stop offset="1" stop-color="#8EA5A8" stop-opacity="0"/>
</linearGradient>
<linearGradient id="paint9_linear" x1="14.6076" y1="5.25648" x2="18.7442" y2="9.39313" gradientUnits="userSpaceOnUse">
<stop stop-color="#CFDCDE"/>
<stop offset="0.2323" stop-color="white"/>
<stop offset="1" stop-color="#A9BCBE"/>
</linearGradient>
<linearGradient id="paint10_linear" x1="15.8482" y1="4.01545" x2="19.9848" y2="8.1521" gradientUnits="userSpaceOnUse">
<stop stop-color="#CFDCDE"/>
<stop offset="0.2323" stop-color="white"/>
<stop offset="1" stop-color="#A9BCBE"/>
</linearGradient>
<linearGradient id="paint11_linear" x1="16.3623" y1="3.5014" x2="20.4989" y2="7.63805" gradientUnits="userSpaceOnUse">
<stop stop-color="#CFDCDE"/>
<stop offset="0.2323" stop-color="white"/>
<stop offset="1" stop-color="#A9BCBE"/>
</linearGradient>
<linearGradient id="paint12_linear" x1="17.8876" y1="4.20324" x2="19.8688" y2="9.35443" gradientUnits="userSpaceOnUse">
<stop stop-color="#CFDCDE"/>
<stop offset="1" stop-color="#A9BCBE"/>
</linearGradient>
<linearGradient id="paint13_linear" x1="17.2672" y1="4.44214" x2="19.2485" y2="9.59334" gradientUnits="userSpaceOnUse">
<stop stop-color="#CFDCDE"/>
<stop offset="1" stop-color="#A9BCBE"/>
</linearGradient>
<linearGradient id="paint14_linear" x1="16.0267" y1="5.68254" x2="18.0079" y2="10.8337" gradientUnits="userSpaceOnUse">
<stop stop-color="#CFDCDE"/>
<stop offset="1" stop-color="#A9BCBE"/>
</linearGradient>
<linearGradient id="paint15_linear" x1="18.1101" y1="9.38585" x2="14.5345" y2="5.8103" gradientUnits="userSpaceOnUse">
<stop stop-color="#99AFB3"/>
<stop offset="0.7677" stop-color="#DEE7E8"/>
<stop offset="1" stop-color="#BBCACC"/>
</linearGradient>
<linearGradient id="paint16_linear" x1="19.3507" y1="8.14496" x2="15.7752" y2="4.5694" gradientUnits="userSpaceOnUse">
<stop stop-color="#99AFB3"/>
<stop offset="0.7677" stop-color="#DEE7E8"/>
<stop offset="1" stop-color="#BBCACC"/>
</linearGradient>
<linearGradient id="paint17_linear" x1="19.1329" y1="5.27592" x2="17.1689" y2="6.46466" gradientUnits="userSpaceOnUse">
<stop stop-color="#99AFB3"/>
<stop offset="1" stop-color="#BBCACC" stop-opacity="0"/>
</linearGradient>
<linearGradient id="paint18_linear" x1="2.1391" y1="21.4566" x2="3.00339" y2="22.1995" gradientUnits="userSpaceOnUse">
<stop stop-color="#7A4400"/>
<stop offset="1" stop-color="#512D00"/>
</linearGradient>
<linearGradient id="paint19_linear" x1="6.57108" y1="19.5344" x2="7.29466" y2="19.4655" gradientUnits="userSpaceOnUse">
<stop stop-color="#FBA23B"/>
<stop offset="1" stop-color="#FF8000"/>
</linearGradient>
<linearGradient id="paint20_linear" x1="8.14578" y1="17.7467" x2="12.3852" y2="11.8366" gradientUnits="userSpaceOnUse">
<stop stop-color="#3C2200"/>
<stop offset="1" stop-color="#512D00"/>
</linearGradient>
<linearGradient id="paint21_linear" x1="7.68994" y1="9.21878" x2="12.2523" y2="15.5753" gradientUnits="userSpaceOnUse">
<stop stop-color="#975500"/>
<stop offset="1" stop-color="#512D00"/>
</linearGradient>
<linearGradient id="paint22_linear" x1="9.67285" y1="12.4927" x2="12.0843" y2="15.5857" gradientUnits="userSpaceOnUse">
<stop stop-color="#FBA23B"/>
<stop offset="1" stop-color="#FF8000"/>
</linearGradient>
<linearGradient id="paint23_linear" x1="8.46336" y1="11.2282" x2="9.39623" y2="12.1611" gradientUnits="userSpaceOnUse">
<stop stop-color="#FF8000"/>
<stop offset="1" stop-color="#FF9D00" stop-opacity="0"/>
</linearGradient>
<linearGradient id="paint24_linear" x1="18.8946" y1="16.0642" x2="13.2783" y2="14.8582" gradientUnits="userSpaceOnUse">
<stop stop-color="#C86F34"/>
<stop offset="1" stop-color="#C86F34" stop-opacity="0"/>
</linearGradient>
<linearGradient id="paint25_linear" x1="19.3587" y1="2.22366" x2="20.3234" y2="6.22057" gradientUnits="userSpaceOnUse">
<stop stop-color="#EF708C"/>
<stop offset="1" stop-color="#FF5776"/>
</linearGradient>
<linearGradient id="paint26_linear" x1="19.9943" y1="5.1837" x2="20.1405" y2="2.58991" gradientUnits="userSpaceOnUse">
<stop stop-color="#FF6688"/>
<stop offset="1" stop-color="#FB9C9C"/>
</linearGradient>
<linearGradient id="paint27_linear" x1="2.31869" y1="21.7193" x2="2.98736" y2="22.0494" gradientUnits="userSpaceOnUse">
<stop stop-color="#3C2200"/>
<stop offset="1" stop-color="#512D00"/>
</linearGradient>
<linearGradient id="paint28_linear" x1="2.21421" y1="21.5445" x2="3.04278" y2="22.0516" gradientUnits="userSpaceOnUse">
<stop stop-color="#7A4400"/>
<stop offset="1" stop-color="#512D00"/>
</linearGradient>
</defs>
</svg>
