<svg width="240" height="240" viewBox="0 0 240 240" fill="none" xmlns="http://www.w3.org/2000/svg">
<rect width="240" height="240" rx="12" fill="#082343"/>
<path d="M67.8554 134.697C76.0258 120.546 111.792 105.026 126.821 98.9959C130.295 97.6024 134.078 99.7867 134.608 103.491C136.901 119.522 141.343 158.257 133.173 172.408C122.759 190.445 99.6954 196.625 81.6585 186.211C63.6217 175.798 57.4418 152.734 67.8554 134.697Z" fill="#1127EF"/>
<g style="mix-blend-mode:hard-light">
<path d="M172.455 104.37C164.285 118.521 128.518 134.041 113.489 140.071C110.016 141.465 106.232 139.28 105.702 135.575C103.409 119.545 98.9673 80.8102 107.138 66.6586C117.551 48.6218 140.615 42.4419 158.652 52.8555C176.689 63.269 182.869 86.3327 172.455 104.37Z" fill="#03D2D4"/>
</g>
</svg>
