<svg width="267" height="50" viewBox="0 0 267 50" fill="none" xmlns="http://www.w3.org/2000/svg">
<path d="M36.6682 20.5201C33.4595 25.6576 26.9124 29.4846 19.8519 29.3741C17.8423 29.3426 15.9906 28.2649 15.1445 26.454C13.7868 23.5478 13.2739 19.8871 13.5095 16.2957C13.7451 12.7031 14.725 9.249 16.2828 6.75476C19.9371 0.90363 27.4633 -0.761577 33.0938 3.04049C38.7244 6.84255 40.3225 14.6689 36.6682 20.5201Z" fill="#00E0FF"/>
<path d="M36.6682 20.5201C33.4595 25.6576 26.9124 29.4846 19.8519 29.3741C17.8423 29.3426 15.9906 28.2649 15.1445 26.454C13.7868 23.5478 13.2739 19.8871 13.5095 16.2957C13.7451 12.7031 14.725 9.249 16.2828 6.75476C19.9371 0.90363 27.4633 -0.761577 33.0938 3.04049C38.7244 6.84255 40.3225 14.6689 36.6682 20.5201Z" fill="url(#paint0_radial_4_294)" fill-opacity="0.75"/>
<path d="M36.6682 20.5201C33.4595 25.6576 26.9124 29.4846 19.8519 29.3741C17.8423 29.3426 15.9906 28.2649 15.1445 26.454C13.7868 23.5478 13.2739 19.8871 13.5095 16.2957C13.7451 12.7031 14.725 9.249 16.2828 6.75476C19.9371 0.90363 27.4633 -0.761577 33.0938 3.04049C38.7244 6.84255 40.3225 14.6689 36.6682 20.5201Z" fill="url(#paint1_radial_4_294)" fill-opacity="0.1"/>
<path d="M36.6682 20.5201C33.4595 25.6576 26.9124 29.4846 19.8519 29.3741C17.8423 29.3426 15.9906 28.2649 15.1445 26.454C13.7868 23.5478 13.2739 19.8871 13.5095 16.2957C13.7451 12.7031 14.725 9.249 16.2828 6.75476C19.9371 0.90363 27.4633 -0.761577 33.0938 3.04049C38.7244 6.84255 40.3225 14.6689 36.6682 20.5201Z" fill="url(#paint2_radial_4_294)" fill-opacity="0.1"/>
<path d="M36.6682 20.5201C33.4595 25.6576 26.9124 29.4846 19.8519 29.3741C17.8423 29.3426 15.9906 28.2649 15.1445 26.454C13.7868 23.5478 13.2739 19.8871 13.5095 16.2957C13.7451 12.7031 14.725 9.249 16.2828 6.75476C19.9371 0.90363 27.4633 -0.761577 33.0938 3.04049C38.7244 6.84255 40.3225 14.6689 36.6682 20.5201Z" stroke="#00CAE6" stroke-width="2"/>
<g filter="url(#filter0_ii_4_294)">
<mask id="mask0_4_294" style="mask-type:alpha" maskUnits="userSpaceOnUse" x="0" y="19" width="27" height="30">
<path fill-rule="evenodd" clip-rule="evenodd" d="M11.9117 19.3671C7.61037 21.2376 3.69451 24.5479 1.71501 28.113C-1.81551 34.4715 0.279679 42.6022 6.3948 46.2732C12.5099 49.9443 20.3293 47.7658 23.8599 41.4072C25.502 38.4498 26.3319 34.3802 26.2287 30.3338C24.0112 30.9806 21.6626 31.3044 19.2678 31.2278C17.0588 31.1572 14.9795 29.9782 13.9683 27.935C12.7312 25.4351 12.0673 22.4417 11.9117 19.3671Z" fill="white"/>
</mask>
<g mask="url(#mask0_4_294)">
<path fill-rule="evenodd" clip-rule="evenodd" d="M11.9117 19.3671C7.61037 21.2376 3.69451 24.5479 1.71501 28.113C-1.81551 34.4715 0.279679 42.6022 6.3948 46.2732C12.5099 49.9443 20.3293 47.7658 23.8599 41.4072C25.502 38.4498 26.3319 34.3802 26.2287 30.3338C24.0112 30.9806 21.6626 31.3044 19.2678 31.2278C17.0588 31.1572 14.9795 29.9782 13.9683 27.935C12.7312 25.4351 12.0673 22.4417 11.9117 19.3671Z" fill="#5353EC"/>
<path fill-rule="evenodd" clip-rule="evenodd" d="M11.9117 19.3671C7.61037 21.2376 3.69451 24.5479 1.71501 28.113C-1.81551 34.4715 0.279679 42.6022 6.3948 46.2732C12.5099 49.9443 20.3293 47.7658 23.8599 41.4072C25.502 38.4498 26.3319 34.3802 26.2287 30.3338C24.0112 30.9806 21.6626 31.3044 19.2678 31.2278C17.0588 31.1572 14.9795 29.9782 13.9683 27.935C12.7312 25.4351 12.0673 22.4417 11.9117 19.3671Z" fill="url(#paint3_radial_4_294)" fill-opacity="0.15"/>
<path d="M1.71501 28.113L2.80581 28.7764L1.71501 28.113ZM11.9117 19.3671L13.1715 19.2973L13.077 17.4307L11.4276 18.148L11.9117 19.3671ZM6.3948 46.2733L7.02255 45.1281L6.3948 46.2733ZM23.8599 41.4073L22.7691 40.744L23.8599 41.4073ZM26.2287 30.3338L27.4898 30.2986L27.4466 28.608L25.89 29.0621L26.2287 30.3338ZM19.2678 31.2279L19.2293 32.5475L19.2678 31.2279ZM13.9683 27.935L15.0885 27.3279L13.9683 27.935ZM2.80581 28.7764C4.61747 25.5136 8.28991 22.3718 12.3958 20.5863L11.4276 18.148C6.93084 20.1034 2.77163 23.5824 0.624274 27.4497L2.80581 28.7764ZM7.02255 45.1281C1.51077 41.8192 -0.371406 34.4985 2.80581 28.7764L0.624274 27.4497C-3.25967 34.4447 -0.951468 43.3852 5.76706 47.4185L7.02255 45.1281ZM22.7691 40.744C19.5891 46.4711 12.539 48.4399 7.02255 45.1281L5.76706 47.4185C12.4809 51.449 21.0696 49.0605 24.9507 42.0706L22.7691 40.744ZM24.9676 30.3691C25.0661 34.2331 24.2669 38.0466 22.7691 40.744L24.9507 42.0706C26.7371 38.8532 27.5976 34.5275 27.4898 30.2986L24.9676 30.3691ZM25.89 29.0621C23.789 29.6749 21.5675 29.9805 19.3063 29.9083L19.2293 32.5475C21.7576 32.6283 24.2333 32.2864 26.5673 31.6056L25.89 29.0621ZM19.3063 29.9083C17.4806 29.8499 15.8573 28.8812 15.0885 27.3279L12.8481 28.5421C14.1016 31.0753 16.637 32.4646 19.2293 32.5475L19.3063 29.9083ZM15.0885 27.3279C13.9518 25.0309 13.3199 22.2299 13.1715 19.2973L10.6519 19.437C10.8147 22.6536 11.5106 25.8395 12.8481 28.5421L15.0885 27.3279Z" fill="black" fill-opacity="0.08"/>
</g>
</g>
<path d="M73.934 38.0965C77.2002 38.0965 79.7574 37.3458 81.6055 35.8444C83.4697 34.3431 84.4017 32.2726 84.4017 29.6328C84.4017 28.247 84.1229 27.0756 83.5653 26.1187C83.0236 25.1618 82.1154 24.3369 80.8408 23.6439C79.5662 22.9345 77.8454 22.2911 75.6786 21.7136C73.6552 21.1857 72.1256 20.732 71.09 20.3525C70.0703 19.9566 69.3772 19.5606 69.0108 19.1646C68.6443 18.7522 68.4611 18.249 68.4611 17.655C68.4611 16.6322 68.9311 15.832 69.8712 15.2545C70.8112 14.6606 72.038 14.3966 73.5516 14.4626C75.1289 14.5286 76.4115 14.9411 77.3993 15.7C78.3872 16.4424 78.9687 17.4488 79.144 18.7192L84.2583 17.754C83.9716 15.3783 82.8483 13.481 80.8886 12.0621C78.9289 10.6268 76.4673 9.90909 73.5038 9.90909C70.4766 9.90909 68.0469 10.6433 66.2146 12.1116C64.3824 13.5635 63.4662 15.502 63.4662 17.9273C63.4662 19.2306 63.7371 20.3443 64.2788 21.2682C64.8364 22.1756 65.7605 22.9675 67.0511 23.6439C68.3575 24.3204 70.1181 24.9638 72.3327 25.5742C74.3562 26.1352 75.8618 26.6054 76.8497 26.9848C77.8375 27.3643 78.4828 27.7685 78.7855 28.1975C79.1041 28.6099 79.2634 29.1544 79.2634 29.8308C79.2634 30.9857 78.8173 31.8931 77.9251 32.553C77.0488 33.213 75.83 33.5429 74.2686 33.5429C72.5478 33.5429 71.1059 33.147 69.9428 32.355C68.7957 31.5631 68.0628 30.466 67.7441 29.0636L62.6298 29.8803C63.0759 32.487 64.2868 34.5081 66.2624 35.9434C68.2381 37.3788 70.7952 38.0965 73.934 38.0965Z" fill="white"/>
<path d="M88.7338 6.27121H93.7287V1.24747H88.7338V6.27121ZM88.7338 37.3788H93.7287V10.6515H88.7338V37.3788Z" fill="white"/>
<path d="M99.4476 37.3788H104.514V23.4707C104.514 21.3589 104.809 19.6761 105.398 18.4222C106.004 17.1519 106.801 16.2362 107.788 15.6753C108.776 15.1143 109.868 14.8338 111.063 14.8338C112.433 14.8338 113.548 15.1226 114.408 15.7C115.269 16.2774 115.93 17.0364 116.392 17.9768C116.854 18.9172 117.165 19.9401 117.324 21.0455C117.499 22.1343 117.587 23.1985 117.587 24.2379V37.3788H122.654V22.5303C122.654 21.7054 122.582 20.7485 122.438 19.6596C122.295 18.5707 122.024 17.4571 121.626 16.3187C121.228 15.1803 120.646 14.1327 119.881 13.1758C119.132 12.2024 118.153 11.4187 116.942 10.8247C115.731 10.2308 114.233 9.93384 112.449 9.93384C110.585 9.93384 108.928 10.2803 107.478 10.9732C106.044 11.6662 104.857 12.6231 103.917 13.8439V10.6515H99.4476V37.3788Z" fill="white"/>
<path d="M137.697 38.1212C139.163 38.1212 140.485 37.8902 141.664 37.4283C142.843 36.9828 143.887 36.3476 144.795 35.5227V38.047C144.827 40.3402 144.253 42.0726 143.074 43.2439C141.911 44.4318 140.262 45.0258 138.127 45.0258C136.98 45.0258 135.889 44.7618 134.853 44.2338C133.818 43.7059 133.021 42.8727 132.463 41.7343L127.851 44.1596C128.902 46.0569 130.352 47.5005 132.2 48.4904C134.049 49.4968 136.008 50 138.08 50C141.091 50 143.608 49.3483 145.632 48.0449C147.655 46.7581 148.938 44.7618 149.479 42.0561C149.607 41.4291 149.694 40.7857 149.742 40.1258C149.79 39.4823 149.814 38.8059 149.814 38.0965V10.6515H145.393V13.052C144.469 12.0621 143.369 11.2949 142.095 10.7505C140.82 10.1896 139.386 9.90909 137.793 9.90909C135.371 9.90909 133.276 10.5278 131.507 11.7652C129.755 12.986 128.4 14.6606 127.445 16.7889C126.489 18.9007 126.011 21.3012 126.011 23.9904C126.011 26.6631 126.481 29.0636 127.421 31.1919C128.377 33.3202 129.731 35.0113 131.483 36.2652C133.236 37.5025 135.307 38.1212 137.697 38.1212ZM138.39 33.4439C136.797 33.4439 135.475 33.0232 134.423 32.1818C133.371 31.3404 132.591 30.2103 132.081 28.7914C131.571 27.3561 131.316 25.7557 131.316 23.9904C131.316 22.2416 131.571 20.6577 132.081 19.2389C132.607 17.82 133.403 16.6899 134.471 15.8485C135.538 15.0071 136.901 14.5864 138.558 14.5864C140.916 14.5864 142.644 15.4608 143.744 17.2096C144.843 18.9584 145.393 21.2187 145.393 23.9904C145.393 26.7621 144.843 29.0306 143.744 30.796C142.644 32.5613 140.86 33.4439 138.39 33.4439Z" fill="white"/>
<path d="M155.569 37.3788H160.564V1H155.569V37.3788Z" fill="white"/>
<path d="M177.754 38.1212C180.256 38.1212 182.526 37.4695 184.565 36.1662C186.605 34.8463 188.126 32.9902 189.13 30.598L184.231 28.9894C182.924 31.8271 180.686 33.246 177.515 33.246C175.348 33.246 173.643 32.5695 172.401 31.2167C171.158 29.8638 170.433 27.95 170.226 25.4753H189.465C189.64 22.2746 189.273 19.5111 188.365 17.1848C187.457 14.8586 186.079 13.0685 184.231 11.8146C182.383 10.5443 180.144 9.90909 177.515 9.90909C174.998 9.90909 172.791 10.4948 170.895 11.6662C168.999 12.8375 167.517 14.4956 166.45 16.6404C165.398 18.7852 164.873 21.3177 164.873 24.2379C164.873 26.9931 165.406 29.4184 166.474 31.5136C167.557 33.5924 169.063 35.2175 170.991 36.3889C172.934 37.5438 175.189 38.1212 177.754 38.1212ZM177.706 14.4874C181.61 14.4874 183.824 16.8054 184.35 21.4414H170.345C170.664 19.1811 171.437 17.4571 172.664 16.2692C173.89 15.0813 175.571 14.4874 177.706 14.4874Z" fill="white"/>
<path d="M193.871 37.3788H198.866V1H193.871V37.3788Z" fill="white"/>
<path d="M205.086 6.27121H210.081V1.24747H205.086V6.27121ZM205.086 37.3788H210.081V10.6515H205.086V37.3788Z" fill="white"/>
<path d="M215.8 37.3788H220.867V23.4707C220.867 21.3589 221.162 19.6761 221.751 18.4222C222.356 17.1519 223.153 16.2362 224.141 15.6753C225.129 15.1143 226.22 14.8338 227.415 14.8338C228.785 14.8338 229.901 15.1226 230.761 15.7C231.621 16.2774 232.283 17.0364 232.745 17.9768C233.207 18.9172 233.517 19.9401 233.677 21.0455C233.852 22.1343 233.94 23.1985 233.94 24.2379V37.3788H239.006V22.5303C239.006 21.7054 238.934 20.7485 238.791 19.6596C238.648 18.5707 238.377 17.4571 237.978 16.3187C237.58 15.1803 236.999 14.1327 236.234 13.1758C235.485 12.2024 234.505 11.4187 233.294 10.8247C232.083 10.2308 230.586 9.93384 228.801 9.93384C226.937 9.93384 225.28 10.2803 223.83 10.9732C222.396 11.6662 221.209 12.6231 220.269 13.8439V10.6515H215.8V37.3788Z" fill="white"/>
<path d="M243.773 37.3788H248.864V24.5101L259.666 37.3788H266.453L254.647 24.0152L265.354 10.6515H258.997L248.864 23.5202V1.74242H243.797L243.773 37.3788Z" fill="white"/>
<defs>
<filter id="filter0_ii_4_294" x="-5" y="19.3671" width="36.2372" height="32.6895" filterUnits="userSpaceOnUse" color-interpolation-filters="sRGB">
<feFlood flood-opacity="0" result="BackgroundImageFix"/>
<feBlend mode="normal" in="SourceGraphic" in2="BackgroundImageFix" result="shape"/>
<feColorMatrix in="SourceAlpha" type="matrix" values="0 0 0 0 0 0 0 0 0 0 0 0 0 0 0 0 0 0 127 0" result="hardAlpha"/>
<feOffset dx="-5" dy="4"/>
<feGaussianBlur stdDeviation="7.5"/>
<feComposite in2="hardAlpha" operator="arithmetic" k2="-1" k3="1"/>
<feColorMatrix type="matrix" values="0 0 0 0 0 0 0 0 0 0 0 0 0 0 0 0 0 0 0.25 0"/>
<feBlend mode="normal" in2="shape" result="effect1_innerShadow_4_294"/>
<feColorMatrix in="SourceAlpha" type="matrix" values="0 0 0 0 0 0 0 0 0 0 0 0 0 0 0 0 0 0 127 0" result="hardAlpha"/>
<feOffset dx="5" dy="4"/>
<feGaussianBlur stdDeviation="7.5"/>
<feComposite in2="hardAlpha" operator="arithmetic" k2="-1" k3="1"/>
<feColorMatrix type="matrix" values="0 0 0 0 0 0 0 0 0 0 0 0 0 0 0 0 0 0 0.25 0"/>
<feBlend mode="normal" in2="effect1_innerShadow_4_294" result="effect2_innerShadow_4_294"/>
</filter>
<radialGradient id="paint0_radial_4_294" cx="0" cy="0" r="1" gradientUnits="userSpaceOnUse" gradientTransform="translate(35.8613 3.76338) rotate(124.7) scale(19.7198 15.9605)">
<stop stop-color="white"/>
<stop offset="1" stop-color="white" stop-opacity="0"/>
</radialGradient>
<radialGradient id="paint1_radial_4_294" cx="0" cy="0" r="1" gradientUnits="userSpaceOnUse" gradientTransform="translate(12.1616 18.6789) rotate(-41.4713) scale(16.6472 13.7266)">
<stop/>
<stop offset="1" stop-opacity="0"/>
</radialGradient>
<radialGradient id="paint2_radial_4_294" cx="0" cy="0" r="1" gradientUnits="userSpaceOnUse" gradientTransform="translate(31.8074 28.4064) rotate(-103.662) scale(30.366 24.0554)">
<stop/>
<stop offset="1" stop-opacity="0"/>
</radialGradient>
<radialGradient id="paint3_radial_4_294" cx="0" cy="0" r="1" gradientUnits="userSpaceOnUse" gradientTransform="translate(31.4956 14.4635) rotate(126.618) scale(17.7753 14.4227)">
<stop stop-color="white"/>
<stop offset="1" stop-color="white" stop-opacity="0"/>
</radialGradient>
</defs>
</svg>
