<svg width="316" height="603" viewBox="0 0 316 603" fill="none" xmlns="http://www.w3.org/2000/svg">
<rect width="316" height="603" fill="white"/>
<g filter="url(#filter0_d)">
<rect x="39" y="226" width="250" height="51" rx="8" fill="#FF9900"/>
<g filter="url(#filter1_i)">
<path d="M85.6059 252.992V257H83.2622V245.625H87.6997C88.5539 245.625 89.3039 245.781 89.9497 246.094C90.6007 246.406 91.1007 246.852 91.4497 247.43C91.7986 248.003 91.9731 248.656 91.9731 249.391C91.9731 250.505 91.5903 251.385 90.8247 252.031C90.0643 252.672 89.0096 252.992 87.6606 252.992H85.6059ZM85.6059 251.094H87.6997C88.3195 251.094 88.7908 250.948 89.1137 250.656C89.4419 250.365 89.6059 249.948 89.6059 249.406C89.6059 248.849 89.4419 248.398 89.1137 248.055C88.7856 247.711 88.3325 247.534 87.7544 247.523H85.6059V251.094ZM98.0244 256.141C97.4671 256.818 96.6962 257.156 95.7119 257.156C94.8056 257.156 94.1129 256.896 93.6337 256.375C93.1598 255.854 92.9176 255.091 92.9072 254.086V248.547H95.165V254.008C95.165 254.888 95.566 255.328 96.3681 255.328C97.1337 255.328 97.6598 255.062 97.9462 254.531V248.547H100.212V257H98.0869L98.0244 256.141ZM106.185 250.664C105.878 250.622 105.607 250.602 105.372 250.602C104.518 250.602 103.958 250.891 103.693 251.469V257H101.435V248.547H103.568L103.63 249.555C104.083 248.779 104.711 248.391 105.513 248.391C105.763 248.391 105.997 248.424 106.216 248.492L106.185 250.664ZM110.158 255.336C110.575 255.336 110.913 255.221 111.174 254.992C111.434 254.763 111.57 254.458 111.58 254.078H113.697C113.692 254.651 113.536 255.177 113.228 255.656C112.921 256.13 112.499 256.5 111.963 256.766C111.432 257.026 110.843 257.156 110.197 257.156C108.989 257.156 108.036 256.773 107.338 256.008C106.64 255.237 106.291 254.174 106.291 252.82V252.672C106.291 251.37 106.637 250.331 107.33 249.555C108.023 248.779 108.973 248.391 110.182 248.391C111.239 248.391 112.085 248.693 112.721 249.297C113.361 249.896 113.687 250.695 113.697 251.695H111.58C111.57 251.258 111.434 250.904 111.174 250.633C110.913 250.357 110.57 250.219 110.142 250.219C109.616 250.219 109.218 250.411 108.947 250.797C108.682 251.177 108.549 251.797 108.549 252.656V252.891C108.549 253.76 108.682 254.385 108.947 254.766C109.213 255.146 109.616 255.336 110.158 255.336ZM116.709 249.469C117.308 248.75 118.061 248.391 118.967 248.391C120.801 248.391 121.73 249.456 121.756 251.586V257H119.498V251.648C119.498 251.164 119.394 250.807 119.186 250.578C118.978 250.344 118.631 250.227 118.147 250.227C117.485 250.227 117.006 250.482 116.709 250.992V257H114.452V245H116.709V249.469ZM127.878 257C127.774 256.797 127.698 256.544 127.651 256.242C127.104 256.852 126.393 257.156 125.518 257.156C124.69 257.156 124.003 256.917 123.456 256.438C122.914 255.958 122.643 255.354 122.643 254.625C122.643 253.729 122.974 253.042 123.636 252.562C124.302 252.083 125.263 251.841 126.518 251.836H127.557V251.352C127.557 250.961 127.456 250.648 127.253 250.414C127.055 250.18 126.74 250.062 126.307 250.062C125.927 250.062 125.628 250.154 125.409 250.336C125.196 250.518 125.089 250.768 125.089 251.086H122.831C122.831 250.596 122.982 250.143 123.284 249.727C123.586 249.31 124.013 248.984 124.565 248.75C125.117 248.51 125.737 248.391 126.425 248.391C127.466 248.391 128.292 248.654 128.901 249.18C129.516 249.701 129.823 250.435 129.823 251.383V255.047C129.828 255.849 129.94 256.456 130.159 256.867V257H127.878ZM126.011 255.43C126.344 255.43 126.651 255.357 126.932 255.211C127.214 255.06 127.422 254.859 127.557 254.609V253.156H126.714C125.584 253.156 124.982 253.547 124.909 254.328L124.901 254.461C124.901 254.742 125 254.974 125.198 255.156C125.396 255.339 125.667 255.43 126.011 255.43ZM135.656 254.664C135.656 254.388 135.518 254.172 135.242 254.016C134.971 253.854 134.533 253.711 133.929 253.586C131.919 253.164 130.913 252.31 130.913 251.023C130.913 250.273 131.223 249.648 131.843 249.148C132.468 248.643 133.283 248.391 134.288 248.391C135.361 248.391 136.218 248.643 136.859 249.148C137.505 249.654 137.827 250.31 137.827 251.117H135.57C135.57 250.794 135.466 250.529 135.257 250.32C135.049 250.107 134.723 250 134.281 250C133.9 250 133.606 250.086 133.398 250.258C133.189 250.43 133.085 250.648 133.085 250.914C133.085 251.164 133.202 251.367 133.437 251.523C133.676 251.674 134.077 251.807 134.64 251.922C135.202 252.031 135.676 252.156 136.062 252.297C137.255 252.734 137.851 253.492 137.851 254.57C137.851 255.341 137.52 255.966 136.859 256.445C136.197 256.919 135.343 257.156 134.296 257.156C133.588 257.156 132.958 257.031 132.406 256.781C131.859 256.526 131.429 256.18 131.117 255.742C130.804 255.299 130.648 254.823 130.648 254.312H132.788C132.809 254.714 132.958 255.021 133.234 255.234C133.51 255.448 133.88 255.555 134.343 255.555C134.775 255.555 135.101 255.474 135.32 255.312C135.544 255.146 135.656 254.93 135.656 254.664ZM142.722 257.156C141.483 257.156 140.472 256.776 139.691 256.016C138.915 255.255 138.527 254.242 138.527 252.977V252.758C138.527 251.909 138.691 251.151 139.019 250.484C139.347 249.812 139.811 249.297 140.41 248.938C141.014 248.573 141.702 248.391 142.472 248.391C143.629 248.391 144.538 248.755 145.199 249.484C145.866 250.214 146.199 251.247 146.199 252.586V253.508H140.816C140.889 254.06 141.108 254.503 141.472 254.836C141.842 255.169 142.308 255.336 142.871 255.336C143.741 255.336 144.42 255.021 144.91 254.391L146.019 255.633C145.681 256.112 145.222 256.487 144.644 256.758C144.066 257.023 143.426 257.156 142.722 257.156ZM142.465 250.219C142.017 250.219 141.652 250.37 141.371 250.672C141.095 250.974 140.918 251.406 140.84 251.969H143.98V251.789C143.97 251.289 143.834 250.904 143.574 250.633C143.314 250.357 142.944 250.219 142.465 250.219ZM152.895 257H150.63V248.547H152.895V257ZM150.497 246.359C150.497 246.021 150.609 245.742 150.833 245.523C151.062 245.305 151.372 245.195 151.762 245.195C152.148 245.195 152.455 245.305 152.684 245.523C152.914 245.742 153.028 246.021 153.028 246.359C153.028 246.703 152.911 246.984 152.677 247.203C152.447 247.422 152.143 247.531 151.762 247.531C151.382 247.531 151.075 247.422 150.841 247.203C150.611 246.984 150.497 246.703 150.497 246.359ZM156.361 248.547L156.431 249.523C157.035 248.768 157.845 248.391 158.861 248.391C159.756 248.391 160.423 248.654 160.861 249.18C161.298 249.706 161.522 250.492 161.532 251.539V257H159.275V251.594C159.275 251.115 159.171 250.768 158.962 250.555C158.754 250.336 158.407 250.227 157.923 250.227C157.288 250.227 156.811 250.497 156.493 251.039V257H154.236V248.547H156.361ZM167.349 254.664C167.349 254.388 167.211 254.172 166.935 254.016C166.664 253.854 166.227 253.711 165.623 253.586C163.612 253.164 162.607 252.31 162.607 251.023C162.607 250.273 162.917 249.648 163.537 249.148C164.162 248.643 164.977 248.391 165.982 248.391C167.055 248.391 167.912 248.643 168.552 249.148C169.198 249.654 169.521 250.31 169.521 251.117H167.263C167.263 250.794 167.159 250.529 166.951 250.32C166.743 250.107 166.417 250 165.974 250C165.594 250 165.3 250.086 165.092 250.258C164.883 250.43 164.779 250.648 164.779 250.914C164.779 251.164 164.896 251.367 165.131 251.523C165.37 251.674 165.771 251.807 166.334 251.922C166.896 252.031 167.37 252.156 167.756 252.297C168.948 252.734 169.545 253.492 169.545 254.57C169.545 255.341 169.214 255.966 168.552 256.445C167.891 256.919 167.037 257.156 165.99 257.156C165.282 257.156 164.651 257.031 164.099 256.781C163.552 256.526 163.123 256.18 162.81 255.742C162.498 255.299 162.342 254.823 162.342 254.312H164.482C164.503 254.714 164.651 255.021 164.927 255.234C165.204 255.448 165.573 255.555 166.037 255.555C166.469 255.555 166.795 255.474 167.013 255.312C167.237 255.146 167.349 254.93 167.349 254.664ZM173.229 246.469V248.547H174.674V250.203H173.229V254.422C173.229 254.734 173.289 254.958 173.408 255.094C173.528 255.229 173.757 255.297 174.096 255.297C174.346 255.297 174.567 255.279 174.76 255.242V256.953C174.317 257.089 173.862 257.156 173.393 257.156C171.809 257.156 171.002 256.357 170.971 254.758V250.203H169.737V248.547H170.971V246.469H173.229ZM180.35 257C180.246 256.797 180.171 256.544 180.124 256.242C179.577 256.852 178.866 257.156 177.991 257.156C177.163 257.156 176.475 256.917 175.928 256.438C175.387 255.958 175.116 255.354 175.116 254.625C175.116 253.729 175.447 253.042 176.108 252.562C176.775 252.083 177.736 251.841 178.991 251.836H180.03V251.352C180.03 250.961 179.928 250.648 179.725 250.414C179.527 250.18 179.212 250.062 178.78 250.062C178.4 250.062 178.1 250.154 177.882 250.336C177.668 250.518 177.561 250.768 177.561 251.086H175.303C175.303 250.596 175.454 250.143 175.757 249.727C176.059 249.31 176.486 248.984 177.038 248.75C177.59 248.51 178.21 248.391 178.897 248.391C179.939 248.391 180.764 248.654 181.374 249.18C181.988 249.701 182.296 250.435 182.296 251.383V255.047C182.301 255.849 182.413 256.456 182.632 256.867V257H180.35ZM178.483 255.43C178.816 255.43 179.124 255.357 179.405 255.211C179.686 255.06 179.895 254.859 180.03 254.609V253.156H179.186C178.056 253.156 177.454 253.547 177.382 254.328L177.374 254.461C177.374 254.742 177.473 254.974 177.671 255.156C177.869 255.339 178.139 255.43 178.483 255.43ZM185.628 248.547L185.698 249.523C186.303 248.768 187.112 248.391 188.128 248.391C189.024 248.391 189.691 248.654 190.128 249.18C190.566 249.706 190.79 250.492 190.8 251.539V257H188.542V251.594C188.542 251.115 188.438 250.768 188.23 250.555C188.021 250.336 187.675 250.227 187.191 250.227C186.555 250.227 186.079 250.497 185.761 251.039V257H183.503V248.547H185.628ZM194.742 246.469V248.547H196.187V250.203H194.742V254.422C194.742 254.734 194.802 254.958 194.922 255.094C195.041 255.229 195.271 255.297 195.609 255.297C195.859 255.297 196.08 255.279 196.273 255.242V256.953C195.83 257.089 195.375 257.156 194.906 257.156C193.323 257.156 192.515 256.357 192.484 254.758V250.203H191.25V248.547H192.484V246.469H194.742ZM199.348 257H197.082V245H199.348V257ZM203.891 253.805L205.454 248.547H207.876L204.477 258.312L204.29 258.758C203.784 259.862 202.951 260.414 201.79 260.414C201.462 260.414 201.128 260.365 200.79 260.266V258.555L201.133 258.562C201.561 258.562 201.878 258.497 202.087 258.367C202.3 258.237 202.467 258.021 202.587 257.719L202.852 257.023L199.891 248.547H202.321L203.891 253.805ZM216.181 253.039H211.783V251.219H216.181V253.039ZM226.323 254.008C226.323 253.581 226.203 253.242 225.963 252.992C225.729 252.737 225.328 252.503 224.76 252.289C224.193 252.076 223.703 251.865 223.292 251.656C222.88 251.443 222.526 251.201 222.229 250.93C221.937 250.654 221.708 250.331 221.542 249.961C221.38 249.591 221.299 249.151 221.299 248.641C221.299 247.76 221.581 247.039 222.143 246.477C222.706 245.914 223.453 245.586 224.385 245.492V243.82H225.635V245.516C226.557 245.646 227.279 246.031 227.799 246.672C228.32 247.307 228.581 248.133 228.581 249.148H226.323C226.323 248.523 226.193 248.057 225.932 247.75C225.677 247.438 225.333 247.281 224.901 247.281C224.474 247.281 224.143 247.404 223.909 247.648C223.674 247.888 223.557 248.221 223.557 248.648C223.557 249.044 223.672 249.362 223.901 249.602C224.13 249.841 224.555 250.086 225.174 250.336C225.799 250.586 226.312 250.823 226.713 251.047C227.114 251.266 227.453 251.516 227.729 251.797C228.005 252.073 228.216 252.391 228.362 252.75C228.508 253.104 228.581 253.518 228.581 253.992C228.581 254.878 228.305 255.596 227.753 256.148C227.2 256.701 226.44 257.026 225.471 257.125V258.68H224.229V257.133C223.161 257.018 222.333 256.641 221.745 256C221.161 255.354 220.87 254.497 220.87 253.43H223.128C223.128 254.049 223.273 254.526 223.565 254.859C223.862 255.188 224.286 255.352 224.838 255.352C225.297 255.352 225.659 255.232 225.924 254.992C226.19 254.747 226.323 254.419 226.323 254.008ZM237.429 257H229.632V255.453L233.312 251.531C233.817 250.979 234.189 250.497 234.429 250.086C234.674 249.674 234.796 249.284 234.796 248.914C234.796 248.409 234.668 248.013 234.413 247.727C234.158 247.435 233.793 247.289 233.319 247.289C232.809 247.289 232.405 247.466 232.108 247.82C231.817 248.169 231.671 248.63 231.671 249.203H229.405C229.405 248.51 229.569 247.878 229.897 247.305C230.231 246.732 230.7 246.284 231.304 245.961C231.908 245.633 232.593 245.469 233.358 245.469C234.53 245.469 235.439 245.75 236.085 246.312C236.736 246.875 237.062 247.669 237.062 248.695C237.062 249.258 236.916 249.831 236.624 250.414C236.332 250.997 235.832 251.677 235.124 252.453L232.538 255.18H237.429V257ZM246.136 257H238.339V255.453L242.019 251.531C242.524 250.979 242.897 250.497 243.136 250.086C243.381 249.674 243.503 249.284 243.503 248.914C243.503 248.409 243.376 248.013 243.121 247.727C242.865 247.435 242.501 247.289 242.027 247.289C241.516 247.289 241.113 247.466 240.816 247.82C240.524 248.169 240.378 248.63 240.378 249.203H238.113C238.113 248.51 238.277 247.878 238.605 247.305C238.938 246.732 239.407 246.284 240.011 245.961C240.615 245.633 241.3 245.469 242.066 245.469C243.238 245.469 244.147 245.75 244.793 246.312C245.444 246.875 245.769 247.669 245.769 248.695C245.769 249.258 245.623 249.831 245.332 250.414C245.04 250.997 244.54 251.677 243.832 252.453L241.246 255.18H246.136V257Z" fill="white"/>
</g>
</g>
<path d="M164.846 300.606C164.846 301.306 164.723 301.92 164.475 302.447C164.228 302.975 163.873 303.382 163.411 303.668C162.952 303.954 162.424 304.098 161.829 304.098C161.24 304.098 160.714 303.956 160.252 303.673C159.789 303.39 159.431 302.986 159.177 302.462C158.923 301.935 158.795 301.329 158.792 300.646V300.294C158.792 299.594 158.917 298.979 159.168 298.448C159.421 297.914 159.778 297.506 160.237 297.223C160.699 296.936 161.226 296.793 161.819 296.793C162.411 296.793 162.937 296.936 163.396 297.223C163.858 297.506 164.215 297.914 164.465 298.448C164.719 298.979 164.846 299.592 164.846 300.289V300.606ZM163.362 300.284C163.362 299.539 163.228 298.972 162.962 298.585C162.695 298.198 162.314 298.004 161.819 298.004C161.327 298.004 160.948 298.196 160.681 298.58C160.414 298.961 160.279 299.521 160.276 300.26V300.606C160.276 301.332 160.409 301.896 160.676 302.296C160.943 302.696 161.327 302.896 161.829 302.896C162.32 302.896 162.698 302.704 162.962 302.32C163.225 301.933 163.359 301.37 163.362 300.631V300.284ZM168.487 300.04C168.295 300.014 168.125 300.001 167.979 300.001C167.445 300.001 167.095 300.182 166.929 300.543V304H165.518V298.717H166.851L166.89 299.347C167.173 298.862 167.565 298.619 168.067 298.619C168.223 298.619 168.37 298.64 168.506 298.683L168.487 300.04Z" fill="black" fill-opacity="0.5"/>
<rect x="68" y="301" width="76" height="1" fill="#C4C4C4"/>
<rect x="183" y="301" width="76" height="1" fill="#C4C4C4"/>
<path d="M30.2908 334.493V338H28.24V328.047H32.1228C32.8702 328.047 33.5265 328.184 34.0916 328.457C34.6612 328.73 35.0987 329.12 35.4041 329.626C35.7094 330.127 35.8621 330.699 35.8621 331.342C35.8621 332.317 35.5271 333.087 34.8572 333.652C34.1918 334.213 33.269 334.493 32.0886 334.493H30.2908ZM30.2908 332.832H32.1228C32.6651 332.832 33.0776 332.704 33.3601 332.449C33.6472 332.194 33.7908 331.829 33.7908 331.355C33.7908 330.868 33.6472 330.474 33.3601 330.173C33.073 329.872 32.6765 329.717 32.1707 329.708H30.2908V332.832ZM40.9313 338C40.8402 337.822 40.7741 337.601 40.7331 337.337C40.2546 337.87 39.6325 338.137 38.8669 338.137C38.1423 338.137 37.5407 337.927 37.0622 337.508C36.5882 337.089 36.3513 336.56 36.3513 335.922C36.3513 335.138 36.6406 334.536 37.2194 334.117C37.8027 333.698 38.6436 333.486 39.7419 333.481H40.6511V333.058C40.6511 332.716 40.5622 332.442 40.3845 332.237C40.2113 332.032 39.9356 331.93 39.5573 331.93C39.2246 331.93 38.9626 332.009 38.7712 332.169C38.5843 332.328 38.4909 332.547 38.4909 332.825H36.5153C36.5153 332.397 36.6475 332 36.9118 331.636C37.1761 331.271 37.5498 330.986 38.0329 330.781C38.516 330.572 39.0583 330.467 39.6598 330.467C40.5713 330.467 41.2936 330.697 41.8268 331.157C42.3646 331.613 42.6335 332.256 42.6335 333.085V336.291C42.638 336.993 42.736 337.524 42.9274 337.884V338H40.9313ZM39.2975 336.626C39.5892 336.626 39.8581 336.562 40.1042 336.435C40.3503 336.302 40.5326 336.127 40.6511 335.908V334.637H39.9128C38.9238 334.637 38.3975 334.979 38.3337 335.662L38.3268 335.778C38.3268 336.024 38.4134 336.227 38.5866 336.387C38.7598 336.546 38.9968 336.626 39.2975 336.626ZM46.3834 335.204L47.7506 330.604H49.8697L46.8961 339.148L46.732 339.538C46.29 340.504 45.5608 340.987 44.5445 340.987C44.2574 340.987 43.9658 340.944 43.6695 340.857V339.36L43.9703 339.367C44.344 339.367 44.622 339.31 44.8043 339.196C44.9911 339.082 45.137 338.893 45.2418 338.629L45.4742 338.021L42.8834 330.604H45.0094L46.3834 335.204ZM59.728 335.313L60.6987 330.604H62.6059L60.7192 338H59.0649L57.6635 333.345L56.2621 338H54.6147L52.728 330.604H54.6352L55.5991 335.307L56.9526 330.604H58.3813L59.728 335.313ZM65.2552 338H63.2728V330.604H65.2552V338ZM63.1566 328.689C63.1566 328.393 63.2546 328.149 63.4506 327.958C63.6511 327.767 63.9222 327.671 64.264 327.671C64.6013 327.671 64.8701 327.767 65.0707 327.958C65.2712 328.149 65.3714 328.393 65.3714 328.689C65.3714 328.99 65.2689 329.236 65.0638 329.428C64.8633 329.619 64.5967 329.715 64.264 329.715C63.9313 329.715 63.6625 329.619 63.4574 329.428C63.2569 329.236 63.1566 328.99 63.1566 328.689ZM68.8343 328.785V330.604H70.0989V332.053H68.8343V335.744C68.8343 336.018 68.8867 336.214 68.9915 336.332C69.0963 336.451 69.2968 336.51 69.593 336.51C69.8118 336.51 70.0055 336.494 70.1741 336.462V337.959C69.7867 338.077 69.388 338.137 68.9778 338.137C67.5924 338.137 66.886 337.437 66.8587 336.038V332.053H65.7786V330.604H66.8587V328.785H68.8343ZM72.7072 331.41C73.2313 330.781 73.8898 330.467 74.6828 330.467C76.287 330.467 77.1005 331.399 77.1232 333.263V338H75.1477V333.317C75.1477 332.894 75.0565 332.581 74.8742 332.381C74.6919 332.176 74.3889 332.073 73.965 332.073C73.3863 332.073 72.967 332.297 72.7072 332.743V338H70.7316V327.5H72.7072V331.41ZM84.336 336.544C84.7006 336.544 84.9968 336.444 85.2247 336.243C85.4525 336.043 85.571 335.776 85.5801 335.443H87.4327C87.4281 335.945 87.2914 336.405 87.0225 336.824C86.7536 337.239 86.3845 337.562 85.9151 337.795C85.4502 338.023 84.9353 338.137 84.3702 338.137C83.3129 338.137 82.4789 337.802 81.8682 337.132C81.2575 336.457 80.9522 335.528 80.9522 334.343V334.213C80.9522 333.074 81.2553 332.164 81.8614 331.485C82.4675 330.806 83.2992 330.467 84.3565 330.467C85.2816 330.467 86.0222 330.731 86.5782 331.26C87.1387 331.784 87.4235 332.483 87.4327 333.358H85.5801C85.571 332.976 85.4525 332.666 85.2247 332.429C84.9968 332.187 84.696 332.066 84.3223 332.066C83.862 332.066 83.5134 332.235 83.2764 332.572C83.044 332.905 82.9278 333.447 82.9278 334.199V334.404C82.9278 335.165 83.044 335.712 83.2764 336.045C83.5088 336.378 83.862 336.544 84.336 336.544ZM92.2968 332.456C92.028 332.42 91.791 332.401 91.5859 332.401C90.8385 332.401 90.3486 332.654 90.1162 333.16V338H88.1406V330.604H90.0068L90.0615 331.485C90.458 330.806 91.0071 330.467 91.7089 330.467C91.9277 330.467 92.1328 330.496 92.3242 330.556L92.2968 332.456ZM96.1014 338.137C95.0168 338.137 94.1327 337.804 93.4491 337.139C92.7701 336.473 92.4305 335.587 92.4305 334.479V334.288C92.4305 333.545 92.5741 332.882 92.8612 332.299C93.1483 331.711 93.5539 331.26 94.078 330.945C94.6066 330.626 95.2082 330.467 95.8827 330.467C96.8944 330.467 97.6897 330.786 98.2684 331.424C98.8518 332.062 99.1434 332.966 99.1434 334.138V334.944H94.4335C94.4973 335.427 94.6887 335.815 95.0077 336.106C95.3313 336.398 95.7391 336.544 96.2313 336.544C96.9924 336.544 97.5871 336.268 98.0155 335.717L98.9862 336.804C98.69 337.223 98.2889 337.551 97.7831 337.788C97.2772 338.021 96.7167 338.137 96.1014 338.137ZM95.8759 332.066C95.4839 332.066 95.1649 332.199 94.9188 332.463C94.6773 332.727 94.5223 333.105 94.454 333.598H97.202V333.44C97.1929 333.003 97.0744 332.666 96.8466 332.429C96.6187 332.187 96.2951 332.066 95.8759 332.066ZM99.5437 334.247C99.5437 333.094 99.8012 332.176 100.316 331.492C100.836 330.809 101.544 330.467 102.442 330.467C103.162 330.467 103.757 330.736 104.226 331.273V327.5H106.209V338H104.425L104.329 337.214C103.837 337.829 103.203 338.137 102.429 338.137C101.558 338.137 100.859 337.795 100.33 337.111C99.8058 336.423 99.5437 335.468 99.5437 334.247ZM101.519 334.391C101.519 335.083 101.64 335.614 101.882 335.983C102.123 336.353 102.474 336.537 102.934 336.537C103.545 336.537 103.976 336.28 104.226 335.765V332.846C103.98 332.331 103.554 332.073 102.948 332.073C101.996 332.073 101.519 332.846 101.519 334.391ZM109.405 338H107.423V330.604H109.405V338ZM107.306 328.689C107.306 328.393 107.404 328.149 107.6 327.958C107.801 327.767 108.072 327.671 108.414 327.671C108.751 327.671 109.02 327.767 109.22 327.958C109.421 328.149 109.521 328.393 109.521 328.689C109.521 328.99 109.419 329.236 109.214 329.428C109.013 329.619 108.746 329.715 108.414 329.715C108.081 329.715 107.812 329.619 107.607 329.428C107.407 329.236 107.306 328.99 107.306 328.689ZM112.984 328.785V330.604H114.249V332.053H112.984V335.744C112.984 336.018 113.036 336.214 113.141 336.332C113.246 336.451 113.447 336.51 113.743 336.51C113.962 336.51 114.155 336.494 114.324 336.462V337.959C113.936 338.077 113.538 338.137 113.128 338.137C111.742 338.137 111.036 337.437 111.008 336.038V332.053H109.928V330.604H111.008V328.785H112.984ZM121.072 336.544C121.436 336.544 121.733 336.444 121.96 336.243C122.188 336.043 122.307 335.776 122.316 335.443H124.168C124.164 335.945 124.027 336.405 123.758 336.824C123.489 337.239 123.12 337.562 122.651 337.795C122.186 338.023 121.671 338.137 121.106 338.137C120.049 338.137 119.215 337.802 118.604 337.132C117.993 336.457 117.688 335.528 117.688 334.343V334.213C117.688 333.074 117.991 332.164 118.597 331.485C119.203 330.806 120.035 330.467 121.092 330.467C122.017 330.467 122.758 330.731 123.314 331.26C123.874 331.784 124.159 332.483 124.168 333.358H122.316C122.307 332.976 122.188 332.666 121.96 332.429C121.733 332.187 121.432 332.066 121.058 332.066C120.598 332.066 120.249 332.235 120.012 332.572C119.78 332.905 119.664 333.447 119.664 334.199V334.404C119.664 335.165 119.78 335.712 120.012 336.045C120.245 336.378 120.598 336.544 121.072 336.544ZM129.163 338C129.071 337.822 129.005 337.601 128.964 337.337C128.486 337.87 127.864 338.137 127.098 338.137C126.373 338.137 125.772 337.927 125.293 337.508C124.819 337.089 124.582 336.56 124.582 335.922C124.582 335.138 124.872 334.536 125.451 334.117C126.034 333.698 126.875 333.486 127.973 333.481H128.882V333.058C128.882 332.716 128.793 332.442 128.616 332.237C128.442 332.032 128.167 331.93 127.788 331.93C127.456 331.93 127.194 332.009 127.002 332.169C126.816 332.328 126.722 332.547 126.722 332.825H124.746C124.746 332.397 124.879 332 125.143 331.636C125.407 331.271 125.781 330.986 126.264 330.781C126.747 330.572 127.289 330.467 127.891 330.467C128.802 330.467 129.525 330.697 130.058 331.157C130.596 331.613 130.865 332.256 130.865 333.085V336.291C130.869 336.993 130.967 337.524 131.159 337.884V338H129.163ZM127.529 336.626C127.82 336.626 128.089 336.562 128.335 336.435C128.581 336.302 128.764 336.127 128.882 335.908V334.637H128.144C127.155 334.637 126.629 334.979 126.565 335.662L126.558 335.778C126.558 336.024 126.645 336.227 126.818 336.387C126.991 336.546 127.228 336.626 127.529 336.626ZM136.118 332.456C135.85 332.42 135.613 332.401 135.408 332.401C134.66 332.401 134.17 332.654 133.938 333.16V338H131.962V330.604H133.828L133.883 331.485C134.28 330.806 134.829 330.467 135.531 330.467C135.749 330.467 135.954 330.496 136.146 330.556L136.118 332.456ZM136.211 334.247C136.211 333.094 136.469 332.176 136.984 331.492C137.503 330.809 138.212 330.467 139.11 330.467C139.83 330.467 140.424 330.736 140.894 331.273V327.5H142.876V338H141.092L140.996 337.214C140.504 337.829 139.871 338.137 139.096 338.137C138.225 338.137 137.526 337.795 136.997 337.111C136.473 336.423 136.211 335.468 136.211 334.247ZM138.187 334.391C138.187 335.083 138.308 335.614 138.549 335.983C138.791 336.353 139.142 336.537 139.602 336.537C140.212 336.537 140.643 336.28 140.894 335.765V332.846C140.648 332.331 140.222 332.073 139.615 332.073C138.663 332.073 138.187 332.846 138.187 334.391Z" fill="black" fill-opacity="0.8"/>
<path d="M31.6016 349.878H28.6746V352.272H32.0747V353H27.7839V346.246H32.0283V346.979H28.6746V349.15H31.6016V349.878ZM33.5756 347.981L33.6034 348.612C33.9869 348.129 34.4879 347.888 35.1064 347.888C36.1671 347.888 36.7021 348.487 36.7113 349.683V353H35.8532V349.679C35.8501 349.317 35.7666 349.049 35.6027 348.876C35.4419 348.703 35.1899 348.616 34.8466 348.616C34.5683 348.616 34.324 348.691 34.1137 348.839C33.9034 348.988 33.7395 349.182 33.622 349.424V353H32.7638V347.981H33.5756ZM38.8848 346.766V347.981H39.8218V348.644H38.8848V351.757C38.8848 351.958 38.9266 352.109 39.0101 352.211C39.0936 352.31 39.2358 352.36 39.4368 352.36C39.5358 352.36 39.6719 352.341 39.845 352.304V353C39.6193 353.062 39.3997 353.093 39.1863 353.093C38.8029 353.093 38.5137 352.977 38.3189 352.745C38.1241 352.513 38.0267 352.184 38.0267 351.757V348.644H37.1129V347.981H38.0267V346.766H38.8848ZM42.6262 353.093C41.9459 353.093 41.3923 352.87 40.9656 352.425C40.5388 351.976 40.3254 351.378 40.3254 350.63V350.472C40.3254 349.974 40.4197 349.53 40.6084 349.141C40.8001 348.748 41.0661 348.442 41.4062 348.222C41.7495 348 42.1206 347.888 42.5195 347.888C43.172 347.888 43.6792 348.103 44.041 348.533C44.4028 348.963 44.5837 349.578 44.5837 350.379V350.736H41.1836C41.1959 351.231 41.3397 351.632 41.615 351.938C41.8933 352.241 42.2458 352.392 42.6726 352.392C42.9756 352.392 43.2323 352.33 43.4426 352.207C43.6529 352.083 43.8369 351.919 43.9946 351.715L44.5188 352.123C44.0982 352.77 43.4673 353.093 42.6262 353.093ZM42.5195 348.593C42.1732 348.593 41.8825 348.72 41.6474 348.974C41.4124 349.224 41.2671 349.577 41.2114 350.031H43.7256V349.966C43.7008 349.53 43.5833 349.193 43.373 348.955C43.1627 348.714 42.8782 348.593 42.5195 348.593ZM47.7221 348.751C47.5922 348.729 47.4515 348.719 47.2999 348.719C46.7371 348.719 46.3552 348.958 46.1542 349.438V353H45.296V347.981H46.131L46.1449 348.561C46.4263 348.112 46.8253 347.888 47.3417 347.888C47.5087 347.888 47.6355 347.91 47.7221 347.953V348.751ZM51.9438 351.743L53.1128 347.981H54.0312L52.0134 353.775C51.7011 354.61 51.2047 355.027 50.5244 355.027L50.362 355.013L50.042 354.953V354.257L50.2739 354.276C50.5646 354.276 50.7903 354.217 50.9511 354.099C51.115 353.982 51.2496 353.767 51.3547 353.455L51.5449 352.944L49.7544 347.981H50.6914L51.9438 351.743ZM54.2147 350.444C54.2147 349.952 54.3106 349.51 54.5023 349.117C54.6971 348.725 54.9662 348.422 55.3094 348.208C55.6558 347.995 56.0501 347.888 56.4923 347.888C57.1757 347.888 57.7277 348.125 58.1483 348.598C58.572 349.071 58.7838 349.7 58.7838 350.486V350.546C58.7838 351.035 58.6895 351.474 58.5008 351.864C58.3153 352.25 58.0478 352.552 57.6984 352.768C57.352 352.985 56.9531 353.093 56.5016 353.093C55.8212 353.093 55.2692 352.856 54.8456 352.383C54.425 351.91 54.2147 351.284 54.2147 350.504V350.444ZM55.0775 350.546C55.0775 351.103 55.2058 351.55 55.4625 351.887C55.7223 352.224 56.0686 352.392 56.5016 352.392C56.9376 352.392 57.284 352.222 57.5406 351.882C57.7973 351.539 57.9257 351.059 57.9257 350.444C57.9257 349.894 57.7942 349.448 57.5314 349.108C57.2716 348.765 56.9252 348.593 56.4923 348.593C56.0686 348.593 55.7269 348.762 55.4672 349.099C55.2074 349.436 55.0775 349.918 55.0775 350.546ZM62.6736 352.504C62.3396 352.896 61.8495 353.093 61.2032 353.093C60.6682 353.093 60.26 352.938 59.9785 352.629C59.7002 352.317 59.5595 351.856 59.5564 351.247V347.981H60.4146V351.223C60.4146 351.984 60.7238 352.365 61.3423 352.365C61.9979 352.365 62.4339 352.12 62.6504 351.632V347.981H63.5086V353H62.6922L62.6736 352.504ZM66.9577 348.751C66.8278 348.729 66.6871 348.719 66.5356 348.719C65.9728 348.719 65.5908 348.958 65.3898 349.438V353H64.5317V347.981H65.3666L65.3806 348.561C65.662 348.112 66.0609 347.888 66.5773 347.888C66.7443 347.888 66.8711 347.91 66.9577 347.953V348.751ZM71.5505 352.392C71.8567 352.392 72.1242 352.3 72.353 352.114C72.5819 351.928 72.7087 351.697 72.7334 351.418H73.5452C73.5297 351.706 73.4308 351.979 73.2483 352.239C73.0658 352.499 72.8215 352.706 72.5154 352.861C72.2123 353.015 71.8907 353.093 71.5505 353.093C70.8671 353.093 70.3228 352.865 69.9177 352.411C69.5157 351.953 69.3147 351.329 69.3147 350.537V350.393C69.3147 349.904 69.4044 349.47 69.5838 349.09C69.7631 348.709 70.0198 348.414 70.3538 348.204C70.6908 347.993 71.0882 347.888 71.5459 347.888C72.1087 347.888 72.5757 348.057 72.9468 348.394C73.321 348.731 73.5204 349.168 73.5452 349.707H72.7334C72.7087 349.382 72.585 349.116 72.3623 348.909C72.1428 348.698 71.8706 348.593 71.5459 348.593C71.1099 348.593 70.7713 348.751 70.53 349.066C70.2919 349.379 70.1729 349.832 70.1729 350.426V350.588C70.1729 351.166 70.2919 351.611 70.53 351.924C70.7682 352.236 71.1083 352.392 71.5505 352.392ZM76.651 348.751C76.5212 348.729 76.3805 348.719 76.2289 348.719C75.6661 348.719 75.2842 348.958 75.0832 349.438V353H74.225V347.981H75.06L75.0739 348.561C75.3553 348.112 75.7542 347.888 76.2707 347.888C76.4377 347.888 76.5645 347.91 76.651 347.953V348.751ZM79.1492 353.093C78.4689 353.093 77.9154 352.87 77.4886 352.425C77.0618 351.976 76.8485 351.378 76.8485 350.63V350.472C76.8485 349.974 76.9428 349.53 77.1314 349.141C77.3232 348.748 77.5891 348.442 77.9293 348.222C78.2725 348 78.6436 347.888 79.0426 347.888C79.6951 347.888 80.2022 348.103 80.564 348.533C80.9259 348.963 81.1068 349.578 81.1068 350.379V350.736H77.7066C77.719 351.231 77.8628 351.632 78.138 351.938C78.4163 352.241 78.7689 352.392 79.1956 352.392C79.4987 352.392 79.7554 352.33 79.9657 352.207C80.1759 352.083 80.3599 351.919 80.5177 351.715L81.0418 352.123C80.6213 352.77 79.9904 353.093 79.1492 353.093ZM79.0426 348.593C78.6962 348.593 78.4055 348.72 78.1705 348.974C77.9355 349.224 77.7901 349.577 77.7345 350.031H80.2486V349.966C80.2239 349.53 80.1064 349.193 79.8961 348.955C79.6858 348.714 79.4013 348.593 79.0426 348.593ZM81.6103 350.449C81.6103 349.679 81.7928 349.06 82.1577 348.593C82.5226 348.123 83.0004 347.888 83.5911 347.888C84.1786 347.888 84.644 348.089 84.9873 348.491V345.875H85.8454V353H85.0569L85.0151 352.462C84.6719 352.882 84.1941 353.093 83.5818 353.093C83.0004 353.093 82.5257 352.855 82.1577 352.378C81.7928 351.902 81.6103 351.281 81.6103 350.514V350.449ZM82.4685 350.546C82.4685 351.115 82.586 351.56 82.821 351.882C83.0561 352.204 83.3808 352.365 83.7952 352.365C84.3394 352.365 84.7368 352.12 84.9873 351.632V349.326C84.7306 348.853 84.3363 348.616 83.8044 348.616C83.3839 348.616 83.0561 348.779 82.821 349.104C82.586 349.428 82.4685 349.909 82.4685 350.546ZM87.8288 353H86.9706V347.981H87.8288V353ZM86.901 346.65C86.901 346.51 86.9428 346.393 87.0263 346.297C87.1129 346.201 87.2396 346.153 87.4066 346.153C87.5736 346.153 87.7004 346.201 87.787 346.297C87.8736 346.393 87.9169 346.51 87.9169 346.65C87.9169 346.789 87.8736 346.905 87.787 346.998C87.7004 347.09 87.5736 347.137 87.4066 347.137C87.2396 347.137 87.1129 347.09 87.0263 346.998C86.9428 346.905 86.901 346.789 86.901 346.65ZM90.0858 346.766V347.981H91.0228V348.644H90.0858V351.757C90.0858 351.958 90.1275 352.109 90.211 352.211C90.2945 352.31 90.4367 352.36 90.6378 352.36C90.7367 352.36 90.8728 352.341 91.046 352.304V353C90.8202 353.062 90.6006 353.093 90.3873 353.093C90.0038 353.093 89.7147 352.977 89.5198 352.745C89.325 352.513 89.2276 352.184 89.2276 351.757V348.644H88.3138V347.981H89.2276V346.766H90.0858ZM95.829 352.392C96.1351 352.392 96.4026 352.3 96.6315 352.114C96.8603 351.928 96.9871 351.697 97.0118 351.418H97.8236C97.8082 351.706 97.7092 351.979 97.5267 352.239C97.3443 352.499 97.1 352.706 96.7938 352.861C96.4908 353.015 96.1692 353.093 95.829 353.093C95.1456 353.093 94.6013 352.865 94.1962 352.411C93.7942 351.953 93.5931 351.329 93.5931 350.537V350.393C93.5931 349.904 93.6828 349.47 93.8622 349.09C94.0416 348.709 94.2982 348.414 94.6322 348.204C94.9693 347.993 95.3667 347.888 95.8243 347.888C96.3872 347.888 96.8541 348.057 97.2252 348.394C97.5994 348.731 97.7989 349.168 97.8236 349.707H97.0118C96.9871 349.382 96.8634 349.116 96.6408 348.909C96.4212 348.698 96.1491 348.593 95.8243 348.593C95.3883 348.593 95.0497 348.751 94.8085 349.066C94.5704 349.379 94.4513 349.832 94.4513 350.426V350.588C94.4513 351.166 94.5704 351.611 94.8085 351.924C95.0466 352.236 95.3868 352.392 95.829 352.392ZM101.602 353C101.553 352.901 101.512 352.725 101.481 352.471C101.083 352.886 100.606 353.093 100.053 353.093C99.558 353.093 99.1513 352.954 98.8328 352.675C98.5174 352.394 98.3597 352.038 98.3597 351.608C98.3597 351.086 98.5576 350.681 98.9534 350.393C99.3523 350.102 99.9121 349.957 100.633 349.957H101.468V349.563C101.468 349.263 101.378 349.025 101.199 348.848C101.019 348.669 100.755 348.579 100.405 348.579C100.099 348.579 99.8425 348.657 99.6353 348.811C99.4281 348.966 99.3245 349.153 99.3245 349.373H98.4617C98.4617 349.122 98.5498 348.881 98.7261 348.649C98.9055 348.414 99.1467 348.228 99.4497 348.092C99.7559 347.956 100.091 347.888 100.456 347.888C101.035 347.888 101.488 348.034 101.815 348.324C102.143 348.612 102.313 349.009 102.326 349.516V351.826C102.326 352.287 102.384 352.654 102.502 352.926V353H101.602ZM100.178 352.346C100.447 352.346 100.702 352.276 100.943 352.137C101.185 351.998 101.359 351.817 101.468 351.594V350.565H100.795C99.7435 350.565 99.2178 350.872 99.2178 351.488C99.2178 351.757 99.3075 351.967 99.4869 352.119C99.6662 352.27 99.8966 352.346 100.178 352.346ZM105.812 348.751C105.682 348.729 105.541 348.719 105.39 348.719C104.827 348.719 104.445 348.958 104.244 349.438V353H103.386V347.981H104.221L104.235 348.561C104.516 348.112 104.915 347.888 105.432 347.888C105.599 347.888 105.725 347.91 105.812 347.953V348.751ZM106.019 350.449C106.019 349.679 106.201 349.06 106.566 348.593C106.931 348.123 107.409 347.888 107.999 347.888C108.587 347.888 109.052 348.089 109.396 348.491V345.875H110.254V353H109.465L109.423 352.462C109.08 352.882 108.602 353.093 107.99 353.093C107.409 353.093 106.934 352.855 106.566 352.378C106.201 351.902 106.019 351.281 106.019 350.514V350.449ZM106.877 350.546C106.877 351.115 106.994 351.56 107.229 351.882C107.464 352.204 107.789 352.365 108.203 352.365C108.748 352.365 109.145 352.12 109.396 351.632V349.326C109.139 348.853 108.745 348.616 108.213 348.616C107.792 348.616 107.464 348.779 107.229 349.104C106.994 349.428 106.877 349.909 106.877 350.546ZM115.389 352.392C115.695 352.392 115.963 352.3 116.192 352.114C116.421 351.928 116.547 351.697 116.572 351.418H117.384C117.369 351.706 117.27 351.979 117.087 352.239C116.905 352.499 116.66 352.706 116.354 352.861C116.051 353.015 115.73 353.093 115.389 353.093C114.706 353.093 114.162 352.865 113.757 352.411C113.355 351.953 113.153 351.329 113.153 350.537V350.393C113.153 349.904 113.243 349.47 113.423 349.09C113.602 348.709 113.859 348.414 114.193 348.204C114.53 347.993 114.927 347.888 115.385 347.888C115.948 347.888 116.414 348.057 116.786 348.394C117.16 348.731 117.359 349.168 117.384 349.707H116.572C116.547 349.382 116.424 349.116 116.201 348.909C115.982 348.698 115.709 348.593 115.385 348.593C114.949 348.593 114.61 348.751 114.369 349.066C114.131 349.379 114.012 349.832 114.012 350.426V350.588C114.012 351.166 114.131 351.611 114.369 351.924C114.607 352.236 114.947 352.392 115.389 352.392ZM120.49 348.751C120.36 348.729 120.219 348.719 120.068 348.719C119.505 348.719 119.123 348.958 118.922 349.438V353H118.064V347.981H118.899L118.913 348.561C119.194 348.112 119.593 347.888 120.109 347.888C120.276 347.888 120.403 347.91 120.49 347.953V348.751ZM122.988 353.093C122.308 353.093 121.754 352.87 121.327 352.425C120.901 351.976 120.687 351.378 120.687 350.63V350.472C120.687 349.974 120.782 349.53 120.97 349.141C121.162 348.748 121.428 348.442 121.768 348.222C122.111 348 122.482 347.888 122.881 347.888C123.534 347.888 124.041 348.103 124.403 348.533C124.765 348.963 124.946 349.578 124.946 350.379V350.736H121.545C121.558 351.231 121.702 351.632 121.977 351.938C122.255 352.241 122.608 352.392 123.034 352.392C123.337 352.392 123.594 352.33 123.804 352.207C124.015 352.083 124.199 351.919 124.356 351.715L124.881 352.123C124.46 352.77 123.829 353.093 122.988 353.093ZM122.881 348.593C122.535 348.593 122.244 348.72 122.009 348.974C121.774 349.224 121.629 349.577 121.573 350.031H124.087V349.966C124.063 349.53 123.945 349.193 123.735 348.955C123.525 348.714 123.24 348.593 122.881 348.593ZM125.449 350.449C125.449 349.679 125.632 349.06 125.996 348.593C126.361 348.123 126.839 347.888 127.43 347.888C128.017 347.888 128.483 348.089 128.826 348.491V345.875H129.684V353H128.896L128.854 352.462C128.511 352.882 128.033 353.093 127.421 353.093C126.839 353.093 126.364 352.855 125.996 352.378C125.632 351.902 125.449 351.281 125.449 350.514V350.449ZM126.307 350.546C126.307 351.115 126.425 351.56 126.66 351.882C126.895 352.204 127.22 352.365 127.634 352.365C128.178 352.365 128.576 352.12 128.826 351.632V349.326C128.569 348.853 128.175 348.616 127.643 348.616C127.223 348.616 126.895 348.779 126.66 349.104C126.425 349.428 126.307 349.909 126.307 350.546ZM132.818 353.093C132.138 353.093 131.584 352.87 131.157 352.425C130.731 351.976 130.517 351.378 130.517 350.63V350.472C130.517 349.974 130.611 349.53 130.8 349.141C130.992 348.748 131.258 348.442 131.598 348.222C131.941 348 132.312 347.888 132.711 347.888C133.364 347.888 133.871 348.103 134.233 348.533C134.595 348.963 134.775 349.578 134.775 350.379V350.736H131.375C131.388 351.231 131.531 351.632 131.807 351.938C132.085 352.241 132.438 352.392 132.864 352.392C133.167 352.392 133.424 352.33 133.634 352.207C133.845 352.083 134.029 351.919 134.186 351.715L134.711 352.123C134.29 352.77 133.659 353.093 132.818 353.093ZM132.711 348.593C132.365 348.593 132.074 348.72 131.839 348.974C131.604 349.224 131.459 349.577 131.403 350.031H133.917V349.966C133.893 349.53 133.775 349.193 133.565 348.955C133.354 348.714 133.07 348.593 132.711 348.593ZM136.3 347.981L136.327 348.612C136.711 348.129 137.212 347.888 137.83 347.888C138.891 347.888 139.426 348.487 139.435 349.683V353H138.577V349.679C138.574 349.317 138.491 349.049 138.327 348.876C138.166 348.703 137.914 348.616 137.571 348.616C137.292 348.616 137.048 348.691 136.838 348.839C136.627 348.988 136.463 349.182 136.346 349.424V353H135.488V347.981H136.3ZM141.609 346.766V347.981H142.546V348.644H141.609V351.757C141.609 351.958 141.651 352.109 141.734 352.211C141.818 352.31 141.96 352.36 142.161 352.36C142.26 352.36 142.396 352.341 142.569 352.304V353C142.343 353.062 142.124 353.093 141.91 353.093C141.527 353.093 141.238 352.977 141.043 352.745C140.848 352.513 140.751 352.184 140.751 351.757V348.644H139.837V347.981H140.751V346.766H141.609ZM144.2 353H143.342V347.981H144.2V353ZM143.272 346.65C143.272 346.51 143.314 346.393 143.397 346.297C143.484 346.201 143.611 346.153 143.778 346.153C143.945 346.153 144.071 346.201 144.158 346.297C144.245 346.393 144.288 346.51 144.288 346.65C144.288 346.789 144.245 346.905 144.158 346.998C144.071 347.09 143.945 347.137 143.778 347.137C143.611 347.137 143.484 347.09 143.397 346.998C143.314 346.905 143.272 346.789 143.272 346.65ZM148.391 353C148.342 352.901 148.301 352.725 148.27 352.471C147.872 352.886 147.395 353.093 146.842 353.093C146.347 353.093 145.94 352.954 145.622 352.675C145.306 352.394 145.149 352.038 145.149 351.608C145.149 351.086 145.347 350.681 145.742 350.393C146.141 350.102 146.701 349.957 147.422 349.957H148.257V349.563C148.257 349.263 148.167 349.025 147.988 348.848C147.808 348.669 147.544 348.579 147.194 348.579C146.888 348.579 146.631 348.657 146.424 348.811C146.217 348.966 146.113 349.153 146.113 349.373H145.251C145.251 349.122 145.339 348.881 145.515 348.649C145.694 348.414 145.936 348.228 146.239 348.092C146.545 347.956 146.88 347.888 147.245 347.888C147.824 347.888 148.277 348.034 148.604 348.324C148.932 348.612 149.102 349.009 149.115 349.516V351.826C149.115 352.287 149.173 352.654 149.291 352.926V353H148.391ZM146.967 352.346C147.236 352.346 147.491 352.276 147.732 352.137C147.974 351.998 148.148 351.817 148.257 351.594V350.565H147.584C146.533 350.565 146.007 350.872 146.007 351.488C146.007 351.757 146.096 351.967 146.276 352.119C146.455 352.27 146.686 352.346 146.967 352.346ZM151.107 353H150.249V345.875H151.107V353ZM155.122 351.669C155.122 351.437 155.034 351.257 154.858 351.131C154.685 351.001 154.38 350.889 153.944 350.797C153.511 350.704 153.166 350.593 152.91 350.463C152.656 350.333 152.467 350.178 152.344 349.999C152.223 349.819 152.163 349.606 152.163 349.359C152.163 348.947 152.336 348.599 152.682 348.315C153.032 348.03 153.477 347.888 154.018 347.888C154.587 347.888 155.048 348.035 155.401 348.329C155.756 348.623 155.934 348.998 155.934 349.456H155.071C155.071 349.221 154.971 349.018 154.77 348.848C154.572 348.678 154.321 348.593 154.018 348.593C153.706 348.593 153.462 348.661 153.285 348.797C153.109 348.933 153.021 349.111 153.021 349.331C153.021 349.538 153.103 349.694 153.267 349.799C153.431 349.904 153.726 350.005 154.153 350.101C154.583 350.197 154.931 350.311 155.197 350.444C155.463 350.577 155.659 350.738 155.786 350.927C155.916 351.112 155.98 351.339 155.98 351.608C155.98 352.057 155.801 352.417 155.442 352.689C155.084 352.958 154.618 353.093 154.046 353.093C153.644 353.093 153.289 353.022 152.979 352.879C152.67 352.737 152.427 352.539 152.251 352.286C152.078 352.029 151.991 351.752 151.991 351.455H152.849C152.865 351.743 152.979 351.972 153.193 352.142C153.409 352.309 153.694 352.392 154.046 352.392C154.371 352.392 154.631 352.327 154.825 352.198C155.023 352.065 155.122 351.888 155.122 351.669ZM163.134 350.546C163.134 351.313 162.958 351.93 162.605 352.397C162.253 352.861 161.779 353.093 161.186 353.093C160.552 353.093 160.062 352.869 159.715 352.42L159.673 353H158.885V345.875H159.743V348.533C160.089 348.103 160.567 347.888 161.176 347.888C161.786 347.888 162.263 348.119 162.61 348.579C162.959 349.04 163.134 349.671 163.134 350.472V350.546ZM162.276 350.449C162.276 349.864 162.163 349.413 161.937 349.094C161.711 348.776 161.387 348.616 160.963 348.616C160.397 348.616 159.99 348.879 159.743 349.405V351.576C160.006 352.102 160.416 352.365 160.972 352.365C161.384 352.365 161.704 352.205 161.932 351.887C162.161 351.568 162.276 351.089 162.276 350.449ZM166.017 353.093C165.337 353.093 164.783 352.87 164.356 352.425C163.93 351.976 163.716 351.378 163.716 350.63V350.472C163.716 349.974 163.811 349.53 163.999 349.141C164.191 348.748 164.457 348.442 164.797 348.222C165.14 348 165.511 347.888 165.91 347.888C166.563 347.888 167.07 348.103 167.432 348.533C167.794 348.963 167.975 349.578 167.975 350.379V350.736H164.574C164.587 351.231 164.731 351.632 165.006 351.938C165.284 352.241 165.637 352.392 166.063 352.392C166.367 352.392 166.623 352.33 166.834 352.207C167.044 352.083 167.228 351.919 167.386 351.715L167.91 352.123C167.489 352.77 166.858 353.093 166.017 353.093ZM165.91 348.593C165.564 348.593 165.273 348.72 165.038 348.974C164.803 349.224 164.658 349.577 164.602 350.031H167.116V349.966C167.092 349.53 166.974 349.193 166.764 348.955C166.554 348.714 166.269 348.593 165.91 348.593ZM169.619 353H168.761V345.875H169.619V353ZM170.485 350.444C170.485 349.952 170.581 349.51 170.772 349.117C170.967 348.725 171.236 348.422 171.579 348.208C171.926 347.995 172.32 347.888 172.762 347.888C173.446 347.888 173.998 348.125 174.418 348.598C174.842 349.071 175.054 349.7 175.054 350.486V350.546C175.054 351.035 174.959 351.474 174.771 351.864C174.585 352.25 174.318 352.552 173.968 352.768C173.622 352.985 173.223 353.093 172.772 353.093C172.091 353.093 171.539 352.856 171.116 352.383C170.695 351.91 170.485 351.284 170.485 350.504V350.444ZM171.347 350.546C171.347 351.103 171.476 351.55 171.732 351.887C171.992 352.224 172.339 352.392 172.772 352.392C173.208 352.392 173.554 352.222 173.811 351.882C174.067 351.539 174.196 351.059 174.196 350.444C174.196 349.894 174.064 349.448 173.801 349.108C173.542 348.765 173.195 348.593 172.762 348.593C172.339 348.593 171.997 348.762 171.737 349.099C171.477 349.436 171.347 349.918 171.347 350.546ZM180.289 351.817L181.254 347.981H182.112L180.651 353H179.955L178.735 349.196L177.547 353H176.852L175.395 347.981H176.249L177.237 351.738L178.406 347.981H179.097L180.289 351.817ZM185.939 346.766V347.981H186.876V348.644H185.939V351.757C185.939 351.958 185.981 352.109 186.065 352.211C186.148 352.31 186.29 352.36 186.491 352.36C186.59 352.36 186.726 352.341 186.899 352.304V353C186.674 353.062 186.454 353.093 186.241 353.093C185.857 353.093 185.568 352.977 185.373 352.745C185.179 352.513 185.081 352.184 185.081 351.757V348.644H184.167V347.981H185.081V346.766H185.939ZM187.278 350.444C187.278 349.952 187.374 349.51 187.565 349.117C187.76 348.725 188.029 348.422 188.373 348.208C188.719 347.995 189.113 347.888 189.555 347.888C190.239 347.888 190.791 348.125 191.211 348.598C191.635 349.071 191.847 349.7 191.847 350.486V350.546C191.847 351.035 191.753 351.474 191.564 351.864C191.378 352.25 191.111 352.552 190.761 352.768C190.415 352.985 190.016 353.093 189.565 353.093C188.884 353.093 188.332 352.856 187.909 352.383C187.488 351.91 187.278 351.284 187.278 350.504V350.444ZM188.141 350.546C188.141 351.103 188.269 351.55 188.526 351.887C188.785 352.224 189.132 352.392 189.565 352.392C190.001 352.392 190.347 352.222 190.604 351.882C190.86 351.539 190.989 351.059 190.989 350.444C190.989 349.894 190.857 349.448 190.594 349.108C190.335 348.765 189.988 348.593 189.555 348.593C189.132 348.593 188.79 348.762 188.53 349.099C188.27 349.436 188.141 349.918 188.141 350.546ZM194.997 353V348.644H194.204V347.981H194.997V347.554C194.997 346.994 195.156 346.558 195.475 346.246C195.797 345.934 196.25 345.778 196.834 345.778C197.18 345.778 197.618 345.872 198.147 346.061L198.003 346.784C197.616 346.63 197.248 346.552 196.899 346.552C196.531 346.552 196.265 346.636 196.101 346.803C195.94 346.967 195.86 347.214 195.86 347.545V347.981H196.885V348.644H195.86V353H194.997ZM198.574 353H197.711V347.981H198.574V353ZM200.497 347.981L200.524 348.612C200.908 348.129 201.409 347.888 202.027 347.888C203.088 347.888 203.623 348.487 203.632 349.683V353H202.774V349.679C202.771 349.317 202.688 349.049 202.524 348.876C202.363 348.703 202.111 348.616 201.768 348.616C201.489 348.616 201.245 348.691 201.035 348.839C200.824 348.988 200.66 349.182 200.543 349.424V353H199.685V347.981H200.497ZM207.74 353C207.691 352.901 207.65 352.725 207.619 352.471C207.221 352.886 206.744 353.093 206.191 353.093C205.696 353.093 205.289 352.954 204.971 352.675C204.655 352.394 204.498 352.038 204.498 351.608C204.498 351.086 204.696 350.681 205.091 350.393C205.49 350.102 206.05 349.957 206.771 349.957H207.606V349.563C207.606 349.263 207.516 349.025 207.337 348.848C207.157 348.669 206.893 348.579 206.543 348.579C206.237 348.579 205.98 348.657 205.773 348.811C205.566 348.966 205.463 349.153 205.463 349.373H204.6C204.6 349.122 204.688 348.881 204.864 348.649C205.043 348.414 205.285 348.228 205.588 348.092C205.894 347.956 206.229 347.888 206.594 347.888C207.173 347.888 207.626 348.034 207.953 348.324C208.281 348.612 208.451 349.009 208.464 349.516V351.826C208.464 352.287 208.522 352.654 208.64 352.926V353H207.74ZM206.316 352.346C206.585 352.346 206.84 352.276 207.081 352.137C207.323 351.998 207.497 351.817 207.606 351.594V350.565H206.933C205.882 350.565 205.356 350.872 205.356 351.488C205.356 351.757 205.446 351.967 205.625 352.119C205.804 352.27 206.035 352.346 206.316 352.346ZM210.456 353H209.598V345.875H210.456V353ZM212.481 353H211.623V347.981H212.481V353ZM211.554 346.65C211.554 346.51 211.595 346.393 211.679 346.297C211.765 346.201 211.892 346.153 212.059 346.153C212.226 346.153 212.353 346.201 212.44 346.297C212.526 346.393 212.57 346.51 212.57 346.65C212.57 346.789 212.526 346.905 212.44 346.998C212.353 347.09 212.226 347.137 212.059 347.137C211.892 347.137 211.765 347.09 211.679 346.998C211.595 346.905 211.554 346.789 211.554 346.65ZM214.381 352.3H217.317V353H213.333V352.369L216.102 348.691H213.375V347.981H217.178V348.589L214.381 352.3ZM220.01 353.093C219.33 353.093 218.777 352.87 218.35 352.425C217.923 351.976 217.71 351.378 217.71 350.63V350.472C217.71 349.974 217.804 349.53 217.993 349.141C218.184 348.748 218.45 348.442 218.791 348.222C219.134 348 219.505 347.888 219.904 347.888C220.556 347.888 221.063 348.103 221.425 348.533C221.787 348.963 221.968 349.578 221.968 350.379V350.736H218.568C218.58 351.231 218.724 351.632 218.999 351.938C219.278 352.241 219.63 352.392 220.057 352.392C220.36 352.392 220.617 352.33 220.827 352.207C221.037 352.083 221.221 351.919 221.379 351.715L221.903 352.123C221.483 352.77 220.852 353.093 220.01 353.093ZM219.904 348.593C219.557 348.593 219.267 348.72 219.032 348.974C218.797 349.224 218.651 349.577 218.596 350.031H221.11V349.966C221.085 349.53 220.968 349.193 220.757 348.955C220.547 348.714 220.263 348.593 219.904 348.593ZM226.394 351.743L227.563 347.981H228.481L226.463 353.775C226.151 354.61 225.655 355.027 224.974 355.027L224.812 355.013L224.492 354.953V354.257L224.724 354.276C225.015 354.276 225.24 354.217 225.401 354.099C225.565 353.982 225.7 353.767 225.805 353.455L225.995 352.944L224.204 347.981H225.141L226.394 351.743ZM228.665 350.444C228.665 349.952 228.761 349.51 228.952 349.117C229.147 348.725 229.416 348.422 229.76 348.208C230.106 347.995 230.5 347.888 230.942 347.888C231.626 347.888 232.178 348.125 232.598 348.598C233.022 349.071 233.234 349.7 233.234 350.486V350.546C233.234 351.035 233.14 351.474 232.951 351.864C232.765 352.25 232.498 352.552 232.148 352.768C231.802 352.985 231.403 353.093 230.952 353.093C230.271 353.093 229.719 352.856 229.296 352.383C228.875 351.91 228.665 351.284 228.665 350.504V350.444ZM229.528 350.546C229.528 351.103 229.656 351.55 229.913 351.887C230.172 352.224 230.519 352.392 230.952 352.392C231.388 352.392 231.734 352.222 231.991 351.882C232.247 351.539 232.376 351.059 232.376 350.444C232.376 349.894 232.244 349.448 231.981 349.108C231.722 348.765 231.375 348.593 230.942 348.593C230.519 348.593 230.177 348.762 229.917 349.099C229.657 349.436 229.528 349.918 229.528 350.546ZM237.124 352.504C236.79 352.896 236.3 353.093 235.653 353.093C235.118 353.093 234.71 352.938 234.429 352.629C234.15 352.317 234.01 351.856 234.006 351.247V347.981H234.865V351.223C234.865 351.984 235.174 352.365 235.792 352.365C236.448 352.365 236.884 352.12 237.1 351.632V347.981H237.959V353H237.142L237.124 352.504ZM241.408 348.751C241.278 348.729 241.137 348.719 240.986 348.719C240.423 348.719 240.041 348.958 239.84 349.438V353H238.982V347.981H239.817L239.831 348.561C240.112 348.112 240.511 347.888 241.027 347.888C241.194 347.888 241.321 347.91 241.408 347.953V348.751ZM248.227 350.546C248.227 351.31 248.052 351.925 247.703 352.392C247.354 352.859 246.88 353.093 246.284 353.093C245.674 353.093 245.195 352.899 244.846 352.513V354.93H243.987V347.981H244.771L244.813 348.538C245.163 348.105 245.648 347.888 246.27 347.888C246.873 347.888 247.349 348.115 247.698 348.57C248.051 349.025 248.227 349.657 248.227 350.467V350.546ZM247.369 350.449C247.369 349.883 247.248 349.436 247.007 349.108C246.766 348.78 246.435 348.616 246.015 348.616C245.495 348.616 245.105 348.847 244.846 349.308V351.706C245.102 352.163 245.495 352.392 246.024 352.392C246.435 352.392 246.761 352.23 247.003 351.905C247.247 351.577 247.369 351.092 247.369 350.449ZM252.136 352.504C251.802 352.896 251.311 353.093 250.665 353.093C250.13 353.093 249.722 352.938 249.44 352.629C249.162 352.317 249.021 351.856 249.018 351.247V347.981H249.876V351.223C249.876 351.984 250.186 352.365 250.804 352.365C251.46 352.365 251.896 352.12 252.112 351.632V347.981H252.97V353H252.154L252.136 352.504ZM256.42 348.751C256.29 348.729 256.149 348.719 255.997 348.719C255.435 348.719 255.053 348.958 254.852 349.438V353H253.994V347.981H254.829L254.842 348.561C255.124 348.112 255.523 347.888 256.039 347.888C256.206 347.888 256.333 347.91 256.42 347.953V348.751ZM258.848 352.392C259.154 352.392 259.422 352.3 259.651 352.114C259.88 351.928 260.006 351.697 260.031 351.418H260.843C260.827 351.706 260.728 351.979 260.546 352.239C260.364 352.499 260.119 352.706 259.813 352.861C259.51 353.015 259.188 353.093 258.848 353.093C258.165 353.093 257.621 352.865 257.215 352.411C256.813 351.953 256.612 351.329 256.612 350.537V350.393C256.612 349.904 256.702 349.47 256.881 349.09C257.061 348.709 257.317 348.414 257.651 348.204C257.989 347.993 258.386 347.888 258.844 347.888C259.406 347.888 259.873 348.057 260.244 348.394C260.619 348.731 260.818 349.168 260.843 349.707H260.031C260.006 349.382 259.883 349.116 259.66 348.909C259.44 348.698 259.168 348.593 258.844 348.593C258.408 348.593 258.069 348.751 257.828 349.066C257.59 349.379 257.471 349.832 257.471 350.426V350.588C257.471 351.166 257.59 351.611 257.828 351.924C258.066 352.236 258.406 352.392 258.848 352.392ZM262.381 348.589C262.761 348.122 263.256 347.888 263.865 347.888C264.926 347.888 265.461 348.487 265.47 349.683V353H264.612V349.679C264.609 349.317 264.525 349.049 264.362 348.876C264.201 348.703 263.949 348.616 263.605 348.616C263.327 348.616 263.083 348.691 262.873 348.839C262.662 348.988 262.498 349.182 262.381 349.424V353H261.523V345.875H262.381V348.589ZM269.569 353C269.519 352.901 269.479 352.725 269.448 352.471C269.049 352.886 268.573 353.093 268.019 353.093C267.525 353.093 267.118 352.954 266.799 352.675C266.484 352.394 266.326 352.038 266.326 351.608C266.326 351.086 266.524 350.681 266.92 350.393C267.319 350.102 267.879 349.957 268.599 349.957H269.434V349.563C269.434 349.263 269.345 349.025 269.165 348.848C268.986 348.669 268.721 348.579 268.372 348.579C268.066 348.579 267.809 348.657 267.602 348.811C267.395 348.966 267.291 349.153 267.291 349.373H266.428C266.428 349.122 266.517 348.881 266.693 348.649C266.872 348.414 267.113 348.228 267.416 348.092C267.723 347.956 268.058 347.888 268.423 347.888C269.001 347.888 269.454 348.034 269.782 348.324C270.11 348.612 270.28 349.009 270.292 349.516V351.826C270.292 352.287 270.351 352.654 270.469 352.926V353H269.569ZM268.145 352.346C268.414 352.346 268.669 352.276 268.91 352.137C269.151 351.998 269.326 351.817 269.434 351.594V350.565H268.762C267.71 350.565 267.184 350.872 267.184 351.488C267.184 351.757 267.274 351.967 267.454 352.119C267.633 352.27 267.863 352.346 268.145 352.346ZM274.275 351.669C274.275 351.437 274.187 351.257 274.011 351.131C273.837 351.001 273.533 350.889 273.097 350.797C272.664 350.704 272.319 350.593 272.062 350.463C271.809 350.333 271.62 350.178 271.496 349.999C271.376 349.819 271.316 349.606 271.316 349.359C271.316 348.947 271.489 348.599 271.835 348.315C272.184 348.03 272.63 347.888 273.171 347.888C273.74 347.888 274.201 348.035 274.553 348.329C274.909 348.623 275.087 348.998 275.087 349.456H274.224C274.224 349.221 274.123 349.018 273.922 348.848C273.725 348.678 273.474 348.593 273.171 348.593C272.859 348.593 272.614 348.661 272.438 348.797C272.262 348.933 272.174 349.111 272.174 349.331C272.174 349.538 272.256 349.694 272.42 349.799C272.583 349.904 272.879 350.005 273.305 350.101C273.735 350.197 274.083 350.311 274.349 350.444C274.615 350.577 274.812 350.738 274.938 350.927C275.068 351.112 275.133 351.339 275.133 351.608C275.133 352.057 274.954 352.417 274.595 352.689C274.236 352.958 273.771 353.093 273.199 353.093C272.797 353.093 272.441 353.022 272.132 352.879C271.823 352.737 271.58 352.539 271.404 352.286C271.23 352.029 271.144 351.752 271.144 351.455H272.002C272.017 351.743 272.132 351.972 272.345 352.142C272.562 352.309 272.846 352.392 273.199 352.392C273.524 352.392 273.783 352.327 273.978 352.198C274.176 352.065 274.275 351.888 274.275 351.669ZM278.049 353.093C277.368 353.093 276.815 352.87 276.388 352.425C275.961 351.976 275.748 351.378 275.748 350.63V350.472C275.748 349.974 275.842 349.53 276.031 349.141C276.223 348.748 276.489 348.442 276.829 348.222C277.172 348 277.543 347.888 277.942 347.888C278.595 347.888 279.102 348.103 279.464 348.533C279.825 348.963 280.006 349.578 280.006 350.379V350.736H276.606C276.619 351.231 276.762 351.632 277.038 351.938C277.316 352.241 277.668 352.392 278.095 352.392C278.398 352.392 278.655 352.33 278.865 352.207C279.076 352.083 279.26 351.919 279.417 351.715L279.941 352.123C279.521 352.77 278.89 353.093 278.049 353.093ZM277.942 348.593C277.596 348.593 277.305 348.72 277.07 348.974C276.835 349.224 276.69 349.577 276.634 350.031H279.148V349.966C279.123 349.53 279.006 349.193 278.796 348.955C278.585 348.714 278.301 348.593 277.942 348.593ZM280.737 352.55C280.737 352.402 280.781 352.278 280.867 352.179C280.957 352.08 281.09 352.031 281.266 352.031C281.442 352.031 281.575 352.08 281.665 352.179C281.758 352.278 281.804 352.402 281.804 352.55C281.804 352.692 281.758 352.811 281.665 352.907C281.575 353.003 281.442 353.051 281.266 353.051C281.09 353.051 280.957 353.003 280.867 352.907C280.781 352.811 280.737 352.692 280.737 352.55Z" fill="black" fill-opacity="0.6"/>
<path d="M33 105C33 93.9543 41.9543 85 53 85H262C273.046 85 282 93.9543 282 105V210C282 212.761 279.761 215 277 215H38C35.2386 215 33 212.761 33 210V105Z" fill="url(#paint0_linear)"/>
<g clip-path="url(#clip0)">
<path fill-rule="evenodd" clip-rule="evenodd" d="M167.047 57.2047C162.921 60.3317 156.941 62 151.792 62C144.572 62 138.073 59.2544 133.156 54.6879C132.769 54.3288 133.115 53.8394 133.579 54.119C138.886 57.2937 145.447 59.2035 152.225 59.2035C156.796 59.2035 161.824 58.2311 166.447 56.2132C167.146 55.9081 167.73 56.6835 167.047 57.2047" fill="#FF9900"/>
<path fill-rule="evenodd" clip-rule="evenodd" d="M168.762 55.1868C168.237 54.494 165.276 54.8595 163.947 55.0215C163.542 55.0724 163.481 54.7101 163.845 54.4495C166.203 52.743 170.073 53.2356 170.524 53.8076C170.975 54.3828 170.407 58.3709 168.191 60.2745C167.851 60.5668 167.526 60.4111 167.678 60.0234C168.175 58.7459 169.291 55.8827 168.762 55.1868" fill="#FF9900"/>
<path fill-rule="evenodd" clip-rule="evenodd" d="M164.04 42.4024V40.7436C164.04 40.4926 164.225 40.3242 164.448 40.3242H171.67C171.902 40.3242 172.088 40.4958 172.088 40.7436V42.1641C172.085 42.4024 171.89 42.7139 171.544 43.2064L167.801 48.7009C169.192 48.6659 170.66 48.8788 171.921 49.6097C172.205 49.775 172.282 50.0165 172.304 50.2548V52.0249C172.304 52.2664 172.044 52.5492 171.772 52.403C169.55 51.205 166.599 51.0747 164.142 52.4157C163.891 52.5555 163.629 52.2759 163.629 52.0344V50.3533C163.629 50.0832 163.632 49.6224 163.895 49.2125L168.231 42.8187H164.457C164.225 42.8187 164.04 42.6503 164.04 42.4024" fill="black"/>
<path fill-rule="evenodd" clip-rule="evenodd" d="M137.693 52.7526H135.495C135.285 52.7367 135.118 52.5746 135.103 52.3681V40.7722C135.103 40.5403 135.291 40.3559 135.526 40.3559H137.575C137.788 40.3655 137.958 40.5339 137.974 40.7436V42.2594H138.014C138.549 40.7945 139.553 40.1112 140.907 40.1112C142.282 40.1112 143.141 40.7945 143.759 42.2594C144.291 40.7945 145.499 40.1112 146.794 40.1112C147.715 40.1112 148.723 40.5021 149.338 41.3792C150.033 42.3548 149.891 43.7721 149.891 45.0146L149.888 52.3331C149.888 52.5651 149.7 52.7526 149.465 52.7526H147.27C147.051 52.7367 146.875 52.5556 146.875 52.3331V46.1872C146.875 45.6978 146.918 44.4776 146.813 44.0136C146.649 43.235 146.158 43.0158 145.521 43.0158C144.99 43.0158 144.433 43.3812 144.208 43.9659C143.982 44.5506 144.004 45.5294 144.004 46.1872V52.3331C144.004 52.5651 143.815 52.7526 143.58 52.7526H141.386C141.163 52.7367 140.99 52.5556 140.99 52.3331L140.987 46.1872C140.987 44.8939 141.194 42.9903 139.634 42.9903C138.054 42.9903 138.116 44.8462 138.116 46.1872V52.3331C138.116 52.5651 137.928 52.7526 137.693 52.7526" fill="black"/>
<path fill-rule="evenodd" clip-rule="evenodd" d="M178.306 40.1112C181.567 40.1112 183.331 42.9903 183.331 46.6512C183.331 50.1881 181.381 52.9941 178.306 52.9941C175.104 52.9941 173.361 50.115 173.361 46.5272C173.361 42.9173 175.126 40.1112 178.306 40.1112V40.1112ZM178.325 42.4787C176.705 42.4787 176.603 44.7477 176.603 46.1618C176.603 47.5791 176.581 50.6044 178.306 50.6044C180.009 50.6044 180.089 48.1638 180.089 46.6766C180.089 45.6978 180.049 44.5284 179.762 43.6005C179.514 42.7933 179.023 42.4787 178.325 42.4787" fill="black"/>
<path fill-rule="evenodd" clip-rule="evenodd" d="M187.559 52.7526H185.371C185.152 52.7367 184.975 52.5556 184.975 52.3331L184.972 40.7341C184.991 40.5212 185.173 40.3559 185.396 40.3559H187.433C187.624 40.3655 187.782 40.4989 187.825 40.6801V42.4533H187.865C188.48 40.8676 189.342 40.1112 190.86 40.1112C191.846 40.1112 192.807 40.4767 193.425 41.4777C194 42.4056 194 43.9659 194 45.0877V52.3871C193.975 52.5905 193.793 52.7526 193.577 52.7526H191.373C191.172 52.7367 191.005 52.5842 190.984 52.3871V46.0887C190.984 44.8208 191.126 42.9649 189.608 42.9649C189.074 42.9649 188.582 43.3335 188.338 43.8928C188.029 44.6015 187.989 45.307 187.989 46.0887V52.3331C187.986 52.5651 187.794 52.7526 187.559 52.7526" fill="black"/>
<path fill-rule="evenodd" clip-rule="evenodd" d="M158.282 47.2136C158.282 48.0939 158.304 48.828 157.871 49.6097C157.522 50.2453 156.965 50.6361 156.35 50.6361C155.507 50.6361 155.012 49.9752 155.012 48.9996C155.012 47.0738 156.69 46.7243 158.282 46.7243V47.2136V47.2136ZM160.498 52.7208C160.353 52.8543 160.143 52.8638 159.979 52.7748C159.249 52.152 159.117 51.8628 158.718 51.2685C157.513 52.5333 156.656 52.9115 155.096 52.9115C153.244 52.9115 151.807 51.7388 151.807 49.3904C151.807 47.5569 152.772 46.308 154.15 45.6978C155.343 45.1576 157.009 45.0623 158.282 44.9129V44.6206C158.282 44.0835 158.322 43.4479 158.013 42.984C157.747 42.5677 157.234 42.3961 156.78 42.3961C155.943 42.3961 155.198 42.8378 155.015 43.753C154.978 43.9564 154.833 44.1566 154.632 44.1661L152.503 43.931C152.323 43.8897 152.123 43.7403 152.175 43.4575C152.663 40.8008 155 40 157.089 40C158.158 40 159.555 40.2924 160.399 41.125C161.468 42.1514 161.366 43.521 161.366 45.0114V48.5324C161.366 49.5907 161.793 50.0546 162.195 50.6266C162.334 50.83 162.365 51.0747 162.185 51.2272C161.737 51.6117 160.94 52.3267 160.501 52.7271L160.498 52.7208" fill="black"/>
<path fill-rule="evenodd" clip-rule="evenodd" d="M129.475 47.2138C129.475 48.0941 129.496 48.8282 129.064 49.6099C128.714 50.2455 128.161 50.6363 127.543 50.6363C126.699 50.6363 126.208 49.9754 126.208 48.9998C126.208 47.074 127.886 46.7245 129.475 46.7245V47.2138V47.2138ZM131.691 52.721C131.545 52.8545 131.335 52.864 131.172 52.775C130.442 52.1522 130.312 51.863 129.911 51.2687C128.705 52.5335 127.852 52.9117 126.288 52.9117C124.44 52.9117 123 51.739 123 49.3906C123 47.557 123.967 46.3082 125.343 45.698C126.536 45.1578 128.201 45.0625 129.475 44.9131V44.6208C129.475 44.0837 129.515 43.4481 129.209 42.9842C128.94 42.5679 128.427 42.3963 127.976 42.3963C127.138 42.3963 126.39 42.838 126.208 43.7532C126.171 43.9566 126.026 44.1568 125.828 44.1663L123.695 43.9312C123.516 43.8899 123.318 43.7405 123.368 43.4577C123.859 40.801 126.193 40.0002 128.282 40.0002C129.351 40.0002 130.748 40.2926 131.592 41.1252C132.661 42.1516 132.559 43.5212 132.559 45.0116V48.5326C132.559 49.5908 132.986 50.0548 133.387 50.6268C133.53 50.8302 133.561 51.0749 133.381 51.2274C132.933 51.6119 132.136 52.3269 131.697 52.7273L131.691 52.721" fill="black"/>
</g>
<defs>
<filter id="filter0_d" x="34" y="223" width="260" height="61" filterUnits="userSpaceOnUse" color-interpolation-filters="sRGB">
<feFlood flood-opacity="0" result="BackgroundImageFix"/>
<feColorMatrix in="SourceAlpha" type="matrix" values="0 0 0 0 0 0 0 0 0 0 0 0 0 0 0 0 0 0 127 0"/>
<feOffset dy="2"/>
<feGaussianBlur stdDeviation="2.5"/>
<feColorMatrix type="matrix" values="0 0 0 0 0 0 0 0 0 0 0 0 0 0 0 0 0 0 0.15 0"/>
<feBlend mode="normal" in2="BackgroundImageFix" result="effect1_dropShadow"/>
<feBlend mode="normal" in="SourceGraphic" in2="effect1_dropShadow" result="shape"/>
</filter>
<filter id="filter1_i" x="83.2622" y="243.82" width="162.874" height="17.5938" filterUnits="userSpaceOnUse" color-interpolation-filters="sRGB">
<feFlood flood-opacity="0" result="BackgroundImageFix"/>
<feBlend mode="normal" in="SourceGraphic" in2="BackgroundImageFix" result="shape"/>
<feColorMatrix in="SourceAlpha" type="matrix" values="0 0 0 0 0 0 0 0 0 0 0 0 0 0 0 0 0 0 127 0" result="hardAlpha"/>
<feOffset dy="1"/>
<feGaussianBlur stdDeviation="0.5"/>
<feComposite in2="hardAlpha" operator="arithmetic" k2="-1" k3="1"/>
<feColorMatrix type="matrix" values="0 0 0 0 0 0 0 0 0 0 0 0 0 0 0 0 0 0 0.05 0"/>
<feBlend mode="normal" in2="shape" result="effect1_innerShadow"/>
</filter>
<linearGradient id="paint0_linear" x1="204.724" y1="85" x2="157.337" y2="214.941" gradientUnits="userSpaceOnUse">
<stop stop-color="#C4C4C4" stop-opacity="0.13"/>
<stop offset="1" stop-color="#C4C4C4" stop-opacity="0.14"/>
</linearGradient>
<clipPath id="clip0">
<rect width="71" height="22" fill="white" transform="translate(123 40)"/>
</clipPath>
</defs>
</svg>
