<svg width="141" height="134" viewBox="0 0 141 134" fill="none" xmlns="http://www.w3.org/2000/svg">
<path d="M53.2516 99.7348C45.1435 104.099 35.9454 96.1125 39.1286 87.4722L64.0347 19.87C64.5084 18.5844 66.1052 18.1449 67.17 19.0071L119.165 61.1089C120.275 62.0078 120.112 63.7472 118.854 64.4243L53.2516 99.7348Z" fill="url(#paint0_linear)"/>
<mask id="mask0" mask-type="alpha" maskUnits="userSpaceOnUse" x="13" y="12" width="108" height="108">
<path d="M53.2516 99.7348C45.1435 104.099 35.9454 96.1125 39.1286 87.4722L64.0347 19.87C64.5084 18.5844 66.1052 18.1449 67.17 19.0071L119.165 61.1089C120.275 62.0078 120.112 63.7472 118.854 64.4243L53.2516 99.7348Z" fill="url(#paint1_linear)"/>
</mask>
<g mask="url(#mask0)">
<circle cx="88.7356" cy="44.7118" r="62.0008" transform="rotate(0.988221 88.7356 44.7118)" stroke="url(#paint2_radial)" stroke-width="6"/>
<circle cx="99.0097" cy="28.0097" r="62.5008" transform="rotate(0.988221 99.0097 28.0097)" stroke="url(#paint3_radial)" stroke-width="7"/>
<circle cx="113.01" cy="13.0097" r="63.0008" transform="rotate(0.988221 113.01 13.0097)" stroke="url(#paint4_radial)" stroke-width="8"/>
</g>
<ellipse cx="92.9812" cy="40.5912" rx="35.4522" ry="8.23524" transform="rotate(39.3084 92.9812 40.5912)" fill="url(#paint5_linear)"/>
<path fill-rule="evenodd" clip-rule="evenodd" d="M72.0966 0.591025C71.0423 0.26156 69.9205 0.849146 69.591 1.90344C69.2616 2.95772 69.8492 4.07948 70.9035 4.40894C72.817 5.00693 74.6159 5.73369 76.1986 6.95726C77.7533 8.15918 79.1929 9.9143 80.2554 12.7104C82.1824 17.7814 82.8675 26.2685 80.5536 40.8375L84.1201 43.7815C86.9158 27.5906 86.4021 17.6251 83.9946 11.2895C82.6821 7.83567 80.8092 5.46579 78.6451 3.79271C76.5091 2.14128 74.183 1.24304 72.0966 0.591025Z" fill="url(#paint6_linear)"/>
<path fill-rule="evenodd" clip-rule="evenodd" d="M96.597 53.5805C117.754 42.6084 133.204 42.5157 138.482 43.9317C139.549 44.2179 140.645 43.5851 140.932 42.5183C141.218 41.4514 140.585 40.3545 139.518 40.0683C132.861 38.2822 115.782 38.7563 93.253 50.8225L96.597 53.5805Z" fill="url(#paint7_linear)"/>
<path d="M107.5 37C104.5 28.6667 103.8 15 125 27C129 29 124.5 19.5 122 16C119.5 12.5 134 16.5 135 15C136 13.5 137.5 4.5 135 3" stroke="url(#paint8_linear)" stroke-width="4" stroke-linecap="round" stroke-linejoin="round"/>
<path d="M126 78.5L127.5 76.5" stroke="url(#paint9_linear)" stroke-width="4" stroke-linecap="round" stroke-linejoin="round"/>
<path d="M124.767 61.7718L126.733 60.2282" stroke="url(#paint10_linear)" stroke-width="4" stroke-linecap="round" stroke-linejoin="round"/>
<path d="M62.2301 17.4772L60 16.3473" stroke="url(#paint11_linear)" stroke-width="4" stroke-linecap="round" stroke-linejoin="round"/>
<path d="M134.394 67.0577L135.573 69.2624" stroke="url(#paint12_linear)" stroke-width="4" stroke-linecap="round" stroke-linejoin="round"/>
<path d="M128.532 90.4346L127.964 88" stroke="url(#paint13_linear)" stroke-width="4" stroke-linecap="round" stroke-linejoin="round"/>
<path d="M118.363 7.78228L116.133 6.65237" stroke="url(#paint14_linear)" stroke-width="4" stroke-linecap="round" stroke-linejoin="round"/>
<path d="M73.0199 12.2006L71.4763 10.234" stroke="url(#paint15_linear)" stroke-width="4" stroke-linecap="round" stroke-linejoin="round"/>
<path d="M46.991 53.4405L47.5052 50.994" stroke="url(#paint16_linear)" stroke-width="4" stroke-linecap="round" stroke-linejoin="round"/>
<path d="M106.518 79.3201L107.449 77" stroke="url(#paint17_linear)" stroke-width="4" stroke-linecap="round" stroke-linejoin="round"/>
<path d="M87.5176 8.3201L88.4489 6.00002" stroke="url(#paint18_linear)" stroke-width="4" stroke-linecap="round" stroke-linejoin="round"/>
<path d="M94.0983 24.725L91.8682 23.5951" stroke="url(#paint19_linear)" stroke-width="4" stroke-linecap="round" stroke-linejoin="round"/>
<path d="M52 39.5C57.5 33 65.5 25 45.5 26.5C25.5 28 54 18 52 15C50 12 34.5 14.5 45.5 2" stroke="url(#paint20_linear)" stroke-width="3" stroke-linecap="round" stroke-linejoin="round"/>
<defs>
<linearGradient id="paint0_linear" x1="53" y1="60" x2="97.5" y2="87" gradientUnits="userSpaceOnUse">
<stop stop-color="#F6C747"/>
<stop offset="1" stop-color="#FFFF6C"/>
</linearGradient>
<linearGradient id="paint1_linear" x1="53" y1="60" x2="97.5" y2="87" gradientUnits="userSpaceOnUse">
<stop stop-color="#F6C747"/>
<stop offset="1" stop-color="#FFFF6C"/>
</linearGradient>
<radialGradient id="paint2_radial" cx="0" cy="0" r="1" gradientUnits="userSpaceOnUse" gradientTransform="translate(66.333 92.6223) rotate(-128.089) scale(52.1366)">
<stop stop-color="#F041FF"/>
<stop offset="1" stop-color="#5353EC"/>
</radialGradient>
<radialGradient id="paint3_radial" cx="0" cy="0" r="1" gradientUnits="userSpaceOnUse" gradientTransform="translate(76.6071 75.9201) rotate(-128.089) scale(52.1366)">
<stop stop-color="#F041FF"/>
<stop offset="1" stop-color="#5353EC"/>
</radialGradient>
<radialGradient id="paint4_radial" cx="0" cy="0" r="1" gradientUnits="userSpaceOnUse" gradientTransform="translate(90.6071 60.9201) rotate(-128.089) scale(52.1366)">
<stop stop-color="#F041FF"/>
<stop offset="1" stop-color="#5353EC"/>
</radialGradient>
<linearGradient id="paint5_linear" x1="64.017" y1="31.2308" x2="134.553" y2="32.9313" gradientUnits="userSpaceOnUse">
<stop offset="0.166667" stop-color="#FFC955"/>
<stop offset="0.427083" stop-color="#FFF500"/>
<stop offset="0.822917" stop-color="#F4B127"/>
</linearGradient>
<linearGradient id="paint6_linear" x1="77.7577" y1="0.499451" x2="77.7577" y2="33.8588" gradientUnits="userSpaceOnUse">
<stop stop-color="#FF00D6"/>
<stop offset="1" stop-color="#FF0000"/>
</linearGradient>
<linearGradient id="paint7_linear" x1="121.246" y1="39.2975" x2="121.246" y2="49.6415" gradientUnits="userSpaceOnUse">
<stop stop-color="#00E0FF"/>
<stop offset="1" stop-color="#00B2FF"/>
</linearGradient>
<linearGradient id="paint8_linear" x1="121.158" y1="3" x2="121.158" y2="37" gradientUnits="userSpaceOnUse">
<stop stop-color="#DB00FF"/>
<stop offset="1" stop-color="#FF005C"/>
</linearGradient>
<linearGradient id="paint9_linear" x1="126.75" y1="76.5" x2="126.75" y2="78.5" gradientUnits="userSpaceOnUse">
<stop stop-color="#FFC700"/>
<stop offset="1" stop-color="#FF5C00"/>
</linearGradient>
<linearGradient id="paint10_linear" x1="126.009" y1="60.0341" x2="125.491" y2="61.9659" gradientUnits="userSpaceOnUse">
<stop stop-color="#FFE600"/>
<stop offset="1" stop-color="#FFD600"/>
</linearGradient>
<linearGradient id="paint11_linear" x1="60.1302" y1="17.0859" x2="62.0998" y2="16.7386" gradientUnits="userSpaceOnUse">
<stop stop-color="#FFE600"/>
<stop offset="1" stop-color="#FFD600"/>
</linearGradient>
<linearGradient id="paint12_linear" x1="135.89" y1="68.5827" x2="134.077" y2="67.7374" gradientUnits="userSpaceOnUse">
<stop stop-color="#FF7A00"/>
<stop offset="1" stop-color="#FF7A00"/>
</linearGradient>
<linearGradient id="paint13_linear" x1="127.482" y1="88.5745" x2="129.014" y2="89.8601" gradientUnits="userSpaceOnUse">
<stop stop-color="#FF00E5"/>
<stop offset="1" stop-color="#FF007A"/>
</linearGradient>
<linearGradient id="paint14_linear" x1="116.263" y1="7.39097" x2="118.233" y2="7.04368" gradientUnits="userSpaceOnUse">
<stop stop-color="#FF00E5"/>
<stop offset="1" stop-color="#FF007A"/>
</linearGradient>
<linearGradient id="paint15_linear" x1="71.2822" y1="10.9585" x2="73.2141" y2="11.4761" gradientUnits="userSpaceOnUse">
<stop stop-color="#FF00E5"/>
<stop offset="1" stop-color="#FF007A"/>
</linearGradient>
<linearGradient id="paint16_linear" x1="46.8255" y1="51.311" x2="47.6707" y2="53.1236" gradientUnits="userSpaceOnUse">
<stop stop-color="#FF00E5"/>
<stop offset="1" stop-color="#FF007A"/>
</linearGradient>
<linearGradient id="paint17_linear" x1="106.724" y1="77.1941" x2="107.242" y2="79.126" gradientUnits="userSpaceOnUse">
<stop stop-color="#0500FF"/>
<stop offset="1" stop-color="#00FFFF"/>
</linearGradient>
<linearGradient id="paint18_linear" x1="87.7244" y1="6.19413" x2="88.2421" y2="8.12598" gradientUnits="userSpaceOnUse">
<stop stop-color="#0500FF"/>
<stop offset="1" stop-color="#0085FF"/>
</linearGradient>
<linearGradient id="paint19_linear" x1="91.9985" y1="24.3337" x2="93.9681" y2="23.9864" gradientUnits="userSpaceOnUse">
<stop stop-color="#00D1FF"/>
<stop offset="1" stop-color="#00F0FF"/>
</linearGradient>
<linearGradient id="paint20_linear" x1="48.3338" y1="2" x2="48.3338" y2="39.5" gradientUnits="userSpaceOnUse">
<stop stop-color="#00F0FF"/>
<stop offset="1" stop-color="#0066FF"/>
</linearGradient>
</defs>
</svg>
