<svg width="134" height="29" viewBox="0 0 134 29" fill="none" xmlns="http://www.w3.org/2000/svg">
<path fill-rule="evenodd" clip-rule="evenodd" d="M1.108 1.27273L3.32391 7.25568L2.86368 10H5.21595L5.67618 7.25568L9.86936 1.27273H7.22732L4.94323 4.81818H4.858L3.75004 1.27273H1.108ZM11.011 10.1193C13.1417 10.1193 14.6289 8.75568 14.9655 6.74432C15.2937 4.73295 14.2581 3.36932 12.136 3.36932C9.99678 3.36932 8.50956 4.73295 8.18144 6.74432C7.84479 8.75568 8.8803 10.1193 11.011 10.1193ZM11.3008 8.38068C10.6829 8.38068 10.4144 7.75426 10.5848 6.72727C10.751 5.70028 11.2326 5.07386 11.8462 5.07386C12.4598 5.07386 12.7283 5.70028 12.5621 6.72727C12.3917 7.75426 11.9101 8.38068 11.3008 8.38068ZM20.3962 7.13636C20.2982 7.78409 19.855 8.17614 19.2712 8.17614C18.6789 8.17614 18.4062 7.78409 18.5042 7.13636L19.1178 3.45455H16.7655L16.0667 7.63068C15.8323 9.0625 16.5652 10.0852 17.9417 10.0852C18.9175 10.0852 19.7698 9.59091 20.1746 8.75568H20.2428L20.0383 10H22.2712L23.3621 3.45455H21.0098L20.3962 7.13636ZM23.7676 10H26.1199L26.6824 6.59091C26.8187 5.84091 27.4153 5.34659 28.0971 5.34659C28.3528 5.34659 28.7278 5.38068 28.9494 5.46591L29.2903 3.45455C29.1028 3.40341 28.9153 3.36932 28.7108 3.36932C28.0119 3.36932 27.3983 3.77841 27.0062 4.69886H26.938L27.1426 3.45455H24.8585L23.7676 10ZM35.0977 10.1193C37.0409 10.1193 38.4045 9.01136 38.7284 7.27273H36.5466C36.3761 7.95455 35.95 8.32955 35.4216 8.32955C34.8079 8.32955 34.5011 7.80114 34.6716 6.72727C34.842 5.65341 35.3363 5.125 35.967 5.125C36.4784 5.125 36.7682 5.5 36.717 6.18182H38.8988C39.1716 4.47727 38.1488 3.36932 36.2227 3.36932C34.092 3.36932 32.592 4.73295 32.2682 6.74432C31.9272 8.75568 32.967 10.1193 35.0977 10.1193ZM44.2603 7.13636C44.1623 7.78409 43.7191 8.17614 43.1353 8.17614C42.5429 8.17614 42.2702 7.78409 42.3682 7.13636L42.9819 3.45455H40.6296L39.9307 7.63068C39.6963 9.0625 40.4293 10.0852 41.8057 10.0852C42.7816 10.0852 43.6338 9.59091 44.0387 8.75568H44.1069L43.9023 10H46.1353L47.2262 3.45455H44.8739L44.2603 7.13636ZM54.3305 5.58523C54.5137 4.20455 53.4441 3.36932 51.4839 3.36932C49.6856 3.36932 48.4797 4.05966 48.2623 5.36364C48.0791 6.45455 48.6885 7.17898 49.9839 7.40909L51.1089 7.61364C51.6075 7.71165 51.7566 7.78409 51.7396 7.97159C51.6927 8.30398 51.2666 8.55114 50.768 8.53409C50.3078 8.52557 50.0137 8.3125 50.001 7.88636H47.7169C47.6274 9.21591 48.6714 10.1193 50.7339 10.1193C52.4896 10.1193 53.8958 9.31392 54.126 7.97159C54.2879 6.9446 53.6828 6.31818 52.3873 6.07955L51.0919 5.84091C50.6103 5.74716 50.5507 5.6321 50.5805 5.5C50.6274 5.16761 51.0663 4.9375 51.5351 4.9375C51.9356 4.9375 52.2467 5.17614 52.2169 5.58523H54.3305ZM59.9807 3.45455H58.8514L59.1113 1.88636H56.7591L56.4991 3.45455H55.6682L55.3784 5.15909H56.2179L55.7278 8.11648C55.4721 9.48011 56.2051 10.1747 57.8585 10.0938C58.3869 10.0682 58.796 9.95739 59.0346 9.8892L58.9665 8.2358C58.9444 8.23946 58.9161 8.24471 58.8838 8.25069C58.7662 8.27249 58.5962 8.30398 58.4892 8.30398C58.1824 8.30398 58.0673 8.16761 58.1142 7.89489L58.5701 5.15909H59.6909L59.9807 3.45455ZM63.2157 10.1193C65.3464 10.1193 66.8336 8.75568 67.1702 6.74432C67.4983 4.73295 66.4628 3.36932 64.3407 3.36932C62.2015 3.36932 60.7142 4.73295 60.3861 6.74432C60.0495 8.75568 61.085 10.1193 63.2157 10.1193ZM63.5054 8.38068C62.8875 8.38068 62.6191 7.75426 62.7895 6.72727C62.9557 5.70028 63.4373 5.07386 64.0509 5.07386C64.6645 5.07386 64.933 5.70028 64.7668 6.72727C64.5964 7.75426 64.1148 8.38068 63.5054 8.38068ZM67.8964 10H70.2486L70.8964 6.18182C70.9773 5.6108 71.3353 5.26136 71.8168 5.26136C72.3069 5.26136 72.5625 5.6108 72.4816 6.18182L71.8339 10H74.0839L74.7316 6.18182C74.8125 5.6108 75.1705 5.26136 75.652 5.26136C76.1421 5.26136 76.3978 5.6108 76.3168 6.18182L75.6691 10H78.0214L78.7543 5.58523C78.9802 4.2429 78.26 3.36932 77.0157 3.36932C76.0356 3.36932 75.1662 3.89773 74.8168 4.69886H74.7486C74.7401 3.89773 74.0924 3.36932 73.1804 3.36932C72.2643 3.36932 71.4887 3.88068 71.0839 4.69886H71.0157L71.2202 3.45455H68.9873L67.8964 10ZM84.5159 10.0852C85.4321 10.0852 86.1437 9.59091 86.5272 8.92614H86.5784L86.3994 10H88.7346L90.1835 1.27273H87.8312L87.2772 4.59659H87.2432C87.0983 3.93182 86.5784 3.36932 85.6068 3.36932C84.3113 3.36932 82.888 4.35795 82.496 6.72727C82.121 8.99432 83.1139 10.0852 84.5159 10.0852ZM85.6835 8.27841C85.0315 8.27841 84.7545 7.69886 84.9164 6.72727C85.0741 5.75568 85.5471 5.17614 86.1949 5.17614C86.8426 5.17614 87.1366 5.75568 86.9789 6.72727C86.8213 7.68182 86.327 8.27841 85.6835 8.27841ZM93.3258 10.1193C95.4565 10.1193 96.9437 8.75568 97.2804 6.74432C97.6085 4.73295 96.573 3.36932 94.4508 3.36932C92.3116 3.36932 90.8244 4.73295 90.4963 6.74432C90.1596 8.75568 91.1951 10.1193 93.3258 10.1193ZM93.6156 8.38068C92.9977 8.38068 92.7292 7.75426 92.8997 6.72727C93.0659 5.70028 93.5474 5.07386 94.1611 5.07386C94.7747 5.07386 95.0432 5.70028 94.877 6.72727C94.7065 7.75426 94.225 8.38068 93.6156 8.38068ZM98.0065 10H100.359L101.007 6.18182C101.087 5.6108 101.445 5.26136 101.927 5.26136C102.417 5.26136 102.673 5.6108 102.592 6.18182L101.944 10H104.194L104.842 6.18182C104.923 5.6108 105.281 5.26136 105.762 5.26136C106.252 5.26136 106.508 5.6108 106.427 6.18182L105.779 10H108.132L108.864 5.58523C109.09 4.2429 108.37 3.36932 107.126 3.36932C106.146 3.36932 105.276 3.89773 104.927 4.69886H104.859C104.85 3.89773 104.203 3.36932 103.291 3.36932C102.374 3.36932 101.599 3.88068 101.194 4.69886H101.126L101.33 3.45455H99.0974L98.0065 10ZM111.381 10.1023C112.234 10.1023 112.933 9.8125 113.444 9.07955H113.495L113.342 10H115.541L116.291 5.51705C116.495 4.30682 115.489 3.36932 113.631 3.36932C111.671 3.36932 110.529 4.39205 110.256 5.58523H112.421C112.541 5.17614 112.881 4.98864 113.325 4.98864C113.734 4.98864 113.989 5.17614 113.938 5.51705V5.53409C113.87 5.90909 113.427 6.02841 112.319 6.11364C110.955 6.21591 109.813 6.76136 109.575 8.19318C109.353 9.48864 110.137 10.1023 111.381 10.1023ZM112.404 8.61932C111.995 8.61932 111.756 8.41477 111.808 8.05682C111.859 7.71591 112.148 7.46023 112.711 7.375C113.086 7.30682 113.427 7.23864 113.683 7.13636L113.597 7.68182C113.495 8.27841 112.933 8.61932 112.404 8.61932ZM116.964 10H119.317L120.408 3.45455H118.055L116.964 10ZM119.334 2.77273C119.973 2.77273 120.57 2.28693 120.663 1.69886C120.757 1.10227 120.322 0.625 119.683 0.625C119.044 0.625 118.447 1.10227 118.345 1.69886C118.243 2.28693 118.695 2.77273 119.334 2.77273ZM123.798 6.31818C123.905 5.67045 124.348 5.27841 124.923 5.27841C125.524 5.27841 125.797 5.67045 125.69 6.31818L125.077 10H127.429L128.128 5.82386C128.371 4.39205 127.638 3.36932 126.253 3.36932C125.285 3.36932 124.433 3.86364 124.02 4.69886H123.952L124.156 3.45455H121.923L120.832 10H123.185L123.798 6.31818ZM133.032 1.27273H130.663L129.896 7.27273H131.822L133.032 1.27273ZM130.475 10.1364C131.089 10.1364 131.72 9.60795 131.788 8.94318C131.856 8.29545 131.362 7.76705 130.731 7.76705C130.066 7.76705 129.47 8.29545 129.401 8.94318C129.333 9.60795 129.811 10.1364 130.475 10.1364ZM19.0339 15.7597C18.6545 15.3584 18.0215 15.3407 17.6202 15.7201C14.2376 18.9186 11.7865 20.4504 8.1275 22.4881L8.12616 20.4493C8.12554 19.519 6.96628 19.0935 6.36401 19.8026L0.312741 26.9263C-0.295576 27.6425 0.330134 28.7262 1.25448 28.5575L10.4495 26.8788C11.3646 26.7117 11.5758 25.495 10.7705 25.0294L9.25398 24.1525C12.8942 22.1175 15.5187 20.4598 18.9943 17.1733C19.3956 16.7939 19.4134 16.161 19.0339 15.7597Z" fill="#5A67D8"/>
<path fill-rule="evenodd" clip-rule="evenodd" d="M1.108 1.27273L3.32391 7.25568L2.86368 10H5.21595L5.67618 7.25568L9.86936 1.27273H7.22732L4.94323 4.81818H4.858L3.75004 1.27273H1.108ZM11.011 10.1193C13.1417 10.1193 14.6289 8.75568 14.9655 6.74432C15.2937 4.73295 14.2581 3.36932 12.136 3.36932C9.99678 3.36932 8.50956 4.73295 8.18144 6.74432C7.84479 8.75568 8.8803 10.1193 11.011 10.1193ZM11.3008 8.38068C10.6829 8.38068 10.4144 7.75426 10.5848 6.72727C10.751 5.70028 11.2326 5.07386 11.8462 5.07386C12.4598 5.07386 12.7283 5.70028 12.5621 6.72727C12.3917 7.75426 11.9101 8.38068 11.3008 8.38068ZM20.3962 7.13636C20.2982 7.78409 19.855 8.17614 19.2712 8.17614C18.6789 8.17614 18.4062 7.78409 18.5042 7.13636L19.1178 3.45455H16.7655L16.0667 7.63068C15.8323 9.0625 16.5652 10.0852 17.9417 10.0852C18.9175 10.0852 19.7698 9.59091 20.1746 8.75568H20.2428L20.0383 10H22.2712L23.3621 3.45455H21.0098L20.3962 7.13636ZM23.7676 10H26.1199L26.6824 6.59091C26.8187 5.84091 27.4153 5.34659 28.0971 5.34659C28.3528 5.34659 28.7278 5.38068 28.9494 5.46591L29.2903 3.45455C29.1028 3.40341 28.9153 3.36932 28.7108 3.36932C28.0119 3.36932 27.3983 3.77841 27.0062 4.69886H26.938L27.1426 3.45455H24.8585L23.7676 10ZM35.0977 10.1193C37.0409 10.1193 38.4045 9.01136 38.7284 7.27273H36.5466C36.3761 7.95455 35.95 8.32955 35.4216 8.32955C34.8079 8.32955 34.5011 7.80114 34.6716 6.72727C34.842 5.65341 35.3363 5.125 35.967 5.125C36.4784 5.125 36.7682 5.5 36.717 6.18182H38.8988C39.1716 4.47727 38.1488 3.36932 36.2227 3.36932C34.092 3.36932 32.592 4.73295 32.2682 6.74432C31.9272 8.75568 32.967 10.1193 35.0977 10.1193ZM44.2603 7.13636C44.1623 7.78409 43.7191 8.17614 43.1353 8.17614C42.5429 8.17614 42.2702 7.78409 42.3682 7.13636L42.9819 3.45455H40.6296L39.9307 7.63068C39.6963 9.0625 40.4293 10.0852 41.8057 10.0852C42.7816 10.0852 43.6338 9.59091 44.0387 8.75568H44.1069L43.9023 10H46.1353L47.2262 3.45455H44.8739L44.2603 7.13636ZM54.3305 5.58523C54.5137 4.20455 53.4441 3.36932 51.4839 3.36932C49.6856 3.36932 48.4797 4.05966 48.2623 5.36364C48.0791 6.45455 48.6885 7.17898 49.9839 7.40909L51.1089 7.61364C51.6075 7.71165 51.7566 7.78409 51.7396 7.97159C51.6927 8.30398 51.2666 8.55114 50.768 8.53409C50.3078 8.52557 50.0137 8.3125 50.001 7.88636H47.7169C47.6274 9.21591 48.6714 10.1193 50.7339 10.1193C52.4896 10.1193 53.8958 9.31392 54.126 7.97159C54.2879 6.9446 53.6828 6.31818 52.3873 6.07955L51.0919 5.84091C50.6103 5.74716 50.5507 5.6321 50.5805 5.5C50.6274 5.16761 51.0663 4.9375 51.5351 4.9375C51.9356 4.9375 52.2467 5.17614 52.2169 5.58523H54.3305ZM59.9807 3.45455H58.8514L59.1113 1.88636H56.7591L56.4991 3.45455H55.6682L55.3784 5.15909H56.2179L55.7278 8.11648C55.4721 9.48011 56.2051 10.1747 57.8585 10.0938C58.3869 10.0682 58.796 9.95739 59.0346 9.8892L58.9665 8.2358C58.9444 8.23946 58.9161 8.24471 58.8838 8.25069C58.7662 8.27249 58.5962 8.30398 58.4892 8.30398C58.1824 8.30398 58.0673 8.16761 58.1142 7.89489L58.5701 5.15909H59.6909L59.9807 3.45455ZM63.2157 10.1193C65.3464 10.1193 66.8336 8.75568 67.1702 6.74432C67.4983 4.73295 66.4628 3.36932 64.3407 3.36932C62.2015 3.36932 60.7142 4.73295 60.3861 6.74432C60.0495 8.75568 61.085 10.1193 63.2157 10.1193ZM63.5054 8.38068C62.8875 8.38068 62.6191 7.75426 62.7895 6.72727C62.9557 5.70028 63.4373 5.07386 64.0509 5.07386C64.6645 5.07386 64.933 5.70028 64.7668 6.72727C64.5964 7.75426 64.1148 8.38068 63.5054 8.38068ZM67.8964 10H70.2486L70.8964 6.18182C70.9773 5.6108 71.3353 5.26136 71.8168 5.26136C72.3069 5.26136 72.5625 5.6108 72.4816 6.18182L71.8339 10H74.0839L74.7316 6.18182C74.8125 5.6108 75.1705 5.26136 75.652 5.26136C76.1421 5.26136 76.3978 5.6108 76.3168 6.18182L75.6691 10H78.0214L78.7543 5.58523C78.9802 4.2429 78.26 3.36932 77.0157 3.36932C76.0356 3.36932 75.1662 3.89773 74.8168 4.69886H74.7486C74.7401 3.89773 74.0924 3.36932 73.1804 3.36932C72.2643 3.36932 71.4887 3.88068 71.0839 4.69886H71.0157L71.2202 3.45455H68.9873L67.8964 10ZM84.5159 10.0852C85.4321 10.0852 86.1437 9.59091 86.5272 8.92614H86.5784L86.3994 10H88.7346L90.1835 1.27273H87.8312L87.2772 4.59659H87.2432C87.0983 3.93182 86.5784 3.36932 85.6068 3.36932C84.3113 3.36932 82.888 4.35795 82.496 6.72727C82.121 8.99432 83.1139 10.0852 84.5159 10.0852ZM85.6835 8.27841C85.0315 8.27841 84.7545 7.69886 84.9164 6.72727C85.0741 5.75568 85.5471 5.17614 86.1949 5.17614C86.8426 5.17614 87.1366 5.75568 86.9789 6.72727C86.8213 7.68182 86.327 8.27841 85.6835 8.27841ZM93.3258 10.1193C95.4565 10.1193 96.9437 8.75568 97.2804 6.74432C97.6085 4.73295 96.573 3.36932 94.4508 3.36932C92.3116 3.36932 90.8244 4.73295 90.4963 6.74432C90.1596 8.75568 91.1951 10.1193 93.3258 10.1193ZM93.6156 8.38068C92.9977 8.38068 92.7292 7.75426 92.8997 6.72727C93.0659 5.70028 93.5474 5.07386 94.1611 5.07386C94.7747 5.07386 95.0432 5.70028 94.877 6.72727C94.7065 7.75426 94.225 8.38068 93.6156 8.38068ZM98.0065 10H100.359L101.007 6.18182C101.087 5.6108 101.445 5.26136 101.927 5.26136C102.417 5.26136 102.673 5.6108 102.592 6.18182L101.944 10H104.194L104.842 6.18182C104.923 5.6108 105.281 5.26136 105.762 5.26136C106.252 5.26136 106.508 5.6108 106.427 6.18182L105.779 10H108.132L108.864 5.58523C109.09 4.2429 108.37 3.36932 107.126 3.36932C106.146 3.36932 105.276 3.89773 104.927 4.69886H104.859C104.85 3.89773 104.203 3.36932 103.291 3.36932C102.374 3.36932 101.599 3.88068 101.194 4.69886H101.126L101.33 3.45455H99.0974L98.0065 10ZM111.381 10.1023C112.234 10.1023 112.933 9.8125 113.444 9.07955H113.495L113.342 10H115.541L116.291 5.51705C116.495 4.30682 115.489 3.36932 113.631 3.36932C111.671 3.36932 110.529 4.39205 110.256 5.58523H112.421C112.541 5.17614 112.881 4.98864 113.325 4.98864C113.734 4.98864 113.989 5.17614 113.938 5.51705V5.53409C113.87 5.90909 113.427 6.02841 112.319 6.11364C110.955 6.21591 109.813 6.76136 109.575 8.19318C109.353 9.48864 110.137 10.1023 111.381 10.1023ZM112.404 8.61932C111.995 8.61932 111.756 8.41477 111.808 8.05682C111.859 7.71591 112.148 7.46023 112.711 7.375C113.086 7.30682 113.427 7.23864 113.683 7.13636L113.597 7.68182C113.495 8.27841 112.933 8.61932 112.404 8.61932ZM116.964 10H119.317L120.408 3.45455H118.055L116.964 10ZM119.334 2.77273C119.973 2.77273 120.57 2.28693 120.663 1.69886C120.757 1.10227 120.322 0.625 119.683 0.625C119.044 0.625 118.447 1.10227 118.345 1.69886C118.243 2.28693 118.695 2.77273 119.334 2.77273ZM123.798 6.31818C123.905 5.67045 124.348 5.27841 124.923 5.27841C125.524 5.27841 125.797 5.67045 125.69 6.31818L125.077 10H127.429L128.128 5.82386C128.371 4.39205 127.638 3.36932 126.253 3.36932C125.285 3.36932 124.433 3.86364 124.02 4.69886H123.952L124.156 3.45455H121.923L120.832 10H123.185L123.798 6.31818ZM133.032 1.27273H130.663L129.896 7.27273H131.822L133.032 1.27273ZM130.475 10.1364C131.089 10.1364 131.72 9.60795 131.788 8.94318C131.856 8.29545 131.362 7.76705 130.731 7.76705C130.066 7.76705 129.47 8.29545 129.401 8.94318C129.333 9.60795 129.811 10.1364 130.475 10.1364ZM19.0339 15.7597C18.6545 15.3584 18.0215 15.3407 17.6202 15.7201C14.2376 18.9186 11.7865 20.4504 8.1275 22.4881L8.12616 20.4493C8.12554 19.519 6.96628 19.0935 6.36401 19.8026L0.312741 26.9263C-0.295576 27.6425 0.330134 28.7262 1.25448 28.5575L10.4495 26.8788C11.3646 26.7117 11.5758 25.495 10.7705 25.0294L9.25398 24.1525C12.8942 22.1175 15.5187 20.4598 18.9943 17.1733C19.3956 16.7939 19.4134 16.161 19.0339 15.7597Z" fill="url(#paint0_linear)"/>
<defs>
<linearGradient id="paint0_linear" x1="54.4695" y1="-3.625" x2="54.4695" y2="23.749" gradientUnits="userSpaceOnUse">
<stop stop-color="#00D2FF"/>
<stop offset="1" stop-color="#5A67D8"/>
</linearGradient>
</defs>
</svg>
