<svg width="286" height="218" viewBox="0 0 286 218" fill="none" xmlns="http://www.w3.org/2000/svg">
<path fill-rule="evenodd" clip-rule="evenodd" d="M286 109C286 138.727 221.977 218 143 218C64.0233 218 0 144.825 0 109C0 73.1748 64.0233 0 143 0C221.977 0 286 79.2727 286 109ZM204 108.5C204 142.466 176.466 170 142.5 170C108.534 170 81 142.466 81 108.5C81 74.5345 108.534 47 142.5 47C176.466 47 204 74.5345 204 108.5ZM143 143C161.778 143 177 127.778 177 109C177 90.2223 161.778 75 143 75C124.222 75 109 90.2223 109 109C109 127.778 124.222 143 143 143Z" fill="black"/>
</svg>
