<svg width="316" height="603" viewBox="0 0 316 603" fill="none" xmlns="http://www.w3.org/2000/svg">
<rect width="316" height="603" fill="white"/>
<g filter="url(#filter0_dd)">
<rect x="39" y="88" width="77" height="77" rx="38.5" fill="url(#paint0_linear)"/>
<rect x="37" y="86" width="81" height="81" rx="40.5" stroke="white" stroke-width="4"/>
</g>
<rect x="133" y="88" width="150" height="20" rx="4" fill="black" fill-opacity="0.05"/>
<path d="M133 144C133 141.791 134.791 140 137 140H279C281.209 140 283 141.791 283 144V161C283 163.209 281.209 165 279 165H137C134.791 165 133 163.209 133 161V144Z" fill="black" fill-opacity="0.05"/>
<rect x="133" y="117" width="44" height="14" rx="4" fill="black" fill-opacity="0.05"/>
<rect x="186" y="117" width="76" height="14" rx="4" fill="black" fill-opacity="0.05"/>
<rect x="39" y="188" width="76" height="14" rx="4" fill="black" fill-opacity="0.05"/>
<rect x="60" y="208" width="76" height="14" rx="4" fill="black" fill-opacity="0.05"/>
<rect x="267" y="188" width="16" height="14" rx="4" fill="black" fill-opacity="0.05"/>
<rect x="36" y="207" width="16" height="14" rx="4" fill="black" fill-opacity="0.05"/>
<rect x="123" y="188" width="139" height="14" rx="4" fill="black" fill-opacity="0.05"/>
<rect x="144" y="209" width="139" height="14" rx="4" fill="black" fill-opacity="0.05"/>
<path d="M39.8066 250.08C39.8066 249.735 39.6341 249.465 39.2891 249.27C38.9505 249.068 38.4036 248.889 37.6484 248.732C35.1354 248.205 33.8789 247.137 33.8789 245.529C33.8789 244.592 34.2663 243.811 35.041 243.186C35.8223 242.554 36.8411 242.238 38.0977 242.238C39.4388 242.238 40.5098 242.554 41.3105 243.186C42.1178 243.817 42.5215 244.637 42.5215 245.646H39.6992C39.6992 245.243 39.569 244.911 39.3086 244.65C39.0482 244.383 38.6413 244.25 38.0879 244.25C37.6126 244.25 37.2448 244.357 36.9844 244.572C36.724 244.787 36.5938 245.061 36.5938 245.393C36.5938 245.705 36.7402 245.959 37.0332 246.154C37.3327 246.343 37.834 246.509 38.5371 246.652C39.2402 246.789 39.8327 246.945 40.3145 247.121C41.8053 247.668 42.5508 248.615 42.5508 249.963C42.5508 250.926 42.1374 251.708 41.3105 252.307C40.4837 252.899 39.416 253.195 38.1074 253.195C37.222 253.195 36.4342 253.039 35.7441 252.727C35.0605 252.408 34.5234 251.975 34.1328 251.428C33.7422 250.874 33.5469 250.279 33.5469 249.641H36.2227C36.2487 250.142 36.4342 250.526 36.7793 250.793C37.1243 251.06 37.5866 251.193 38.166 251.193C38.7064 251.193 39.1133 251.092 39.3867 250.891C39.6667 250.682 39.8066 250.412 39.8066 250.08ZM46.9555 253H44.1234V242.434H46.9555V253ZM43.9574 239.699C43.9574 239.276 44.0974 238.928 44.3773 238.654C44.6638 238.381 45.0512 238.244 45.5395 238.244C46.0212 238.244 46.4053 238.381 46.6918 238.654C46.9783 238.928 47.1215 239.276 47.1215 239.699C47.1215 240.129 46.975 240.48 46.682 240.754C46.3956 241.027 46.0147 241.164 45.5395 241.164C45.0642 241.164 44.6801 241.027 44.3871 240.754C44.1007 240.48 43.9574 240.129 43.9574 239.699ZM51.4871 242.434L51.575 243.654C52.3302 242.71 53.3426 242.238 54.6121 242.238C55.7319 242.238 56.5652 242.567 57.1121 243.225C57.659 243.882 57.9389 244.865 57.952 246.174V253H55.1297V246.242C55.1297 245.643 54.9995 245.21 54.7391 244.943C54.4786 244.67 54.0457 244.533 53.4402 244.533C52.646 244.533 52.0503 244.872 51.6531 245.549V253H48.8309V242.434H51.4871ZM59.2902 247.639C59.2902 246.018 59.6743 244.712 60.4426 243.723C61.2173 242.733 62.259 242.238 63.5676 242.238C64.7264 242.238 65.6281 242.635 66.2727 243.43L66.3898 242.434H68.9484V252.648C68.9484 253.573 68.7368 254.377 68.3137 255.061C67.897 255.744 67.3078 256.265 66.5461 256.623C65.7844 256.981 64.8924 257.16 63.8703 257.16C63.0956 257.16 62.3404 257.004 61.6047 256.691C60.869 256.385 60.3124 255.988 59.9348 255.5L61.1848 253.781C61.8879 254.569 62.7408 254.963 63.7434 254.963C64.4921 254.963 65.0747 254.761 65.4914 254.357C65.9081 253.96 66.1164 253.394 66.1164 252.658V252.092C65.4654 252.827 64.6092 253.195 63.548 253.195C62.2785 253.195 61.2499 252.701 60.4621 251.711C59.6809 250.715 59.2902 249.396 59.2902 247.756V247.639ZM62.1125 247.844C62.1125 248.801 62.3046 249.553 62.6887 250.1C63.0728 250.64 63.6001 250.91 64.2707 250.91C65.1301 250.91 65.7453 250.588 66.1164 249.943V245.5C65.7388 244.855 65.1301 244.533 64.2902 244.533C63.6132 244.533 63.0793 244.81 62.6887 245.363C62.3046 245.917 62.1125 246.743 62.1125 247.844ZM73.7047 253H70.8727V238H73.7047V253ZM80.502 253.195C78.9525 253.195 77.6895 252.72 76.7129 251.77C75.7428 250.819 75.2578 249.553 75.2578 247.971V247.697C75.2578 246.636 75.4629 245.689 75.873 244.855C76.2832 244.016 76.8626 243.371 77.6113 242.922C78.3665 242.466 79.2259 242.238 80.1895 242.238C81.6348 242.238 82.7708 242.694 83.5977 243.605C84.431 244.517 84.8477 245.809 84.8477 247.482V248.635H78.1191C78.2103 249.325 78.4837 249.878 78.9395 250.295C79.4017 250.712 79.9844 250.92 80.6875 250.92C81.7747 250.92 82.6243 250.526 83.2363 249.738L84.623 251.291C84.1999 251.89 83.627 252.359 82.9043 252.697C82.1816 253.029 81.3809 253.195 80.502 253.195ZM80.1797 244.523C79.6198 244.523 79.1641 244.712 78.8125 245.09C78.4674 245.467 78.2461 246.008 78.1484 246.711H82.0742V246.486C82.0612 245.861 81.8919 245.38 81.5664 245.041C81.2409 244.696 80.7786 244.523 80.1797 244.523ZM89.0375 253H86.2055V238H89.0375V253ZM91.118 251.613C91.118 251.164 91.2677 250.799 91.5672 250.52C91.8732 250.24 92.254 250.1 92.7098 250.1C93.172 250.1 93.5529 250.24 93.8523 250.52C94.1583 250.799 94.3113 251.164 94.3113 251.613C94.3113 252.056 94.1616 252.417 93.8621 252.697C93.5626 252.971 93.1785 253.107 92.7098 253.107C92.2475 253.107 91.8667 252.971 91.5672 252.697C91.2677 252.417 91.118 252.056 91.118 251.613ZM99.3703 253H96.5383V242.434H99.3703V253ZM96.3723 239.699C96.3723 239.276 96.5122 238.928 96.7922 238.654C97.0786 238.381 97.466 238.244 97.9543 238.244C98.4361 238.244 98.8202 238.381 99.1066 238.654C99.3931 238.928 99.5363 239.276 99.5363 239.699C99.5363 240.129 99.3898 240.48 99.0969 240.754C98.8104 241.027 98.4296 241.164 97.9543 241.164C97.479 241.164 97.0949 241.027 96.802 240.754C96.5155 240.48 96.3723 240.129 96.3723 239.699ZM103.902 242.434L103.99 243.654C104.745 242.71 105.757 242.238 107.027 242.238C108.147 242.238 108.98 242.567 109.527 243.225C110.074 243.882 110.354 244.865 110.367 246.174V253H107.545V246.242C107.545 245.643 107.414 245.21 107.154 244.943C106.893 244.67 106.461 244.533 105.855 244.533C105.061 244.533 104.465 244.872 104.068 245.549V253H101.246V242.434H103.902ZM115.953 248.762L114.938 249.777V253H112.115V238H114.938V246.311L115.484 245.607L118.189 242.434H121.578L117.76 246.838L121.91 253H118.668L115.953 248.762ZM123.287 254.221H121.188L126.422 238.781H128.522L123.287 254.221ZM135.807 251.926C135.111 252.772 134.147 253.195 132.917 253.195C131.784 253.195 130.918 252.87 130.319 252.219C129.727 251.568 129.424 250.614 129.411 249.357V242.434H132.233V249.26C132.233 250.36 132.735 250.91 133.737 250.91C134.694 250.91 135.352 250.578 135.71 249.914V242.434H138.542V253H135.886L135.807 251.926ZM141.159 254.221H139.06L144.294 238.781H146.394L141.159 254.221ZM150.339 242.434V253.576C150.339 254.742 150.03 255.646 149.412 256.291C148.793 256.942 147.901 257.268 146.736 257.268C146.248 257.268 145.782 257.212 145.339 257.102V254.865C145.678 254.924 145.974 254.953 146.228 254.953C147.081 254.953 147.507 254.501 147.507 253.596V242.434H150.339ZM147.283 239.699C147.283 239.276 147.423 238.928 147.703 238.654C147.989 238.381 148.377 238.244 148.865 238.244C149.353 238.244 149.737 238.381 150.017 238.654C150.304 238.928 150.447 239.276 150.447 239.699C150.447 240.129 150.3 240.48 150.007 240.754C149.721 241.027 149.34 241.164 148.865 241.164C148.39 241.164 148.005 241.027 147.713 240.754C147.426 240.48 147.283 240.129 147.283 239.699ZM155.125 253H152.293V242.434H155.125V253ZM152.127 239.699C152.127 239.276 152.267 238.928 152.547 238.654C152.833 238.381 153.221 238.244 153.709 238.244C154.191 238.244 154.575 238.381 154.861 238.654C155.148 238.928 155.291 239.276 155.291 239.699C155.291 240.129 155.145 240.48 154.852 240.754C154.565 241.027 154.184 241.164 153.709 241.164C153.234 241.164 152.85 241.027 152.557 240.754C152.27 240.48 152.127 240.129 152.127 239.699ZM159.705 242.434L159.793 243.615C160.542 242.697 161.554 242.238 162.83 242.238C164.191 242.238 165.125 242.775 165.633 243.85C166.375 242.775 167.433 242.238 168.807 242.238C169.953 242.238 170.806 242.574 171.366 243.244C171.926 243.908 172.205 244.911 172.205 246.252V253H169.373V246.262C169.373 245.663 169.256 245.227 169.022 244.953C168.787 244.673 168.374 244.533 167.782 244.533C166.935 244.533 166.349 244.937 166.024 245.744L166.034 253H163.211V246.271C163.211 245.66 163.091 245.217 162.85 244.943C162.609 244.67 162.199 244.533 161.62 244.533C160.819 244.533 160.239 244.865 159.881 245.529V253H157.059V242.434H159.705Z" fill="#0094FF"/>
<path d="M122.476 44.9108C120.855 45.5893 119.073 47.5063 118.51 49.9125C117.797 52.9612 120.764 54.2505 121.007 53.8277C121.293 53.331 120.475 53.1631 120.307 51.5812C120.089 49.5382 121.039 47.2553 122.235 46.2536C122.457 46.0675 122.446 46.3265 122.446 46.8056C122.446 47.6624 122.399 55.3536 122.399 56.9587C122.399 59.1307 122.309 59.8166 122.148 60.4943C121.985 61.1811 121.722 61.6452 121.921 61.824C122.143 62.0239 123.092 61.5483 123.641 60.7818C124.3 59.8625 124.53 58.7584 124.572 57.5595C124.622 56.1141 124.62 53.8207 124.622 52.5126C124.624 51.3128 124.642 47.7996 124.601 45.6876C124.591 45.1696 123.154 44.6261 122.476 44.9102L122.476 44.9108ZM180.039 55.0755C179.986 56.2047 179.736 57.0872 179.426 57.7098C178.826 58.915 177.58 59.2892 177.05 57.5567C176.762 56.6123 176.749 55.0351 176.956 53.7172C177.167 52.3746 177.756 51.3607 178.732 51.4521C179.694 51.5425 180.145 52.7826 180.039 55.0755V55.0755ZM163.815 62.0811C163.802 63.9573 163.507 65.6023 162.874 66.08C161.975 66.7575 160.768 66.2493 161.018 64.8803C161.24 63.6688 162.285 62.4316 163.818 60.9198C163.818 60.9198 163.821 61.2646 163.815 62.0811H163.815ZM163.57 55.0646C163.515 56.093 163.248 57.1262 162.957 57.7099C162.357 58.9151 161.102 59.2919 160.582 57.5568C160.226 56.3714 160.311 54.8371 160.487 53.8704C160.715 52.6161 161.269 51.4524 162.263 51.4524C163.23 51.4524 163.706 52.5127 163.57 55.0647V55.0646ZM154.172 55.0488C154.113 56.1381 153.9 57.0486 153.559 57.7099C152.942 58.9068 151.722 59.2864 151.183 57.5568C150.795 56.3097 150.927 54.6091 151.089 53.6905C151.328 52.3273 151.928 51.3608 152.865 51.4524C153.827 51.5464 154.294 52.7827 154.172 55.0489V55.0488ZM197.242 56.3211C197.007 56.3211 196.899 56.5635 196.811 56.9715C196.503 58.3902 196.179 58.7105 195.762 58.7105C195.295 58.7105 194.876 58.008 194.769 56.6018C194.684 55.4961 194.698 53.4604 194.806 51.4355C194.828 51.0194 194.713 50.6078 193.597 50.2024C193.117 50.028 192.419 49.7713 192.072 50.6102C191.09 52.9803 190.705 54.8619 190.615 55.6263C190.61 55.6659 190.562 55.6739 190.553 55.5815C190.496 54.9693 190.367 53.8568 190.351 51.5194C190.348 51.0633 190.251 50.6751 189.748 50.3573C189.421 50.1511 188.429 49.7864 188.072 50.2203C187.763 50.5751 187.405 51.5301 187.032 52.6622C186.73 53.5823 186.519 54.2047 186.519 54.2047C186.519 54.2047 186.523 51.7221 186.526 50.7804C186.528 50.4252 186.284 50.3068 186.211 50.2853C185.88 50.1893 185.229 50.029 184.952 50.029C184.611 50.029 184.527 50.2197 184.527 50.4977C184.527 50.5341 184.473 53.7662 184.473 56.0263C184.473 56.1245 184.473 56.2316 184.474 56.3454C184.286 57.3842 183.673 58.7943 183.008 58.7943C182.341 58.7943 182.027 58.2047 182.027 55.5104C182.027 53.9385 182.074 53.2551 182.097 52.1182C182.11 51.4634 182.136 50.9606 182.135 50.8465C182.13 50.4965 181.525 50.3202 181.243 50.255C180.961 50.1893 180.715 50.1638 180.523 50.1747C180.251 50.1901 180.059 50.3683 180.059 50.6134C180.059 50.7449 180.06 50.9948 180.06 50.9948C179.71 50.4449 179.148 50.0622 178.773 49.9513C177.765 49.6518 176.712 49.9172 175.918 51.028C175.287 51.9107 174.907 52.9103 174.757 54.3466C174.648 55.3966 174.684 56.4614 174.878 57.3619C174.643 58.378 174.207 58.7943 173.729 58.7943C173.035 58.7943 172.532 57.6621 172.591 55.7042C172.629 54.4164 172.887 53.5126 173.169 52.2051C173.289 51.6478 173.191 51.356 172.947 51.0763C172.722 50.8198 172.244 50.6888 171.556 50.8499C171.066 50.9648 170.366 51.0884 169.725 51.1833C169.725 51.1833 169.764 51.0291 169.796 50.7572C169.962 49.331 168.413 49.4467 167.918 49.9022C167.623 50.1742 167.422 50.4949 167.346 51.0716C167.225 51.9868 167.972 52.4184 167.972 52.4184C167.727 53.5394 167.126 55.0038 166.507 56.0625C166.175 56.6298 165.921 57.0501 165.593 57.4969C165.592 57.3305 165.591 57.1642 165.59 56.9986C165.583 54.6418 165.614 52.787 165.628 52.1184C165.641 51.4636 165.668 50.9741 165.666 50.86C165.662 50.6041 165.513 50.5074 165.202 50.385C164.927 50.2768 164.602 50.2019 164.265 50.1758C163.84 50.1426 163.583 50.3683 163.59 50.6351C163.591 50.6855 163.591 50.9949 163.591 50.9949C163.241 50.445 162.678 50.0623 162.304 49.9514C161.295 49.652 160.243 49.9174 159.449 51.0281C158.818 51.9108 158.405 53.1493 158.288 54.3358C158.179 55.4415 158.199 56.3812 158.348 57.1728C158.187 57.9655 157.726 58.7944 157.205 58.7944C156.538 58.7944 156.159 58.2048 156.159 55.5105C156.159 53.9386 156.206 53.2552 156.23 52.1184C156.243 51.4636 156.269 50.9607 156.268 50.8467C156.263 50.4968 155.658 50.3204 155.376 50.2551C155.081 50.187 154.827 50.1619 154.632 50.1763C154.374 50.1955 154.193 50.4262 154.193 50.5983V50.9949C153.843 50.445 153.28 50.0623 152.906 49.9514C151.897 49.652 150.85 49.9217 150.051 51.0281C149.529 51.7496 149.107 52.5494 148.89 54.32C148.827 54.8317 148.799 55.3108 148.803 55.7587C148.595 57.0305 147.676 58.4963 146.925 58.4963C146.485 58.4963 146.067 57.6435 146.067 55.8261C146.067 53.4053 146.217 49.9585 146.242 49.6263C146.242 49.6263 147.191 49.6101 147.375 49.608C147.849 49.6028 148.277 49.614 148.908 49.5817C149.224 49.5656 149.529 48.4304 149.203 48.2899C149.055 48.2263 148.009 48.1705 147.594 48.1617C147.246 48.1538 146.275 48.082 146.275 48.082C146.275 48.082 146.362 45.7942 146.383 45.5525C146.4 45.3511 146.139 45.2474 145.99 45.1844C145.626 45.0307 145.301 44.9572 144.916 44.8777C144.383 44.7679 144.142 44.8753 144.095 45.3247C144.024 46.0067 143.987 48.0043 143.987 48.0043C143.596 48.0043 142.261 47.9279 141.87 47.9279C141.507 47.9279 141.115 49.4896 141.617 49.5088C142.195 49.5312 143.202 49.5505 143.869 49.5707C143.869 49.5707 143.839 53.0743 143.839 54.1559C143.839 54.271 143.84 54.3818 143.84 54.4894C143.473 56.4037 142.18 57.4377 142.18 57.4377C142.457 56.1713 141.89 55.2203 140.868 54.4152C140.491 54.1186 139.748 53.557 138.916 52.9415C138.916 52.9415 139.398 52.4667 139.825 51.5114C140.128 50.8347 140.141 50.0603 139.398 49.8896C138.17 49.6072 137.158 50.5089 136.856 51.4715C136.622 52.2173 136.746 52.7706 137.205 53.3454C137.238 53.3874 137.274 53.4304 137.312 53.4735C137.035 54.0077 136.654 54.7269 136.332 55.2847C135.436 56.8332 134.76 58.058 134.249 58.058C133.841 58.058 133.846 56.8145 133.846 55.6502C133.846 54.6465 133.921 53.1375 133.98 51.5751C133.999 51.0584 133.741 50.7641 133.308 50.4975C133.045 50.3355 132.483 50.017 132.158 50.017C131.671 50.017 130.266 50.0833 128.939 53.9224C128.772 54.4063 128.443 55.288 128.443 55.288L128.472 50.6713C128.472 50.563 128.414 50.4584 128.282 50.3868C128.058 50.2654 127.461 50.017 126.93 50.017C126.677 50.017 126.55 50.1347 126.55 50.3693L126.504 57.5922C126.504 58.141 126.518 58.7812 126.573 59.0613C126.627 59.3416 126.714 59.5697 126.823 59.7054C126.931 59.8409 127.056 59.9442 127.263 59.9868C127.455 60.0264 128.508 60.1616 128.563 59.7593C128.628 59.2771 128.631 58.7556 129.184 56.8106C130.044 53.7826 131.166 52.3051 131.694 51.7804C131.786 51.6887 131.891 51.6832 131.886 51.8333C131.864 52.4972 131.784 54.1561 131.731 55.5654C131.588 59.337 132.274 60.036 133.255 60.036C134.005 60.036 135.062 59.2907 136.196 57.404C136.903 56.2282 137.589 55.0754 138.082 54.2445C138.425 54.5625 138.811 54.9048 139.196 55.2704C140.091 56.1201 140.385 56.9276 140.19 57.6935C140.041 58.2791 139.479 58.8826 138.479 58.296C138.188 58.1249 138.064 57.9927 137.771 57.7998C137.613 57.6961 137.373 57.6652 137.229 57.7737C136.854 58.056 136.64 58.415 136.518 58.8594C136.399 59.2919 136.832 59.5205 137.281 59.7204C137.668 59.8925 138.499 60.0485 139.029 60.0663C141.093 60.1353 142.747 59.0694 143.899 56.3198C144.105 58.6944 144.982 60.0381 146.506 60.0381C147.525 60.0381 148.546 58.7212 148.993 57.4256C149.121 57.9537 149.311 58.4129 149.556 58.8013C150.731 60.6619 153.009 60.2614 154.153 58.6815C154.507 58.1933 154.561 58.0179 154.561 58.0179C154.728 59.5097 155.929 60.031 156.617 60.031C157.387 60.031 158.183 59.6668 158.74 58.4117C158.805 58.5479 158.877 58.678 158.955 58.8013C160.129 60.6618 162.407 60.2614 163.551 58.6814C163.605 58.6073 163.652 58.5401 163.693 58.4798L163.727 59.4597C163.727 59.4597 163.074 60.0585 162.673 60.4259C160.909 62.044 159.568 63.2716 159.47 64.7012C159.343 66.5241 160.821 67.2015 161.94 67.2903C163.128 67.3846 164.145 66.7284 164.77 65.8102C165.32 65.002 165.68 63.2624 165.653 61.5443C165.643 60.8564 165.626 59.9816 165.612 59.0439C166.232 58.324 166.93 57.4142 167.573 56.3492C168.274 55.1886 169.025 53.63 169.41 52.417C169.41 52.417 170.062 52.4226 170.759 52.3771C170.981 52.3625 171.045 52.408 171.004 52.5713C170.955 52.7686 170.124 55.9704 170.882 58.1033C171.401 59.5634 172.57 60.0332 173.263 60.0332C174.074 60.0332 174.85 59.4205 175.266 58.5107C175.316 58.6121 175.368 58.7103 175.426 58.8009C176.6 60.6614 178.87 60.2586 180.022 58.681C180.282 58.3251 180.43 58.0174 180.43 58.0174C180.677 59.5614 181.878 60.0384 182.566 60.0384C183.282 60.0384 183.962 59.7447 184.514 58.4395C184.537 59.0142 184.573 59.4841 184.63 59.6322C184.665 59.7228 184.869 59.8366 185.017 59.8915C185.672 60.1345 186.341 60.0196 186.588 59.9696C186.759 59.9349 186.893 59.7975 186.911 59.4426C186.959 58.5108 186.93 56.9452 187.212 55.7817C187.686 53.829 188.129 53.0716 188.338 52.6966C188.456 52.4865 188.588 52.4518 188.593 52.6742C188.603 53.1241 188.625 54.4453 188.809 56.2204C188.944 57.526 189.124 58.2976 189.263 58.5419C189.658 59.2403 190.146 59.2733 190.544 59.2733C190.797 59.2733 191.325 59.2034 191.278 58.759C191.255 58.5424 191.295 57.2036 191.763 55.2798C192.068 54.0235 192.577 52.8884 192.761 52.4734C192.828 52.3204 192.86 52.441 192.859 52.4645C192.82 53.3297 192.733 56.1596 193.086 57.7073C193.564 59.8039 194.946 60.0385 195.427 60.0385C196.456 60.0385 197.297 59.2564 197.58 57.1984C197.648 56.7032 197.547 56.3207 197.244 56.3207" fill="#262626"/>
<defs>
<filter id="filter0_dd" x="25" y="76" width="105" height="105" filterUnits="userSpaceOnUse" color-interpolation-filters="sRGB">
<feFlood flood-opacity="0" result="BackgroundImageFix"/>
<feColorMatrix in="SourceAlpha" type="matrix" values="0 0 0 0 0 0 0 0 0 0 0 0 0 0 0 0 0 0 127 0"/>
<feOffset dy="2"/>
<feGaussianBlur stdDeviation="5"/>
<feColorMatrix type="matrix" values="0 0 0 0 0 0 0 0 0 0 0 0 0 0 0 0 0 0 0.15 0"/>
<feBlend mode="normal" in2="BackgroundImageFix" result="effect1_dropShadow"/>
<feColorMatrix in="SourceAlpha" type="matrix" values="0 0 0 0 0 0 0 0 0 0 0 0 0 0 0 0 0 0 127 0"/>
<feOffset dy="2"/>
<feGaussianBlur stdDeviation="2.5"/>
<feColorMatrix type="matrix" values="0 0 0 0 0 0 0 0 0 0 0 0 0 0 0 0 0 0 0.25 0"/>
<feBlend mode="normal" in2="effect1_dropShadow" result="effect2_dropShadow"/>
<feBlend mode="normal" in="SourceGraphic" in2="effect2_dropShadow" result="shape"/>
</filter>
<linearGradient id="paint0_linear" x1="77.5" y1="88" x2="77.5" y2="165" gradientUnits="userSpaceOnUse">
<stop stop-color="#DBDBF9"/>
<stop offset="1" stop-color="#A5A5DC"/>
</linearGradient>
</defs>
</svg>
