<svg width="70" height="25" viewBox="0 0 70 25" fill="none" xmlns="http://www.w3.org/2000/svg">
<path fill-rule="evenodd" clip-rule="evenodd" d="M0.0170441 9H2.38636L2.8679 6.11932H3.68608L4.73864 9H7.3125L6.08096 5.74432C7.08239 5.29688 7.78125 4.44886 7.97727 3.23864C8.28409 1.38068 7.17614 0.272728 5.23295 0.272728H1.46591L0.0170441 9ZM3.17471 4.27841L3.52841 2.16477H4.36364C5.18182 2.16477 5.625 2.48864 5.50568 3.23864C5.38636 3.98864 4.84091 4.27841 4.00568 4.27841H3.17471ZM11.4626 9.11932C13.2865 9.11932 14.582 8.25 15.0422 6.88636H12.8945C12.6899 7.26136 12.2638 7.46591 11.7865 7.46591C11.0876 7.46591 10.7638 7.00568 10.8661 6.375L10.8874 6.27273H15.1445L15.2297 5.72727C15.5706 3.64773 14.5138 2.36932 12.5365 2.36932C10.5081 2.36932 8.99105 3.71591 8.65014 5.74432C8.29219 7.85795 9.36605 9.11932 11.4626 9.11932ZM11.1303 4.97727C11.2624 4.40199 11.7652 4.02273 12.332 4.02273C12.9115 4.02273 13.2695 4.41477 13.1842 4.97727H11.1303ZM19.8134 8.07955C19.3021 8.8125 18.6032 9.10227 17.7509 9.10227C16.5066 9.10227 15.7225 8.48864 15.9441 7.19318C16.1827 5.76136 17.3248 5.21591 18.6884 5.11364C19.7964 5.02841 20.2396 4.90909 20.3077 4.53409V4.51705C20.3589 4.17614 20.1032 3.98864 19.6941 3.98864C19.2509 3.98864 18.91 4.17614 18.7907 4.58523H16.6259C16.8986 3.39205 18.0407 2.36932 20.0009 2.36932C21.8589 2.36932 22.8646 3.30682 22.66 4.51705L21.91 9H19.7111L19.8646 8.07955H19.8134ZM18.1771 7.05682C18.1259 7.41477 18.3646 7.61932 18.7736 7.61932C19.3021 7.61932 19.8646 7.27841 19.9668 6.68182L20.0521 6.13636C19.7964 6.23864 19.4555 6.30682 19.0805 6.375C18.518 6.46023 18.2282 6.71591 18.1771 7.05682ZM27.1351 0.272728H24.7828L23.3339 9H25.6862L27.1351 0.272728ZM33.4719 7.17614C34.0558 7.17614 34.4989 6.78409 34.5969 6.13636L35.2106 2.45455H37.5629L36.4719 9H34.239L34.4435 7.75568H34.3754C33.9705 8.59091 33.1183 9.08523 32.1424 9.08523C30.766 9.08523 30.033 8.0625 30.2674 6.63068L30.9663 2.45455H33.3185L32.7049 6.13636C32.6069 6.78409 32.8796 7.17614 33.4719 7.17614ZM44.6672 4.58523C44.8504 3.20455 43.7808 2.36932 41.8206 2.36932C40.0223 2.36932 38.8163 3.05966 38.599 4.36364C38.4158 5.45455 39.0251 6.17898 40.3206 6.40909L41.4456 6.61364C41.9442 6.71165 42.0933 6.78409 42.0763 6.97159C42.0294 7.30398 41.6033 7.55114 41.1047 7.53409C40.6445 7.52557 40.3504 7.3125 40.3376 6.88636H38.0536C37.9641 8.21591 39.0081 9.11932 41.0706 9.11932C42.8263 9.11932 44.2325 8.31392 44.4626 6.97159C44.6246 5.9446 44.0195 5.31818 42.724 5.07955L41.4286 4.84091C40.947 4.74716 40.8874 4.6321 40.9172 4.5C40.9641 4.16761 41.403 3.9375 41.8717 3.9375C42.2723 3.9375 42.5834 4.17614 42.5536 4.58523H44.6672ZM52.0219 6.88636C51.5616 8.25 50.2662 9.11932 48.4423 9.11932C46.3457 9.11932 45.2719 7.85795 45.6298 5.74432C45.9707 3.71591 47.4878 2.36932 49.5162 2.36932C51.4935 2.36932 52.5503 3.64773 52.2094 5.72727L52.1241 6.27273H47.867L47.8457 6.375C47.7435 7.00568 48.0673 7.46591 48.7662 7.46591C49.2435 7.46591 49.6696 7.26136 49.8741 6.88636H52.0219ZM49.3116 4.02273C48.7449 4.02273 48.242 4.40199 48.1099 4.97727H50.1639C50.2491 4.41477 49.8912 4.02273 49.3116 4.02273ZM52.9238 9H55.2761L55.8386 5.59091C55.9749 4.84091 56.5715 4.34659 57.2533 4.34659C57.509 4.34659 57.884 4.38068 58.1056 4.46591L58.4465 2.45455C58.259 2.40341 58.0715 2.36932 57.867 2.36932C57.1681 2.36932 56.5545 2.77841 56.1624 3.69886H56.0942L56.2988 2.45455H54.0147L52.9238 9ZM62.2792 2.36932C64.2394 2.36932 65.309 3.20455 65.1258 4.58523H63.0121C63.042 4.17614 62.7309 3.9375 62.3303 3.9375C61.8616 3.9375 61.4227 4.16761 61.3758 4.5C61.346 4.6321 61.4056 4.74716 61.8871 4.84091L63.1826 5.07955C64.4781 5.31818 65.0832 5.9446 64.9212 6.97159C64.6911 8.31392 63.2849 9.11932 61.5292 9.11932C59.4667 9.11932 58.4227 8.21591 58.5121 6.88636H60.7962C60.809 7.3125 61.1031 7.52557 61.5633 7.53409C62.0619 7.55114 62.488 7.30398 62.5349 6.97159C62.5519 6.78409 62.4028 6.71165 61.9042 6.61364L60.7792 6.40909C59.4837 6.17898 58.8744 5.45455 59.0576 4.36364C59.2749 3.05966 60.4809 2.36932 62.2792 2.36932ZM69.9407 0.272728H67.5714L66.8043 6.27273H68.7305L69.9407 0.272728ZM67.3839 9.13636C67.9975 9.13636 68.6282 8.60796 68.6964 7.94318C68.7646 7.29546 68.2702 6.76705 67.6396 6.76705C66.9748 6.76705 66.3782 7.29546 66.31 7.94318C66.2418 8.60796 66.7191 9.13636 67.3839 9.13636ZM42.3243 13.2628C42.7314 12.8897 43.364 12.9172 43.7372 13.3243C46.2879 16.1069 49.6783 17.5384 53.7388 18.2657C55.3137 18.5477 56.9736 18.7215 58.707 18.8284L57.858 17.3557C57.3934 16.5497 58.1846 15.6016 59.0607 15.9145L67.8631 19.0583C68.748 19.3743 68.748 20.6257 67.8631 20.9417L59.0607 24.0855C58.1846 24.3984 57.3934 23.4503 57.858 22.6443L58.8964 20.843C56.9865 20.7337 55.1402 20.5485 53.3862 20.2343C49.0717 19.4616 45.2121 17.8931 42.2628 14.6757C41.8897 14.2686 41.9172 13.636 42.3243 13.2628Z" fill="#5A67D8"/>
<path fill-rule="evenodd" clip-rule="evenodd" d="M0.0170441 9H2.38636L2.8679 6.11932H3.68608L4.73864 9H7.3125L6.08096 5.74432C7.08239 5.29688 7.78125 4.44886 7.97727 3.23864C8.28409 1.38068 7.17614 0.272728 5.23295 0.272728H1.46591L0.0170441 9ZM3.17471 4.27841L3.52841 2.16477H4.36364C5.18182 2.16477 5.625 2.48864 5.50568 3.23864C5.38636 3.98864 4.84091 4.27841 4.00568 4.27841H3.17471ZM11.4626 9.11932C13.2865 9.11932 14.582 8.25 15.0422 6.88636H12.8945C12.6899 7.26136 12.2638 7.46591 11.7865 7.46591C11.0876 7.46591 10.7638 7.00568 10.8661 6.375L10.8874 6.27273H15.1445L15.2297 5.72727C15.5706 3.64773 14.5138 2.36932 12.5365 2.36932C10.5081 2.36932 8.99105 3.71591 8.65014 5.74432C8.29219 7.85795 9.36605 9.11932 11.4626 9.11932ZM11.1303 4.97727C11.2624 4.40199 11.7652 4.02273 12.332 4.02273C12.9115 4.02273 13.2695 4.41477 13.1842 4.97727H11.1303ZM19.8134 8.07955C19.3021 8.8125 18.6032 9.10227 17.7509 9.10227C16.5066 9.10227 15.7225 8.48864 15.9441 7.19318C16.1827 5.76136 17.3248 5.21591 18.6884 5.11364C19.7964 5.02841 20.2396 4.90909 20.3077 4.53409V4.51705C20.3589 4.17614 20.1032 3.98864 19.6941 3.98864C19.2509 3.98864 18.91 4.17614 18.7907 4.58523H16.6259C16.8986 3.39205 18.0407 2.36932 20.0009 2.36932C21.8589 2.36932 22.8646 3.30682 22.66 4.51705L21.91 9H19.7111L19.8646 8.07955H19.8134ZM18.1771 7.05682C18.1259 7.41477 18.3646 7.61932 18.7736 7.61932C19.3021 7.61932 19.8646 7.27841 19.9668 6.68182L20.0521 6.13636C19.7964 6.23864 19.4555 6.30682 19.0805 6.375C18.518 6.46023 18.2282 6.71591 18.1771 7.05682ZM27.1351 0.272728H24.7828L23.3339 9H25.6862L27.1351 0.272728ZM33.4719 7.17614C34.0558 7.17614 34.4989 6.78409 34.5969 6.13636L35.2106 2.45455H37.5629L36.4719 9H34.239L34.4435 7.75568H34.3754C33.9705 8.59091 33.1183 9.08523 32.1424 9.08523C30.766 9.08523 30.033 8.0625 30.2674 6.63068L30.9663 2.45455H33.3185L32.7049 6.13636C32.6069 6.78409 32.8796 7.17614 33.4719 7.17614ZM44.6672 4.58523C44.8504 3.20455 43.7808 2.36932 41.8206 2.36932C40.0223 2.36932 38.8163 3.05966 38.599 4.36364C38.4158 5.45455 39.0251 6.17898 40.3206 6.40909L41.4456 6.61364C41.9442 6.71165 42.0933 6.78409 42.0763 6.97159C42.0294 7.30398 41.6033 7.55114 41.1047 7.53409C40.6445 7.52557 40.3504 7.3125 40.3376 6.88636H38.0536C37.9641 8.21591 39.0081 9.11932 41.0706 9.11932C42.8263 9.11932 44.2325 8.31392 44.4626 6.97159C44.6246 5.9446 44.0195 5.31818 42.724 5.07955L41.4286 4.84091C40.947 4.74716 40.8874 4.6321 40.9172 4.5C40.9641 4.16761 41.403 3.9375 41.8717 3.9375C42.2723 3.9375 42.5834 4.17614 42.5536 4.58523H44.6672ZM52.0219 6.88636C51.5616 8.25 50.2662 9.11932 48.4423 9.11932C46.3457 9.11932 45.2719 7.85795 45.6298 5.74432C45.9707 3.71591 47.4878 2.36932 49.5162 2.36932C51.4935 2.36932 52.5503 3.64773 52.2094 5.72727L52.1241 6.27273H47.867L47.8457 6.375C47.7435 7.00568 48.0673 7.46591 48.7662 7.46591C49.2435 7.46591 49.6696 7.26136 49.8741 6.88636H52.0219ZM49.3116 4.02273C48.7449 4.02273 48.242 4.40199 48.1099 4.97727H50.1639C50.2491 4.41477 49.8912 4.02273 49.3116 4.02273ZM52.9238 9H55.2761L55.8386 5.59091C55.9749 4.84091 56.5715 4.34659 57.2533 4.34659C57.509 4.34659 57.884 4.38068 58.1056 4.46591L58.4465 2.45455C58.259 2.40341 58.0715 2.36932 57.867 2.36932C57.1681 2.36932 56.5545 2.77841 56.1624 3.69886H56.0942L56.2988 2.45455H54.0147L52.9238 9ZM62.2792 2.36932C64.2394 2.36932 65.309 3.20455 65.1258 4.58523H63.0121C63.042 4.17614 62.7309 3.9375 62.3303 3.9375C61.8616 3.9375 61.4227 4.16761 61.3758 4.5C61.346 4.6321 61.4056 4.74716 61.8871 4.84091L63.1826 5.07955C64.4781 5.31818 65.0832 5.9446 64.9212 6.97159C64.6911 8.31392 63.2849 9.11932 61.5292 9.11932C59.4667 9.11932 58.4227 8.21591 58.5121 6.88636H60.7962C60.809 7.3125 61.1031 7.52557 61.5633 7.53409C62.0619 7.55114 62.488 7.30398 62.5349 6.97159C62.5519 6.78409 62.4028 6.71165 61.9042 6.61364L60.7792 6.40909C59.4837 6.17898 58.8744 5.45455 59.0576 4.36364C59.2749 3.05966 60.4809 2.36932 62.2792 2.36932ZM69.9407 0.272728H67.5714L66.8043 6.27273H68.7305L69.9407 0.272728ZM67.3839 9.13636C67.9975 9.13636 68.6282 8.60796 68.6964 7.94318C68.7646 7.29546 68.2702 6.76705 67.6396 6.76705C66.9748 6.76705 66.3782 7.29546 66.31 7.94318C66.2418 8.60796 66.7191 9.13636 67.3839 9.13636ZM42.3243 13.2628C42.7314 12.8897 43.364 12.9172 43.7372 13.3243C46.2879 16.1069 49.6783 17.5384 53.7388 18.2657C55.3137 18.5477 56.9736 18.7215 58.707 18.8284L57.858 17.3557C57.3934 16.5497 58.1846 15.6016 59.0607 15.9145L67.8631 19.0583C68.748 19.3743 68.748 20.6257 67.8631 20.9417L59.0607 24.0855C58.1846 24.3984 57.3934 23.4503 57.858 22.6443L58.8964 20.843C56.9865 20.7337 55.1402 20.5485 53.3862 20.2343C49.0717 19.4616 45.2121 17.8931 42.2628 14.6757C41.8897 14.2686 41.9172 13.636 42.3243 13.2628Z" fill="url(#paint0_linear)"/>
<defs>
<linearGradient id="paint0_linear" x1="34.9789" y1="0.272728" x2="34.9789" y2="27.6467" gradientUnits="userSpaceOnUse">
<stop stop-color="#00D2FF"/>
<stop offset="1" stop-color="#5A67D8"/>
</linearGradient>
</defs>
</svg>
