<svg width="1270" height="760" viewBox="0 0 1270 760" fill="none" xmlns="http://www.w3.org/2000/svg">
<rect width="1270" height="660" fill="url(#paint0_linear)"/>
<rect width="1270" height="660" fill="#FCFCFC"/>
<rect y="660" width="1270" height="100" fill="black"/>
<path d="M296.825 724L298.984 717.366H309.481L311.64 724H318.231L308.202 694.909H300.276L290.234 724H296.825ZM300.546 712.565L304.126 701.557H304.353L307.933 712.565H300.546ZM338.425 702.182H332.019L327.502 717.793H327.275L322.743 702.182H316.351L323.979 724H330.797L338.425 702.182ZM346.318 724.412C349.543 724.412 351.631 723.006 352.696 720.974H352.867V724H358.605V709.284C358.605 704.085 354.202 701.898 349.344 701.898C344.117 701.898 340.679 704.398 339.841 708.375L345.438 708.83C345.85 707.381 347.142 706.315 349.316 706.315C351.375 706.315 352.554 707.352 352.554 709.142V709.227C352.554 710.634 351.063 710.818 347.27 711.188C342.952 711.585 339.074 713.034 339.074 717.906C339.074 722.224 342.156 724.412 346.318 724.412ZM348.051 720.236C346.191 720.236 344.855 719.369 344.855 717.707C344.855 716.003 346.262 715.165 348.392 714.866C349.713 714.682 351.872 714.369 352.597 713.886V716.202C352.597 718.489 350.708 720.236 348.051 720.236ZM362.5 724H368.551V702.182H362.5V724ZM365.54 699.369C367.344 699.369 368.821 697.991 368.821 696.301C368.821 694.625 367.344 693.247 365.54 693.247C363.75 693.247 362.273 694.625 362.273 696.301C362.273 697.991 363.75 699.369 365.54 699.369ZM378.65 694.909H372.598V724H378.65V694.909ZM388.918 724.412C392.143 724.412 394.231 723.006 395.296 720.974H395.467V724H401.205V709.284C401.205 704.085 396.802 701.898 391.944 701.898C386.717 701.898 383.279 704.398 382.441 708.375L388.038 708.83C388.45 707.381 389.742 706.315 391.916 706.315C393.975 706.315 395.154 707.352 395.154 709.142V709.227C395.154 710.634 393.663 710.818 389.87 711.188C385.552 711.585 381.674 713.034 381.674 717.906C381.674 722.224 384.756 724.412 388.918 724.412ZM390.651 720.236C388.791 720.236 387.455 719.369 387.455 717.707C387.455 716.003 388.862 715.165 390.992 714.866C392.313 714.682 394.472 714.369 395.197 713.886V716.202C395.197 718.489 393.308 720.236 390.651 720.236ZM405.214 724H411.179V720.506H411.449C412.287 722.324 414.12 724.355 417.643 724.355C422.614 724.355 426.492 720.42 426.492 713.119C426.492 705.619 422.444 701.898 417.657 701.898C414.006 701.898 412.259 704.071 411.449 705.847H411.265V694.909H405.214V724ZM411.137 713.091C411.137 709.199 412.785 706.713 415.725 706.713C418.722 706.713 420.313 709.312 420.313 713.091C420.313 716.898 418.694 719.54 415.725 719.54C412.813 719.54 411.137 716.983 411.137 713.091ZM435.781 694.909H429.73V724H435.781V694.909ZM449.771 724.426C455.169 724.426 458.805 721.798 459.658 717.75L454.061 717.381C453.45 719.043 451.888 719.909 449.871 719.909C446.845 719.909 444.928 717.906 444.928 714.653V714.639H459.785V712.977C459.785 705.562 455.297 701.898 449.53 701.898C443.109 701.898 438.947 706.457 438.947 713.19C438.947 720.108 443.053 724.426 449.771 724.426ZM444.928 710.889C445.055 708.403 446.945 706.415 449.629 706.415C452.257 706.415 454.075 708.29 454.089 710.889H444.928ZM483.125 702.182H478.793V700.719C478.793 699.241 479.389 698.375 481.165 698.375C481.889 698.375 482.628 698.531 483.111 698.688L484.176 694.142C483.423 693.915 481.761 693.545 479.901 693.545C475.796 693.545 472.742 695.861 472.742 700.605V702.182H469.659V706.727H472.742V724H478.793V706.727H483.125V702.182ZM486.022 724H492.073V711.656C492.073 708.972 494.033 707.125 496.704 707.125C497.542 707.125 498.692 707.267 499.26 707.452V702.082C498.721 701.955 497.968 701.869 497.357 701.869C494.914 701.869 492.911 703.29 492.116 705.989H491.888V702.182H486.022V724ZM510.517 724.426C515.914 724.426 519.551 721.798 520.403 717.75L514.806 717.381C514.196 719.043 512.633 719.909 510.616 719.909C507.59 719.909 505.673 717.906 505.673 714.653V714.639H520.531V712.977C520.531 705.562 516.042 701.898 510.275 701.898C503.855 701.898 499.693 706.457 499.693 713.19C499.693 720.108 503.798 724.426 510.517 724.426ZM505.673 710.889C505.801 708.403 507.69 706.415 510.375 706.415C513.002 706.415 514.821 708.29 514.835 710.889H505.673ZM533.623 724.426C539.021 724.426 542.657 721.798 543.509 717.75L537.913 717.381C537.302 719.043 535.739 719.909 533.722 719.909C530.697 719.909 528.779 717.906 528.779 714.653V714.639H543.637V712.977C543.637 705.562 539.148 701.898 533.381 701.898C526.961 701.898 522.799 706.457 522.799 713.19C522.799 720.108 526.904 724.426 533.623 724.426ZM528.779 710.889C528.907 708.403 530.796 706.415 533.481 706.415C536.109 706.415 537.927 708.29 537.941 710.889H528.779ZM566.977 702.182H562.644V700.719C562.644 699.241 563.241 698.375 565.016 698.375C565.741 698.375 566.479 698.531 566.962 698.688L568.028 694.142C567.275 693.915 565.613 693.545 563.752 693.545C559.647 693.545 556.593 695.861 556.593 700.605V702.182H553.511V706.727H556.593V724H562.644V706.727H566.977V702.182ZM578.95 724.426C585.569 724.426 589.689 719.895 589.689 713.176C589.689 706.415 585.569 701.898 578.95 701.898C572.331 701.898 568.211 706.415 568.211 713.176C568.211 719.895 572.331 724.426 578.95 724.426ZM578.979 719.739C575.925 719.739 574.362 716.94 574.362 713.134C574.362 709.327 575.925 706.514 578.979 706.514C581.976 706.514 583.538 709.327 583.538 713.134C583.538 716.94 581.976 719.739 578.979 719.739ZM592.823 724H598.875V711.656C598.875 708.972 600.835 707.125 603.505 707.125C604.343 707.125 605.494 707.267 606.062 707.452V702.082C605.522 701.955 604.769 701.869 604.159 701.869C601.715 701.869 599.713 703.29 598.917 705.989H598.69V702.182H592.823V724ZM617.318 724.426C622.716 724.426 626.352 721.798 627.204 717.75L621.608 717.381C620.997 719.043 619.435 719.909 617.418 719.909C614.392 719.909 612.474 717.906 612.474 714.653V714.639H627.332V712.977C627.332 705.562 622.844 701.898 617.077 701.898C610.656 701.898 606.494 706.457 606.494 713.19C606.494 720.108 610.599 724.426 617.318 724.426ZM612.474 710.889C612.602 708.403 614.491 706.415 617.176 706.415C619.804 706.415 621.622 708.29 621.636 710.889H612.474ZM650.197 702.182H643.791L639.274 717.793H639.047L634.515 702.182H628.123L635.751 724H642.569L650.197 702.182ZM661.695 724.426C667.092 724.426 670.729 721.798 671.581 717.75L665.984 717.381C665.374 719.043 663.811 719.909 661.794 719.909C658.769 719.909 656.851 717.906 656.851 714.653V714.639H671.709V712.977C671.709 705.562 667.22 701.898 661.453 701.898C655.033 701.898 650.871 706.457 650.871 713.19C650.871 720.108 654.976 724.426 661.695 724.426ZM656.851 710.889C656.979 708.403 658.868 706.415 661.553 706.415C664.18 706.415 665.999 708.29 666.013 710.889H656.851ZM674.858 724H680.909V711.656C680.909 708.972 682.869 707.125 685.54 707.125C686.378 707.125 687.528 707.267 688.096 707.452V702.082C687.557 701.955 686.804 701.869 686.193 701.869C683.75 701.869 681.747 703.29 680.952 705.989H680.724V702.182H674.858V724ZM705.104 724.412C708.329 724.412 710.417 723.006 711.482 720.974H711.653V724H717.391V709.284C717.391 704.085 712.988 701.898 708.13 701.898C702.903 701.898 699.465 704.398 698.627 708.375L704.224 708.83C704.636 707.381 705.928 706.315 708.102 706.315C710.161 706.315 711.34 707.352 711.34 709.142V709.227C711.34 710.634 709.849 710.818 706.056 711.188C701.738 711.585 697.86 713.034 697.86 717.906C697.86 722.224 700.942 724.412 705.104 724.412ZM706.837 720.236C704.977 720.236 703.641 719.369 703.641 717.707C703.641 716.003 705.048 715.165 707.178 714.866C708.499 714.682 710.658 714.369 711.383 713.886V716.202C711.383 718.489 709.494 720.236 706.837 720.236ZM732.891 702.182H728.786V696.955H722.735V702.182H719.752V706.727H722.735V718.091C722.706 722.366 725.618 724.483 730.007 724.298C731.57 724.241 732.678 723.929 733.289 723.73L732.337 719.227C732.039 719.284 731.4 719.426 730.831 719.426C729.624 719.426 728.786 718.972 728.786 717.295V706.727H732.891V702.182ZM762.644 708.403C762.104 704.384 758.866 701.898 753.354 701.898C747.772 701.898 744.093 704.483 744.107 708.688C744.093 711.955 746.153 714.071 750.414 714.923L754.192 715.676C756.096 716.06 756.962 716.756 756.991 717.849C756.962 719.142 755.556 720.065 753.439 720.065C751.28 720.065 749.846 719.142 749.476 717.366L743.525 717.679C744.093 721.855 747.644 724.426 753.425 724.426C759.079 724.426 763.127 721.543 763.141 717.239C763.127 714.085 761.067 712.196 756.834 711.33L752.885 710.534C750.854 710.094 750.101 709.398 750.116 708.347C750.101 707.04 751.579 706.188 753.454 706.188C755.556 706.188 756.806 707.338 757.104 708.744L762.644 708.403ZM766.151 724H772.203V702.182H766.151V724ZM769.191 699.369C770.995 699.369 772.473 697.991 772.473 696.301C772.473 694.625 770.995 693.247 769.191 693.247C767.401 693.247 765.924 694.625 765.924 696.301C765.924 697.991 767.401 699.369 769.191 699.369ZM782.301 711.386C782.315 708.574 783.991 706.926 786.435 706.926C788.864 706.926 790.327 708.517 790.312 711.188V724H796.364V710.108C796.364 705.023 793.381 701.898 788.835 701.898C785.597 701.898 783.253 703.489 782.273 706.031H782.017V702.182H776.25V724H782.301V711.386ZM810.162 732.494C816.398 732.494 820.83 729.653 820.83 724.213V702.182H814.821V705.847H814.594C813.784 704.071 812.009 701.898 808.358 701.898C803.571 701.898 799.523 705.619 799.523 713.048C799.523 720.307 803.458 723.688 808.373 723.688C811.853 723.688 813.799 721.94 814.594 720.136H814.85V724.128C814.85 726.983 812.932 728.148 810.304 728.148C807.634 728.148 806.284 726.983 805.787 725.804L800.191 726.557C800.915 729.852 804.282 732.494 810.162 732.494ZM810.29 719.142C807.321 719.142 805.702 716.784 805.702 713.02C805.702 709.312 807.293 706.713 810.29 706.713C813.23 706.713 814.878 709.199 814.878 713.02C814.878 716.869 813.202 719.142 810.29 719.142ZM830.896 694.909H824.845V724H830.896V694.909ZM844.887 724.426C850.285 724.426 853.921 721.798 854.773 717.75L849.177 717.381C848.566 719.043 847.003 719.909 844.986 719.909C841.961 719.909 840.043 717.906 840.043 714.653V714.639H854.901V712.977C854.901 705.562 850.412 701.898 844.645 701.898C838.225 701.898 834.063 706.457 834.063 713.19C834.063 720.108 838.168 724.426 844.887 724.426ZM840.043 710.889C840.171 708.403 842.06 706.415 844.745 706.415C847.373 706.415 849.191 708.29 849.205 710.889H840.043ZM864.101 694.909H858.05V724H864.101V694.909ZM868.148 724H874.199V702.182H868.148V724ZM871.188 699.369C872.992 699.369 874.469 697.991 874.469 696.301C874.469 694.625 872.992 693.247 871.188 693.247C869.398 693.247 867.921 694.625 867.921 696.301C867.921 697.991 869.398 699.369 871.188 699.369ZM884.298 711.386C884.312 708.574 885.988 706.926 888.431 706.926C890.86 706.926 892.324 708.517 892.309 711.188V724H898.36V710.108C898.36 705.023 895.377 701.898 890.832 701.898C887.593 701.898 885.25 703.489 884.27 706.031H884.014V702.182H878.247V724H884.298V711.386ZM902.33 724H908.381V717.068L910.014 715.207L915.966 724H923.054L914.546 711.628L922.642 702.182H915.696L908.707 710.463H908.381V694.909H902.33V724ZM928.348 724.369C930.166 724.369 931.743 722.849 931.757 720.96C931.743 719.099 930.166 717.58 928.348 717.58C926.473 717.58 924.925 719.099 924.939 720.96C924.925 722.849 926.473 724.369 928.348 724.369ZM945.783 724.426C951.593 724.426 955.243 721.017 955.527 716.003H949.817C949.462 718.332 947.928 719.639 945.854 719.639C943.027 719.639 941.195 717.267 941.195 713.091C941.195 708.972 943.041 706.614 945.854 706.614C948.07 706.614 949.49 708.077 949.817 710.25H955.527C955.272 705.207 951.451 701.898 945.755 701.898C939.135 701.898 935.044 706.486 935.044 713.176C935.044 719.81 939.064 724.426 945.783 724.426ZM968.459 724.426C975.079 724.426 979.198 719.895 979.198 713.176C979.198 706.415 975.079 701.898 968.459 701.898C961.84 701.898 957.721 706.415 957.721 713.176C957.721 719.895 961.84 724.426 968.459 724.426ZM968.488 719.739C965.434 719.739 963.871 716.94 963.871 713.134C963.871 709.327 965.434 706.514 968.488 706.514C971.485 706.514 973.048 709.327 973.048 713.134C973.048 716.94 971.485 719.739 968.488 719.739Z" fill="white"/>
<g filter="url(#filter0_dd)">
<path d="M342.338 124.892H362.537C362.366 108.571 349.369 97.5341 329.085 97.5341C309.142 97.5341 294.781 108.401 294.909 124.636C294.866 137.889 304.156 145.347 319.241 148.798L328.361 150.929C337.949 153.145 342.253 155.744 342.338 160.645C342.253 165.972 337.267 169.679 328.787 169.679C319.454 169.679 313.318 165.332 312.849 156.938H292.65C292.906 177.349 307.096 187.108 329.042 187.108C350.775 187.108 363.645 177.264 363.73 160.688C363.645 146.753 354.227 138.23 337.011 134.438L329.511 132.733C321.585 131.028 316.557 128.386 316.727 123.188C316.77 118.415 320.861 114.963 329.042 114.963C337.267 114.963 341.784 118.67 342.338 124.892ZM371.983 186H392.821V120.545H371.983V186ZM382.424 112.918C388.347 112.918 393.12 108.443 393.12 102.946C393.12 97.4489 388.347 93.017 382.424 93.017C376.543 93.017 371.728 97.4489 371.728 102.946C371.728 108.443 376.543 112.918 382.424 112.918ZM424.523 148.67C424.566 141.213 428.912 136.781 435.517 136.781C442.122 136.781 446.043 141.128 446 148.372V186H466.838V144.281C466.881 129.537 457.889 119.693 444.125 119.693C434.452 119.693 427.122 124.594 424.225 132.562H423.5V120.545H403.685V186H424.523V148.67ZM507.851 211.355C527.581 211.355 541.047 202.364 541.047 186.256V120.545H520.294V131.753H519.697C517.183 125.744 511.473 119.693 501.161 119.693C487.482 119.693 475.081 130.219 475.081 153.188C475.081 175.432 486.885 185.105 501.246 185.105C510.876 185.105 517.311 180.631 519.783 174.58H520.507V186.085C520.507 193.926 515.393 196.909 508.405 196.909C501.714 196.909 497.709 194.352 496.601 190.858L476.871 191.966C478.405 202.875 489.186 211.355 507.851 211.355ZM508.49 169.935C500.777 169.935 496.473 163.67 496.473 153.188C496.473 142.747 500.734 135.972 508.49 135.972C516.118 135.972 520.55 142.577 520.55 153.188C520.55 163.713 516.075 169.935 508.49 169.935ZM572.77 98.7273H551.932V186H572.77V98.7273ZM614.23 187.236C631.403 187.236 642.696 178.926 645.082 166.057L625.949 165.503C624.329 169.849 620.068 172.193 614.613 172.193C606.602 172.193 601.659 166.866 601.659 158.855V158.301H645.295V153.102C645.295 131.54 632.17 119.693 613.591 119.693C593.818 119.693 581.119 133.244 581.119 153.528C581.119 174.494 593.647 187.236 614.23 187.236ZM601.659 146.199C601.957 139.679 607.113 134.736 614.017 134.736C620.878 134.736 625.821 139.509 625.906 146.199H601.659ZM676.919 186H734.32V168.869H698.013V98.7273H676.919V186ZM742.839 186H763.678V120.545H742.839V186ZM753.28 112.918C759.203 112.918 763.976 108.443 763.976 102.946C763.976 97.4489 759.203 93.017 753.28 93.017C747.399 93.017 742.584 97.4489 742.584 102.946C742.584 108.443 747.399 112.918 753.28 112.918ZM795.379 148.67C795.422 141.213 799.768 136.781 806.373 136.781C812.979 136.781 816.899 141.128 816.856 148.372V186H837.694V144.281C837.737 129.537 828.746 119.693 814.981 119.693C805.308 119.693 797.979 124.594 795.081 132.562H794.356V120.545H774.541V186H795.379V148.67ZM848.196 186H869.034V166.355L873.253 161.241L888.849 186H912.926L888.764 149.054L911.988 120.545H888.38L869.971 143.983H869.034V98.7273H848.196V186Z" fill="url(#paint1_linear)"/>
</g>
<path d="M200.403 186L206.88 166.099H238.372L244.849 186H264.622L234.536 98.7273H210.758L180.63 186H200.403ZM211.568 151.696L222.306 118.67H222.988L233.727 151.696H211.568ZM976.228 120.545H963.23V116.156C963.23 111.724 965.02 109.125 970.347 109.125C972.52 109.125 974.736 109.594 976.185 110.062L979.381 96.4261C977.122 95.7443 972.137 94.6364 966.554 94.6364C954.239 94.6364 945.077 101.582 945.077 115.815V120.545H935.83V134.182H945.077V186H963.23V134.182H976.228V120.545ZM1012.15 187.278C1032.01 187.278 1044.36 173.685 1044.36 153.528C1044.36 133.244 1032.01 119.693 1012.15 119.693C992.29 119.693 979.932 133.244 979.932 153.528C979.932 173.685 992.29 187.278 1012.15 187.278ZM1012.23 173.216C1003.07 173.216 998.384 164.821 998.384 153.401C998.384 141.98 1003.07 133.543 1012.23 133.543C1021.22 133.543 1025.91 141.98 1025.91 153.401C1025.91 164.821 1021.22 173.216 1012.23 173.216ZM1053.77 186H1071.92V148.969C1071.92 140.915 1077.8 135.375 1085.81 135.375C1088.33 135.375 1091.78 135.801 1093.48 136.355V120.247C1091.86 119.864 1089.61 119.608 1087.77 119.608C1080.44 119.608 1074.44 123.869 1072.05 131.966H1071.37V120.545H1053.77V186ZM364.741 319.278C380.934 319.278 391.843 311.395 394.4 299.25L377.61 298.142C375.778 303.128 371.09 305.727 365.039 305.727C355.963 305.727 350.21 299.719 350.21 289.96V289.918H394.784V284.932C394.784 262.688 381.318 251.693 364.017 251.693C344.755 251.693 332.269 265.372 332.269 285.571C332.269 306.324 344.585 319.278 364.741 319.278ZM350.21 278.668C350.593 271.21 356.261 265.244 364.315 265.244C372.198 265.244 377.653 270.869 377.696 278.668H350.21ZM463.378 252.545H444.159L430.608 299.378H429.926L416.333 252.545H397.156L420.04 318H440.494L463.378 252.545ZM497.871 319.278C514.064 319.278 524.973 311.395 527.53 299.25L510.74 298.142C508.908 303.128 504.22 305.727 498.169 305.727C489.092 305.727 483.339 299.719 483.339 289.96V289.918H527.913V284.932C527.913 262.688 514.447 251.693 497.146 251.693C477.885 251.693 465.399 265.372 465.399 285.571C465.399 306.324 477.714 319.278 497.871 319.278ZM483.339 278.668C483.723 271.21 489.391 265.244 497.445 265.244C505.328 265.244 510.783 270.869 510.825 278.668H483.339ZM537.36 318H555.513V280.969C555.513 272.915 561.394 267.375 569.405 267.375C571.92 267.375 575.371 267.801 577.076 268.355V252.247C575.457 251.864 573.198 251.608 571.366 251.608C564.036 251.608 558.028 255.869 555.641 263.966H554.959V252.545H537.36V318ZM597.261 342.418C610.77 342.418 617.971 335.557 621.636 325.074L647.076 252.631L627.858 252.545L614.179 300.614H613.497L599.946 252.545H580.855L604.335 319.875L603.27 322.645C600.713 328.568 596.324 328.994 589.932 326.991L585.841 340.585C588.44 341.651 592.659 342.418 597.261 342.418ZM688.782 252.545H676.466V236.864H658.313V252.545H649.364V266.182H658.313V300.273C658.228 313.099 666.963 319.449 680.131 318.895C684.818 318.724 688.142 317.787 689.975 317.19L687.12 303.682C686.225 303.852 684.307 304.278 682.603 304.278C678.98 304.278 676.466 302.915 676.466 297.886V266.182H688.782V252.545ZM717.767 280.159C717.809 271.722 722.965 266.778 730.38 266.778C737.752 266.778 742.099 271.509 742.056 279.562V318H760.21V276.324C760.252 260.983 751.218 251.693 737.582 251.693C727.653 251.693 721.005 256.381 718.022 264.094H717.255V230.727H699.613V318H717.767V280.159ZM772.096 318H790.249V252.545H772.096V318ZM781.215 244.108C786.627 244.108 791.059 239.974 791.059 234.903C791.059 229.875 786.627 225.741 781.215 225.741C775.846 225.741 771.414 229.875 771.414 234.903C771.414 239.974 775.846 244.108 781.215 244.108ZM820.545 280.159C820.587 271.722 825.616 266.778 832.945 266.778C840.232 266.778 844.621 271.551 844.579 279.562V318H862.732V276.324C862.732 261.068 853.783 251.693 840.147 251.693C830.431 251.693 823.4 256.466 820.459 264.094H819.692V252.545H802.391V318H820.545V280.159ZM904.128 343.483C922.836 343.483 936.131 334.96 936.131 318.639V252.545H918.106V263.54H917.424C914.995 258.213 909.668 251.693 898.716 251.693C884.356 251.693 872.211 262.858 872.211 285.145C872.211 306.92 884.015 317.062 898.759 317.062C909.199 317.062 915.037 311.821 917.424 306.409H918.191V318.384C918.191 326.949 912.438 330.443 904.554 330.443C896.543 330.443 892.495 326.949 891.003 323.412L874.214 325.67C876.387 335.557 886.486 343.483 904.128 343.483ZM904.512 303.426C895.606 303.426 890.748 296.352 890.748 285.06C890.748 273.938 895.52 266.139 904.512 266.139C913.333 266.139 918.276 273.597 918.276 285.06C918.276 296.608 913.248 303.426 904.512 303.426Z" fill="black" fill-opacity="0.95"/>
<path d="M342.3 124.892H362.499C362.329 108.571 349.332 97.5341 329.047 97.5341C309.104 97.5341 294.743 108.401 294.871 124.636C294.829 137.889 304.118 145.347 319.204 148.798L328.323 150.929C337.911 153.145 342.215 155.744 342.3 160.645C342.215 165.972 337.229 169.679 328.749 169.679C319.417 169.679 313.28 165.332 312.812 156.938H292.613C292.868 177.349 307.059 187.108 329.005 187.108C350.738 187.108 363.607 177.264 363.692 160.688C363.607 146.753 354.189 138.23 336.974 134.438L329.474 132.733C321.547 131.028 316.519 128.386 316.689 123.188C316.732 118.415 320.823 114.963 329.005 114.963C337.229 114.963 341.746 118.67 342.3 124.892ZM371.946 186H392.784V120.545H371.946V186ZM382.386 112.918C388.309 112.918 393.082 108.443 393.082 102.946C393.082 97.4489 388.309 93.017 382.386 93.017C376.505 93.017 371.69 97.4489 371.69 102.946C371.69 108.443 376.505 112.918 382.386 112.918ZM424.485 148.67C424.528 141.213 428.875 136.781 435.48 136.781C442.085 136.781 446.005 141.128 445.963 148.372V186H466.801V144.281C466.843 129.537 457.852 119.693 444.088 119.693C434.414 119.693 427.085 124.594 424.187 132.562H423.463V120.545H403.647V186H424.485V148.67ZM507.813 211.355C527.543 211.355 541.009 202.364 541.009 186.256V120.545H520.257V131.753H519.66C517.146 125.744 511.436 119.693 501.123 119.693C487.444 119.693 475.043 130.219 475.043 153.188C475.043 175.432 486.847 185.105 501.208 185.105C510.839 185.105 517.274 180.631 519.745 174.58H520.47V186.085C520.47 193.926 515.356 196.909 508.367 196.909C501.677 196.909 497.671 194.352 496.563 190.858L476.833 191.966C478.367 202.875 489.149 211.355 507.813 211.355ZM508.453 169.935C500.739 169.935 496.436 163.67 496.436 153.188C496.436 142.747 500.697 135.972 508.453 135.972C516.08 135.972 520.512 142.577 520.512 153.188C520.512 163.713 516.038 169.935 508.453 169.935ZM572.732 98.7273H551.894V186H572.732V98.7273ZM614.192 187.236C631.366 187.236 642.658 178.926 645.045 166.057L625.911 165.503C624.292 169.849 620.03 172.193 614.576 172.193C606.564 172.193 601.621 166.866 601.621 158.855V158.301H645.258V153.102C645.258 131.54 632.133 119.693 613.553 119.693C593.78 119.693 581.082 133.244 581.082 153.528C581.082 174.494 593.61 187.236 614.192 187.236ZM601.621 146.199C601.92 139.679 607.076 134.736 613.979 134.736C620.84 134.736 625.783 139.509 625.868 146.199H601.621ZM676.882 186H734.282V168.869H697.975V98.7273H676.882V186ZM742.802 186H763.64V120.545H742.802V186ZM753.242 112.918C759.166 112.918 763.938 108.443 763.938 102.946C763.938 97.4489 759.166 93.017 753.242 93.017C747.362 93.017 742.546 97.4489 742.546 102.946C742.546 108.443 747.362 112.918 753.242 112.918ZM795.342 148.67C795.384 141.213 799.731 136.781 806.336 136.781C812.941 136.781 816.862 141.128 816.819 148.372V186H837.657V144.281C837.7 129.537 828.708 119.693 814.944 119.693C805.271 119.693 797.941 124.594 795.043 132.562H794.319V120.545H774.504V186H795.342V148.67ZM848.158 186H868.996V166.355L873.215 161.241L888.812 186H912.888L888.726 149.054L911.951 120.545H888.343L869.934 143.983H868.996V98.7273H848.158V186Z" fill="url(#paint2_linear)"/>
<path d="M128.522 392.99H142.009V430H149.85V392.99H163.337V386.364H128.522V392.99ZM176.221 410.824C176.221 406.094 179.161 403.366 183.295 403.366C187.343 403.366 189.73 405.945 189.73 410.355V430H197.443V409.162C197.443 401.257 192.968 396.847 186.171 396.847C181.143 396.847 177.947 399.126 176.434 402.834H176.051V386.364H168.508V430H176.221V410.824ZM218.594 430.639C226.221 430.639 231.463 426.911 232.826 421.222L225.625 420.412C224.581 423.182 222.024 424.631 218.7 424.631C213.714 424.631 210.412 421.349 210.348 415.746H233.146V413.381C233.146 401.896 226.243 396.847 218.189 396.847C208.814 396.847 202.699 403.729 202.699 413.828C202.699 424.098 208.728 430.639 218.594 430.639ZM210.369 410.547C210.603 406.371 213.693 402.855 218.295 402.855C222.727 402.855 225.71 406.094 225.753 410.547H210.369ZM268.731 397.273H261.934V394.695C261.934 392.138 262.999 390.71 265.876 390.71C267.09 390.71 268.113 390.987 268.752 391.179L270.308 385.213C269.306 384.872 267.111 384.318 264.448 384.318C258.759 384.318 254.221 387.578 254.221 394.183V397.273H249.384V403.239H254.221V430H261.934V403.239H268.731V397.273ZM273.571 430H281.284V410.76C281.284 406.605 284.416 403.665 288.657 403.665C289.956 403.665 291.576 403.899 292.236 404.112V397.017C291.533 396.889 290.318 396.804 289.466 396.804C285.716 396.804 282.584 398.935 281.391 402.727H281.05V397.273H273.571V430ZM309.301 430.639C316.929 430.639 322.171 426.911 323.534 421.222L316.333 420.412C315.289 423.182 312.732 424.631 309.408 424.631C304.422 424.631 301.119 421.349 301.056 415.746H323.854V413.381C323.854 401.896 316.95 396.847 308.896 396.847C299.521 396.847 293.406 403.729 293.406 413.828C293.406 424.098 299.436 430.639 309.301 430.639ZM301.077 410.547C301.311 406.371 304.401 402.855 309.003 402.855C313.435 402.855 316.418 406.094 316.46 410.547H301.077ZM343.668 430.639C351.296 430.639 356.537 426.911 357.901 421.222L350.699 420.412C349.655 423.182 347.098 424.631 343.774 424.631C338.788 424.631 335.486 421.349 335.422 415.746H358.22V413.381C358.22 401.896 351.317 396.847 343.263 396.847C333.888 396.847 327.773 403.729 327.773 413.828C327.773 424.098 333.803 430.639 343.668 430.639ZM335.443 410.547C335.678 406.371 338.767 402.855 343.369 402.855C347.801 402.855 350.784 406.094 350.827 410.547H335.443ZM390.268 430.639C394.125 430.639 398.407 429.446 401.454 426.804L404.245 430H412.598L406.206 422.521C408.336 419.666 409.998 415.426 409.998 409.439H403.372C403.372 412.315 402.69 414.893 401.539 417.045L393.571 407.713L396.319 405.689C399.963 403.047 402.115 399.872 402.115 395.739C402.115 390.412 397.917 385.831 391.035 385.831C384.132 385.831 379.593 390.412 379.593 396.612C379.593 400.511 381.554 403.686 384.068 406.797C379.21 410.142 375.886 413.274 375.886 418.409C375.886 425.355 381.341 430.639 390.268 430.639ZM397.257 421.989C395.19 423.48 392.825 424.29 390.502 424.29C386.22 424.29 383.45 421.52 383.45 418.068C383.45 416.555 384.6 414.276 387.498 412.145L388.201 411.634L397.257 421.989ZM389.629 403.004C387.797 400.746 386.475 398.722 386.475 396.719C386.475 394.354 388.35 392.159 391.142 392.159C393.89 392.159 395.573 394.205 395.573 396.08C395.573 398.295 394.38 399.851 392.1 401.321L389.629 403.004ZM429.496 430H437.209V397.273H429.496V430ZM433.374 392.628C435.824 392.628 437.827 390.753 437.827 388.452C437.827 386.129 435.824 384.254 433.374 384.254C430.903 384.254 428.9 386.129 428.9 388.452C428.9 390.753 430.903 392.628 433.374 392.628ZM443.941 430H451.654V410.099C451.654 406.072 454.339 403.345 457.662 403.345C460.922 403.345 463.16 405.54 463.16 408.906V430H470.723V409.588C470.723 405.902 472.918 403.345 476.647 403.345C479.758 403.345 482.229 405.178 482.229 409.226V430H489.964V408.033C489.964 400.724 485.745 396.847 479.736 396.847C474.985 396.847 471.363 399.19 469.914 402.834H469.573C468.316 399.126 465.141 396.847 460.731 396.847C456.341 396.847 453.06 399.105 451.697 402.834H451.313V397.273H443.941V430ZM496.588 442.273H504.302V424.844H504.621C505.836 427.23 508.371 430.575 513.996 430.575C521.709 430.575 527.483 424.46 527.483 413.679C527.483 402.77 521.539 396.847 513.975 396.847C508.201 396.847 505.793 400.32 504.621 402.685H504.174V397.273H496.588V442.273ZM504.152 413.636C504.152 407.287 506.88 403.175 511.844 403.175C516.979 403.175 519.621 407.543 519.621 413.636C519.621 419.773 516.936 424.247 511.844 424.247C506.922 424.247 504.152 419.986 504.152 413.636ZM532.888 430H540.602V410.76C540.602 406.605 543.734 403.665 547.974 403.665C549.273 403.665 550.893 403.899 551.553 404.112V397.017C550.85 396.889 549.636 396.804 548.783 396.804C545.033 396.804 541.901 398.935 540.708 402.727H540.367V397.273H532.888V430ZM568.405 430.639C577.994 430.639 584.087 423.885 584.087 413.764C584.087 403.622 577.994 396.847 568.405 396.847C558.817 396.847 552.724 403.622 552.724 413.764C552.724 423.885 558.817 430.639 568.405 430.639ZM568.448 424.46C563.143 424.46 560.543 419.73 560.543 413.743C560.543 407.756 563.143 402.962 568.448 402.962C573.668 402.962 576.268 407.756 576.268 413.743C576.268 419.73 573.668 424.46 568.448 424.46ZM617.553 397.273H609.35L601.808 421.584H601.467L593.945 397.273H585.721L597.376 430H605.899L617.553 397.273ZM635.066 430.639C642.694 430.639 647.936 426.911 649.299 421.222L642.097 420.412C641.053 423.182 638.497 424.631 635.173 424.631C630.187 424.631 626.884 421.349 626.82 415.746H649.619V413.381C649.619 401.896 642.715 396.847 634.661 396.847C625.286 396.847 619.171 403.729 619.171 413.828C619.171 424.098 625.201 430.639 635.066 430.639ZM626.842 410.547C627.076 406.371 630.166 402.855 634.768 402.855C639.2 402.855 642.183 406.094 642.225 410.547H626.842ZM667.089 430.575C672.714 430.575 675.249 427.23 676.464 424.844H676.933V430H684.518V386.364H676.783V402.685H676.464C675.292 400.32 672.884 396.847 667.11 396.847C659.546 396.847 653.602 402.77 653.602 413.679C653.602 424.46 659.376 430.575 667.089 430.575ZM669.241 424.247C664.149 424.247 661.464 419.773 661.464 413.636C661.464 407.543 664.106 403.175 669.241 403.175C674.205 403.175 676.933 407.287 676.933 413.636C676.933 419.986 674.163 424.247 669.241 424.247ZM712.933 386.364H705.22V430H712.933V386.364ZM719.664 430H727.377V397.273H719.664V430ZM723.542 392.628C725.992 392.628 727.995 390.753 727.995 388.452C727.995 386.129 725.992 384.254 723.542 384.254C721.07 384.254 719.068 386.129 719.068 388.452C719.068 390.753 721.07 392.628 723.542 392.628ZM741.822 410.824C741.822 406.094 744.677 403.366 748.747 403.366C752.731 403.366 755.117 405.987 755.117 410.355V430H762.83V409.162C762.852 401.321 758.377 396.847 751.623 396.847C746.722 396.847 743.356 399.19 741.864 402.834H741.481V397.273H734.109V430H741.822V410.824ZM769.471 430H777.184V419.006L779.997 416.001L790.011 430H799.237L785.814 411.399L798.491 397.273H789.478L777.717 410.419H777.184V386.364H769.471V430ZM816.455 430H824.04V424.844H824.488C825.702 427.23 828.238 430.575 833.863 430.575C841.576 430.575 847.35 424.46 847.35 413.679C847.35 402.77 841.405 396.847 833.842 396.847C828.067 396.847 825.66 400.32 824.488 402.685H824.168V386.364H816.455V430ZM824.019 413.636C824.019 407.287 826.746 403.175 831.711 403.175C836.846 403.175 839.488 407.543 839.488 413.636C839.488 419.773 836.803 424.247 831.711 424.247C826.789 424.247 824.019 419.986 824.019 413.636ZM873.567 416.236C873.567 421.222 870.008 423.693 866.599 423.693C862.892 423.693 860.42 421.072 860.42 416.918V397.273H852.707V418.111C852.707 425.973 857.182 430.426 863.616 430.426C868.517 430.426 871.969 427.848 873.46 424.183H873.801V430H881.28V397.273H873.567V416.236ZM888.011 430H895.724V397.273H888.011V430ZM891.889 392.628C894.339 392.628 896.342 390.753 896.342 388.452C896.342 386.129 894.339 384.254 891.889 384.254C889.417 384.254 887.415 386.129 887.415 388.452C887.415 390.753 889.417 392.628 891.889 392.628ZM910.169 386.364H902.456V430H910.169V386.364ZM929.045 430.575C934.67 430.575 937.206 427.23 938.42 424.844H938.889V430H946.474V386.364H938.74V402.685H938.42C937.248 400.32 934.841 396.847 929.066 396.847C921.502 396.847 915.558 402.77 915.558 413.679C915.558 424.46 921.332 430.575 929.045 430.575ZM931.197 424.247C926.105 424.247 923.42 419.773 923.42 413.636C923.42 407.543 926.062 403.175 931.197 403.175C936.162 403.175 938.889 407.287 938.889 413.636C938.889 419.986 936.119 424.247 931.197 424.247ZM967.982 430.639C975.61 430.639 980.851 426.911 982.215 421.222L975.013 420.412C973.969 423.182 971.412 424.631 968.088 424.631C963.103 424.631 959.8 421.349 959.736 415.746H982.534V413.381C982.534 401.896 975.631 396.847 967.577 396.847C958.202 396.847 952.087 403.729 952.087 413.828C952.087 424.098 958.117 430.639 967.982 430.639ZM959.757 410.547C959.992 406.371 963.081 402.855 967.683 402.855C972.115 402.855 975.098 406.094 975.141 410.547H959.757ZM987.86 430H995.573V410.76C995.573 406.605 998.705 403.665 1002.94 403.665C1004.24 403.665 1005.86 403.899 1006.52 404.112V397.017C1005.82 396.889 1004.61 396.804 1003.75 396.804C1000 396.804 996.872 398.935 995.679 402.727H995.338V397.273H987.86V430ZM1040.47 397.273H1034.02V389.432H1026.3V397.273H1021.66V403.239H1026.3V421.435C1026.26 427.592 1030.74 430.618 1036.53 430.447C1038.73 430.384 1040.24 429.957 1041.07 429.68L1039.77 423.651C1039.34 423.757 1038.47 423.949 1037.51 423.949C1035.57 423.949 1034.02 423.267 1034.02 420.156V403.239H1040.47V397.273ZM1059.65 430.639C1069.24 430.639 1075.33 423.885 1075.33 413.764C1075.33 403.622 1069.24 396.847 1059.65 396.847C1050.06 396.847 1043.97 403.622 1043.97 413.764C1043.97 423.885 1050.06 430.639 1059.65 430.639ZM1059.69 424.46C1054.39 424.46 1051.79 419.73 1051.79 413.743C1051.79 407.756 1054.39 402.962 1059.69 402.962C1064.91 402.962 1067.51 407.756 1067.51 413.743C1067.51 419.73 1064.91 424.46 1059.69 424.46ZM1094.95 430.639C1104.54 430.639 1110.63 423.885 1110.63 413.764C1110.63 403.622 1104.54 396.847 1094.95 396.847C1085.36 396.847 1079.27 403.622 1079.27 413.764C1079.27 423.885 1085.36 430.639 1094.95 430.639ZM1094.99 424.46C1089.69 424.46 1087.09 419.73 1087.09 413.743C1087.09 407.756 1089.69 402.962 1094.99 402.962C1100.22 402.962 1102.81 407.756 1102.81 413.743C1102.81 419.73 1100.22 424.46 1094.99 424.46ZM1123.69 386.364H1115.98V430H1123.69V386.364ZM1135.18 430.469C1137.69 430.469 1139.84 428.381 1139.86 425.781C1139.84 423.224 1137.69 421.136 1135.18 421.136C1132.58 421.136 1130.47 423.224 1130.49 425.781C1130.47 428.381 1132.58 430.469 1135.18 430.469Z" fill="black" fill-opacity="0.75"/>
<g filter="url(#filter1_d)">
<rect x="293" y="487" width="685" height="96" rx="10" fill="#5353EC"/>
</g>
<path d="M323.631 550H336.06C342.594 550 346.074 546.591 346.074 541.96C346.074 537.656 342.992 535.057 339.682 534.901V534.616C342.707 533.935 344.938 531.79 344.938 528.366C344.938 524.006 341.699 520.909 335.278 520.909H323.631V550ZM329.781 544.972V537.244H334.938C337.892 537.244 339.725 538.949 339.725 541.349C339.725 543.537 338.233 544.972 334.796 544.972H329.781ZM329.781 533.082V525.881H334.455C337.182 525.881 338.73 527.287 338.73 529.389C338.73 531.69 336.855 533.082 334.341 533.082H329.781ZM363.154 540.71C363.168 543.636 361.165 545.17 358.992 545.17C356.705 545.17 355.228 543.565 355.214 540.994V528.182H349.162V542.074C349.177 547.173 352.16 550.284 356.549 550.284C359.83 550.284 362.188 548.594 363.168 546.037H363.395V550H369.205V528.182H363.154V540.71ZM373.245 550H379.296V528.182H373.245V550ZM376.285 525.369C378.089 525.369 379.566 523.991 379.566 522.301C379.566 520.625 378.089 519.247 376.285 519.247C374.495 519.247 373.018 520.625 373.018 522.301C373.018 523.991 374.495 525.369 376.285 525.369ZM389.395 520.909H383.344V550H389.395V520.909ZM401.482 550.355C405.005 550.355 406.837 548.324 407.675 546.506H407.931V550H413.897V520.909H407.86V531.847H407.675C406.865 530.071 405.118 527.898 401.468 527.898C396.681 527.898 392.632 531.619 392.632 539.119C392.632 546.42 396.51 550.355 401.482 550.355ZM403.4 545.54C400.431 545.54 398.811 542.898 398.811 539.091C398.811 535.312 400.402 532.713 403.4 532.713C406.34 532.713 407.988 535.199 407.988 539.091C407.988 542.983 406.311 545.54 403.4 545.54ZM424.939 520.909L435.55 539.716V550H441.657V539.716L452.268 520.909H445.379L438.746 533.438H438.461L431.828 520.909H424.939ZM460.041 550.426C466.66 550.426 470.779 545.895 470.779 539.176C470.779 532.415 466.66 527.898 460.041 527.898C453.421 527.898 449.302 532.415 449.302 539.176C449.302 545.895 453.421 550.426 460.041 550.426ZM460.069 545.739C457.015 545.739 455.453 542.94 455.453 539.134C455.453 535.327 457.015 532.514 460.069 532.514C463.066 532.514 464.629 535.327 464.629 539.134C464.629 542.94 463.066 545.739 460.069 545.739ZM487.905 540.71C487.92 543.636 485.917 545.17 483.744 545.17C481.457 545.17 479.979 543.565 479.965 540.994V528.182H473.914V542.074C473.928 547.173 476.911 550.284 481.3 550.284C484.582 550.284 486.94 548.594 487.92 546.037H488.147V550H493.957V528.182H487.905V540.71ZM497.997 550H504.048V537.656C504.048 534.972 506.008 533.125 508.679 533.125C509.517 533.125 510.667 533.267 511.235 533.452V528.082C510.696 527.955 509.943 527.869 509.332 527.869C506.889 527.869 504.886 529.29 504.091 531.989H503.863V528.182H497.997V550ZM522.135 550H528.286V537.983H540.118V532.912H528.286V525.98H541.397V520.909H522.135V550ZM544.269 550H550.32V537.656C550.32 534.972 552.28 533.125 554.951 533.125C555.789 533.125 556.939 533.267 557.507 533.452V528.082C556.968 527.955 556.215 527.869 555.604 527.869C553.161 527.869 551.158 529.29 550.362 531.989H550.135V528.182H544.269V550ZM568.763 550.426C574.161 550.426 577.798 547.798 578.65 543.75L573.053 543.381C572.442 545.043 570.88 545.909 568.863 545.909C565.837 545.909 563.92 543.906 563.92 540.653V540.639H578.778V538.977C578.778 531.562 574.289 527.898 568.522 527.898C562.102 527.898 557.94 532.457 557.94 539.19C557.94 546.108 562.045 550.426 568.763 550.426ZM563.92 536.889C564.048 534.403 565.937 532.415 568.621 532.415C571.249 532.415 573.067 534.29 573.082 536.889H563.92ZM591.87 550.426C597.267 550.426 600.904 547.798 601.756 543.75L596.159 543.381C595.549 545.043 593.986 545.909 591.969 545.909C588.944 545.909 587.026 543.906 587.026 540.653V540.639H601.884V538.977C601.884 531.562 597.395 527.898 591.628 527.898C585.208 527.898 581.046 532.457 581.046 539.19C581.046 546.108 585.151 550.426 591.87 550.426ZM587.026 536.889C587.154 534.403 589.043 532.415 591.728 532.415C594.355 532.415 596.174 534.29 596.188 536.889H587.026ZM613.604 550H619.755V540.568H624.925C631.616 540.568 635.508 536.577 635.508 530.767C635.508 524.986 631.687 520.909 625.081 520.909H613.604V550ZM619.755 535.639V525.938H623.903C627.454 525.938 629.172 527.869 629.172 530.767C629.172 533.651 627.454 535.639 623.931 535.639H619.755ZM638.589 550H644.64V537.656C644.64 534.972 646.6 533.125 649.271 533.125C650.109 533.125 651.259 533.267 651.828 533.452V528.082C651.288 527.955 650.535 527.869 649.924 527.869C647.481 527.869 645.478 529.29 644.683 531.989H644.455V528.182H638.589V550ZM662.999 550.426C669.618 550.426 673.737 545.895 673.737 539.176C673.737 532.415 669.618 527.898 662.999 527.898C656.379 527.898 652.26 532.415 652.26 539.176C652.26 545.895 656.379 550.426 662.999 550.426ZM663.027 545.739C659.973 545.739 658.41 542.94 658.41 539.134C658.41 535.327 659.973 532.514 663.027 532.514C666.024 532.514 667.587 535.327 667.587 539.134C667.587 542.94 666.024 545.739 663.027 545.739ZM688.605 528.182H684.272V526.719C684.272 525.241 684.869 524.375 686.645 524.375C687.369 524.375 688.108 524.531 688.591 524.688L689.656 520.142C688.903 519.915 687.241 519.545 685.38 519.545C681.275 519.545 678.221 521.861 678.221 526.605V528.182H675.139V532.727H678.221V550H684.272V532.727H688.605V528.182ZM691.502 550H697.553V528.182H691.502V550ZM694.541 525.369C696.345 525.369 697.823 523.991 697.823 522.301C697.823 520.625 696.345 519.247 694.541 519.247C692.752 519.247 691.274 520.625 691.274 522.301C691.274 523.991 692.752 525.369 694.541 525.369ZM707.651 520.909H701.6V550H707.651V520.909ZM721.642 550.426C727.039 550.426 730.676 547.798 731.528 543.75L725.931 543.381C725.321 545.043 723.758 545.909 721.741 545.909C718.715 545.909 716.798 543.906 716.798 540.653V540.639H731.656V538.977C731.656 531.562 727.167 527.898 721.4 527.898C714.98 527.898 710.818 532.457 710.818 539.19C710.818 546.108 714.923 550.426 721.642 550.426ZM716.798 536.889C716.926 534.403 718.815 532.415 721.5 532.415C724.127 532.415 725.946 534.29 725.96 536.889H716.798ZM749.527 520.909H743.376V550H749.527V520.909ZM759.725 537.386C759.739 534.574 761.415 532.926 763.858 532.926C766.287 532.926 767.75 534.517 767.736 537.188V550H773.787V536.108C773.787 531.023 770.804 527.898 766.259 527.898C763.02 527.898 760.676 529.489 759.696 532.031H759.44V528.182H753.673V550H759.725V537.386ZM802.109 529.276H808.004C807.919 524.091 803.657 520.511 797.18 520.511C790.802 520.511 786.129 524.034 786.157 529.318C786.143 533.608 789.169 536.065 794.083 537.244L797.251 538.04C800.419 538.807 802.18 539.716 802.194 541.676C802.18 543.807 800.163 545.256 797.038 545.256C793.842 545.256 791.541 543.778 791.342 540.866H785.39C785.546 547.159 790.049 550.412 797.109 550.412C804.211 550.412 808.387 547.017 808.401 541.69C808.387 536.847 804.737 534.276 799.68 533.139L797.066 532.514C794.538 531.932 792.421 530.994 792.464 528.906C792.464 527.031 794.126 525.653 797.137 525.653C800.078 525.653 801.882 526.989 802.109 529.276ZM821.568 550.426C826.966 550.426 830.602 547.798 831.454 543.75L825.858 543.381C825.247 545.043 823.685 545.909 821.668 545.909C818.642 545.909 816.724 543.906 816.724 540.653V540.639H831.582V538.977C831.582 531.562 827.094 527.898 821.327 527.898C814.906 527.898 810.744 532.457 810.744 539.19C810.744 546.108 814.849 550.426 821.568 550.426ZM816.724 536.889C816.852 534.403 818.741 532.415 821.426 532.415C824.054 532.415 825.872 534.29 825.886 536.889H816.724ZM844.589 550.426C850.399 550.426 854.049 547.017 854.333 542.003H848.623C848.268 544.332 846.734 545.639 844.66 545.639C841.833 545.639 840.001 543.267 840.001 539.091C840.001 534.972 841.848 532.614 844.66 532.614C846.876 532.614 848.297 534.077 848.623 536.25H854.333C854.078 531.207 850.257 527.898 844.561 527.898C837.941 527.898 833.85 532.486 833.85 539.176C833.85 545.81 837.87 550.426 844.589 550.426ZM867.266 550.426C873.885 550.426 878.004 545.895 878.004 539.176C878.004 532.415 873.885 527.898 867.266 527.898C860.646 527.898 856.527 532.415 856.527 539.176C856.527 545.895 860.646 550.426 867.266 550.426ZM867.294 545.739C864.24 545.739 862.678 542.94 862.678 539.134C862.678 535.327 864.24 532.514 867.294 532.514C870.291 532.514 871.854 535.327 871.854 539.134C871.854 542.94 870.291 545.739 867.294 545.739ZM887.19 537.386C887.204 534.574 888.88 532.926 891.324 532.926C893.753 532.926 895.216 534.517 895.202 537.188V550H901.253V536.108C901.253 531.023 898.27 527.898 893.724 527.898C890.486 527.898 888.142 529.489 887.162 532.031H886.906V528.182H881.139V550H887.19V537.386ZM913.262 550.355C916.784 550.355 918.617 548.324 919.455 546.506H919.71V550H925.676V520.909H919.639V531.847H919.455C918.645 530.071 916.898 527.898 913.247 527.898C908.46 527.898 904.412 531.619 904.412 539.119C904.412 546.42 908.29 550.355 913.262 550.355ZM915.179 545.54C912.21 545.54 910.591 542.898 910.591 539.091C910.591 535.312 912.182 532.713 915.179 532.713C918.12 532.713 919.767 535.199 919.767 539.091C919.767 542.983 918.091 545.54 915.179 545.54ZM948.005 534.403C947.465 530.384 944.226 527.898 938.715 527.898C933.133 527.898 929.454 530.483 929.468 534.688C929.454 537.955 931.513 540.071 935.775 540.923L939.553 541.676C941.457 542.06 942.323 542.756 942.351 543.849C942.323 545.142 940.917 546.065 938.8 546.065C936.641 546.065 935.207 545.142 934.837 543.366L928.886 543.679C929.454 547.855 933.005 550.426 938.786 550.426C944.44 550.426 948.488 547.543 948.502 543.239C948.488 540.085 946.428 538.196 942.195 537.33L938.246 536.534C936.215 536.094 935.462 535.398 935.476 534.347C935.462 533.04 936.94 532.188 938.815 532.188C940.917 532.188 942.167 533.338 942.465 534.744L948.005 534.403Z" fill="white"/>
<defs>
<filter id="filter0_dd" x="192.65" y="48.017" width="820.276" height="218.338" filterUnits="userSpaceOnUse" color-interpolation-filters="sRGB">
<feFlood flood-opacity="0" result="BackgroundImageFix"/>
<feColorMatrix in="SourceAlpha" type="matrix" values="0 0 0 0 0 0 0 0 0 0 0 0 0 0 0 0 0 0 127 0"/>
<feOffset dx="50" dy="5"/>
<feGaussianBlur stdDeviation="25"/>
<feColorMatrix type="matrix" values="0 0 0 0 0.0117647 0 0 0 0 0.823529 0 0 0 0 0.831373 0 0 0 0.25 0"/>
<feBlend mode="normal" in2="BackgroundImageFix" result="effect1_dropShadow"/>
<feColorMatrix in="SourceAlpha" type="matrix" values="0 0 0 0 0 0 0 0 0 0 0 0 0 0 0 0 0 0 127 0"/>
<feOffset dx="-50" dy="5"/>
<feGaussianBlur stdDeviation="25"/>
<feColorMatrix type="matrix" values="0 0 0 0 0.32549 0 0 0 0 0.32549 0 0 0 0 0.92549 0 0 0 0.25 0"/>
<feBlend mode="normal" in2="effect1_dropShadow" result="effect2_dropShadow"/>
<feBlend mode="normal" in="SourceGraphic" in2="effect2_dropShadow" result="shape"/>
</filter>
<filter id="filter1_d" x="268" y="464" width="735" height="146" filterUnits="userSpaceOnUse" color-interpolation-filters="sRGB">
<feFlood flood-opacity="0" result="BackgroundImageFix"/>
<feColorMatrix in="SourceAlpha" type="matrix" values="0 0 0 0 0 0 0 0 0 0 0 0 0 0 0 0 0 0 127 0"/>
<feOffset dy="2"/>
<feGaussianBlur stdDeviation="12.5"/>
<feColorMatrix type="matrix" values="0 0 0 0 0 0 0 0 0 0 0 0 0 0 0 0 0 0 0.25 0"/>
<feBlend mode="normal" in2="BackgroundImageFix" result="effect1_dropShadow"/>
<feBlend mode="normal" in="SourceGraphic" in2="effect1_dropShadow" result="shape"/>
</filter>
<linearGradient id="paint0_linear" x1="635" y1="0" x2="635" y2="660" gradientUnits="userSpaceOnUse">
<stop stop-color="#53BEEC"/>
<stop offset="1" stop-color="#5353EC"/>
</linearGradient>
<linearGradient id="paint1_linear" x1="599.5" y1="76" x2="599.5" y2="208" gradientUnits="userSpaceOnUse">
<stop stop-color="#66C4EC"/>
<stop offset="1" stop-color="#5353EC"/>
</linearGradient>
<linearGradient id="paint2_linear" x1="635.5" y1="76" x2="635.5" y2="340" gradientUnits="userSpaceOnUse">
<stop stop-color="#66C4EC"/>
<stop offset="1" stop-color="#5353EC"/>
</linearGradient>
</defs>
</svg>
