<svg width="1200" height="628" viewBox="0 0 1200 628" fill="none" xmlns="http://www.w3.org/2000/svg">
<g clip-path="url(#clip0)">
<rect width="1200" height="548" fill="url(#paint0_linear)"/>
<rect width="1200" height="548" fill="#FCFCFC"/>
<rect y="548" width="1200" height="80" fill="black"/>
<path d="M261.825 602L263.984 595.366H274.481L276.64 602H283.231L273.202 572.909H265.276L255.234 602H261.825ZM265.546 590.565L269.126 579.557H269.353L272.933 590.565H265.546ZM303.425 580.182H297.019L292.502 595.793H292.275L287.743 580.182H281.351L288.979 602H295.797L303.425 580.182ZM311.318 602.412C314.543 602.412 316.631 601.006 317.696 598.974H317.867V602H323.605V587.284C323.605 582.085 319.202 579.898 314.344 579.898C309.117 579.898 305.679 582.398 304.841 586.375L310.438 586.83C310.85 585.381 312.142 584.315 314.316 584.315C316.375 584.315 317.554 585.352 317.554 587.142V587.227C317.554 588.634 316.063 588.818 312.27 589.188C307.952 589.585 304.074 591.034 304.074 595.906C304.074 600.224 307.156 602.412 311.318 602.412ZM313.051 598.236C311.191 598.236 309.855 597.369 309.855 595.707C309.855 594.003 311.262 593.165 313.392 592.866C314.713 592.682 316.872 592.369 317.597 591.886V594.202C317.597 596.489 315.708 598.236 313.051 598.236ZM327.5 602H333.551V580.182H327.5V602ZM330.54 577.369C332.344 577.369 333.821 575.991 333.821 574.301C333.821 572.625 332.344 571.247 330.54 571.247C328.75 571.247 327.273 572.625 327.273 574.301C327.273 575.991 328.75 577.369 330.54 577.369ZM343.65 572.909H337.598V602H343.65V572.909ZM353.918 602.412C357.143 602.412 359.231 601.006 360.296 598.974H360.467V602H366.205V587.284C366.205 582.085 361.802 579.898 356.944 579.898C351.717 579.898 348.279 582.398 347.441 586.375L353.038 586.83C353.45 585.381 354.742 584.315 356.916 584.315C358.975 584.315 360.154 585.352 360.154 587.142V587.227C360.154 588.634 358.663 588.818 354.87 589.188C350.552 589.585 346.674 591.034 346.674 595.906C346.674 600.224 349.756 602.412 353.918 602.412ZM355.651 598.236C353.791 598.236 352.455 597.369 352.455 595.707C352.455 594.003 353.862 593.165 355.992 592.866C357.313 592.682 359.472 592.369 360.197 591.886V594.202C360.197 596.489 358.308 598.236 355.651 598.236ZM370.214 602H376.179V598.506H376.449C377.287 600.324 379.12 602.355 382.643 602.355C387.614 602.355 391.492 598.42 391.492 591.119C391.492 583.619 387.444 579.898 382.657 579.898C379.006 579.898 377.259 582.071 376.449 583.847H376.265V572.909H370.214V602ZM376.137 591.091C376.137 587.199 377.785 584.713 380.725 584.713C383.722 584.713 385.313 587.312 385.313 591.091C385.313 594.898 383.694 597.54 380.725 597.54C377.813 597.54 376.137 594.983 376.137 591.091ZM400.781 572.909H394.73V602H400.781V572.909ZM414.771 602.426C420.169 602.426 423.805 599.798 424.658 595.75L419.061 595.381C418.45 597.043 416.888 597.909 414.871 597.909C411.845 597.909 409.928 595.906 409.928 592.653V592.639H424.785V590.977C424.785 583.562 420.297 579.898 414.53 579.898C408.109 579.898 403.947 584.457 403.947 591.19C403.947 598.108 408.053 602.426 414.771 602.426ZM409.928 588.889C410.055 586.403 411.945 584.415 414.629 584.415C417.257 584.415 419.075 586.29 419.089 588.889H409.928ZM448.125 580.182H443.793V578.719C443.793 577.241 444.389 576.375 446.165 576.375C446.889 576.375 447.628 576.531 448.111 576.688L449.176 572.142C448.423 571.915 446.761 571.545 444.901 571.545C440.796 571.545 437.742 573.861 437.742 578.605V580.182H434.659V584.727H437.742V602H443.793V584.727H448.125V580.182ZM451.022 602H457.073V589.656C457.073 586.972 459.033 585.125 461.704 585.125C462.542 585.125 463.692 585.267 464.26 585.452V580.082C463.721 579.955 462.968 579.869 462.357 579.869C459.914 579.869 457.911 581.29 457.116 583.989H456.888V580.182H451.022V602ZM475.517 602.426C480.914 602.426 484.551 599.798 485.403 595.75L479.806 595.381C479.196 597.043 477.633 597.909 475.616 597.909C472.59 597.909 470.673 595.906 470.673 592.653V592.639H485.531V590.977C485.531 583.562 481.042 579.898 475.275 579.898C468.855 579.898 464.693 584.457 464.693 591.19C464.693 598.108 468.798 602.426 475.517 602.426ZM470.673 588.889C470.801 586.403 472.69 584.415 475.375 584.415C478.002 584.415 479.821 586.29 479.835 588.889H470.673ZM498.623 602.426C504.021 602.426 507.657 599.798 508.509 595.75L502.913 595.381C502.302 597.043 500.739 597.909 498.722 597.909C495.697 597.909 493.779 595.906 493.779 592.653V592.639H508.637V590.977C508.637 583.562 504.148 579.898 498.381 579.898C491.961 579.898 487.799 584.457 487.799 591.19C487.799 598.108 491.904 602.426 498.623 602.426ZM493.779 588.889C493.907 586.403 495.796 584.415 498.481 584.415C501.109 584.415 502.927 586.29 502.941 588.889H493.779ZM531.977 580.182H527.644V578.719C527.644 577.241 528.241 576.375 530.016 576.375C530.741 576.375 531.479 576.531 531.962 576.688L533.028 572.142C532.275 571.915 530.613 571.545 528.752 571.545C524.647 571.545 521.593 573.861 521.593 578.605V580.182H518.511V584.727H521.593V602H527.644V584.727H531.977V580.182ZM543.95 602.426C550.569 602.426 554.689 597.895 554.689 591.176C554.689 584.415 550.569 579.898 543.95 579.898C537.331 579.898 533.211 584.415 533.211 591.176C533.211 597.895 537.331 602.426 543.95 602.426ZM543.979 597.739C540.925 597.739 539.362 594.94 539.362 591.134C539.362 587.327 540.925 584.514 543.979 584.514C546.976 584.514 548.538 587.327 548.538 591.134C548.538 594.94 546.976 597.739 543.979 597.739ZM557.823 602H563.875V589.656C563.875 586.972 565.835 585.125 568.505 585.125C569.343 585.125 570.494 585.267 571.062 585.452V580.082C570.522 579.955 569.769 579.869 569.159 579.869C566.715 579.869 564.713 581.29 563.917 583.989H563.69V580.182H557.823V602ZM582.318 602.426C587.716 602.426 591.352 599.798 592.204 595.75L586.608 595.381C585.997 597.043 584.435 597.909 582.418 597.909C579.392 597.909 577.474 595.906 577.474 592.653V592.639H592.332V590.977C592.332 583.562 587.844 579.898 582.077 579.898C575.656 579.898 571.494 584.457 571.494 591.19C571.494 598.108 575.599 602.426 582.318 602.426ZM577.474 588.889C577.602 586.403 579.491 584.415 582.176 584.415C584.804 584.415 586.622 586.29 586.636 588.889H577.474ZM615.197 580.182H608.791L604.274 595.793H604.047L599.515 580.182H593.123L600.751 602H607.569L615.197 580.182ZM626.695 602.426C632.092 602.426 635.729 599.798 636.581 595.75L630.984 595.381C630.374 597.043 628.811 597.909 626.794 597.909C623.769 597.909 621.851 595.906 621.851 592.653V592.639H636.709V590.977C636.709 583.562 632.22 579.898 626.453 579.898C620.033 579.898 615.871 584.457 615.871 591.19C615.871 598.108 619.976 602.426 626.695 602.426ZM621.851 588.889C621.979 586.403 623.868 584.415 626.553 584.415C629.18 584.415 630.999 586.29 631.013 588.889H621.851ZM639.858 602H645.909V589.656C645.909 586.972 647.869 585.125 650.54 585.125C651.378 585.125 652.528 585.267 653.096 585.452V580.082C652.557 579.955 651.804 579.869 651.193 579.869C648.75 579.869 646.747 581.29 645.952 583.989H645.724V580.182H639.858V602ZM670.104 602.412C673.329 602.412 675.417 601.006 676.482 598.974H676.653V602H682.391V587.284C682.391 582.085 677.988 579.898 673.13 579.898C667.903 579.898 664.465 582.398 663.627 586.375L669.224 586.83C669.636 585.381 670.928 584.315 673.102 584.315C675.161 584.315 676.34 585.352 676.34 587.142V587.227C676.34 588.634 674.849 588.818 671.056 589.188C666.738 589.585 662.86 591.034 662.86 595.906C662.86 600.224 665.942 602.412 670.104 602.412ZM671.837 598.236C669.977 598.236 668.641 597.369 668.641 595.707C668.641 594.003 670.048 593.165 672.178 592.866C673.499 592.682 675.658 592.369 676.383 591.886V594.202C676.383 596.489 674.494 598.236 671.837 598.236ZM697.891 580.182H693.786V574.955H687.735V580.182H684.752V584.727H687.735V596.091C687.706 600.366 690.618 602.483 695.007 602.298C696.57 602.241 697.678 601.929 698.289 601.73L697.337 597.227C697.039 597.284 696.4 597.426 695.831 597.426C694.624 597.426 693.786 596.972 693.786 595.295V584.727H697.891V580.182ZM727.644 586.403C727.104 582.384 723.866 579.898 718.354 579.898C712.772 579.898 709.093 582.483 709.107 586.688C709.093 589.955 711.153 592.071 715.414 592.923L719.192 593.676C721.096 594.06 721.962 594.756 721.991 595.849C721.962 597.142 720.556 598.065 718.439 598.065C716.28 598.065 714.846 597.142 714.476 595.366L708.525 595.679C709.093 599.855 712.644 602.426 718.425 602.426C724.079 602.426 728.127 599.543 728.141 595.239C728.127 592.085 726.067 590.196 721.834 589.33L717.885 588.534C715.854 588.094 715.101 587.398 715.116 586.347C715.101 585.04 716.579 584.188 718.454 584.188C720.556 584.188 721.806 585.338 722.104 586.744L727.644 586.403ZM731.151 602H737.203V580.182H731.151V602ZM734.191 577.369C735.995 577.369 737.473 575.991 737.473 574.301C737.473 572.625 735.995 571.247 734.191 571.247C732.401 571.247 730.924 572.625 730.924 574.301C730.924 575.991 732.401 577.369 734.191 577.369ZM747.301 589.386C747.315 586.574 748.991 584.926 751.435 584.926C753.864 584.926 755.327 586.517 755.312 589.188V602H761.364V588.108C761.364 583.023 758.381 579.898 753.835 579.898C750.597 579.898 748.253 581.489 747.273 584.031H747.017V580.182H741.25V602H747.301V589.386ZM775.162 610.494C781.398 610.494 785.83 607.653 785.83 602.213V580.182H779.821V583.847H779.594C778.784 582.071 777.009 579.898 773.358 579.898C768.571 579.898 764.523 583.619 764.523 591.048C764.523 598.307 768.458 601.688 773.373 601.688C776.853 601.688 778.799 599.94 779.594 598.136H779.85V602.128C779.85 604.983 777.932 606.148 775.304 606.148C772.634 606.148 771.284 604.983 770.787 603.804L765.191 604.557C765.915 607.852 769.282 610.494 775.162 610.494ZM775.29 597.142C772.321 597.142 770.702 594.784 770.702 591.02C770.702 587.312 772.293 584.713 775.29 584.713C778.23 584.713 779.878 587.199 779.878 591.02C779.878 594.869 778.202 597.142 775.29 597.142ZM795.896 572.909H789.845V602H795.896V572.909ZM809.887 602.426C815.285 602.426 818.921 599.798 819.773 595.75L814.177 595.381C813.566 597.043 812.003 597.909 809.986 597.909C806.961 597.909 805.043 595.906 805.043 592.653V592.639H819.901V590.977C819.901 583.562 815.412 579.898 809.645 579.898C803.225 579.898 799.063 584.457 799.063 591.19C799.063 598.108 803.168 602.426 809.887 602.426ZM805.043 588.889C805.171 586.403 807.06 584.415 809.745 584.415C812.373 584.415 814.191 586.29 814.205 588.889H805.043ZM829.101 572.909H823.05V602H829.101V572.909ZM833.148 602H839.199V580.182H833.148V602ZM836.188 577.369C837.992 577.369 839.469 575.991 839.469 574.301C839.469 572.625 837.992 571.247 836.188 571.247C834.398 571.247 832.921 572.625 832.921 574.301C832.921 575.991 834.398 577.369 836.188 577.369ZM849.298 589.386C849.312 586.574 850.988 584.926 853.431 584.926C855.86 584.926 857.324 586.517 857.309 589.188V602H863.36V588.108C863.36 583.023 860.377 579.898 855.832 579.898C852.593 579.898 850.25 581.489 849.27 584.031H849.014V580.182H843.247V602H849.298V589.386ZM867.33 602H873.381V595.068L875.014 593.207L880.966 602H888.054L879.546 589.628L887.642 580.182H880.696L873.707 588.463H873.381V572.909H867.33V602ZM893.348 602.369C895.166 602.369 896.743 600.849 896.757 598.96C896.743 597.099 895.166 595.58 893.348 595.58C891.473 595.58 889.925 597.099 889.939 598.96C889.925 600.849 891.473 602.369 893.348 602.369ZM910.783 602.426C916.593 602.426 920.243 599.017 920.527 594.003H914.817C914.462 596.332 912.928 597.639 910.854 597.639C908.027 597.639 906.195 595.267 906.195 591.091C906.195 586.972 908.041 584.614 910.854 584.614C913.07 584.614 914.49 586.077 914.817 588.25H920.527C920.272 583.207 916.451 579.898 910.755 579.898C904.135 579.898 900.044 584.486 900.044 591.176C900.044 597.81 904.064 602.426 910.783 602.426ZM933.459 602.426C940.079 602.426 944.198 597.895 944.198 591.176C944.198 584.415 940.079 579.898 933.459 579.898C926.84 579.898 922.721 584.415 922.721 591.176C922.721 597.895 926.84 602.426 933.459 602.426ZM933.488 597.739C930.434 597.739 928.871 594.94 928.871 591.134C928.871 587.327 930.434 584.514 933.488 584.514C936.485 584.514 938.048 587.327 938.048 591.134C938.048 594.94 936.485 597.739 933.488 597.739Z" fill="white"/>
<g filter="url(#filter0_dd)">
<path d="M347.768 96.9844H366.284C366.127 82.0234 354.213 71.9062 335.62 71.9062C317.338 71.9062 304.174 81.8672 304.291 96.75C304.252 108.898 312.768 115.734 326.596 118.898L334.955 120.852C343.745 122.883 347.69 125.266 347.768 129.758C347.69 134.641 343.12 138.039 335.346 138.039C326.791 138.039 321.166 134.055 320.737 126.359H302.221C302.455 145.07 315.463 154.016 335.58 154.016C355.502 154.016 367.299 144.992 367.377 129.797C367.299 117.023 358.666 109.211 342.885 105.734L336.01 104.172C328.745 102.609 324.135 100.187 324.291 95.4219C324.33 91.0469 328.08 87.8828 335.58 87.8828C343.12 87.8828 347.26 91.2812 347.768 96.9844ZM374.943 153H394.045V93H374.943V153ZM384.513 86.0078C389.943 86.0078 394.318 81.9063 394.318 76.8672C394.318 71.8281 389.943 67.7656 384.513 67.7656C379.123 67.7656 374.709 71.8281 374.709 76.8672C374.709 81.9063 379.123 86.0078 384.513 86.0078ZM423.104 118.781C423.143 111.945 427.128 107.883 433.182 107.883C439.237 107.883 442.831 111.867 442.792 118.508V153H461.893V114.758C461.932 101.242 453.69 92.2188 441.073 92.2188C432.206 92.2188 425.487 96.7109 422.831 104.016H422.167V93H404.003V153H423.104V118.781ZM499.488 176.242C517.574 176.242 529.918 168 529.918 153.234V93H510.895V103.273H510.348C508.043 97.7656 502.809 92.2188 493.355 92.2188C480.816 92.2188 469.449 101.867 469.449 122.922C469.449 143.312 480.27 152.18 493.434 152.18C502.262 152.18 508.16 148.078 510.426 142.531H511.09V153.078C511.09 160.266 506.402 163 499.996 163C493.863 163 490.191 160.656 489.176 157.453L471.09 158.469C472.496 168.469 482.379 176.242 499.488 176.242ZM500.074 138.273C493.004 138.273 489.059 132.531 489.059 122.922C489.059 113.352 492.965 107.141 500.074 107.141C507.066 107.141 511.129 113.195 511.129 122.922C511.129 132.57 507.027 138.273 500.074 138.273ZM558.997 73H539.896V153H558.997V73ZM597.002 154.133C612.745 154.133 623.096 146.516 625.284 134.719L607.745 134.211C606.26 138.195 602.354 140.344 597.354 140.344C590.01 140.344 585.479 135.461 585.479 128.117V127.609H625.479V122.844C625.479 103.078 613.448 92.2188 596.416 92.2188C578.291 92.2188 566.651 104.641 566.651 123.234C566.651 142.453 578.135 154.133 597.002 154.133ZM585.479 116.516C585.752 110.539 590.479 106.008 596.807 106.008C603.096 106.008 607.627 110.383 607.705 116.516H585.479ZM654.468 153H707.085V137.297H673.804V73H654.468V153ZM714.895 153H733.996V93H714.895V153ZM724.465 86.0078C729.895 86.0078 734.27 81.9063 734.27 76.8672C734.27 71.8281 729.895 67.7656 724.465 67.7656C719.074 67.7656 714.66 71.8281 714.66 76.8672C714.66 81.9063 719.074 86.0078 724.465 86.0078ZM763.056 118.781C763.095 111.945 767.079 107.883 773.134 107.883C779.189 107.883 782.782 111.867 782.743 118.508V153H801.845V114.758C801.884 101.242 793.642 92.2188 781.025 92.2188C772.157 92.2188 765.439 96.7109 762.782 104.016H762.118V93H743.954V153H763.056V118.781ZM811.471 153H830.573V134.992L834.44 130.305L848.737 153H870.807L848.659 119.133L869.948 93H848.307L831.432 114.484H830.573V73H811.471V153Z" fill="url(#paint1_linear)"/>
</g>
<path d="M217.661 154L223.598 135.758H252.466L258.403 154H276.528L248.95 74H227.153L199.536 154H217.661ZM227.895 122.555L237.739 92.2812H238.364L248.208 122.555H227.895ZM928.834 94H916.92V89.9766C916.92 85.9141 918.56 83.5312 923.443 83.5312C925.435 83.5312 927.466 83.9609 928.795 84.3906L931.724 71.8906C929.654 71.2656 925.084 70.25 919.966 70.25C908.677 70.25 900.279 76.6172 900.279 89.6641V94H891.802V106.5H900.279V154H916.92V106.5H928.834V94ZM961.761 155.172C979.964 155.172 991.292 142.711 991.292 124.234C991.292 105.641 979.964 93.2188 961.761 93.2188C943.557 93.2188 932.229 105.641 932.229 124.234C932.229 142.711 943.557 155.172 961.761 155.172ZM961.839 142.281C953.44 142.281 949.143 134.586 949.143 124.117C949.143 113.648 953.44 105.914 961.839 105.914C970.081 105.914 974.378 113.648 974.378 124.117C974.378 134.586 970.081 142.281 961.839 142.281ZM999.912 154H1016.55V120.055C1016.55 112.672 1021.94 107.594 1029.29 107.594C1031.59 107.594 1034.76 107.984 1036.32 108.492V93.7266C1034.83 93.375 1032.76 93.1406 1031.08 93.1406C1024.37 93.1406 1018.86 97.0469 1016.67 104.469H1016.04V94H999.912V154ZM368.304 276.172C383.148 276.172 393.148 268.945 395.492 257.812L380.101 256.797C378.421 261.367 374.125 263.75 368.578 263.75C360.257 263.75 354.984 258.242 354.984 249.297V249.258H395.843V244.687C395.843 224.297 383.5 214.219 367.64 214.219C349.984 214.219 338.539 226.758 338.539 245.273C338.539 264.297 349.828 276.172 368.304 276.172ZM354.984 238.945C355.336 232.109 360.531 226.641 367.914 226.641C375.14 226.641 380.14 231.797 380.179 238.945H354.984ZM458.721 215H441.104L428.682 257.93H428.057L415.596 215H398.018L418.995 275H437.745L458.721 215ZM490.34 276.172C505.184 276.172 515.184 268.945 517.527 257.812L502.137 256.797C500.457 261.367 496.16 263.75 490.613 263.75C482.293 263.75 477.02 258.242 477.02 249.297V249.258H517.879V244.687C517.879 224.297 505.535 214.219 489.676 214.219C472.02 214.219 460.574 226.758 460.574 245.273C460.574 264.297 471.863 276.172 490.34 276.172ZM477.02 238.945C477.371 232.109 482.566 226.641 489.949 226.641C497.176 226.641 502.176 231.797 502.215 238.945H477.02ZM526.538 275H543.179V241.055C543.179 233.672 548.57 228.594 555.913 228.594C558.218 228.594 561.382 228.984 562.945 229.492V214.727C561.46 214.375 559.39 214.141 557.71 214.141C550.991 214.141 545.484 218.047 543.296 225.469H542.671V215H526.538V275ZM581.448 297.383C593.83 297.383 600.432 291.094 603.791 281.484L627.112 215.078L609.495 215L596.955 259.062H596.33L583.909 215H566.409L587.932 276.719L586.955 279.258C584.612 284.688 580.588 285.078 574.729 283.242L570.979 295.703C573.362 296.68 577.229 297.383 581.448 297.383ZM665.341 215H654.052V200.625H637.412V215H629.209V227.5H637.412V258.75C637.334 270.508 645.341 276.328 657.412 275.82C661.709 275.664 664.755 274.805 666.435 274.258L663.818 261.875C662.998 262.031 661.24 262.422 659.677 262.422C656.357 262.422 654.052 261.172 654.052 256.562V227.5H665.341V215ZM691.911 240.313C691.95 232.578 696.677 228.047 703.473 228.047C710.231 228.047 714.216 232.383 714.177 239.766V275H730.817V236.797C730.856 222.734 722.575 214.219 710.075 214.219C700.973 214.219 694.88 218.516 692.145 225.586H691.442V195H675.27V275H691.911V240.313ZM741.713 275H758.354V215H741.713V275ZM750.072 207.266C755.033 207.266 759.096 203.477 759.096 198.828C759.096 194.219 755.033 190.43 750.072 190.43C745.15 190.43 741.088 194.219 741.088 198.828C741.088 203.477 745.15 207.266 750.072 207.266ZM786.124 240.313C786.163 232.578 790.773 228.047 797.491 228.047C804.171 228.047 808.195 232.422 808.155 239.766V275H824.796V236.797C824.796 222.812 816.593 214.219 804.093 214.219C795.187 214.219 788.741 218.594 786.046 225.586H785.343V215H769.484V275H786.124V240.313ZM862.743 298.359C879.891 298.359 892.078 290.547 892.078 275.586V215H875.555V225.078H874.93C872.703 220.195 867.821 214.219 857.782 214.219C844.618 214.219 833.485 224.453 833.485 244.883C833.485 264.844 844.305 274.141 857.821 274.141C867.391 274.141 872.743 269.336 874.93 264.375H875.633V275.352C875.633 283.203 870.36 286.406 863.133 286.406C855.789 286.406 852.078 283.203 850.711 279.961L835.321 282.031C837.313 291.094 846.571 298.359 862.743 298.359ZM863.094 261.641C854.93 261.641 850.477 255.156 850.477 244.805C850.477 234.609 854.852 227.461 863.094 227.461C871.18 227.461 875.711 234.297 875.711 244.805C875.711 255.391 871.102 261.641 863.094 261.641Z" fill="black" fill-opacity="0.95"/>
<path d="M347.734 97.9844H366.249C366.093 83.0234 354.179 72.9062 335.585 72.9062C317.304 72.9062 304.14 82.8672 304.257 97.75C304.218 109.898 312.734 116.734 326.562 119.898L334.921 121.852C343.71 123.883 347.655 126.266 347.734 130.758C347.655 135.641 343.085 139.039 335.312 139.039C326.757 139.039 321.132 135.055 320.702 127.359H302.187C302.421 146.07 315.429 155.016 335.546 155.016C355.468 155.016 367.265 145.992 367.343 130.797C367.265 118.023 358.632 110.211 342.851 106.734L335.976 105.172C328.71 103.609 324.101 101.187 324.257 96.4219C324.296 92.0469 328.046 88.8828 335.546 88.8828C343.085 88.8828 347.226 92.2812 347.734 97.9844ZM374.909 154H394.01V94H374.909V154ZM384.479 87.0078C389.909 87.0078 394.284 82.9063 394.284 77.8672C394.284 72.8281 389.909 68.7656 384.479 68.7656C379.088 68.7656 374.674 72.8281 374.674 77.8672C374.674 82.9063 379.088 87.0078 384.479 87.0078ZM423.07 119.781C423.109 112.945 427.093 108.883 433.148 108.883C439.203 108.883 442.797 112.867 442.757 119.508V154H461.859V115.758C461.898 102.242 453.656 93.2188 441.039 93.2188C432.172 93.2188 425.453 97.7109 422.797 105.016H422.132V94H403.968V154H423.07V119.781ZM499.454 177.242C517.54 177.242 529.884 169 529.884 154.234V94H510.86V104.273H510.313C508.009 98.7656 502.774 93.2188 493.321 93.2188C480.782 93.2188 469.415 102.867 469.415 123.922C469.415 144.312 480.235 153.18 493.399 153.18C502.227 153.18 508.126 149.078 510.391 143.531H511.055V154.078C511.055 161.266 506.368 164 499.962 164C493.829 164 490.157 161.656 489.141 158.453L471.055 159.469C472.462 169.469 482.345 177.242 499.454 177.242ZM500.04 139.273C492.97 139.273 489.024 133.531 489.024 123.922C489.024 114.352 492.93 108.141 500.04 108.141C507.032 108.141 511.095 114.195 511.095 123.922C511.095 133.57 506.993 139.273 500.04 139.273ZM558.963 74H539.861V154H558.963V74ZM596.968 155.133C612.71 155.133 623.062 147.516 625.249 135.719L607.71 135.211C606.226 139.195 602.32 141.344 597.32 141.344C589.976 141.344 585.445 136.461 585.445 129.117V128.609H625.445V123.844C625.445 104.078 613.413 93.2188 596.382 93.2188C578.257 93.2188 566.616 105.641 566.616 124.234C566.616 143.453 578.101 155.133 596.968 155.133ZM585.445 117.516C585.718 111.539 590.445 107.008 596.773 107.008C603.062 107.008 607.593 111.383 607.671 117.516H585.445ZM654.433 154H707.05V138.297H673.769V74H654.433V154ZM714.86 154H733.962V94H714.86V154ZM724.43 87.0078C729.86 87.0078 734.235 82.9063 734.235 77.8672C734.235 72.8281 729.86 68.7656 724.43 68.7656C719.04 68.7656 714.626 72.8281 714.626 77.8672C714.626 82.9063 719.04 87.0078 724.43 87.0078ZM763.021 119.781C763.061 112.945 767.045 108.883 773.1 108.883C779.154 108.883 782.748 112.867 782.709 119.508V154H801.811V115.758C801.85 102.242 793.607 93.2188 780.99 93.2188C772.123 93.2188 765.404 97.7109 762.748 105.016H762.084V94H743.92V154H763.021V119.781ZM811.437 154H830.538V135.992L834.405 131.305L848.702 154H870.773L848.624 120.133L869.913 94H848.273L831.398 115.484H830.538V74H811.437V154Z" fill="url(#paint2_linear)"/>
<path d="M177.935 335.158H189.174V366H195.708V335.158H206.948V329.636H177.935V335.158ZM217.684 350.02C217.684 346.078 220.134 343.805 223.579 343.805C226.953 343.805 228.941 345.954 228.941 349.629V366H235.369V348.635C235.369 342.048 231.64 338.372 225.976 338.372C221.786 338.372 219.122 340.272 217.862 343.362H217.542V329.636H211.257V366H217.684V350.02ZM252.995 366.533C259.351 366.533 263.719 363.425 264.855 358.685L258.854 358.01C257.984 360.318 255.853 361.526 253.083 361.526C248.929 361.526 246.176 358.791 246.123 354.121H265.122V352.151C265.122 342.58 259.369 338.372 252.657 338.372C244.845 338.372 239.749 344.107 239.749 352.523C239.749 361.082 244.774 366.533 252.995 366.533ZM246.141 349.789C246.336 346.309 248.911 343.379 252.746 343.379C256.439 343.379 258.925 346.078 258.96 349.789H246.141ZM294.776 338.727H289.112V336.579C289.112 334.448 289.999 333.259 292.396 333.259C293.408 333.259 294.261 333.489 294.793 333.649L296.09 328.678C295.255 328.393 293.426 327.932 291.207 327.932C286.466 327.932 282.684 330.648 282.684 336.153V338.727H278.653V343.699H282.684V366H289.112V343.699H294.776V338.727ZM298.809 366H305.237V349.967C305.237 346.504 307.847 344.054 311.38 344.054C312.464 344.054 313.813 344.249 314.363 344.427V338.514C313.777 338.408 312.765 338.337 312.055 338.337C308.93 338.337 306.32 340.112 305.326 343.273H305.042V338.727H298.809V366ZM328.584 366.533C334.941 366.533 339.309 363.425 340.445 358.685L334.444 358.01C333.574 360.318 331.443 361.526 328.673 361.526C324.518 361.526 321.766 358.791 321.713 354.121H340.712V352.151C340.712 342.58 334.959 338.372 328.247 338.372C320.435 338.372 315.339 344.107 315.339 352.523C315.339 361.082 320.364 366.533 328.584 366.533ZM321.731 349.789C321.926 346.309 324.501 343.379 328.336 343.379C332.029 343.379 334.515 346.078 334.55 349.789H321.731ZM357.223 366.533C363.58 366.533 367.948 363.425 369.084 358.685L363.082 358.01C362.212 360.318 360.082 361.526 357.312 361.526C353.157 361.526 350.405 358.791 350.352 354.121H369.35V352.151C369.35 342.58 363.597 338.372 356.886 338.372C349.073 338.372 343.977 344.107 343.977 352.523C343.977 361.082 349.002 366.533 357.223 366.533ZM350.369 349.789C350.565 346.309 353.139 343.379 356.975 343.379C360.668 343.379 363.153 346.078 363.189 349.789H350.369ZM396.057 366.533C399.271 366.533 402.839 365.538 405.378 363.337L407.704 366H414.665L409.338 359.768C411.114 357.388 412.498 353.855 412.498 348.866H406.976C406.976 351.263 406.408 353.411 405.449 355.205L398.809 347.428L401.099 345.741C404.136 343.539 405.929 340.893 405.929 337.449C405.929 333.01 402.431 329.192 396.696 329.192C390.943 329.192 387.161 333.01 387.161 338.177C387.161 341.426 388.795 344.072 390.89 346.664C386.842 349.452 384.072 352.062 384.072 356.341C384.072 362.129 388.617 366.533 396.057 366.533ZM401.881 359.324C400.158 360.567 398.187 361.241 396.252 361.241C392.683 361.241 390.375 358.933 390.375 356.057C390.375 354.796 391.334 352.896 393.748 351.121L394.334 350.695L401.881 359.324ZM395.524 343.504C393.997 341.621 392.896 339.935 392.896 338.266C392.896 336.295 394.459 334.466 396.785 334.466C399.075 334.466 400.478 336.17 400.478 337.733C400.478 339.58 399.484 340.876 397.584 342.101L395.524 343.504ZM428.747 366H435.174V338.727H428.747V366ZM431.978 334.857C434.02 334.857 435.689 333.294 435.689 331.376C435.689 329.441 434.02 327.879 431.978 327.879C429.919 327.879 428.25 329.441 428.25 331.376C428.25 333.294 429.919 334.857 431.978 334.857ZM440.784 366H447.212V349.416C447.212 346.06 449.449 343.788 452.219 343.788C454.935 343.788 456.8 345.616 456.8 348.422V366H463.103V348.99C463.103 345.918 464.932 343.788 468.039 343.788C470.631 343.788 472.691 345.315 472.691 348.688V366H479.136V347.694C479.136 341.604 475.621 338.372 470.614 338.372C466.654 338.372 463.636 340.325 462.428 343.362H462.144C461.097 340.272 458.451 338.372 454.775 338.372C451.118 338.372 448.383 340.254 447.247 343.362H446.927V338.727H440.784V366ZM484.657 376.227H491.085V361.703H491.351C492.363 363.692 494.476 366.479 499.163 366.479C505.591 366.479 510.403 361.384 510.403 352.399C510.403 343.308 505.449 338.372 499.146 338.372C494.334 338.372 492.328 341.266 491.351 343.237H490.978V338.727H484.657V376.227ZM490.96 352.364C490.96 347.072 493.233 343.646 497.37 343.646C501.649 343.646 503.851 347.286 503.851 352.364C503.851 357.477 501.614 361.206 497.37 361.206C493.269 361.206 490.96 357.655 490.96 352.364ZM514.907 366H521.335V349.967C521.335 346.504 523.945 344.054 527.478 344.054C528.561 344.054 529.911 344.249 530.461 344.427V338.514C529.875 338.408 528.863 338.337 528.153 338.337C525.028 338.337 522.418 340.112 521.423 343.273H521.139V338.727H514.907V366ZM544.505 366.533C552.495 366.533 557.573 360.904 557.573 352.47C557.573 344.018 552.495 338.372 544.505 338.372C536.514 338.372 531.436 344.018 531.436 352.47C531.436 360.904 536.514 366.533 544.505 366.533ZM544.54 361.384C540.119 361.384 537.953 357.442 537.953 352.452C537.953 347.463 540.119 343.468 544.54 343.468C548.89 343.468 551.056 347.463 551.056 352.452C551.056 357.442 548.89 361.384 544.54 361.384ZM585.461 338.727H578.625L572.34 358.987H572.056L565.788 338.727H558.934L568.647 366H575.749L585.461 338.727ZM600.055 366.533C606.412 366.533 610.78 363.425 611.916 358.685L605.915 358.01C605.044 360.318 602.914 361.526 600.144 361.526C595.989 361.526 593.237 358.791 593.184 354.121H612.182V352.151C612.182 342.58 606.429 338.372 599.718 338.372C591.905 338.372 586.809 344.107 586.809 352.523C586.809 361.082 591.834 366.533 600.055 366.533ZM593.201 349.789C593.397 346.309 595.971 343.379 599.807 343.379C603.5 343.379 605.986 346.078 606.021 349.789H593.201ZM626.741 366.479C631.428 366.479 633.541 363.692 634.553 361.703H634.944V366H641.265V329.636H634.82V343.237H634.553C633.577 341.266 631.57 338.372 626.758 338.372C620.455 338.372 615.501 343.308 615.501 352.399C615.501 361.384 620.313 366.479 626.741 366.479ZM628.534 361.206C624.29 361.206 622.053 357.477 622.053 352.364C622.053 347.286 624.255 343.646 628.534 343.646C632.671 343.646 634.944 347.072 634.944 352.364C634.944 357.655 632.636 361.206 628.534 361.206ZM664.944 329.636H658.516V366H664.944V329.636ZM670.554 366H676.981V338.727H670.554V366ZM673.785 334.857C675.827 334.857 677.496 333.294 677.496 331.376C677.496 329.441 675.827 327.879 673.785 327.879C671.725 327.879 670.056 329.441 670.056 331.376C670.056 333.294 671.725 334.857 673.785 334.857ZM689.018 350.02C689.018 346.078 691.397 343.805 694.789 343.805C698.109 343.805 700.098 345.989 700.098 349.629V366H706.525V348.635C706.543 342.101 702.814 338.372 697.186 338.372C693.102 338.372 690.297 340.325 689.054 343.362H688.734V338.727H682.591V366H689.018V350.02ZM712.059 366H718.487V356.838L720.831 354.335L729.176 366H736.864L725.678 350.499L736.243 338.727H728.732L718.931 349.683H718.487V329.636H712.059V366ZM751.213 366H757.534V361.703H757.907C758.919 363.692 761.032 366.479 765.719 366.479C772.147 366.479 776.958 361.384 776.958 352.399C776.958 343.308 772.005 338.372 765.701 338.372C760.889 338.372 758.883 341.266 757.907 343.237H757.64V329.636H751.213V366ZM757.516 352.364C757.516 347.072 759.789 343.646 763.926 343.646C768.205 343.646 770.407 347.286 770.407 352.364C770.407 357.477 768.169 361.206 763.926 361.206C759.824 361.206 757.516 357.655 757.516 352.364ZM798.805 354.53C798.805 358.685 795.84 360.744 792.999 360.744C789.91 360.744 787.85 358.56 787.85 355.098V338.727H781.423V356.092C781.423 362.644 785.151 366.355 790.514 366.355C794.597 366.355 797.474 364.207 798.717 361.153H799.001V366H805.233V338.727H798.805V354.53ZM810.843 366H817.27V338.727H810.843V366ZM814.074 334.857C816.116 334.857 817.785 333.294 817.785 331.376C817.785 329.441 816.116 327.879 814.074 327.879C812.014 327.879 810.345 329.441 810.345 331.376C810.345 333.294 812.014 334.857 814.074 334.857ZM829.307 329.636H822.88V366H829.307V329.636ZM845.038 366.479C849.725 366.479 851.838 363.692 852.85 361.703H853.241V366H859.562V329.636H853.116V343.237H852.85C851.873 341.266 849.867 338.372 845.055 338.372C838.752 338.372 833.798 343.308 833.798 352.399C833.798 361.384 838.61 366.479 845.038 366.479ZM846.831 361.206C842.587 361.206 840.35 357.477 840.35 352.364C840.35 347.286 842.552 343.646 846.831 343.646C850.968 343.646 853.241 347.072 853.241 352.364C853.241 357.655 850.932 361.206 846.831 361.206ZM877.485 366.533C883.841 366.533 888.209 363.425 889.346 358.685L883.344 358.01C882.474 360.318 880.343 361.526 877.574 361.526C873.419 361.526 870.667 358.791 870.613 354.121H889.612V352.151C889.612 342.58 883.859 338.372 877.147 338.372C869.335 338.372 864.239 344.107 864.239 352.523C864.239 361.082 869.264 366.533 877.485 366.533ZM870.631 349.789C870.826 346.309 873.401 343.379 877.236 343.379C880.929 343.379 883.415 346.078 883.451 349.789H870.631ZM894.05 366H900.477V349.967C900.477 346.504 903.087 344.054 906.621 344.054C907.704 344.054 909.053 344.249 909.604 344.427V338.514C909.018 338.408 908.006 338.337 907.295 338.337C904.17 338.337 901.56 340.112 900.566 343.273H900.282V338.727H894.05V366ZM937.895 338.727H932.515V332.193H926.087V338.727H922.217V343.699H926.087V358.862C926.052 363.994 929.78 366.515 934.61 366.373C936.439 366.32 937.699 365.964 938.392 365.734L937.309 360.709C936.954 360.798 936.226 360.957 935.427 360.957C933.811 360.957 932.515 360.389 932.515 357.797V343.699H937.895V338.727ZM953.874 366.533C961.864 366.533 966.942 360.904 966.942 352.47C966.942 344.018 961.864 338.372 953.874 338.372C945.884 338.372 940.805 344.018 940.805 352.47C940.805 360.904 945.884 366.533 953.874 366.533ZM953.909 361.384C949.488 361.384 947.322 357.442 947.322 352.452C947.322 347.463 949.488 343.468 953.909 343.468C958.259 343.468 960.426 347.463 960.426 352.452C960.426 357.442 958.259 361.384 953.909 361.384ZM983.294 366.533C991.284 366.533 996.362 360.904 996.362 352.47C996.362 344.018 991.284 338.372 983.294 338.372C975.304 338.372 970.225 344.018 970.225 352.47C970.225 360.904 975.304 366.533 983.294 366.533ZM983.329 361.384C978.908 361.384 976.742 357.442 976.742 352.452C976.742 347.463 978.908 343.468 983.329 343.468C987.679 343.468 989.845 347.463 989.845 352.452C989.845 357.442 987.679 361.384 983.329 361.384ZM1007.24 329.636H1000.82V366H1007.24V329.636ZM1016.81 366.391C1018.91 366.391 1020.7 364.651 1020.72 362.484C1020.7 360.354 1018.91 358.614 1016.81 358.614C1014.65 358.614 1012.89 360.354 1012.91 362.484C1012.89 364.651 1014.65 366.391 1016.81 366.391Z" fill="black" fill-opacity="0.75"/>
<g filter="url(#filter1_d)">
<rect x="270" y="404" width="661" height="92" rx="10" fill="#5353EC"/>
</g>
<path d="M319.318 463H330.504C336.384 463 339.517 459.932 339.517 455.764C339.517 451.891 336.742 449.551 333.764 449.411V449.155C336.487 448.541 338.494 446.611 338.494 443.53C338.494 439.605 335.579 436.818 329.801 436.818H319.318V463ZM324.853 458.474V451.52H329.494C332.153 451.52 333.802 453.054 333.802 455.214C333.802 457.183 332.46 458.474 329.366 458.474H324.853ZM324.853 447.774V441.293H329.059C331.514 441.293 332.907 442.558 332.907 444.45C332.907 446.521 331.22 447.774 328.957 447.774H324.853ZM354.889 454.639C354.901 457.273 353.099 458.653 351.143 458.653C349.085 458.653 347.755 457.209 347.742 454.895V443.364H342.296V455.866C342.309 460.456 344.994 463.256 348.944 463.256C351.897 463.256 354.019 461.734 354.901 459.433H355.106V463H360.335V443.364H354.889V454.639ZM363.971 463H369.417V443.364H363.971V463ZM366.707 440.832C368.33 440.832 369.66 439.592 369.66 438.071C369.66 436.562 368.33 435.322 366.707 435.322C365.096 435.322 363.766 436.562 363.766 438.071C363.766 439.592 365.096 440.832 366.707 440.832ZM378.505 436.818H373.059V463H378.505V436.818ZM389.384 463.32C392.554 463.32 394.203 461.491 394.958 459.855H395.188V463H400.557V436.818H395.124V446.662H394.958C394.229 445.064 392.656 443.108 389.371 443.108C385.063 443.108 381.419 446.457 381.419 453.207C381.419 459.778 384.909 463.32 389.384 463.32ZM391.11 458.986C388.438 458.986 386.98 456.608 386.98 453.182C386.98 449.781 388.412 447.442 391.11 447.442C393.756 447.442 395.239 449.679 395.239 453.182C395.239 456.685 393.73 458.986 391.11 458.986ZM410.495 436.818L420.045 453.744V463H425.542V453.744L435.091 436.818H428.891L422.921 448.094H422.665L416.695 436.818H410.495ZM442.087 463.384C448.044 463.384 451.751 459.305 451.751 453.259C451.751 447.173 448.044 443.108 442.087 443.108C436.129 443.108 432.422 447.173 432.422 453.259C432.422 459.305 436.129 463.384 442.087 463.384ZM442.112 459.165C439.364 459.165 437.957 456.646 437.957 453.22C437.957 449.794 439.364 447.263 442.112 447.263C444.81 447.263 446.216 449.794 446.216 453.22C446.216 456.646 444.81 459.165 442.112 459.165ZM467.165 454.639C467.178 457.273 465.375 458.653 463.419 458.653C461.361 458.653 460.031 457.209 460.019 454.895V443.364H454.573V455.866C454.585 460.456 457.27 463.256 461.22 463.256C464.173 463.256 466.296 461.734 467.178 459.433H467.382V463H472.611V443.364H467.165V454.639ZM476.247 463H481.693V451.891C481.693 449.474 483.457 447.812 485.861 447.812C486.615 447.812 487.651 447.94 488.162 448.107V443.274C487.676 443.159 486.999 443.082 486.449 443.082C484.25 443.082 482.447 444.361 481.732 446.79H481.527V443.364H476.247V463ZM497.972 463H503.507V452.185H514.157V447.621H503.507V441.382H515.307V436.818H497.972V463ZM517.892 463H523.338V451.891C523.338 449.474 525.102 447.812 527.505 447.812C528.26 447.812 529.295 447.94 529.807 448.107V443.274C529.321 443.159 528.643 443.082 528.094 443.082C525.895 443.082 524.092 444.361 523.376 446.79H523.172V443.364H517.892V463ZM539.937 463.384C544.795 463.384 548.068 461.018 548.835 457.375L543.798 457.043C543.248 458.538 541.842 459.318 540.027 459.318C537.304 459.318 535.578 457.516 535.578 454.588V454.575H548.95V453.08C548.95 446.406 544.91 443.108 539.72 443.108C533.941 443.108 530.196 447.212 530.196 453.271C530.196 459.497 533.89 463.384 539.937 463.384ZM535.578 451.2C535.693 448.963 537.393 447.173 539.809 447.173C542.174 447.173 543.811 448.861 543.823 451.2H535.578ZM560.733 463.384C565.591 463.384 568.863 461.018 569.63 457.375L564.594 457.043C564.044 458.538 562.638 459.318 560.822 459.318C558.099 459.318 556.373 457.516 556.373 454.588V454.575H569.745V453.08C569.745 446.406 565.706 443.108 560.515 443.108C554.737 443.108 550.991 447.212 550.991 453.271C550.991 459.497 554.686 463.384 560.733 463.384ZM556.373 451.2C556.488 448.963 558.189 447.173 560.605 447.173C562.97 447.173 564.606 448.861 564.619 451.2H556.373ZM580.294 463H585.829V454.511H590.483C596.504 454.511 600.007 450.919 600.007 445.69C600.007 440.487 596.568 436.818 590.623 436.818H580.294V463ZM585.829 450.075V441.344H589.562C592.758 441.344 594.305 443.082 594.305 445.69C594.305 448.286 592.758 450.075 589.588 450.075H585.829ZM602.78 463H608.226V451.891C608.226 449.474 609.99 447.812 612.394 447.812C613.148 447.812 614.184 447.94 614.695 448.107V443.274C614.209 443.159 613.532 443.082 612.982 443.082C610.783 443.082 608.98 444.361 608.264 446.79H608.06V443.364H602.78V463ZM624.749 463.384C630.706 463.384 634.413 459.305 634.413 453.259C634.413 447.173 630.706 443.108 624.749 443.108C618.791 443.108 615.084 447.173 615.084 453.259C615.084 459.305 618.791 463.384 624.749 463.384ZM624.774 459.165C622.026 459.165 620.619 456.646 620.619 453.22C620.619 449.794 622.026 447.263 624.774 447.263C627.472 447.263 628.878 449.794 628.878 453.22C628.878 456.646 627.472 459.165 624.774 459.165ZM647.794 443.364H643.895V442.047C643.895 440.717 644.432 439.938 646.03 439.938C646.682 439.938 647.347 440.078 647.782 440.219L648.74 436.128C648.063 435.923 646.567 435.591 644.892 435.591C641.198 435.591 638.449 437.675 638.449 441.945V443.364H635.675V447.455H638.449V463H643.895V447.455H647.794V443.364ZM650.401 463H655.847V443.364H650.401V463ZM653.137 440.832C654.761 440.832 656.09 439.592 656.09 438.071C656.09 436.562 654.761 435.322 653.137 435.322C651.526 435.322 650.197 436.562 650.197 438.071C650.197 439.592 651.526 440.832 653.137 440.832ZM664.936 436.818H659.49V463H664.936V436.818ZM677.527 463.384C682.385 463.384 685.658 461.018 686.425 457.375L681.388 457.043C680.838 458.538 679.432 459.318 677.617 459.318C674.894 459.318 673.168 457.516 673.168 454.588V454.575H686.54V453.08C686.54 446.406 682.5 443.108 677.31 443.108C671.532 443.108 667.786 447.212 667.786 453.271C667.786 459.497 671.481 463.384 677.527 463.384ZM673.168 451.2C673.283 448.963 674.983 447.173 677.4 447.173C679.765 447.173 681.401 448.861 681.414 451.2H673.168ZM702.624 436.818H697.088V463H702.624V436.818ZM711.802 451.648C711.815 449.116 713.323 447.634 715.522 447.634C717.708 447.634 719.025 449.065 719.012 451.469V463H724.458V450.497C724.458 445.92 721.774 443.108 717.683 443.108C714.768 443.108 712.659 444.54 711.776 446.828H711.546V443.364H706.356V463H711.802V451.648ZM749.948 444.348H755.253C755.177 439.682 751.341 436.46 745.512 436.46C739.772 436.46 735.566 439.631 735.591 444.386C735.579 448.247 738.302 450.459 742.725 451.52L745.576 452.236C748.427 452.926 750.012 453.744 750.025 455.509C750.012 457.426 748.197 458.73 745.384 458.73C742.508 458.73 740.437 457.401 740.258 454.78H734.901C735.042 460.443 739.094 463.371 745.448 463.371C751.84 463.371 755.599 460.315 755.611 455.521C755.599 451.162 752.313 448.848 747.762 447.825L745.41 447.263C743.134 446.739 741.229 445.895 741.268 444.016C741.268 442.328 742.763 441.088 745.474 441.088C748.12 441.088 749.743 442.29 749.948 444.348ZM767.461 463.384C772.319 463.384 775.592 461.018 776.359 457.375L771.322 457.043C770.772 458.538 769.366 459.318 767.551 459.318C764.828 459.318 763.102 457.516 763.102 454.588V454.575H776.474V453.08C776.474 446.406 772.434 443.108 767.244 443.108C761.466 443.108 757.72 447.212 757.72 453.271C757.72 459.497 761.414 463.384 767.461 463.384ZM763.102 451.2C763.217 448.963 764.917 447.173 767.333 447.173C769.699 447.173 771.335 448.861 771.348 451.2H763.102ZM788.18 463.384C793.409 463.384 796.694 460.315 796.95 455.803H791.811C791.491 457.899 790.111 459.075 788.244 459.075C785.7 459.075 784.051 456.94 784.051 453.182C784.051 449.474 785.713 447.352 788.244 447.352C790.238 447.352 791.517 448.669 791.811 450.625H796.95C796.72 446.087 793.281 443.108 788.155 443.108C782.197 443.108 778.515 447.237 778.515 453.259C778.515 459.229 782.133 463.384 788.18 463.384ZM808.589 463.384C814.547 463.384 818.254 459.305 818.254 453.259C818.254 447.173 814.547 443.108 808.589 443.108C802.632 443.108 798.924 447.173 798.924 453.259C798.924 459.305 802.632 463.384 808.589 463.384ZM808.615 459.165C805.866 459.165 804.46 456.646 804.46 453.22C804.46 449.794 805.866 447.263 808.615 447.263C811.312 447.263 812.718 449.794 812.718 453.22C812.718 456.646 811.312 459.165 808.615 459.165ZM826.521 451.648C826.534 449.116 828.042 447.634 830.241 447.634C832.427 447.634 833.744 449.065 833.731 451.469V463H839.177V450.497C839.177 445.92 836.493 443.108 832.402 443.108C829.487 443.108 827.378 444.54 826.496 446.828H826.265V443.364H821.075V463H826.521V451.648ZM849.985 463.32C853.156 463.32 854.805 461.491 855.559 459.855H855.789V463H861.159V436.818H855.726V446.662H855.559C854.831 445.064 853.258 443.108 849.973 443.108C845.664 443.108 842.021 446.457 842.021 453.207C842.021 459.778 845.511 463.32 849.985 463.32ZM851.711 458.986C849.039 458.986 847.582 456.608 847.582 453.182C847.582 449.781 849.014 447.442 851.711 447.442C854.358 447.442 855.841 449.679 855.841 453.182C855.841 456.685 854.332 458.986 851.711 458.986ZM881.254 448.963C880.769 445.345 877.854 443.108 872.894 443.108C867.869 443.108 864.558 445.435 864.571 449.219C864.558 452.159 866.412 454.064 870.247 454.831L873.648 455.509C875.361 455.854 876.141 456.48 876.166 457.464C876.141 458.628 874.875 459.459 872.97 459.459C871.027 459.459 869.736 458.628 869.404 457.03L864.047 457.311C864.558 461.07 867.754 463.384 872.958 463.384C878.046 463.384 881.689 460.788 881.702 456.915C881.689 454.077 879.835 452.376 876.026 451.597L872.472 450.881C870.644 450.484 869.966 449.858 869.979 448.912C869.966 447.736 871.296 446.969 872.983 446.969C874.875 446.969 876 448.004 876.269 449.27L881.254 448.963Z" fill="white"/>
</g>
<defs>
<filter id="filter0_dd" x="202.221" y="22.7656" width="768.586" height="208.477" filterUnits="userSpaceOnUse" color-interpolation-filters="sRGB">
<feFlood flood-opacity="0" result="BackgroundImageFix"/>
<feColorMatrix in="SourceAlpha" type="matrix" values="0 0 0 0 0 0 0 0 0 0 0 0 0 0 0 0 0 0 127 0"/>
<feOffset dx="50" dy="5"/>
<feGaussianBlur stdDeviation="25"/>
<feColorMatrix type="matrix" values="0 0 0 0 0.0117647 0 0 0 0 0.823529 0 0 0 0 0.831373 0 0 0 0.25 0"/>
<feBlend mode="normal" in2="BackgroundImageFix" result="effect1_dropShadow"/>
<feColorMatrix in="SourceAlpha" type="matrix" values="0 0 0 0 0 0 0 0 0 0 0 0 0 0 0 0 0 0 127 0"/>
<feOffset dx="-50" dy="5"/>
<feGaussianBlur stdDeviation="25"/>
<feColorMatrix type="matrix" values="0 0 0 0 0.32549 0 0 0 0 0.32549 0 0 0 0 0.92549 0 0 0 0.25 0"/>
<feBlend mode="normal" in2="effect1_dropShadow" result="effect2_dropShadow"/>
<feBlend mode="normal" in="SourceGraphic" in2="effect2_dropShadow" result="shape"/>
</filter>
<filter id="filter1_d" x="245" y="381" width="711" height="142" filterUnits="userSpaceOnUse" color-interpolation-filters="sRGB">
<feFlood flood-opacity="0" result="BackgroundImageFix"/>
<feColorMatrix in="SourceAlpha" type="matrix" values="0 0 0 0 0 0 0 0 0 0 0 0 0 0 0 0 0 0 127 0"/>
<feOffset dy="2"/>
<feGaussianBlur stdDeviation="12.5"/>
<feColorMatrix type="matrix" values="0 0 0 0 0 0 0 0 0 0 0 0 0 0 0 0 0 0 0.25 0"/>
<feBlend mode="normal" in2="BackgroundImageFix" result="effect1_dropShadow"/>
<feBlend mode="normal" in="SourceGraphic" in2="effect1_dropShadow" result="shape"/>
</filter>
<linearGradient id="paint0_linear" x1="600" y1="0" x2="600" y2="548" gradientUnits="userSpaceOnUse">
<stop stop-color="#53BEEC"/>
<stop offset="1" stop-color="#5353EC"/>
</linearGradient>
<linearGradient id="paint1_linear" x1="583.5" y1="52" x2="583.5" y2="173" gradientUnits="userSpaceOnUse">
<stop stop-color="#66C4EC"/>
<stop offset="1" stop-color="#5353EC"/>
</linearGradient>
<linearGradient id="paint2_linear" x1="616.5" y1="53" x2="616.5" y2="295" gradientUnits="userSpaceOnUse">
<stop stop-color="#66C4EC"/>
<stop offset="1" stop-color="#5353EC"/>
</linearGradient>
<clipPath id="clip0">
<rect width="1200" height="628" fill="white"/>
</clipPath>
</defs>
</svg>
