<svg width="1200" height="600" viewBox="0 0 1200 600" fill="none" xmlns="http://www.w3.org/2000/svg">
<g clip-path="url(#clip0)">
<rect width="1270" height="520" fill="url(#paint0_linear)"/>
<rect width="1270" height="520" fill="#FCFCFC"/>
<rect y="520" width="1200" height="80" fill="black"/>
<path d="M261.825 574L263.984 567.366H274.481L276.64 574H283.231L273.202 544.909H265.276L255.234 574H261.825ZM265.546 562.565L269.126 551.557H269.353L272.933 562.565H265.546ZM303.425 552.182H297.019L292.502 567.793H292.275L287.743 552.182H281.351L288.979 574H295.797L303.425 552.182ZM311.318 574.412C314.543 574.412 316.631 573.006 317.696 570.974H317.867V574H323.605V559.284C323.605 554.085 319.202 551.898 314.344 551.898C309.117 551.898 305.679 554.398 304.841 558.375L310.438 558.83C310.85 557.381 312.142 556.315 314.316 556.315C316.375 556.315 317.554 557.352 317.554 559.142V559.227C317.554 560.634 316.063 560.818 312.27 561.188C307.952 561.585 304.074 563.034 304.074 567.906C304.074 572.224 307.156 574.412 311.318 574.412ZM313.051 570.236C311.191 570.236 309.855 569.369 309.855 567.707C309.855 566.003 311.262 565.165 313.392 564.866C314.713 564.682 316.872 564.369 317.597 563.886V566.202C317.597 568.489 315.708 570.236 313.051 570.236ZM327.5 574H333.551V552.182H327.5V574ZM330.54 549.369C332.344 549.369 333.821 547.991 333.821 546.301C333.821 544.625 332.344 543.247 330.54 543.247C328.75 543.247 327.273 544.625 327.273 546.301C327.273 547.991 328.75 549.369 330.54 549.369ZM343.65 544.909H337.598V574H343.65V544.909ZM353.918 574.412C357.143 574.412 359.231 573.006 360.296 570.974H360.467V574H366.205V559.284C366.205 554.085 361.802 551.898 356.944 551.898C351.717 551.898 348.279 554.398 347.441 558.375L353.038 558.83C353.45 557.381 354.742 556.315 356.916 556.315C358.975 556.315 360.154 557.352 360.154 559.142V559.227C360.154 560.634 358.663 560.818 354.87 561.188C350.552 561.585 346.674 563.034 346.674 567.906C346.674 572.224 349.756 574.412 353.918 574.412ZM355.651 570.236C353.791 570.236 352.455 569.369 352.455 567.707C352.455 566.003 353.862 565.165 355.992 564.866C357.313 564.682 359.472 564.369 360.197 563.886V566.202C360.197 568.489 358.308 570.236 355.651 570.236ZM370.214 574H376.179V570.506H376.449C377.287 572.324 379.12 574.355 382.643 574.355C387.614 574.355 391.492 570.42 391.492 563.119C391.492 555.619 387.444 551.898 382.657 551.898C379.006 551.898 377.259 554.071 376.449 555.847H376.265V544.909H370.214V574ZM376.137 563.091C376.137 559.199 377.785 556.713 380.725 556.713C383.722 556.713 385.313 559.312 385.313 563.091C385.313 566.898 383.694 569.54 380.725 569.54C377.813 569.54 376.137 566.983 376.137 563.091ZM400.781 544.909H394.73V574H400.781V544.909ZM414.771 574.426C420.169 574.426 423.805 571.798 424.658 567.75L419.061 567.381C418.45 569.043 416.888 569.909 414.871 569.909C411.845 569.909 409.928 567.906 409.928 564.653V564.639H424.785V562.977C424.785 555.562 420.297 551.898 414.53 551.898C408.109 551.898 403.947 556.457 403.947 563.19C403.947 570.108 408.053 574.426 414.771 574.426ZM409.928 560.889C410.055 558.403 411.945 556.415 414.629 556.415C417.257 556.415 419.075 558.29 419.089 560.889H409.928ZM448.125 552.182H443.793V550.719C443.793 549.241 444.389 548.375 446.165 548.375C446.889 548.375 447.628 548.531 448.111 548.688L449.176 544.142C448.423 543.915 446.761 543.545 444.901 543.545C440.796 543.545 437.742 545.861 437.742 550.605V552.182H434.659V556.727H437.742V574H443.793V556.727H448.125V552.182ZM451.022 574H457.073V561.656C457.073 558.972 459.033 557.125 461.704 557.125C462.542 557.125 463.692 557.267 464.26 557.452V552.082C463.721 551.955 462.968 551.869 462.357 551.869C459.914 551.869 457.911 553.29 457.116 555.989H456.888V552.182H451.022V574ZM475.517 574.426C480.914 574.426 484.551 571.798 485.403 567.75L479.806 567.381C479.196 569.043 477.633 569.909 475.616 569.909C472.59 569.909 470.673 567.906 470.673 564.653V564.639H485.531V562.977C485.531 555.562 481.042 551.898 475.275 551.898C468.855 551.898 464.693 556.457 464.693 563.19C464.693 570.108 468.798 574.426 475.517 574.426ZM470.673 560.889C470.801 558.403 472.69 556.415 475.375 556.415C478.002 556.415 479.821 558.29 479.835 560.889H470.673ZM498.623 574.426C504.021 574.426 507.657 571.798 508.509 567.75L502.913 567.381C502.302 569.043 500.739 569.909 498.722 569.909C495.697 569.909 493.779 567.906 493.779 564.653V564.639H508.637V562.977C508.637 555.562 504.148 551.898 498.381 551.898C491.961 551.898 487.799 556.457 487.799 563.19C487.799 570.108 491.904 574.426 498.623 574.426ZM493.779 560.889C493.907 558.403 495.796 556.415 498.481 556.415C501.109 556.415 502.927 558.29 502.941 560.889H493.779ZM531.977 552.182H527.644V550.719C527.644 549.241 528.241 548.375 530.016 548.375C530.741 548.375 531.479 548.531 531.962 548.688L533.028 544.142C532.275 543.915 530.613 543.545 528.752 543.545C524.647 543.545 521.593 545.861 521.593 550.605V552.182H518.511V556.727H521.593V574H527.644V556.727H531.977V552.182ZM543.95 574.426C550.569 574.426 554.689 569.895 554.689 563.176C554.689 556.415 550.569 551.898 543.95 551.898C537.331 551.898 533.211 556.415 533.211 563.176C533.211 569.895 537.331 574.426 543.95 574.426ZM543.979 569.739C540.925 569.739 539.362 566.94 539.362 563.134C539.362 559.327 540.925 556.514 543.979 556.514C546.976 556.514 548.538 559.327 548.538 563.134C548.538 566.94 546.976 569.739 543.979 569.739ZM557.823 574H563.875V561.656C563.875 558.972 565.835 557.125 568.505 557.125C569.343 557.125 570.494 557.267 571.062 557.452V552.082C570.522 551.955 569.769 551.869 569.159 551.869C566.715 551.869 564.713 553.29 563.917 555.989H563.69V552.182H557.823V574ZM582.318 574.426C587.716 574.426 591.352 571.798 592.204 567.75L586.608 567.381C585.997 569.043 584.435 569.909 582.418 569.909C579.392 569.909 577.474 567.906 577.474 564.653V564.639H592.332V562.977C592.332 555.562 587.844 551.898 582.077 551.898C575.656 551.898 571.494 556.457 571.494 563.19C571.494 570.108 575.599 574.426 582.318 574.426ZM577.474 560.889C577.602 558.403 579.491 556.415 582.176 556.415C584.804 556.415 586.622 558.29 586.636 560.889H577.474ZM615.197 552.182H608.791L604.274 567.793H604.047L599.515 552.182H593.123L600.751 574H607.569L615.197 552.182ZM626.695 574.426C632.092 574.426 635.729 571.798 636.581 567.75L630.984 567.381C630.374 569.043 628.811 569.909 626.794 569.909C623.769 569.909 621.851 567.906 621.851 564.653V564.639H636.709V562.977C636.709 555.562 632.22 551.898 626.453 551.898C620.033 551.898 615.871 556.457 615.871 563.19C615.871 570.108 619.976 574.426 626.695 574.426ZM621.851 560.889C621.979 558.403 623.868 556.415 626.553 556.415C629.18 556.415 630.999 558.29 631.013 560.889H621.851ZM639.858 574H645.909V561.656C645.909 558.972 647.869 557.125 650.54 557.125C651.378 557.125 652.528 557.267 653.096 557.452V552.082C652.557 551.955 651.804 551.869 651.193 551.869C648.75 551.869 646.747 553.29 645.952 555.989H645.724V552.182H639.858V574ZM670.104 574.412C673.329 574.412 675.417 573.006 676.482 570.974H676.653V574H682.391V559.284C682.391 554.085 677.988 551.898 673.13 551.898C667.903 551.898 664.465 554.398 663.627 558.375L669.224 558.83C669.636 557.381 670.928 556.315 673.102 556.315C675.161 556.315 676.34 557.352 676.34 559.142V559.227C676.34 560.634 674.849 560.818 671.056 561.188C666.738 561.585 662.86 563.034 662.86 567.906C662.86 572.224 665.942 574.412 670.104 574.412ZM671.837 570.236C669.977 570.236 668.641 569.369 668.641 567.707C668.641 566.003 670.048 565.165 672.178 564.866C673.499 564.682 675.658 564.369 676.383 563.886V566.202C676.383 568.489 674.494 570.236 671.837 570.236ZM697.891 552.182H693.786V546.955H687.735V552.182H684.752V556.727H687.735V568.091C687.706 572.366 690.618 574.483 695.007 574.298C696.57 574.241 697.678 573.929 698.289 573.73L697.337 569.227C697.039 569.284 696.4 569.426 695.831 569.426C694.624 569.426 693.786 568.972 693.786 567.295V556.727H697.891V552.182ZM727.644 558.403C727.104 554.384 723.866 551.898 718.354 551.898C712.772 551.898 709.093 554.483 709.107 558.688C709.093 561.955 711.153 564.071 715.414 564.923L719.192 565.676C721.096 566.06 721.962 566.756 721.991 567.849C721.962 569.142 720.556 570.065 718.439 570.065C716.28 570.065 714.846 569.142 714.476 567.366L708.525 567.679C709.093 571.855 712.644 574.426 718.425 574.426C724.079 574.426 728.127 571.543 728.141 567.239C728.127 564.085 726.067 562.196 721.834 561.33L717.885 560.534C715.854 560.094 715.101 559.398 715.116 558.347C715.101 557.04 716.579 556.188 718.454 556.188C720.556 556.188 721.806 557.338 722.104 558.744L727.644 558.403ZM731.151 574H737.203V552.182H731.151V574ZM734.191 549.369C735.995 549.369 737.473 547.991 737.473 546.301C737.473 544.625 735.995 543.247 734.191 543.247C732.401 543.247 730.924 544.625 730.924 546.301C730.924 547.991 732.401 549.369 734.191 549.369ZM747.301 561.386C747.315 558.574 748.991 556.926 751.435 556.926C753.864 556.926 755.327 558.517 755.312 561.188V574H761.364V560.108C761.364 555.023 758.381 551.898 753.835 551.898C750.597 551.898 748.253 553.489 747.273 556.031H747.017V552.182H741.25V574H747.301V561.386ZM775.162 582.494C781.398 582.494 785.83 579.653 785.83 574.213V552.182H779.821V555.847H779.594C778.784 554.071 777.009 551.898 773.358 551.898C768.571 551.898 764.523 555.619 764.523 563.048C764.523 570.307 768.458 573.688 773.373 573.688C776.853 573.688 778.799 571.94 779.594 570.136H779.85V574.128C779.85 576.983 777.932 578.148 775.304 578.148C772.634 578.148 771.284 576.983 770.787 575.804L765.191 576.557C765.915 579.852 769.282 582.494 775.162 582.494ZM775.29 569.142C772.321 569.142 770.702 566.784 770.702 563.02C770.702 559.312 772.293 556.713 775.29 556.713C778.23 556.713 779.878 559.199 779.878 563.02C779.878 566.869 778.202 569.142 775.29 569.142ZM795.896 544.909H789.845V574H795.896V544.909ZM809.887 574.426C815.285 574.426 818.921 571.798 819.773 567.75L814.177 567.381C813.566 569.043 812.003 569.909 809.986 569.909C806.961 569.909 805.043 567.906 805.043 564.653V564.639H819.901V562.977C819.901 555.562 815.412 551.898 809.645 551.898C803.225 551.898 799.063 556.457 799.063 563.19C799.063 570.108 803.168 574.426 809.887 574.426ZM805.043 560.889C805.171 558.403 807.06 556.415 809.745 556.415C812.373 556.415 814.191 558.29 814.205 560.889H805.043ZM829.101 544.909H823.05V574H829.101V544.909ZM833.148 574H839.199V552.182H833.148V574ZM836.188 549.369C837.992 549.369 839.469 547.991 839.469 546.301C839.469 544.625 837.992 543.247 836.188 543.247C834.398 543.247 832.921 544.625 832.921 546.301C832.921 547.991 834.398 549.369 836.188 549.369ZM849.298 561.386C849.312 558.574 850.988 556.926 853.431 556.926C855.86 556.926 857.324 558.517 857.309 561.188V574H863.36V560.108C863.36 555.023 860.377 551.898 855.832 551.898C852.593 551.898 850.25 553.489 849.27 556.031H849.014V552.182H843.247V574H849.298V561.386ZM867.33 574H873.381V567.068L875.014 565.207L880.966 574H888.054L879.546 561.628L887.642 552.182H880.696L873.707 560.463H873.381V544.909H867.33V574ZM893.348 574.369C895.166 574.369 896.743 572.849 896.757 570.96C896.743 569.099 895.166 567.58 893.348 567.58C891.473 567.58 889.925 569.099 889.939 570.96C889.925 572.849 891.473 574.369 893.348 574.369ZM910.783 574.426C916.593 574.426 920.243 571.017 920.527 566.003H914.817C914.462 568.332 912.928 569.639 910.854 569.639C908.027 569.639 906.195 567.267 906.195 563.091C906.195 558.972 908.041 556.614 910.854 556.614C913.07 556.614 914.49 558.077 914.817 560.25H920.527C920.272 555.207 916.451 551.898 910.755 551.898C904.135 551.898 900.044 556.486 900.044 563.176C900.044 569.81 904.064 574.426 910.783 574.426ZM933.459 574.426C940.079 574.426 944.198 569.895 944.198 563.176C944.198 556.415 940.079 551.898 933.459 551.898C926.84 551.898 922.721 556.415 922.721 563.176C922.721 569.895 926.84 574.426 933.459 574.426ZM933.488 569.739C930.434 569.739 928.871 566.94 928.871 563.134C928.871 559.327 930.434 556.514 933.488 556.514C936.485 556.514 938.048 559.327 938.048 563.134C938.048 566.94 936.485 569.739 933.488 569.739Z" fill="white"/>
<g filter="url(#filter0_dd)">
<path d="M347.768 82.9844H366.284C366.127 68.0234 354.213 57.9062 335.62 57.9062C317.338 57.9062 304.174 67.8672 304.291 82.75C304.252 94.8984 312.768 101.734 326.596 104.898L334.955 106.852C343.745 108.883 347.69 111.266 347.768 115.758C347.69 120.641 343.12 124.039 335.346 124.039C326.791 124.039 321.166 120.055 320.737 112.359H302.221C302.455 131.07 315.463 140.016 335.58 140.016C355.502 140.016 367.299 130.992 367.377 115.797C367.299 103.023 358.666 95.2109 342.885 91.7344L336.01 90.1719C328.745 88.6094 324.135 86.1875 324.291 81.4219C324.33 77.0469 328.08 73.8828 335.58 73.8828C343.12 73.8828 347.26 77.2812 347.768 82.9844ZM374.943 139H394.045V79H374.943V139ZM384.513 72.0078C389.943 72.0078 394.318 67.9063 394.318 62.8672C394.318 57.8281 389.943 53.7656 384.513 53.7656C379.123 53.7656 374.709 57.8281 374.709 62.8672C374.709 67.9063 379.123 72.0078 384.513 72.0078ZM423.104 104.781C423.143 97.9453 427.128 93.8828 433.182 93.8828C439.237 93.8828 442.831 97.8672 442.792 104.508V139H461.893V100.758C461.932 87.2422 453.69 78.2188 441.073 78.2188C432.206 78.2188 425.487 82.7109 422.831 90.0156H422.167V79H404.003V139H423.104V104.781ZM499.488 162.242C517.574 162.242 529.918 154 529.918 139.234V79H510.895V89.2734H510.348C508.043 83.7656 502.809 78.2188 493.355 78.2188C480.816 78.2188 469.449 87.8672 469.449 108.922C469.449 129.312 480.27 138.18 493.434 138.18C502.262 138.18 508.16 134.078 510.426 128.531H511.09V139.078C511.09 146.266 506.402 149 499.996 149C493.863 149 490.191 146.656 489.176 143.453L471.09 144.469C472.496 154.469 482.379 162.242 499.488 162.242ZM500.074 124.273C493.004 124.273 489.059 118.531 489.059 108.922C489.059 99.3516 492.965 93.1406 500.074 93.1406C507.066 93.1406 511.129 99.1953 511.129 108.922C511.129 118.57 507.027 124.273 500.074 124.273ZM558.997 59H539.896V139H558.997V59ZM597.002 140.133C612.745 140.133 623.096 132.516 625.284 120.719L607.745 120.211C606.26 124.195 602.354 126.344 597.354 126.344C590.01 126.344 585.479 121.461 585.479 114.117V113.609H625.479V108.844C625.479 89.0781 613.448 78.2188 596.416 78.2188C578.291 78.2188 566.651 90.6406 566.651 109.234C566.651 128.453 578.135 140.133 597.002 140.133ZM585.479 102.516C585.752 96.5391 590.479 92.0078 596.807 92.0078C603.096 92.0078 607.627 96.3828 607.705 102.516H585.479ZM654.468 139H707.085V123.297H673.804V59H654.468V139ZM714.895 139H733.996V79H714.895V139ZM724.465 72.0078C729.895 72.0078 734.27 67.9063 734.27 62.8672C734.27 57.8281 729.895 53.7656 724.465 53.7656C719.074 53.7656 714.66 57.8281 714.66 62.8672C714.66 67.9063 719.074 72.0078 724.465 72.0078ZM763.056 104.781C763.095 97.9453 767.079 93.8828 773.134 93.8828C779.189 93.8828 782.782 97.8672 782.743 104.508V139H801.845V100.758C801.884 87.2422 793.642 78.2188 781.025 78.2188C772.157 78.2188 765.439 82.7109 762.782 90.0156H762.118V79H743.954V139H763.056V104.781ZM811.471 139H830.573V120.992L834.44 116.305L848.737 139H870.807L848.659 105.133L869.948 79H848.307L831.432 100.484H830.573V59H811.471V139Z" fill="url(#paint1_linear)"/>
</g>
<path d="M217.661 140L223.598 121.758H252.466L258.403 140H276.528L248.95 60H227.153L199.536 140H217.661ZM227.895 108.555L237.739 78.2812H238.364L248.208 108.555H227.895ZM928.834 80H916.92V75.9766C916.92 71.9141 918.56 69.5312 923.443 69.5312C925.435 69.5312 927.466 69.9609 928.795 70.3906L931.724 57.8906C929.654 57.2656 925.084 56.25 919.966 56.25C908.677 56.25 900.279 62.6172 900.279 75.6641V80H891.802V92.5H900.279V140H916.92V92.5H928.834V80ZM961.761 141.172C979.964 141.172 991.292 128.711 991.292 110.234C991.292 91.6406 979.964 79.2188 961.761 79.2188C943.557 79.2188 932.229 91.6406 932.229 110.234C932.229 128.711 943.557 141.172 961.761 141.172ZM961.839 128.281C953.44 128.281 949.143 120.586 949.143 110.117C949.143 99.6484 953.44 91.9141 961.839 91.9141C970.081 91.9141 974.378 99.6484 974.378 110.117C974.378 120.586 970.081 128.281 961.839 128.281ZM999.912 140H1016.55V106.055C1016.55 98.6719 1021.94 93.5938 1029.29 93.5938C1031.59 93.5938 1034.76 93.9844 1036.32 94.4922V79.7266C1034.83 79.375 1032.76 79.1406 1031.08 79.1406C1024.37 79.1406 1018.86 83.0469 1016.67 90.4687H1016.04V80H999.912V140ZM368.304 262.172C383.148 262.172 393.148 254.945 395.492 243.812L380.101 242.797C378.421 247.367 374.125 249.75 368.578 249.75C360.257 249.75 354.984 244.242 354.984 235.297V235.258H395.843V230.687C395.843 210.297 383.5 200.219 367.64 200.219C349.984 200.219 338.539 212.758 338.539 231.273C338.539 250.297 349.828 262.172 368.304 262.172ZM354.984 224.945C355.336 218.109 360.531 212.641 367.914 212.641C375.14 212.641 380.14 217.797 380.179 224.945H354.984ZM458.721 201H441.104L428.682 243.93H428.057L415.596 201H398.018L418.995 261H437.745L458.721 201ZM490.34 262.172C505.184 262.172 515.184 254.945 517.527 243.812L502.137 242.797C500.457 247.367 496.16 249.75 490.613 249.75C482.293 249.75 477.02 244.242 477.02 235.297V235.258H517.879V230.687C517.879 210.297 505.535 200.219 489.676 200.219C472.02 200.219 460.574 212.758 460.574 231.273C460.574 250.297 471.863 262.172 490.34 262.172ZM477.02 224.945C477.371 218.109 482.566 212.641 489.949 212.641C497.176 212.641 502.176 217.797 502.215 224.945H477.02ZM526.538 261H543.179V227.055C543.179 219.672 548.57 214.594 555.913 214.594C558.218 214.594 561.382 214.984 562.945 215.492V200.727C561.46 200.375 559.39 200.141 557.71 200.141C550.991 200.141 545.484 204.047 543.296 211.469H542.671V201H526.538V261ZM581.448 283.383C593.83 283.383 600.432 277.094 603.791 267.484L627.112 201.078L609.495 201L596.955 245.062H596.33L583.909 201H566.409L587.932 262.719L586.955 265.258C584.612 270.688 580.588 271.078 574.729 269.242L570.979 281.703C573.362 282.68 577.229 283.383 581.448 283.383ZM665.341 201H654.052V186.625H637.412V201H629.209V213.5H637.412V244.75C637.334 256.508 645.341 262.328 657.412 261.82C661.709 261.664 664.755 260.805 666.435 260.258L663.818 247.875C662.998 248.031 661.24 248.422 659.677 248.422C656.357 248.422 654.052 247.172 654.052 242.562V213.5H665.341V201ZM691.911 226.313C691.95 218.578 696.677 214.047 703.473 214.047C710.231 214.047 714.216 218.383 714.177 225.766V261H730.817V222.797C730.856 208.734 722.575 200.219 710.075 200.219C700.973 200.219 694.88 204.516 692.145 211.586H691.442V181H675.27V261H691.911V226.313ZM741.713 261H758.354V201H741.713V261ZM750.072 193.266C755.033 193.266 759.096 189.477 759.096 184.828C759.096 180.219 755.033 176.43 750.072 176.43C745.15 176.43 741.088 180.219 741.088 184.828C741.088 189.477 745.15 193.266 750.072 193.266ZM786.124 226.313C786.163 218.578 790.773 214.047 797.491 214.047C804.171 214.047 808.195 218.422 808.155 225.766V261H824.796V222.797C824.796 208.812 816.593 200.219 804.093 200.219C795.187 200.219 788.741 204.594 786.046 211.586H785.343V201H769.484V261H786.124V226.313ZM862.743 284.359C879.891 284.359 892.078 276.547 892.078 261.586V201H875.555V211.078H874.93C872.703 206.195 867.821 200.219 857.782 200.219C844.618 200.219 833.485 210.453 833.485 230.883C833.485 250.844 844.305 260.141 857.821 260.141C867.391 260.141 872.743 255.336 874.93 250.375H875.633V261.352C875.633 269.203 870.36 272.406 863.133 272.406C855.789 272.406 852.078 269.203 850.711 265.961L835.321 268.031C837.313 277.094 846.571 284.359 862.743 284.359ZM863.094 247.641C854.93 247.641 850.477 241.156 850.477 230.805C850.477 220.609 854.852 213.461 863.094 213.461C871.18 213.461 875.711 220.297 875.711 230.805C875.711 241.391 871.102 247.641 863.094 247.641Z" fill="black" fill-opacity="0.95"/>
<path d="M347.734 83.9844H366.249C366.093 69.0234 354.179 58.9062 335.585 58.9062C317.304 58.9062 304.14 68.8672 304.257 83.75C304.218 95.8984 312.734 102.734 326.562 105.898L334.921 107.852C343.71 109.883 347.655 112.266 347.734 116.758C347.655 121.641 343.085 125.039 335.312 125.039C326.757 125.039 321.132 121.055 320.702 113.359H302.187C302.421 132.07 315.429 141.016 335.546 141.016C355.468 141.016 367.265 131.992 367.343 116.797C367.265 104.023 358.632 96.2109 342.851 92.7344L335.976 91.1719C328.71 89.6094 324.101 87.1875 324.257 82.4219C324.296 78.0469 328.046 74.8828 335.546 74.8828C343.085 74.8828 347.226 78.2812 347.734 83.9844ZM374.909 140H394.01V80H374.909V140ZM384.479 73.0078C389.909 73.0078 394.284 68.9063 394.284 63.8672C394.284 58.8281 389.909 54.7656 384.479 54.7656C379.088 54.7656 374.674 58.8281 374.674 63.8672C374.674 68.9063 379.088 73.0078 384.479 73.0078ZM423.07 105.781C423.109 98.9453 427.093 94.8828 433.148 94.8828C439.203 94.8828 442.797 98.8672 442.757 105.508V140H461.859V101.758C461.898 88.2422 453.656 79.2188 441.039 79.2188C432.172 79.2188 425.453 83.7109 422.797 91.0156H422.132V80H403.968V140H423.07V105.781ZM499.454 163.242C517.54 163.242 529.884 155 529.884 140.234V80H510.86V90.2734H510.313C508.009 84.7656 502.774 79.2188 493.321 79.2188C480.782 79.2188 469.415 88.8672 469.415 109.922C469.415 130.312 480.235 139.18 493.399 139.18C502.227 139.18 508.126 135.078 510.391 129.531H511.055V140.078C511.055 147.266 506.368 150 499.962 150C493.829 150 490.157 147.656 489.141 144.453L471.055 145.469C472.462 155.469 482.345 163.242 499.454 163.242ZM500.04 125.273C492.97 125.273 489.024 119.531 489.024 109.922C489.024 100.352 492.93 94.1406 500.04 94.1406C507.032 94.1406 511.095 100.195 511.095 109.922C511.095 119.57 506.993 125.273 500.04 125.273ZM558.963 60H539.861V140H558.963V60ZM596.968 141.133C612.71 141.133 623.062 133.516 625.249 121.719L607.71 121.211C606.226 125.195 602.32 127.344 597.32 127.344C589.976 127.344 585.445 122.461 585.445 115.117V114.609H625.445V109.844C625.445 90.0781 613.413 79.2188 596.382 79.2188C578.257 79.2188 566.616 91.6406 566.616 110.234C566.616 129.453 578.101 141.133 596.968 141.133ZM585.445 103.516C585.718 97.5391 590.445 93.0078 596.773 93.0078C603.062 93.0078 607.593 97.3828 607.671 103.516H585.445ZM654.433 140H707.05V124.297H673.769V60H654.433V140ZM714.86 140H733.962V80H714.86V140ZM724.43 73.0078C729.86 73.0078 734.235 68.9063 734.235 63.8672C734.235 58.8281 729.86 54.7656 724.43 54.7656C719.04 54.7656 714.626 58.8281 714.626 63.8672C714.626 68.9063 719.04 73.0078 724.43 73.0078ZM763.021 105.781C763.061 98.9453 767.045 94.8828 773.1 94.8828C779.154 94.8828 782.748 98.8672 782.709 105.508V140H801.811V101.758C801.85 88.2422 793.607 79.2188 780.99 79.2188C772.123 79.2188 765.404 83.7109 762.748 91.0156H762.084V80H743.92V140H763.021V105.781ZM811.437 140H830.538V121.992L834.405 117.305L848.702 140H870.773L848.624 106.133L869.913 80H848.273L831.398 101.484H830.538V60H811.437V140Z" fill="url(#paint2_linear)"/>
<path d="M177.935 321.158H189.174V352H195.708V321.158H206.948V315.636H177.935V321.158ZM217.684 336.02C217.684 332.078 220.134 329.805 223.579 329.805C226.953 329.805 228.941 331.954 228.941 335.629V352H235.369V334.635C235.369 328.048 231.64 324.372 225.976 324.372C221.786 324.372 219.122 326.272 217.862 329.362H217.542V315.636H211.257V352H217.684V336.02ZM252.995 352.533C259.351 352.533 263.719 349.425 264.855 344.685L258.854 344.01C257.984 346.318 255.853 347.526 253.083 347.526C248.929 347.526 246.176 344.791 246.123 340.121H265.122V338.151C265.122 328.58 259.369 324.372 252.657 324.372C244.845 324.372 239.749 330.107 239.749 338.523C239.749 347.082 244.774 352.533 252.995 352.533ZM246.141 335.789C246.336 332.309 248.911 329.379 252.746 329.379C256.439 329.379 258.925 332.078 258.96 335.789H246.141ZM294.776 324.727H289.112V322.579C289.112 320.448 289.999 319.259 292.396 319.259C293.408 319.259 294.261 319.489 294.793 319.649L296.09 314.678C295.255 314.393 293.426 313.932 291.207 313.932C286.466 313.932 282.684 316.648 282.684 322.153V324.727H278.653V329.699H282.684V352H289.112V329.699H294.776V324.727ZM298.809 352H305.237V335.967C305.237 332.504 307.847 330.054 311.38 330.054C312.464 330.054 313.813 330.249 314.363 330.427V324.514C313.777 324.408 312.765 324.337 312.055 324.337C308.93 324.337 306.32 326.112 305.326 329.273H305.042V324.727H298.809V352ZM328.584 352.533C334.941 352.533 339.309 349.425 340.445 344.685L334.444 344.01C333.574 346.318 331.443 347.526 328.673 347.526C324.518 347.526 321.766 344.791 321.713 340.121H340.712V338.151C340.712 328.58 334.959 324.372 328.247 324.372C320.435 324.372 315.339 330.107 315.339 338.523C315.339 347.082 320.364 352.533 328.584 352.533ZM321.731 335.789C321.926 332.309 324.501 329.379 328.336 329.379C332.029 329.379 334.515 332.078 334.55 335.789H321.731ZM357.223 352.533C363.58 352.533 367.948 349.425 369.084 344.685L363.082 344.01C362.212 346.318 360.082 347.526 357.312 347.526C353.157 347.526 350.405 344.791 350.352 340.121H369.35V338.151C369.35 328.58 363.597 324.372 356.886 324.372C349.073 324.372 343.977 330.107 343.977 338.523C343.977 347.082 349.002 352.533 357.223 352.533ZM350.369 335.789C350.565 332.309 353.139 329.379 356.975 329.379C360.668 329.379 363.153 332.078 363.189 335.789H350.369ZM396.057 352.533C399.271 352.533 402.839 351.538 405.378 349.337L407.704 352H414.665L409.338 345.768C411.114 343.388 412.498 339.855 412.498 334.866H406.976C406.976 337.263 406.408 339.411 405.449 341.205L398.809 333.428L401.099 331.741C404.136 329.539 405.929 326.893 405.929 323.449C405.929 319.01 402.431 315.192 396.696 315.192C390.943 315.192 387.161 319.01 387.161 324.177C387.161 327.426 388.795 330.072 390.89 332.664C386.842 335.452 384.072 338.062 384.072 342.341C384.072 348.129 388.617 352.533 396.057 352.533ZM401.881 345.324C400.158 346.567 398.187 347.241 396.252 347.241C392.683 347.241 390.375 344.933 390.375 342.057C390.375 340.796 391.334 338.896 393.748 337.121L394.334 336.695L401.881 345.324ZM395.524 329.504C393.997 327.621 392.896 325.935 392.896 324.266C392.896 322.295 394.459 320.466 396.785 320.466C399.075 320.466 400.478 322.17 400.478 323.733C400.478 325.58 399.484 326.876 397.584 328.101L395.524 329.504ZM428.747 352H435.174V324.727H428.747V352ZM431.978 320.857C434.02 320.857 435.689 319.294 435.689 317.376C435.689 315.441 434.02 313.879 431.978 313.879C429.919 313.879 428.25 315.441 428.25 317.376C428.25 319.294 429.919 320.857 431.978 320.857ZM440.784 352H447.212V335.416C447.212 332.06 449.449 329.788 452.219 329.788C454.935 329.788 456.8 331.616 456.8 334.422V352H463.103V334.99C463.103 331.918 464.932 329.788 468.039 329.788C470.631 329.788 472.691 331.315 472.691 334.688V352H479.136V333.694C479.136 327.604 475.621 324.372 470.614 324.372C466.654 324.372 463.636 326.325 462.428 329.362H462.144C461.097 326.272 458.451 324.372 454.775 324.372C451.118 324.372 448.383 326.254 447.247 329.362H446.927V324.727H440.784V352ZM484.657 362.227H491.085V347.703H491.351C492.363 349.692 494.476 352.479 499.163 352.479C505.591 352.479 510.403 347.384 510.403 338.399C510.403 329.308 505.449 324.372 499.146 324.372C494.334 324.372 492.328 327.266 491.351 329.237H490.978V324.727H484.657V362.227ZM490.96 338.364C490.96 333.072 493.233 329.646 497.37 329.646C501.649 329.646 503.851 333.286 503.851 338.364C503.851 343.477 501.614 347.206 497.37 347.206C493.269 347.206 490.96 343.655 490.96 338.364ZM514.907 352H521.335V335.967C521.335 332.504 523.945 330.054 527.478 330.054C528.561 330.054 529.911 330.249 530.461 330.427V324.514C529.875 324.408 528.863 324.337 528.153 324.337C525.028 324.337 522.418 326.112 521.423 329.273H521.139V324.727H514.907V352ZM544.505 352.533C552.495 352.533 557.573 346.904 557.573 338.47C557.573 330.018 552.495 324.372 544.505 324.372C536.514 324.372 531.436 330.018 531.436 338.47C531.436 346.904 536.514 352.533 544.505 352.533ZM544.54 347.384C540.119 347.384 537.953 343.442 537.953 338.452C537.953 333.463 540.119 329.468 544.54 329.468C548.89 329.468 551.056 333.463 551.056 338.452C551.056 343.442 548.89 347.384 544.54 347.384ZM585.461 324.727H578.625L572.34 344.987H572.056L565.788 324.727H558.934L568.647 352H575.749L585.461 324.727ZM600.055 352.533C606.412 352.533 610.78 349.425 611.916 344.685L605.915 344.01C605.044 346.318 602.914 347.526 600.144 347.526C595.989 347.526 593.237 344.791 593.184 340.121H612.182V338.151C612.182 328.58 606.429 324.372 599.718 324.372C591.905 324.372 586.809 330.107 586.809 338.523C586.809 347.082 591.834 352.533 600.055 352.533ZM593.201 335.789C593.397 332.309 595.971 329.379 599.807 329.379C603.5 329.379 605.986 332.078 606.021 335.789H593.201ZM626.741 352.479C631.428 352.479 633.541 349.692 634.553 347.703H634.944V352H641.265V315.636H634.82V329.237H634.553C633.577 327.266 631.57 324.372 626.758 324.372C620.455 324.372 615.501 329.308 615.501 338.399C615.501 347.384 620.313 352.479 626.741 352.479ZM628.534 347.206C624.29 347.206 622.053 343.477 622.053 338.364C622.053 333.286 624.255 329.646 628.534 329.646C632.671 329.646 634.944 333.072 634.944 338.364C634.944 343.655 632.636 347.206 628.534 347.206ZM664.944 315.636H658.516V352H664.944V315.636ZM670.554 352H676.981V324.727H670.554V352ZM673.785 320.857C675.827 320.857 677.496 319.294 677.496 317.376C677.496 315.441 675.827 313.879 673.785 313.879C671.725 313.879 670.056 315.441 670.056 317.376C670.056 319.294 671.725 320.857 673.785 320.857ZM689.018 336.02C689.018 332.078 691.397 329.805 694.789 329.805C698.109 329.805 700.098 331.989 700.098 335.629V352H706.525V334.635C706.543 328.101 702.814 324.372 697.186 324.372C693.102 324.372 690.297 326.325 689.054 329.362H688.734V324.727H682.591V352H689.018V336.02ZM712.059 352H718.487V342.838L720.831 340.335L729.176 352H736.864L725.678 336.499L736.243 324.727H728.732L718.931 335.683H718.487V315.636H712.059V352ZM751.213 352H757.534V347.703H757.907C758.919 349.692 761.032 352.479 765.719 352.479C772.147 352.479 776.958 347.384 776.958 338.399C776.958 329.308 772.005 324.372 765.701 324.372C760.889 324.372 758.883 327.266 757.907 329.237H757.64V315.636H751.213V352ZM757.516 338.364C757.516 333.072 759.789 329.646 763.926 329.646C768.205 329.646 770.407 333.286 770.407 338.364C770.407 343.477 768.169 347.206 763.926 347.206C759.824 347.206 757.516 343.655 757.516 338.364ZM798.805 340.53C798.805 344.685 795.84 346.744 792.999 346.744C789.91 346.744 787.85 344.56 787.85 341.098V324.727H781.423V342.092C781.423 348.644 785.151 352.355 790.514 352.355C794.597 352.355 797.474 350.207 798.717 347.153H799.001V352H805.233V324.727H798.805V340.53ZM810.843 352H817.27V324.727H810.843V352ZM814.074 320.857C816.116 320.857 817.785 319.294 817.785 317.376C817.785 315.441 816.116 313.879 814.074 313.879C812.014 313.879 810.345 315.441 810.345 317.376C810.345 319.294 812.014 320.857 814.074 320.857ZM829.307 315.636H822.88V352H829.307V315.636ZM845.038 352.479C849.725 352.479 851.838 349.692 852.85 347.703H853.241V352H859.562V315.636H853.116V329.237H852.85C851.873 327.266 849.867 324.372 845.055 324.372C838.752 324.372 833.798 329.308 833.798 338.399C833.798 347.384 838.61 352.479 845.038 352.479ZM846.831 347.206C842.587 347.206 840.35 343.477 840.35 338.364C840.35 333.286 842.552 329.646 846.831 329.646C850.968 329.646 853.241 333.072 853.241 338.364C853.241 343.655 850.932 347.206 846.831 347.206ZM877.485 352.533C883.841 352.533 888.209 349.425 889.346 344.685L883.344 344.01C882.474 346.318 880.343 347.526 877.574 347.526C873.419 347.526 870.667 344.791 870.613 340.121H889.612V338.151C889.612 328.58 883.859 324.372 877.147 324.372C869.335 324.372 864.239 330.107 864.239 338.523C864.239 347.082 869.264 352.533 877.485 352.533ZM870.631 335.789C870.826 332.309 873.401 329.379 877.236 329.379C880.929 329.379 883.415 332.078 883.451 335.789H870.631ZM894.05 352H900.477V335.967C900.477 332.504 903.087 330.054 906.621 330.054C907.704 330.054 909.053 330.249 909.604 330.427V324.514C909.018 324.408 908.006 324.337 907.295 324.337C904.17 324.337 901.56 326.112 900.566 329.273H900.282V324.727H894.05V352ZM937.895 324.727H932.515V318.193H926.087V324.727H922.217V329.699H926.087V344.862C926.052 349.994 929.78 352.515 934.61 352.373C936.439 352.32 937.699 351.964 938.392 351.734L937.309 346.709C936.954 346.798 936.226 346.957 935.427 346.957C933.811 346.957 932.515 346.389 932.515 343.797V329.699H937.895V324.727ZM953.874 352.533C961.864 352.533 966.942 346.904 966.942 338.47C966.942 330.018 961.864 324.372 953.874 324.372C945.884 324.372 940.805 330.018 940.805 338.47C940.805 346.904 945.884 352.533 953.874 352.533ZM953.909 347.384C949.488 347.384 947.322 343.442 947.322 338.452C947.322 333.463 949.488 329.468 953.909 329.468C958.259 329.468 960.426 333.463 960.426 338.452C960.426 343.442 958.259 347.384 953.909 347.384ZM983.294 352.533C991.284 352.533 996.362 346.904 996.362 338.47C996.362 330.018 991.284 324.372 983.294 324.372C975.304 324.372 970.225 330.018 970.225 338.47C970.225 346.904 975.304 352.533 983.294 352.533ZM983.329 347.384C978.908 347.384 976.742 343.442 976.742 338.452C976.742 333.463 978.908 329.468 983.329 329.468C987.679 329.468 989.845 333.463 989.845 338.452C989.845 343.442 987.679 347.384 983.329 347.384ZM1007.24 315.636H1000.82V352H1007.24V315.636ZM1016.81 352.391C1018.91 352.391 1020.7 350.651 1020.72 348.484C1020.7 346.354 1018.91 344.614 1016.81 344.614C1014.65 344.614 1012.89 346.354 1012.91 348.484C1012.89 350.651 1014.65 352.391 1016.81 352.391Z" fill="black" fill-opacity="0.75"/>
<g filter="url(#filter1_d)">
<rect x="270" y="390" width="661" height="92" rx="10" fill="#5353EC"/>
</g>
<path d="M319.318 449H330.504C336.384 449 339.517 445.932 339.517 441.764C339.517 437.891 336.742 435.551 333.764 435.411V435.155C336.487 434.541 338.494 432.611 338.494 429.53C338.494 425.605 335.579 422.818 329.801 422.818H319.318V449ZM324.853 444.474V437.52H329.494C332.153 437.52 333.802 439.054 333.802 441.214C333.802 443.183 332.46 444.474 329.366 444.474H324.853ZM324.853 433.774V427.293H329.059C331.514 427.293 332.907 428.558 332.907 430.45C332.907 432.521 331.22 433.774 328.957 433.774H324.853ZM354.889 440.639C354.901 443.273 353.099 444.653 351.143 444.653C349.085 444.653 347.755 443.209 347.742 440.895V429.364H342.296V441.866C342.309 446.456 344.994 449.256 348.944 449.256C351.897 449.256 354.019 447.734 354.901 445.433H355.106V449H360.335V429.364H354.889V440.639ZM363.971 449H369.417V429.364H363.971V449ZM366.707 426.832C368.33 426.832 369.66 425.592 369.66 424.071C369.66 422.562 368.33 421.322 366.707 421.322C365.096 421.322 363.766 422.562 363.766 424.071C363.766 425.592 365.096 426.832 366.707 426.832ZM378.505 422.818H373.059V449H378.505V422.818ZM389.384 449.32C392.554 449.32 394.203 447.491 394.958 445.855H395.188V449H400.557V422.818H395.124V432.662H394.958C394.229 431.064 392.656 429.108 389.371 429.108C385.063 429.108 381.419 432.457 381.419 439.207C381.419 445.778 384.909 449.32 389.384 449.32ZM391.11 444.986C388.438 444.986 386.98 442.608 386.98 439.182C386.98 435.781 388.412 433.442 391.11 433.442C393.756 433.442 395.239 435.679 395.239 439.182C395.239 442.685 393.73 444.986 391.11 444.986ZM410.495 422.818L420.045 439.744V449H425.542V439.744L435.091 422.818H428.891L422.921 434.094H422.665L416.695 422.818H410.495ZM442.087 449.384C448.044 449.384 451.751 445.305 451.751 439.259C451.751 433.173 448.044 429.108 442.087 429.108C436.129 429.108 432.422 433.173 432.422 439.259C432.422 445.305 436.129 449.384 442.087 449.384ZM442.112 445.165C439.364 445.165 437.957 442.646 437.957 439.22C437.957 435.794 439.364 433.263 442.112 433.263C444.81 433.263 446.216 435.794 446.216 439.22C446.216 442.646 444.81 445.165 442.112 445.165ZM467.165 440.639C467.178 443.273 465.375 444.653 463.419 444.653C461.361 444.653 460.031 443.209 460.019 440.895V429.364H454.573V441.866C454.585 446.456 457.27 449.256 461.22 449.256C464.173 449.256 466.296 447.734 467.178 445.433H467.382V449H472.611V429.364H467.165V440.639ZM476.247 449H481.693V437.891C481.693 435.474 483.457 433.812 485.861 433.812C486.615 433.812 487.651 433.94 488.162 434.107V429.274C487.676 429.159 486.999 429.082 486.449 429.082C484.25 429.082 482.447 430.361 481.732 432.79H481.527V429.364H476.247V449ZM497.972 449H503.507V438.185H514.157V433.621H503.507V427.382H515.307V422.818H497.972V449ZM517.892 449H523.338V437.891C523.338 435.474 525.102 433.812 527.505 433.812C528.26 433.812 529.295 433.94 529.807 434.107V429.274C529.321 429.159 528.643 429.082 528.094 429.082C525.895 429.082 524.092 430.361 523.376 432.79H523.172V429.364H517.892V449ZM539.937 449.384C544.795 449.384 548.068 447.018 548.835 443.375L543.798 443.043C543.248 444.538 541.842 445.318 540.027 445.318C537.304 445.318 535.578 443.516 535.578 440.588V440.575H548.95V439.08C548.95 432.406 544.91 429.108 539.72 429.108C533.941 429.108 530.196 433.212 530.196 439.271C530.196 445.497 533.89 449.384 539.937 449.384ZM535.578 437.2C535.693 434.963 537.393 433.173 539.809 433.173C542.174 433.173 543.811 434.861 543.823 437.2H535.578ZM560.733 449.384C565.591 449.384 568.863 447.018 569.63 443.375L564.594 443.043C564.044 444.538 562.638 445.318 560.822 445.318C558.099 445.318 556.373 443.516 556.373 440.588V440.575H569.745V439.08C569.745 432.406 565.706 429.108 560.515 429.108C554.737 429.108 550.991 433.212 550.991 439.271C550.991 445.497 554.686 449.384 560.733 449.384ZM556.373 437.2C556.488 434.963 558.189 433.173 560.605 433.173C562.97 433.173 564.606 434.861 564.619 437.2H556.373ZM580.294 449H585.829V440.511H590.483C596.504 440.511 600.007 436.919 600.007 431.69C600.007 426.487 596.568 422.818 590.623 422.818H580.294V449ZM585.829 436.075V427.344H589.562C592.758 427.344 594.305 429.082 594.305 431.69C594.305 434.286 592.758 436.075 589.588 436.075H585.829ZM602.78 449H608.226V437.891C608.226 435.474 609.99 433.812 612.394 433.812C613.148 433.812 614.184 433.94 614.695 434.107V429.274C614.209 429.159 613.532 429.082 612.982 429.082C610.783 429.082 608.98 430.361 608.264 432.79H608.06V429.364H602.78V449ZM624.749 449.384C630.706 449.384 634.413 445.305 634.413 439.259C634.413 433.173 630.706 429.108 624.749 429.108C618.791 429.108 615.084 433.173 615.084 439.259C615.084 445.305 618.791 449.384 624.749 449.384ZM624.774 445.165C622.026 445.165 620.619 442.646 620.619 439.22C620.619 435.794 622.026 433.263 624.774 433.263C627.472 433.263 628.878 435.794 628.878 439.22C628.878 442.646 627.472 445.165 624.774 445.165ZM647.794 429.364H643.895V428.047C643.895 426.717 644.432 425.938 646.03 425.938C646.682 425.938 647.347 426.078 647.782 426.219L648.74 422.128C648.063 421.923 646.567 421.591 644.892 421.591C641.198 421.591 638.449 423.675 638.449 427.945V429.364H635.675V433.455H638.449V449H643.895V433.455H647.794V429.364ZM650.401 449H655.847V429.364H650.401V449ZM653.137 426.832C654.761 426.832 656.09 425.592 656.09 424.071C656.09 422.562 654.761 421.322 653.137 421.322C651.526 421.322 650.197 422.562 650.197 424.071C650.197 425.592 651.526 426.832 653.137 426.832ZM664.936 422.818H659.49V449H664.936V422.818ZM677.527 449.384C682.385 449.384 685.658 447.018 686.425 443.375L681.388 443.043C680.838 444.538 679.432 445.318 677.617 445.318C674.894 445.318 673.168 443.516 673.168 440.588V440.575H686.54V439.08C686.54 432.406 682.5 429.108 677.31 429.108C671.532 429.108 667.786 433.212 667.786 439.271C667.786 445.497 671.481 449.384 677.527 449.384ZM673.168 437.2C673.283 434.963 674.983 433.173 677.4 433.173C679.765 433.173 681.401 434.861 681.414 437.2H673.168ZM702.624 422.818H697.088V449H702.624V422.818ZM711.802 437.648C711.815 435.116 713.323 433.634 715.522 433.634C717.708 433.634 719.025 435.065 719.012 437.469V449H724.458V436.497C724.458 431.92 721.774 429.108 717.683 429.108C714.768 429.108 712.659 430.54 711.776 432.828H711.546V429.364H706.356V449H711.802V437.648ZM749.948 430.348H755.253C755.177 425.682 751.341 422.46 745.512 422.46C739.772 422.46 735.566 425.631 735.591 430.386C735.579 434.247 738.302 436.459 742.725 437.52L745.576 438.236C748.427 438.926 750.012 439.744 750.025 441.509C750.012 443.426 748.197 444.73 745.384 444.73C742.508 444.73 740.437 443.401 740.258 440.78H734.901C735.042 446.443 739.094 449.371 745.448 449.371C751.84 449.371 755.599 446.315 755.611 441.521C755.599 437.162 752.313 434.848 747.762 433.825L745.41 433.263C743.134 432.739 741.229 431.895 741.268 430.016C741.268 428.328 742.763 427.088 745.474 427.088C748.12 427.088 749.743 428.29 749.948 430.348ZM767.461 449.384C772.319 449.384 775.592 447.018 776.359 443.375L771.322 443.043C770.772 444.538 769.366 445.318 767.551 445.318C764.828 445.318 763.102 443.516 763.102 440.588V440.575H776.474V439.08C776.474 432.406 772.434 429.108 767.244 429.108C761.466 429.108 757.72 433.212 757.72 439.271C757.72 445.497 761.414 449.384 767.461 449.384ZM763.102 437.2C763.217 434.963 764.917 433.173 767.333 433.173C769.699 433.173 771.335 434.861 771.348 437.2H763.102ZM788.18 449.384C793.409 449.384 796.694 446.315 796.95 441.803H791.811C791.491 443.899 790.111 445.075 788.244 445.075C785.7 445.075 784.051 442.94 784.051 439.182C784.051 435.474 785.713 433.352 788.244 433.352C790.238 433.352 791.517 434.669 791.811 436.625H796.95C796.72 432.087 793.281 429.108 788.155 429.108C782.197 429.108 778.515 433.237 778.515 439.259C778.515 445.229 782.133 449.384 788.18 449.384ZM808.589 449.384C814.547 449.384 818.254 445.305 818.254 439.259C818.254 433.173 814.547 429.108 808.589 429.108C802.632 429.108 798.924 433.173 798.924 439.259C798.924 445.305 802.632 449.384 808.589 449.384ZM808.615 445.165C805.866 445.165 804.46 442.646 804.46 439.22C804.46 435.794 805.866 433.263 808.615 433.263C811.312 433.263 812.718 435.794 812.718 439.22C812.718 442.646 811.312 445.165 808.615 445.165ZM826.521 437.648C826.534 435.116 828.042 433.634 830.241 433.634C832.427 433.634 833.744 435.065 833.731 437.469V449H839.177V436.497C839.177 431.92 836.493 429.108 832.402 429.108C829.487 429.108 827.378 430.54 826.496 432.828H826.265V429.364H821.075V449H826.521V437.648ZM849.985 449.32C853.156 449.32 854.805 447.491 855.559 445.855H855.789V449H861.159V422.818H855.726V432.662H855.559C854.831 431.064 853.258 429.108 849.973 429.108C845.664 429.108 842.021 432.457 842.021 439.207C842.021 445.778 845.511 449.32 849.985 449.32ZM851.711 444.986C849.039 444.986 847.582 442.608 847.582 439.182C847.582 435.781 849.014 433.442 851.711 433.442C854.358 433.442 855.841 435.679 855.841 439.182C855.841 442.685 854.332 444.986 851.711 444.986ZM881.254 434.963C880.769 431.345 877.854 429.108 872.894 429.108C867.869 429.108 864.558 431.435 864.571 435.219C864.558 438.159 866.412 440.064 870.247 440.831L873.648 441.509C875.361 441.854 876.141 442.48 876.166 443.464C876.141 444.628 874.875 445.459 872.97 445.459C871.027 445.459 869.736 444.628 869.404 443.03L864.047 443.311C864.558 447.07 867.754 449.384 872.958 449.384C878.046 449.384 881.689 446.788 881.702 442.915C881.689 440.077 879.835 438.376 876.026 437.597L872.472 436.881C870.644 436.484 869.966 435.858 869.979 434.912C869.966 433.736 871.296 432.969 872.983 432.969C874.875 432.969 876 434.004 876.269 435.27L881.254 434.963Z" fill="white"/>
</g>
<defs>
<filter id="filter0_dd" x="202.221" y="8.76562" width="768.586" height="208.477" filterUnits="userSpaceOnUse" color-interpolation-filters="sRGB">
<feFlood flood-opacity="0" result="BackgroundImageFix"/>
<feColorMatrix in="SourceAlpha" type="matrix" values="0 0 0 0 0 0 0 0 0 0 0 0 0 0 0 0 0 0 127 0"/>
<feOffset dx="50" dy="5"/>
<feGaussianBlur stdDeviation="25"/>
<feColorMatrix type="matrix" values="0 0 0 0 0.0117647 0 0 0 0 0.823529 0 0 0 0 0.831373 0 0 0 0.25 0"/>
<feBlend mode="normal" in2="BackgroundImageFix" result="effect1_dropShadow"/>
<feColorMatrix in="SourceAlpha" type="matrix" values="0 0 0 0 0 0 0 0 0 0 0 0 0 0 0 0 0 0 127 0"/>
<feOffset dx="-50" dy="5"/>
<feGaussianBlur stdDeviation="25"/>
<feColorMatrix type="matrix" values="0 0 0 0 0.32549 0 0 0 0 0.32549 0 0 0 0 0.92549 0 0 0 0.25 0"/>
<feBlend mode="normal" in2="effect1_dropShadow" result="effect2_dropShadow"/>
<feBlend mode="normal" in="SourceGraphic" in2="effect2_dropShadow" result="shape"/>
</filter>
<filter id="filter1_d" x="245" y="367" width="711" height="142" filterUnits="userSpaceOnUse" color-interpolation-filters="sRGB">
<feFlood flood-opacity="0" result="BackgroundImageFix"/>
<feColorMatrix in="SourceAlpha" type="matrix" values="0 0 0 0 0 0 0 0 0 0 0 0 0 0 0 0 0 0 127 0"/>
<feOffset dy="2"/>
<feGaussianBlur stdDeviation="12.5"/>
<feColorMatrix type="matrix" values="0 0 0 0 0 0 0 0 0 0 0 0 0 0 0 0 0 0 0.25 0"/>
<feBlend mode="normal" in2="BackgroundImageFix" result="effect1_dropShadow"/>
<feBlend mode="normal" in="SourceGraphic" in2="effect1_dropShadow" result="shape"/>
</filter>
<linearGradient id="paint0_linear" x1="635" y1="0" x2="635" y2="520" gradientUnits="userSpaceOnUse">
<stop stop-color="#53BEEC"/>
<stop offset="1" stop-color="#5353EC"/>
</linearGradient>
<linearGradient id="paint1_linear" x1="583.5" y1="38" x2="583.5" y2="159" gradientUnits="userSpaceOnUse">
<stop stop-color="#66C4EC"/>
<stop offset="1" stop-color="#5353EC"/>
</linearGradient>
<linearGradient id="paint2_linear" x1="616.5" y1="39" x2="616.5" y2="281" gradientUnits="userSpaceOnUse">
<stop stop-color="#66C4EC"/>
<stop offset="1" stop-color="#5353EC"/>
</linearGradient>
<clipPath id="clip0">
<rect width="1200" height="600" fill="white"/>
</clipPath>
</defs>
</svg>
