<svg width="138" height="28" viewBox="0 0 138 28" fill="none" xmlns="http://www.w3.org/2000/svg">
<path d="M29.4351 17.9052C29.1815 18.3046 29.2379 18.8347 29.6207 19.1126C30.8256 19.987 32.4251 20.4466 34.149 20.4466C37.3827 20.4466 39.1488 18.838 39.1488 16.7345C39.1488 13.9134 36.5867 13.3195 34.4973 12.874C33.0794 12.5523 31.8854 12.2306 31.8854 11.315C31.8854 10.4736 32.756 9.97863 34.1241 9.97863C35.0595 9.97863 35.9362 10.2216 36.638 10.604C37.2146 10.9183 38.0252 10.8384 38.3621 10.2746V10.2746C38.6018 9.87355 38.5257 9.3517 38.1401 9.08778C37.1092 8.3822 35.7714 7.89989 34.0993 7.89989C31.0646 7.89989 29.3731 9.58268 29.3731 11.5377C29.3731 14.2103 31.8357 14.7548 33.9003 15.2002C35.3679 15.5219 36.6365 15.8931 36.6365 16.9325C36.6365 17.8234 35.8405 18.3926 34.2734 18.3926C33.1929 18.3926 32.0651 18.0043 31.1917 17.4793C30.6388 17.147 29.8626 17.2318 29.5169 17.7764L29.4351 17.9052Z" fill="black"/>
<path d="M43.5685 6.2171C44.4639 6.2171 45.1853 5.49944 45.1853 4.60855C45.1853 3.71766 44.4639 3 43.5685 3C42.6978 3 41.9516 3.71766 41.9516 4.60855C41.9516 5.49944 42.6978 6.2171 43.5685 6.2171ZM42.275 19.1496C42.275 19.7019 42.7227 20.1496 43.275 20.1496H43.8868C44.4391 20.1496 44.8868 19.7019 44.8868 19.1496V9.19685C44.8868 8.64457 44.4391 8.19685 43.8868 8.19685H43.275C42.7227 8.19685 42.275 8.64457 42.275 9.19685V19.1496Z" fill="black"/>
<path d="M56.8815 19.1496C56.8815 19.7019 57.3292 20.1496 57.8815 20.1496H58.4933C59.0456 20.1496 59.4933 19.7019 59.4933 19.1496V11.7357C59.4933 9.28571 58.1999 7.89989 55.6129 7.89989C54.2733 7.89989 53.1086 8.39692 52.2604 9.02119C51.9318 9.26299 51.3843 9.04278 51.3843 8.63482V8.63482C51.3843 8.39294 51.1882 8.19685 50.9463 8.19685H49.7725C49.2202 8.19685 48.7725 8.64457 48.7725 9.19685V19.1496C48.7725 19.7019 49.2202 20.1496 49.7725 20.1496H50.3843C50.9366 20.1496 51.3843 19.7019 51.3843 19.1496V12.1364C51.3843 11.9243 51.4486 11.7149 51.5888 11.5557C52.2224 10.8365 53.2658 10.2013 54.4687 10.2013C55.9363 10.2013 56.8815 10.82 56.8815 12.676V19.1496Z" fill="black"/>
<path d="M63.6955 22.5062C63.4293 22.9169 63.4947 23.4676 63.891 23.7548C65.1626 24.6767 66.5211 25 68.2587 25C71.2187 25 74.4275 23.8369 74.4275 19.5309V9.19685C74.4275 8.64457 73.9798 8.19685 73.4275 8.19685H72.2363C72.004 8.19685 71.8157 8.38517 71.8157 8.61747V8.61747C71.8157 9.01918 71.2688 9.22097 70.9573 8.96728C70.1037 8.27191 69.072 7.89989 67.9602 7.89989C64.8757 7.89989 62.637 10.1766 62.637 14.0371C62.637 17.9719 64.9006 20.1744 67.9602 20.1744C69.0245 20.1744 69.9969 19.8091 70.7997 19.2026C71.1731 18.9206 71.8157 19.162 71.8157 19.6299V19.6299C71.8157 22.0799 69.975 22.8718 68.2587 22.8718C67.1705 22.8718 66.2451 22.6752 65.4585 22.1952C64.8911 21.8489 64.0928 21.8931 63.7313 22.451L63.6955 22.5062ZM71.8157 15.9709C71.8157 16.1625 71.7642 16.3529 71.6433 16.5015C71.0101 17.2792 69.8398 17.8729 68.7313 17.8729C66.6667 17.8729 65.3484 16.3386 65.3484 14.0371C65.3484 11.7357 66.6667 10.2013 68.7313 10.2013C69.8398 10.2013 71.0101 10.795 71.6433 11.5727C71.7642 11.7213 71.8157 11.9118 71.8157 12.1033V15.9709Z" fill="black"/>
<path d="M78.3099 19.1496C78.3099 19.7019 78.7576 20.1496 79.3099 20.1496H79.9217C80.474 20.1496 80.9217 19.7019 80.9217 19.1496V4.64342C80.9217 4.09113 80.474 3.64342 79.9217 3.64342H79.3099C78.7576 3.64342 78.3099 4.09113 78.3099 4.64342V19.1496Z" fill="black"/>
<path d="M84.0611 14.1609C84.0611 17.9471 86.7476 20.4466 90.3544 20.4466C91.9393 20.4466 93.4221 20.0399 94.563 19.2545C94.97 18.9744 95.0206 18.4152 94.7375 18.0103L94.7174 17.9815C94.3615 17.4726 93.6236 17.4098 93.0749 17.7005C92.3166 18.1021 91.4208 18.3183 90.628 18.3183C88.8367 18.3183 87.6062 17.3885 87.0721 16.1051C86.8432 15.5552 87.3179 15.027 87.9135 15.027H95.4568C95.7985 15.027 96.0755 14.75 96.0755 14.4083V14.4083C96.0755 10.6468 93.7622 7.89989 90.1554 7.89989C86.5983 7.89989 84.0611 10.6963 84.0611 14.1609ZM90.1554 10.0281C91.9686 10.0281 92.9617 11.0626 93.3481 12.1814C93.533 12.7164 93.0685 13.1957 92.5024 13.1957H87.8613C87.2755 13.1957 86.8057 12.6848 87.0174 12.1386C87.4507 11.0202 88.4489 10.0281 90.1554 10.0281Z" fill="black"/>
<path d="M99.151 19.1496C99.151 19.7019 99.5987 20.1496 100.151 20.1496H100.763C101.315 20.1496 101.763 19.7019 101.763 19.1496V4.64342C101.763 4.09113 101.315 3.64342 100.763 3.64342H100.151C99.5987 3.64342 99.151 4.09113 99.151 4.64342V19.1496Z" fill="black"/>
<path d="M106.942 6.2171C107.837 6.2171 108.559 5.49944 108.559 4.60855C108.559 3.71766 107.837 3 106.942 3C106.071 3 105.325 3.71766 105.325 4.60855C105.325 5.49944 106.071 6.2171 106.942 6.2171ZM105.648 19.1496C105.648 19.7019 106.096 20.1496 106.648 20.1496H107.26C107.813 20.1496 108.26 19.7019 108.26 19.1496V9.19685C108.26 8.64457 107.813 8.19685 107.26 8.19685H106.648C106.096 8.19685 105.648 8.64457 105.648 9.19685V19.1496Z" fill="black"/>
<path d="M120.255 19.1496C120.255 19.7019 120.703 20.1496 121.255 20.1496H121.867C122.419 20.1496 122.867 19.7019 122.867 19.1496V11.7357C122.867 9.28571 121.573 7.89989 118.986 7.89989C117.647 7.89989 116.482 8.39692 115.634 9.02119C115.305 9.26299 114.758 9.04278 114.758 8.63482V8.63482C114.758 8.39294 114.562 8.19685 114.32 8.19685H113.146C112.594 8.19685 112.146 8.64457 112.146 9.19685V19.1496C112.146 19.7019 112.594 20.1496 113.146 20.1496H113.758C114.31 20.1496 114.758 19.7019 114.758 19.1496V12.1364C114.758 11.9243 114.822 11.7149 114.962 11.5557C115.596 10.8365 116.639 10.2013 117.842 10.2013C119.31 10.2013 120.255 10.82 120.255 12.676V19.1496Z" fill="black"/>
<path d="M134.417 19.7484C134.605 20.0009 134.902 20.1496 135.218 20.1496H135.951C136.784 20.1496 137.252 19.1909 136.739 18.5343L133.423 14.2857C133.122 13.8997 133.144 13.3523 133.476 12.9924L136.352 9.87492C136.943 9.23428 136.489 8.19685 135.617 8.19685H135.106C134.826 8.19685 134.559 8.31415 134.37 8.52024L131.105 12.0732C130.488 12.7444 129.369 12.3081 129.369 11.3966V4.64342C129.369 4.09113 128.921 3.64342 128.369 3.64342H127.757C127.204 3.64342 126.757 4.09113 126.757 4.64342V19.1496C126.757 19.7019 127.204 20.1496 127.757 20.1496H128.369C128.921 20.1496 129.369 19.7019 129.369 19.1496V17.3396C129.369 17.0786 129.471 16.8279 129.653 16.6412L130.219 16.0616C130.647 15.6222 131.367 15.6695 131.735 16.1613L134.417 19.7484Z" fill="black"/>
<path d="M3 16.0215C3.97944 14.325 7.45131 12.505 10.1266 11.3003C11.8328 10.532 13.73 11.6273 13.9177 13.4891C14.212 16.4083 14.3717 20.325 13.3923 22.0215C11.7354 24.8912 8.06591 25.8745 5.19615 24.2176C2.3264 22.5608 1.34315 18.8912 3 16.0215Z" fill="#1127EF"/>
<g style="mix-blend-mode:hard-light">
<path d="M19.6423 11.1962C18.6629 12.8926 15.191 14.7126 12.5157 15.9173C10.8095 16.6857 8.91233 15.5903 8.72462 13.7286C8.43028 10.8093 8.27056 6.89259 9.25 5.19615C10.9069 2.3264 14.5764 1.34315 17.4462 3C20.3159 4.65685 21.2992 8.3264 19.6423 11.1962Z" fill="#03D2D4"/>
</g>
</svg>
