<svg width="49" height="45" viewBox="0 0 49 45" fill="none" xmlns="http://www.w3.org/2000/svg">
<g clip-path="url(#clip0)">
<path d="M22.7679 2C23.5377 0.666671 25.4623 0.666667 26.2321 2L48.3157 40.25C49.0855 41.5833 48.1232 43.25 46.5836 43.25H2.41635C0.876754 43.25 -0.0854981 41.5833 0.684302 40.25L22.7679 2Z" fill="#E3A007"/>
<path d="M26.5313 21.0595C26.5313 22.8621 26.4688 24.5127 26.3438 26.0113C26.2557 27.0675 26.152 28.1291 26.0329 29.196C25.9472 29.9638 25.2947 30.5397 24.5221 30.5397V30.5397C23.7574 30.5397 23.1086 29.9752 23.0163 29.2161C22.8858 28.1424 22.7761 27.0741 22.6875 26.0113C22.5625 24.491 22.5 22.8404 22.5 21.0595V17C22.5 15.8954 23.4111 15 24.5156 15V15C25.6202 15 26.5313 15.8954 26.5313 17V21.0595ZM27 35.4263C27 36.1865 26.7604 36.8055 26.2812 37.2833C25.8021 37.7611 25.2083 38 24.5 38C23.8125 38 23.2187 37.7611 22.7187 37.2833C22.2396 36.8055 22 36.1865 22 35.4263C22 34.6662 22.2396 34.0472 22.7187 33.5694C23.2187 33.0699 23.8125 32.8201 24.5 32.8201C25.2083 32.8201 25.8021 33.0699 26.2812 33.5694C26.7604 34.0472 27 34.6662 27 35.4263Z" fill="white"/>
</g>
<defs>
<clipPath id="clip0">
<rect width="49" height="45" fill="white"/>
</clipPath>
</defs>
</svg>
