<svg width="80" height="80" viewBox="0 0 80 80" fill="none" xmlns="http://www.w3.org/2000/svg">
<path d="M63.3898 35.1119C63.3898 35.1119 75.4476 31.5708 76.8804 22.9405C77.7457 17.7508 73.9581 14.9265 66.9788 16.6039C59.4036 18.4246 54.5237 22.5964 39.501 22.5964C24.4783 22.5964 19.5984 18.4389 12.0232 16.6182C5.058 14.9409 1.25623 17.7651 2.12156 22.9548C3.5685 31.5708 15.6264 35.1119 15.6264 35.1119" fill="url(#paint0_radial)"/>
<path d="M39.5152 74.0059C56.3987 74.0059 70.0855 60.174 70.0855 43.1114C70.0855 26.0489 56.3987 12.217 39.5152 12.217C22.6317 12.217 8.94495 26.0489 8.94495 43.1114C8.94495 60.174 22.6317 74.0059 39.5152 74.0059Z" fill="url(#paint1_radial)"/>
<path d="M29.5284 42.9967C31.3539 42.9967 32.8337 39.9929 32.8337 36.2874C32.8337 32.5819 31.3539 29.5781 29.5284 29.5781C27.703 29.5781 26.2231 32.5819 26.2231 36.2874C26.2231 39.9929 27.703 42.9967 29.5284 42.9967Z" fill="url(#paint2_radial)"/>
<path d="M29.5284 31.8432C30.947 31.8432 32.1812 33.5062 32.8337 35.9576C32.7911 32.3306 31.33 29.406 29.5284 29.406C27.7268 29.406 26.2657 32.3306 26.2231 35.9576C26.8757 33.5062 28.1098 31.8432 29.5284 31.8432Z" fill="url(#paint3_linear)"/>
<path d="M60.1555 48.3441C59.9285 48.2581 59.6731 48.2437 59.4462 48.3154C52.9917 50.1791 46.296 51.1253 39.5152 51.1253C32.7486 51.1253 26.0388 50.1791 19.5843 48.3154C19.3431 48.2437 19.1019 48.2581 18.875 48.3441C18.1657 48.6308 17.0734 49.6917 18.5345 53.7632V53.7775C20.7333 58.9815 26.4502 68.1137 39.5294 68.1137C52.5661 68.1137 58.3113 58.9672 60.5101 53.7632C61.9429 49.6917 60.8506 48.6308 60.1555 48.3441Z" fill="url(#paint4_radial)"/>
<path d="M39.5153 66.6514C44.92 66.6514 48.9913 64.9741 52.0413 62.666C48.6934 61.1464 44.5796 60.1428 39.5153 60.1428C34.451 60.1428 30.3371 61.1464 26.9893 62.6803C30.025 64.9884 34.0963 66.6514 39.5153 66.6514Z" fill="url(#paint5_radial)"/>
<path d="M59.744 48.2438C59.7015 48.2438 59.6589 48.2438 59.6022 48.2581C53.0909 50.1505 46.3243 51.111 39.501 51.1253C32.6635 51.1253 25.8969 50.1648 19.3998 48.2581C19.3572 48.2438 19.3147 48.2438 19.2579 48.2438C18.8182 48.2868 16.7187 48.7312 18.5203 53.7632V53.7775C19.414 55.8706 20.8751 58.6088 23.159 61.132C21.017 58.5658 23.6555 57.1465 28.3652 57.72C33.0749 58.2934 39.5152 58.3078 39.5152 58.3078C39.5152 58.3078 45.9413 58.2934 50.6652 57.72C55.3748 57.1465 58.0134 58.5658 55.8713 61.132C58.1552 58.6088 59.6164 55.8706 60.5101 53.7775V53.7632C62.2975 48.7312 60.1838 48.2868 59.744 48.2438Z" fill="url(#paint6_linear)"/>
<path d="M56.1125 55.3259C57.8999 54.9388 59.2475 53.4192 59.4319 51.5841L59.6022 49.7778C53.0909 51.6415 46.3385 52.5733 39.501 52.5733C32.6776 52.5733 25.911 51.6271 19.3998 49.7778L19.57 51.5841C19.7544 53.4335 21.0879 54.9388 22.8895 55.3259C28.3226 56.5158 33.8834 57.1179 39.501 57.1179C45.1185 57.1179 50.6793 56.5158 56.1125 55.3259Z" fill="url(#paint7_radial)"/>
<path d="M49.4878 42.9967C51.3132 42.9967 52.7931 39.9929 52.7931 36.2874C52.7931 32.5819 51.3132 29.5781 49.4878 29.5781C47.6623 29.5781 46.1825 32.5819 46.1825 36.2874C46.1825 39.9929 47.6623 42.9967 49.4878 42.9967Z" fill="url(#paint8_radial)"/>
<path d="M49.4878 31.8432C48.0692 31.8432 46.835 33.5062 46.1825 35.9576C46.2251 32.3306 47.6862 29.406 49.4878 29.406C51.2894 29.406 52.7505 32.3306 52.7931 35.9576C52.1405 33.5062 50.9064 31.8432 49.4878 31.8432Z" fill="url(#paint9_linear)"/>
<path opacity="0.5" d="M39.5152 26.9832C50.0694 26.9832 59.7582 28.3022 67.4185 30.4956C62.6379 19.7148 51.9419 12.217 39.5152 12.217C27.0885 12.217 16.3924 19.7148 11.6118 30.4813C19.2721 28.2878 28.961 26.9832 39.5152 26.9832Z" fill="url(#paint10_radial)"/>
<path d="M39.5152 23.3706C48.7501 23.3706 54.694 22.1233 59.5597 20.6323C59.1341 19.5571 58.0843 16.7759 56.9069 12.9625C53.5733 2.09567 45.1611 5.50768 39.501 5.50768C33.8409 5.50768 25.4288 2.09567 22.0951 12.9625C20.9319 16.7759 19.868 19.5571 19.4424 20.6323C24.3223 22.109 30.2803 23.3706 39.5152 23.3706Z" fill="url(#paint11_radial)"/>
<path d="M56.9069 12.9625C55.0628 6.95566 51.6582 5.32134 48.0266 5.04895C41.6714 5.07762 41.1749 7.22805 41.331 8.30326C42.8205 13.6363 47.8564 22.8115 58.1978 17.7938C58.2829 17.7508 58.3538 17.7078 58.439 17.6648C58.0134 16.3889 57.4743 14.7975 56.9069 12.9625Z" fill="url(#paint12_radial)"/>
<path d="M22.1092 12.9625C23.9534 6.95566 27.3579 5.32134 30.9895 5.04895C37.3447 5.07762 37.8412 7.22805 37.6851 8.30326C36.1956 13.6363 31.1597 22.8115 20.8183 17.7938C20.7332 17.7508 20.6623 17.7078 20.5771 17.6648C21.0169 16.3889 21.5418 14.7975 22.1092 12.9625Z" fill="url(#paint13_radial)"/>
<path d="M2.1357 22.9548C2.30593 23.944 2.61802 24.8472 3.02941 25.7073C2.0364 23.0551 6.03678 21.7792 9.52647 21.7792C13.3141 21.7792 30.2518 24.9332 39.5009 24.9332V22.6107C24.4782 22.6107 19.5983 18.4389 12.0232 16.6182C5.05797 14.9409 1.27038 17.7507 2.1357 22.9548Z" fill="url(#paint14_radial)"/>
<path d="M76.8946 22.9548C76.7244 23.944 76.4123 24.8472 76.0009 25.7073C76.9797 23.0551 72.9793 21.7792 69.4896 21.7792C65.702 21.7792 48.7642 24.9332 39.5151 24.9332V22.6107C54.5378 22.6107 59.4319 18.4389 66.9929 16.6182C73.9581 14.9409 77.7599 17.7507 76.8946 22.9548Z" fill="url(#paint15_radial)"/>
<path d="M2.07898 20.6037C2.24921 20.1163 3.56848 16.8476 8.53349 16.8476C15.1157 16.8476 21.5134 23.3706 39.5151 23.3706V22.6108C24.4783 22.6108 19.5984 18.4389 12.0232 16.6183C6.20703 15.2133 2.60385 16.9623 2.07898 20.6037Z" fill="url(#paint16_radial)"/>
<path d="M76.9371 20.6037C76.7669 20.1162 75.4476 16.8332 70.4968 16.8332C63.9146 16.8332 57.5168 23.3562 39.5151 23.3562V22.5964C54.5378 22.5964 59.4319 18.4246 66.9929 16.6039C72.8233 15.2132 76.4123 16.9623 76.9371 20.6037Z" fill="url(#paint17_radial)"/>
<defs>
<radialGradient id="paint0_radial" cx="0" cy="0" r="1" gradientUnits="userSpaceOnUse" gradientTransform="translate(40.0099 31.03) scale(54.5066 17.9826)">
<stop offset="0.4662" stop-color="#512D00"/>
<stop offset="0.8012" stop-color="#6E3D00"/>
<stop offset="0.9987" stop-color="#7A4400"/>
</radialGradient>
<radialGradient id="paint1_radial" cx="0" cy="0" r="1" gradientUnits="userSpaceOnUse" gradientTransform="translate(33.4935 30.5907) scale(36.8798 37.2713)">
<stop stop-color="#FFDF30"/>
<stop offset="1" stop-color="#FFB82E"/>
</radialGradient>
<radialGradient id="paint2_radial" cx="0" cy="0" r="1" gradientUnits="userSpaceOnUse" gradientTransform="translate(28.5294 36.4557) rotate(77.8451) scale(6.40213 3.19195)">
<stop offset="0.00132565" stop-color="#7A4400"/>
<stop offset="1" stop-color="#643800"/>
</radialGradient>
<linearGradient id="paint3_linear" x1="29.5295" y1="29.5372" x2="29.5295" y2="35.7958" gradientUnits="userSpaceOnUse">
<stop offset="0.00132565" stop-color="#3C2200"/>
<stop offset="1" stop-color="#512D00"/>
</linearGradient>
<radialGradient id="paint4_radial" cx="0" cy="0" r="1" gradientUnits="userSpaceOnUse" gradientTransform="translate(39.5084 58.191) scale(16.8409 17.0197)">
<stop offset="0.00132565" stop-color="#7A4400"/>
<stop offset="1" stop-color="#643800"/>
</radialGradient>
<radialGradient id="paint5_radial" cx="0" cy="0" r="1" gradientUnits="userSpaceOnUse" gradientTransform="translate(39.7606 64.1785) scale(13.9575 4.26443)">
<stop offset="0.2479" stop-color="#FF0000"/>
<stop offset="1" stop-color="#C10000"/>
</radialGradient>
<linearGradient id="paint6_linear" x1="60.9686" y1="54.6909" x2="18.3131" y2="54.6909" gradientUnits="userSpaceOnUse">
<stop offset="0.00132565" stop-color="#3C2200"/>
<stop offset="0.5" stop-color="#512D00"/>
<stop offset="1" stop-color="#3C2200"/>
</linearGradient>
<radialGradient id="paint7_radial" cx="0" cy="0" r="1" gradientUnits="userSpaceOnUse" gradientTransform="translate(39.5084 53.4432) scale(36.9325 37.3245)">
<stop offset="0.00132565" stop-color="white"/>
<stop offset="1" stop-color="#A8BBBD"/>
</radialGradient>
<radialGradient id="paint8_radial" cx="0" cy="0" r="1" gradientUnits="userSpaceOnUse" gradientTransform="translate(50.5005 36.449) rotate(102.155) scale(6.40213 3.19195)">
<stop offset="0.00132565" stop-color="#7A4400"/>
<stop offset="1" stop-color="#643800"/>
</radialGradient>
<linearGradient id="paint9_linear" x1="49.4915" y1="29.5372" x2="49.4915" y2="35.7958" gradientUnits="userSpaceOnUse">
<stop offset="0.00132565" stop-color="#3C2200"/>
<stop offset="1" stop-color="#512D00"/>
</linearGradient>
<radialGradient id="paint10_radial" cx="0" cy="0" r="1" gradientUnits="userSpaceOnUse" gradientTransform="translate(39.9596 32.0471) rotate(0.241934) scale(40.0134 16.7926)">
<stop stop-color="#7A4400" stop-opacity="0.5"/>
<stop offset="0.3717" stop-color="#804700" stop-opacity="0.3879"/>
<stop offset="0.8505" stop-color="#905100" stop-opacity="0.2436"/>
<stop offset="0.995" stop-color="#965500" stop-opacity="0.2"/>
</radialGradient>
<radialGradient id="paint11_radial" cx="0" cy="0" r="1" gradientUnits="userSpaceOnUse" gradientTransform="translate(38.9239 6.86974) rotate(90) scale(22.8318 19.1867)">
<stop offset="0.00132565" stop-color="#965500"/>
<stop offset="1" stop-color="#643800"/>
</radialGradient>
<radialGradient id="paint12_radial" cx="0" cy="0" r="1" gradientUnits="userSpaceOnUse" gradientTransform="translate(37.9553 -11.652) scale(28.0619 28.3598)">
<stop offset="0.00132565" stop-color="#965500"/>
<stop offset="1" stop-color="#643800"/>
</radialGradient>
<radialGradient id="paint13_radial" cx="0" cy="0" r="1" gradientUnits="userSpaceOnUse" gradientTransform="translate(41.0551 -11.6518) rotate(180) scale(28.0619 28.3598)">
<stop offset="0.00132565" stop-color="#965500"/>
<stop offset="1" stop-color="#643800"/>
</radialGradient>
<radialGradient id="paint14_radial" cx="0" cy="0" r="1" gradientUnits="userSpaceOnUse" gradientTransform="translate(39.167 25.1216) rotate(180) scale(38.1239 38.5286)">
<stop offset="0.6753" stop-color="#512D00"/>
<stop offset="0.9973" stop-color="#512D00" stop-opacity="0"/>
</radialGradient>
<radialGradient id="paint15_radial" cx="0" cy="0" r="1" gradientUnits="userSpaceOnUse" gradientTransform="translate(39.8439 25.1216) scale(38.1239 38.5286)">
<stop offset="0.6753" stop-color="#512D00"/>
<stop offset="0.9973" stop-color="#512D00" stop-opacity="0"/>
</radialGradient>
<radialGradient id="paint16_radial" cx="0" cy="0" r="1" gradientUnits="userSpaceOnUse" gradientTransform="translate(11.3893 16.6135) rotate(8.19926) scale(28.8135 23.0009)">
<stop offset="0.00132565" stop-color="#965500"/>
<stop offset="1" stop-color="#643800"/>
</radialGradient>
<radialGradient id="paint17_radial" cx="0" cy="0" r="1" gradientUnits="userSpaceOnUse" gradientTransform="translate(67.6206 16.6197) rotate(171.801) scale(28.8136 23.0009)">
<stop offset="0.00132565" stop-color="#965500"/>
<stop offset="1" stop-color="#643800"/>
</radialGradient>
</defs>
</svg>
