<svg width="551" height="91" viewBox="0 0 551 91" fill="none" xmlns="http://www.w3.org/2000/svg">
<rect x="0.37207" width="550" height="91" rx="16" fill="#0080FF"/>
<path d="M55.3753 68.5V59.5804C64.8166 59.5804 72.1453 50.2174 68.5201 40.2806C67.1899 36.6293 64.2428 33.6821 60.5654 32.352C50.6286 28.7529 41.2656 36.0555 41.2656 45.4967H32.3721C32.3721 30.4481 46.9252 18.7118 62.704 23.641C69.5894 25.8057 75.0924 31.2827 77.231 38.168C82.1603 53.9469 70.424 68.5 55.3753 68.5Z" fill="white"/>
<path fill-rule="evenodd" clip-rule="evenodd" d="M55.4014 59.6323H46.5078V50.7388H55.4014V59.6323Z" fill="white"/>
<path fill-rule="evenodd" clip-rule="evenodd" d="M46.5073 66.4394H39.7002V59.6323H46.5073V66.4394Z" fill="white"/>
<path fill-rule="evenodd" clip-rule="evenodd" d="M39.701 59.6323H33.9893V53.9207H39.701V59.6323Z" fill="white"/>
<rect x="110.372" width="4" height="91" fill="black" fill-opacity="0.1"/>
<path d="M150.796 56.5C150.178 56.5 149.687 56.3293 149.324 55.988C148.983 55.6467 148.812 55.1667 148.812 54.548V35.892C148.812 35.2733 148.983 34.7933 149.324 34.452C149.687 34.1107 150.178 33.94 150.796 33.94H157.132C160.823 33.94 163.682 34.932 165.708 36.916C167.756 38.8787 168.78 41.6413 168.78 45.204C168.78 48.788 167.756 51.572 165.708 53.556C163.682 55.5187 160.823 56.5 157.132 56.5H150.796ZM156.876 53.14C162.06 53.14 164.652 50.4947 164.652 45.204C164.652 39.9347 162.06 37.3 156.876 37.3H152.94V53.14H156.876ZM184.649 52.212C185.012 52.212 185.3 52.3507 185.513 52.628C185.748 52.9053 185.865 53.2787 185.865 53.748C185.865 54.4093 185.471 54.964 184.681 55.412C183.956 55.8173 183.135 56.148 182.217 56.404C181.3 56.6387 180.425 56.756 179.593 56.756C177.076 56.756 175.081 56.0307 173.609 54.58C172.137 53.1293 171.401 51.1453 171.401 48.628C171.401 47.028 171.721 45.6093 172.361 44.372C173.001 43.1347 173.897 42.1747 175.049 41.492C176.223 40.8093 177.545 40.468 179.017 40.468C180.425 40.468 181.652 40.7773 182.697 41.396C183.743 42.0147 184.553 42.8893 185.129 44.02C185.705 45.1507 185.993 46.484 185.993 48.02C185.993 48.9373 185.588 49.396 184.777 49.396H175.337C175.465 50.868 175.881 51.956 176.585 52.66C177.289 53.3427 178.313 53.684 179.657 53.684C180.34 53.684 180.937 53.5987 181.449 53.428C181.983 53.2573 182.58 53.0227 183.241 52.724C183.881 52.3827 184.351 52.212 184.649 52.212ZM179.113 43.284C178.025 43.284 177.151 43.6253 176.489 44.308C175.849 44.9907 175.465 45.972 175.337 47.252H182.569C182.527 45.9507 182.207 44.9693 181.609 44.308C181.012 43.6253 180.18 43.284 179.113 43.284ZM197.937 40.468C199.281 40.468 200.476 40.8093 201.521 41.492C202.588 42.1747 203.409 43.1453 203.985 44.404C204.583 45.6413 204.881 47.0707 204.881 48.692C204.881 50.3133 204.583 51.732 203.985 52.948C203.409 54.164 202.599 55.1027 201.553 55.764C200.508 56.4253 199.303 56.756 197.937 56.756C196.828 56.756 195.836 56.5213 194.961 56.052C194.087 55.5827 193.415 54.932 192.945 54.1V60.628C192.945 61.1827 192.764 61.62 192.401 61.94C192.039 62.26 191.559 62.42 190.961 62.42C190.364 62.42 189.873 62.2493 189.489 61.908C189.127 61.5667 188.945 61.1187 188.945 60.564V42.42C188.945 41.844 189.116 41.3853 189.457 41.044C189.82 40.7027 190.3 40.532 190.897 40.532C191.495 40.532 191.975 40.7027 192.337 41.044C192.7 41.3853 192.881 41.844 192.881 42.42V43.22C193.351 42.3453 194.023 41.6733 194.897 41.204C195.793 40.7133 196.807 40.468 197.937 40.468ZM196.881 53.652C198.14 53.652 199.121 53.2253 199.825 52.372C200.529 51.4973 200.881 50.2707 200.881 48.692C200.881 47.0707 200.529 45.812 199.825 44.916C199.121 44.02 198.14 43.572 196.881 43.572C195.601 43.572 194.609 44.0093 193.905 44.884C193.223 45.7587 192.881 47.0067 192.881 48.628C192.881 50.228 193.223 51.4653 193.905 52.34C194.609 53.2147 195.601 53.652 196.881 53.652ZM209.828 56.692C209.252 56.692 208.772 56.532 208.388 56.212C208.025 55.8707 207.844 55.3907 207.844 54.772V35.668C207.844 35.0493 208.025 34.58 208.388 34.26C208.772 33.94 209.252 33.78 209.828 33.78C210.404 33.78 210.884 33.94 211.268 34.26C211.652 34.58 211.844 35.0493 211.844 35.668V54.772C211.844 55.3907 211.652 55.8707 211.268 56.212C210.884 56.532 210.404 56.692 209.828 56.692ZM222.785 56.756C221.185 56.756 219.777 56.4253 218.561 55.764C217.366 55.1027 216.438 54.1533 215.777 52.916C215.116 51.6787 214.785 50.2387 214.785 48.596C214.785 46.9533 215.116 45.524 215.777 44.308C216.438 43.0707 217.366 42.1213 218.561 41.46C219.777 40.7987 221.185 40.468 222.785 40.468C224.385 40.468 225.782 40.7987 226.977 41.46C228.193 42.1213 229.121 43.0707 229.761 44.308C230.422 45.524 230.753 46.9533 230.753 48.596C230.753 50.2387 230.422 51.6787 229.761 52.916C229.121 54.1533 228.193 55.1027 226.977 55.764C225.782 56.4253 224.385 56.756 222.785 56.756ZM222.753 53.652C224.054 53.652 225.046 53.2253 225.729 52.372C226.412 51.5187 226.753 50.26 226.753 48.596C226.753 46.9533 226.412 45.7053 225.729 44.852C225.046 43.9773 224.065 43.54 222.785 43.54C221.505 43.54 220.513 43.9773 219.809 44.852C219.126 45.7053 218.785 46.9533 218.785 48.596C218.785 50.26 219.126 51.5187 219.809 52.372C220.492 53.2253 221.473 53.652 222.753 53.652ZM244.397 41.684C244.568 41.3 244.792 41.0227 245.069 40.852C245.368 40.66 245.688 40.564 246.029 40.564C246.52 40.564 246.957 40.7347 247.341 41.076C247.747 41.396 247.949 41.8013 247.949 42.292C247.949 42.5267 247.885 42.772 247.757 43.028L239.021 61.332C238.659 62.0573 238.093 62.42 237.325 62.42C236.835 62.42 236.397 62.26 236.013 61.94C235.651 61.6413 235.469 61.2573 235.469 60.788C235.469 60.5533 235.533 60.2867 235.661 59.988L237.837 55.412L231.885 43.028C231.779 42.8147 231.725 42.5693 231.725 42.292C231.725 41.8013 231.928 41.3853 232.333 41.044C232.76 40.7027 233.24 40.532 233.773 40.532C234.136 40.532 234.467 40.628 234.765 40.82C235.064 40.9907 235.299 41.268 235.469 41.652L239.949 51.54L244.397 41.684ZM279.528 41.716C279.678 41.332 279.891 41.044 280.168 40.852C280.467 40.66 280.787 40.564 281.128 40.564C281.619 40.564 282.056 40.7347 282.44 41.076C282.846 41.396 283.048 41.8013 283.048 42.292C283.048 42.5693 282.995 42.8147 282.888 43.028L277.608 55.412C277.438 55.8173 277.171 56.1267 276.808 56.34C276.467 56.5533 276.083 56.66 275.656 56.66C275.251 56.66 274.867 56.5533 274.504 56.34C274.163 56.1267 273.907 55.8173 273.736 55.412L269.928 46.26L266.248 55.412C266.078 55.8173 265.811 56.1267 265.448 56.34C265.107 56.5533 264.723 56.66 264.296 56.66C263.891 56.66 263.507 56.5533 263.144 56.34C262.782 56.1267 262.515 55.8173 262.344 55.412L257.096 43.028C256.99 42.7507 256.936 42.516 256.936 42.324C256.936 41.8333 257.15 41.4173 257.576 41.076C258.003 40.7133 258.472 40.532 258.984 40.532C259.347 40.532 259.678 40.628 259.976 40.82C260.275 41.012 260.499 41.3 260.648 41.684L264.424 51.444L268.296 41.78C268.467 41.3747 268.712 41.076 269.032 40.884C269.352 40.6707 269.704 40.564 270.088 40.564C270.472 40.564 270.824 40.6707 271.144 40.884C271.464 41.076 271.71 41.3747 271.88 41.78L275.784 51.476L279.528 41.716ZM287.978 56.692C287.402 56.692 286.922 56.532 286.538 56.212C286.175 55.8707 285.994 55.3907 285.994 54.772V42.42C285.994 41.8013 286.175 41.332 286.538 41.012C286.922 40.692 287.402 40.532 287.978 40.532C288.554 40.532 289.034 40.692 289.418 41.012C289.802 41.332 289.994 41.8013 289.994 42.42V54.772C289.994 55.3907 289.802 55.8707 289.418 56.212C289.034 56.532 288.554 56.692 287.978 56.692ZM287.978 37.684C287.253 37.684 286.677 37.492 286.25 37.108C285.823 36.7027 285.61 36.18 285.61 35.54C285.61 34.9 285.823 34.388 286.25 34.004C286.677 33.62 287.253 33.428 287.978 33.428C288.682 33.428 289.247 33.62 289.674 34.004C290.122 34.388 290.346 34.9 290.346 35.54C290.346 36.18 290.133 36.7027 289.706 37.108C289.279 37.492 288.703 37.684 287.978 37.684ZM302.614 53.716C303.681 53.78 304.214 54.26 304.214 55.156C304.214 55.668 304.001 56.0627 303.574 56.34C303.169 56.596 302.582 56.7027 301.814 56.66L300.95 56.596C297.366 56.34 295.574 54.42 295.574 50.836V43.86H293.974C293.398 43.86 292.95 43.732 292.63 43.476C292.332 43.22 292.182 42.8467 292.182 42.356C292.182 41.8653 292.332 41.492 292.63 41.236C292.95 40.98 293.398 40.852 293.974 40.852H295.574V37.908C295.574 37.332 295.756 36.8733 296.118 36.532C296.481 36.1907 296.972 36.02 297.59 36.02C298.188 36.02 298.668 36.1907 299.03 36.532C299.393 36.8733 299.574 37.332 299.574 37.908V40.852H302.294C302.87 40.852 303.308 40.98 303.606 41.236C303.926 41.492 304.086 41.8653 304.086 42.356C304.086 42.8467 303.926 43.22 303.606 43.476C303.308 43.732 302.87 43.86 302.294 43.86H299.574V51.124C299.574 52.7027 300.3 53.5453 301.75 53.652L302.614 53.716ZM315.131 40.468C318.8 40.468 320.635 42.612 320.635 46.9V54.772C320.635 55.3693 320.454 55.8387 320.091 56.18C319.75 56.5213 319.27 56.692 318.651 56.692C318.032 56.692 317.542 56.5213 317.179 56.18C316.816 55.8387 316.635 55.3693 316.635 54.772V46.9C316.635 45.7693 316.4 44.948 315.931 44.436C315.483 43.9027 314.768 43.636 313.787 43.636C312.635 43.636 311.707 43.9987 311.003 44.724C310.32 45.4493 309.979 46.42 309.979 47.636V54.772C309.979 55.3693 309.798 55.8387 309.435 56.18C309.072 56.5213 308.582 56.692 307.963 56.692C307.344 56.692 306.854 56.5213 306.491 56.18C306.15 55.8387 305.979 55.3693 305.979 54.772V35.636C305.979 35.0813 306.16 34.6333 306.523 34.292C306.907 33.9507 307.398 33.78 307.995 33.78C308.592 33.78 309.072 33.94 309.435 34.26C309.798 34.58 309.979 35.0173 309.979 35.572V43.028C310.512 42.196 311.216 41.5667 312.091 41.14C312.987 40.692 314 40.468 315.131 40.468ZM335.081 56.5C334.463 56.5 333.972 56.3293 333.609 55.988C333.268 55.6467 333.097 55.1667 333.097 54.548V35.892C333.097 35.2733 333.268 34.7933 333.609 34.452C333.972 34.1107 334.463 33.94 335.081 33.94H341.417C345.108 33.94 347.967 34.932 349.993 36.916C352.041 38.8787 353.065 41.6413 353.065 45.204C353.065 48.788 352.041 51.572 349.993 53.556C347.967 55.5187 345.108 56.5 341.417 56.5H335.081ZM341.161 53.14C346.345 53.14 348.937 50.4947 348.937 45.204C348.937 39.9347 346.345 37.3 341.161 37.3H337.225V53.14H341.161ZM358.534 56.692C357.958 56.692 357.478 56.532 357.094 56.212C356.732 55.8707 356.55 55.3907 356.55 54.772V42.42C356.55 41.8013 356.732 41.332 357.094 41.012C357.478 40.692 357.958 40.532 358.534 40.532C359.11 40.532 359.59 40.692 359.974 41.012C360.358 41.332 360.55 41.8013 360.55 42.42V54.772C360.55 55.3907 360.358 55.8707 359.974 56.212C359.59 56.532 359.11 56.692 358.534 56.692ZM358.534 37.684C357.809 37.684 357.233 37.492 356.806 37.108C356.38 36.7027 356.166 36.18 356.166 35.54C356.166 34.9 356.38 34.388 356.806 34.004C357.233 33.62 357.809 33.428 358.534 33.428C359.238 33.428 359.804 33.62 360.23 34.004C360.678 34.388 360.902 34.9 360.902 35.54C360.902 36.18 360.689 36.7027 360.262 37.108C359.836 37.492 359.26 37.684 358.534 37.684ZM377.603 40.532C378.201 40.532 378.681 40.7027 379.043 41.044C379.406 41.3853 379.587 41.844 379.587 42.42V55.06C379.587 57.5133 378.905 59.3693 377.539 60.628C376.174 61.8867 374.158 62.516 371.491 62.516C369.166 62.516 367.225 62.0787 365.667 61.204C364.878 60.7347 364.483 60.1693 364.483 59.508C364.483 59.0387 364.59 58.6653 364.803 58.388C365.038 58.1107 365.337 57.972 365.699 57.972C365.891 57.972 366.126 58.0147 366.403 58.1C366.681 58.2067 366.969 58.324 367.267 58.452C368.035 58.772 368.718 59.0173 369.315 59.188C369.934 59.3587 370.638 59.444 371.427 59.444C374.222 59.444 375.619 58.0787 375.619 55.348V53.3C375.15 54.1747 374.467 54.8573 373.571 55.348C372.675 55.8173 371.651 56.052 370.499 56.052C369.134 56.052 367.918 55.732 366.851 55.092C365.806 54.4307 364.985 53.5133 364.387 52.34C363.79 51.1667 363.491 49.812 363.491 48.276C363.491 46.74 363.779 45.3853 364.355 44.212C364.953 43.0173 365.785 42.1 366.851 41.46C367.918 40.7987 369.134 40.468 370.499 40.468C371.651 40.468 372.675 40.7133 373.571 41.204C374.467 41.6733 375.15 42.3453 375.619 43.22V42.388C375.619 41.8333 375.801 41.3853 376.163 41.044C376.526 40.7027 377.006 40.532 377.603 40.532ZM371.555 52.948C372.835 52.948 373.827 52.532 374.531 51.7C375.257 50.868 375.619 49.7267 375.619 48.276C375.619 46.804 375.257 45.652 374.531 44.82C373.827 43.988 372.835 43.572 371.555 43.572C370.297 43.572 369.305 43.988 368.579 44.82C367.854 45.652 367.491 46.804 367.491 48.276C367.491 49.7267 367.854 50.868 368.579 51.7C369.305 52.532 370.297 52.948 371.555 52.948ZM385.394 56.692C384.818 56.692 384.338 56.532 383.954 56.212C383.592 55.8707 383.41 55.3907 383.41 54.772V42.42C383.41 41.8013 383.592 41.332 383.954 41.012C384.338 40.692 384.818 40.532 385.394 40.532C385.97 40.532 386.45 40.692 386.834 41.012C387.218 41.332 387.41 41.8013 387.41 42.42V54.772C387.41 55.3907 387.218 55.8707 386.834 56.212C386.45 56.532 385.97 56.692 385.394 56.692ZM385.394 37.684C384.669 37.684 384.093 37.492 383.666 37.108C383.24 36.7027 383.026 36.18 383.026 35.54C383.026 34.9 383.24 34.388 383.666 34.004C384.093 33.62 384.669 33.428 385.394 33.428C386.098 33.428 386.664 33.62 387.09 34.004C387.538 34.388 387.762 34.9 387.762 35.54C387.762 36.18 387.549 36.7027 387.122 37.108C386.696 37.492 386.12 37.684 385.394 37.684ZM400.031 53.716C401.097 53.78 401.631 54.26 401.631 55.156C401.631 55.668 401.417 56.0627 400.991 56.34C400.585 56.596 399.999 56.7027 399.231 56.66L398.367 56.596C394.783 56.34 392.991 54.42 392.991 50.836V43.86H391.391C390.815 43.86 390.367 43.732 390.047 43.476C389.748 43.22 389.599 42.8467 389.599 42.356C389.599 41.8653 389.748 41.492 390.047 41.236C390.367 40.98 390.815 40.852 391.391 40.852H392.991V37.908C392.991 37.332 393.172 36.8733 393.535 36.532C393.897 36.1907 394.388 36.02 395.007 36.02C395.604 36.02 396.084 36.1907 396.447 36.532C396.809 36.8733 396.991 37.332 396.991 37.908V40.852H399.711C400.287 40.852 400.724 40.98 401.023 41.236C401.343 41.492 401.503 41.8653 401.503 42.356C401.503 42.8467 401.343 43.22 401.023 43.476C400.724 43.732 400.287 43.86 399.711 43.86H396.991V51.124C396.991 52.7027 397.716 53.5453 399.167 53.652L400.031 53.716ZM410.179 40.468C412.355 40.468 413.966 41.012 415.011 42.1C416.078 43.1667 416.611 44.7987 416.611 46.996V54.804C416.611 55.38 416.441 55.8387 416.099 56.18C415.758 56.5 415.289 56.66 414.691 56.66C414.137 56.66 413.678 56.4893 413.315 56.148C412.974 55.8067 412.803 55.3587 412.803 54.804V54.1C412.441 54.932 411.865 55.5827 411.075 56.052C410.307 56.5213 409.411 56.756 408.387 56.756C407.342 56.756 406.393 56.5427 405.539 56.116C404.686 55.6893 404.014 55.1027 403.523 54.356C403.033 53.6093 402.787 52.7773 402.787 51.86C402.787 50.708 403.075 49.8013 403.651 49.14C404.249 48.4787 405.209 47.9987 406.531 47.7C407.854 47.4013 409.678 47.252 412.003 47.252H412.803V46.516C412.803 45.4707 412.579 44.7133 412.131 44.244C411.683 43.7533 410.958 43.508 409.955 43.508C409.337 43.508 408.707 43.604 408.067 43.796C407.427 43.9667 406.67 44.2227 405.795 44.564C405.241 44.8413 404.835 44.98 404.579 44.98C404.195 44.98 403.875 44.8413 403.619 44.564C403.385 44.2867 403.267 43.924 403.267 43.476C403.267 43.1133 403.353 42.804 403.523 42.548C403.715 42.2707 404.025 42.0147 404.451 41.78C405.198 41.3747 406.083 41.0547 407.107 40.82C408.153 40.5853 409.177 40.468 410.179 40.468ZM409.187 53.876C410.254 53.876 411.118 53.524 411.779 52.82C412.462 52.0947 412.803 51.1667 412.803 50.036V49.364H412.227C410.798 49.364 409.689 49.428 408.899 49.556C408.11 49.684 407.545 49.908 407.203 50.228C406.862 50.548 406.691 50.9853 406.691 51.54C406.691 52.2227 406.926 52.788 407.395 53.236C407.886 53.6627 408.483 53.876 409.187 53.876ZM422.34 56.692C421.764 56.692 421.284 56.532 420.9 56.212C420.538 55.8707 420.356 55.3907 420.356 54.772V35.668C420.356 35.0493 420.538 34.58 420.9 34.26C421.284 33.94 421.764 33.78 422.34 33.78C422.916 33.78 423.396 33.94 423.78 34.26C424.164 34.58 424.356 35.0493 424.356 35.668V54.772C424.356 55.3907 424.164 55.8707 423.78 56.212C423.396 56.532 422.916 56.692 422.34 56.692ZM438.561 56.788C436.364 56.788 434.455 56.3187 432.833 55.38C431.233 54.4413 429.996 53.0973 429.121 51.348C428.247 49.5987 427.809 47.5507 427.809 45.204C427.809 42.8573 428.236 40.82 429.089 39.092C429.964 37.3427 431.212 35.9987 432.833 35.06C434.455 34.1213 436.364 33.652 438.561 33.652C440.759 33.652 442.657 34.1213 444.257 35.06C445.879 35.9987 447.116 37.3427 447.969 39.092C448.844 40.82 449.281 42.8573 449.281 45.204C449.281 47.5507 448.844 49.5987 447.969 51.348C447.095 53.0973 445.847 54.4413 444.225 55.38C442.625 56.3187 440.737 56.788 438.561 56.788ZM438.561 53.492C440.631 53.492 442.241 52.7773 443.393 51.348C444.567 49.9187 445.153 47.8707 445.153 45.204C445.153 42.5373 444.567 40.5 443.393 39.092C442.241 37.6627 440.631 36.948 438.561 36.948C436.471 36.948 434.839 37.6627 433.665 39.092C432.513 40.5 431.937 42.5373 431.937 45.204C431.937 47.8707 432.513 49.9187 433.665 51.348C434.839 52.7773 436.471 53.492 438.561 53.492ZM459.723 56.756C458.166 56.756 456.79 56.4253 455.595 55.764C454.422 55.1027 453.515 54.164 452.875 52.948C452.235 51.732 451.915 50.3133 451.915 48.692C451.915 47.0707 452.246 45.6413 452.907 44.404C453.59 43.1453 454.539 42.1747 455.755 41.492C456.971 40.8093 458.368 40.468 459.947 40.468C460.779 40.468 461.611 40.5853 462.443 40.82C463.296 41.0547 464.043 41.3747 464.683 41.78C465.366 42.228 465.707 42.7933 465.707 43.476C465.707 43.9453 465.59 44.3293 465.355 44.628C465.142 44.9053 464.854 45.044 464.491 45.044C464.256 45.044 464.011 44.9907 463.755 44.884C463.499 44.7773 463.243 44.6493 462.987 44.5C462.518 44.2227 462.07 44.0093 461.643 43.86C461.216 43.6893 460.726 43.604 460.171 43.604C458.848 43.604 457.824 44.0413 457.099 44.916C456.395 45.7693 456.043 47.0067 456.043 48.628C456.043 50.228 456.395 51.4653 457.099 52.34C457.824 53.1933 458.848 53.62 460.171 53.62C460.704 53.62 461.174 53.5453 461.579 53.396C462.006 53.2253 462.475 53.0013 462.987 52.724C463.307 52.532 463.584 52.3933 463.819 52.308C464.054 52.2013 464.288 52.148 464.523 52.148C464.864 52.148 465.152 52.2973 465.387 52.596C465.622 52.8947 465.739 53.268 465.739 53.716C465.739 54.0787 465.654 54.3987 465.483 54.676C465.334 54.932 465.078 55.1667 464.715 55.38C464.054 55.8067 463.286 56.148 462.411 56.404C461.536 56.6387 460.64 56.756 459.723 56.756ZM480.468 52.212C480.831 52.212 481.119 52.3507 481.332 52.628C481.567 52.9053 481.684 53.2787 481.684 53.748C481.684 54.4093 481.289 54.964 480.5 55.412C479.775 55.8173 478.953 56.148 478.036 56.404C477.119 56.6387 476.244 56.756 475.412 56.756C472.895 56.756 470.9 56.0307 469.428 54.58C467.956 53.1293 467.22 51.1453 467.22 48.628C467.22 47.028 467.54 45.6093 468.18 44.372C468.82 43.1347 469.716 42.1747 470.868 41.492C472.041 40.8093 473.364 40.468 474.836 40.468C476.244 40.468 477.471 40.7773 478.516 41.396C479.561 42.0147 480.372 42.8893 480.948 44.02C481.524 45.1507 481.812 46.484 481.812 48.02C481.812 48.9373 481.407 49.396 480.596 49.396H471.156C471.284 50.868 471.7 51.956 472.404 52.66C473.108 53.3427 474.132 53.684 475.476 53.684C476.159 53.684 476.756 53.5987 477.268 53.428C477.801 53.2573 478.399 53.0227 479.06 52.724C479.7 52.3827 480.169 52.212 480.468 52.212ZM474.932 43.284C473.844 43.284 472.969 43.6253 472.308 44.308C471.668 44.9907 471.284 45.972 471.156 47.252H478.388C478.345 45.9507 478.025 44.9693 477.428 44.308C476.831 43.6253 475.999 43.284 474.932 43.284ZM491.548 40.468C493.724 40.468 495.335 41.012 496.38 42.1C497.447 43.1667 497.98 44.7987 497.98 46.996V54.804C497.98 55.38 497.809 55.8387 497.468 56.18C497.127 56.5 496.657 56.66 496.06 56.66C495.505 56.66 495.047 56.4893 494.684 56.148C494.343 55.8067 494.172 55.3587 494.172 54.804V54.1C493.809 54.932 493.233 55.5827 492.444 56.052C491.676 56.5213 490.78 56.756 489.756 56.756C488.711 56.756 487.761 56.5427 486.908 56.116C486.055 55.6893 485.383 55.1027 484.892 54.356C484.401 53.6093 484.156 52.7773 484.156 51.86C484.156 50.708 484.444 49.8013 485.02 49.14C485.617 48.4787 486.577 47.9987 487.9 47.7C489.223 47.4013 491.047 47.252 493.372 47.252H494.172V46.516C494.172 45.4707 493.948 44.7133 493.5 44.244C493.052 43.7533 492.327 43.508 491.324 43.508C490.705 43.508 490.076 43.604 489.436 43.796C488.796 43.9667 488.039 44.2227 487.164 44.564C486.609 44.8413 486.204 44.98 485.948 44.98C485.564 44.98 485.244 44.8413 484.988 44.564C484.753 44.2867 484.636 43.924 484.636 43.476C484.636 43.1133 484.721 42.804 484.892 42.548C485.084 42.2707 485.393 42.0147 485.82 41.78C486.567 41.3747 487.452 41.0547 488.476 40.82C489.521 40.5853 490.545 40.468 491.548 40.468ZM490.556 53.876C491.623 53.876 492.487 53.524 493.148 52.82C493.831 52.0947 494.172 51.1667 494.172 50.036V49.364H493.596C492.167 49.364 491.057 49.428 490.268 49.556C489.479 49.684 488.913 49.908 488.572 50.228C488.231 50.548 488.06 50.9853 488.06 51.54C488.06 52.2227 488.295 52.788 488.764 53.236C489.255 53.6627 489.852 53.876 490.556 53.876ZM510.813 40.468C512.691 40.468 514.088 41.0013 515.005 42.068C515.923 43.1347 516.381 44.7453 516.381 46.9V54.772C516.381 55.3693 516.2 55.8387 515.837 56.18C515.496 56.5213 515.016 56.692 514.397 56.692C513.779 56.692 513.288 56.5213 512.925 56.18C512.563 55.8387 512.381 55.3693 512.381 54.772V47.124C512.381 45.908 512.147 45.0227 511.677 44.468C511.229 43.9133 510.515 43.636 509.533 43.636C508.381 43.636 507.453 43.9987 506.749 44.724C506.067 45.4493 505.725 46.42 505.725 47.636V54.772C505.725 55.3693 505.544 55.8387 505.181 56.18C504.819 56.5213 504.328 56.692 503.709 56.692C503.091 56.692 502.6 56.5213 502.237 56.18C501.896 55.8387 501.725 55.3693 501.725 54.772V42.388C501.725 41.8333 501.907 41.3853 502.269 41.044C502.632 40.7027 503.123 40.532 503.741 40.532C504.296 40.532 504.744 40.7027 505.085 41.044C505.448 41.364 505.629 41.7907 505.629 42.324V43.188C506.163 42.3133 506.877 41.6413 507.773 41.172C508.669 40.7027 509.683 40.468 510.813 40.468Z" fill="white"/>
</svg>
