<svg width="592" height="91" viewBox="0 0 592 91" fill="none" xmlns="http://www.w3.org/2000/svg">
<rect width="592" height="91" rx="16" fill="url(#paint0_linear)"/>
<path d="M70.7473 42.1954C67.5606 46.9362 61.3683 50.5326 54.516 51.0049C51.0152 51.2462 47.6328 49.425 46.476 46.2232C44.3915 40.4537 45.3176 32.7785 48.4087 28.1799C52.4146 22.2202 60.6628 20.5264 66.8314 24.3967C73.0001 28.2669 74.7533 36.2357 70.7473 42.1954Z" fill="white"/>
<path d="M69.9002 41.6639C66.9023 46.124 61.0132 49.5699 54.4571 50.0218C51.3353 50.237 48.418 48.6111 47.4335 45.8862C46.4492 43.1619 46.1658 39.9512 46.5099 36.8558C46.8544 33.7563 47.8194 30.8482 49.2557 28.7113C52.9463 23.2209 60.5615 21.6428 66.2736 25.2266C71.9856 28.8104 73.5908 36.1735 69.9002 41.6639Z" stroke="black" stroke-opacity="0.1" stroke-width="2"/>
<mask id="path-4-inside-1" fill="white">
<path fill-rule="evenodd" clip-rule="evenodd" d="M44.4072 40.7332C39.927 42.5436 35.8483 45.7473 33.7865 49.1976C30.1088 55.3516 32.2913 63.2208 38.6612 66.7739C45.031 70.3269 53.1761 68.2184 56.8538 62.0643C58.5643 59.202 59.4287 55.2631 59.3212 51.3468C57.585 51.8174 55.7716 52.1113 53.9186 52.1968C50.414 52.3586 47.0534 50.5614 45.7979 47.3959C44.987 45.3516 44.5344 43.0665 44.4072 40.7332Z"/>
</mask>
<path fill-rule="evenodd" clip-rule="evenodd" d="M44.4072 40.7332C39.927 42.5436 35.8483 45.7473 33.7865 49.1976C30.1088 55.3516 32.2913 63.2208 38.6612 66.7739C45.031 70.3269 53.1761 68.2184 56.8538 62.0643C58.5643 59.202 59.4287 55.2631 59.3212 51.3468C57.585 51.8174 55.7716 52.1113 53.9186 52.1968C50.414 52.3586 47.0534 50.5614 45.7979 47.3959C44.987 45.3516 44.5344 43.0665 44.4072 40.7332Z" fill="#EEEEEE"/>
<path fill-rule="evenodd" clip-rule="evenodd" d="M44.4072 40.7332C39.927 42.5436 35.8483 45.7473 33.7865 49.1976C30.1088 55.3516 32.2913 63.2208 38.6612 66.7739C45.031 70.3269 53.1761 68.2184 56.8538 62.0643C58.5643 59.202 59.4287 55.2631 59.3212 51.3468C57.585 51.8174 55.7716 52.1113 53.9186 52.1968C50.414 52.3586 47.0534 50.5614 45.7979 47.3959C44.987 45.3516 44.5344 43.0665 44.4072 40.7332Z" fill="url(#paint1_radial)" fill-opacity="0.15"/>
<path d="M33.7865 49.1976L32.0697 48.1716L33.7865 49.1976ZM44.4072 40.7332L46.4043 40.6243L46.252 37.8306L43.6579 38.8788L44.4072 40.7332ZM38.6612 66.7739L39.6354 65.0272H39.6354L38.6612 66.7739ZM56.8538 62.0643L58.5706 63.0903L56.8538 62.0643ZM59.3212 51.3468L61.3204 51.2919L61.2507 48.7517L58.798 49.4164L59.3212 51.3468ZM53.9186 52.1968L53.8264 50.199H53.8264L53.9186 52.1968ZM45.7979 47.3959L43.9387 48.1332L43.9387 48.1332L45.7979 47.3959ZM35.5033 50.2235C37.2909 47.2322 40.9783 44.2759 45.1566 42.5875L43.6579 38.8788C38.8758 40.8112 34.4058 44.2625 32.0697 48.1716L35.5033 50.2235ZM39.6354 65.0272C34.2209 62.007 32.4216 55.3803 35.5033 50.2235L32.0697 48.1716C27.7961 55.323 30.3618 64.4346 37.6869 68.5205L39.6354 65.0272ZM55.137 61.0384C52.0299 66.2377 45.0882 68.0687 39.6354 65.0272L37.6869 68.5205C44.9739 72.5852 54.3224 70.1991 58.5706 63.0903L55.137 61.0384ZM57.3219 51.4017C57.4216 55.0322 56.6094 58.5744 55.137 61.0384L58.5706 63.0903C60.5191 59.8296 61.4358 55.4941 61.3204 51.2919L57.3219 51.4017ZM58.798 49.4164C57.1978 49.8502 55.5288 50.1204 53.8264 50.199L54.0109 54.1947C56.0143 54.1022 57.9721 53.7846 59.8444 53.2771L58.798 49.4164ZM53.8264 50.199C50.9985 50.3295 48.5373 48.8781 47.657 46.6585L43.9387 48.1332C45.5694 52.2447 49.8295 54.3877 54.0109 54.1947L53.8264 50.199ZM47.657 46.6585C46.9381 44.8459 46.5217 42.7782 46.4043 40.6243L42.4102 40.842C42.5471 43.3549 43.036 45.8573 43.9387 48.1332L47.657 46.6585Z" fill="black" fill-opacity="0.08" mask="url(#path-4-inside-1)"/>
<rect x="105" width="4" height="91" fill="black" fill-opacity="0.1"/>
<path d="M145.908 56.5C145.289 56.5 144.799 56.3293 144.436 55.988C144.095 55.6467 143.924 55.1667 143.924 54.548V35.892C143.924 35.2733 144.095 34.7933 144.436 34.452C144.799 34.1107 145.289 33.94 145.908 33.94H152.244C155.935 33.94 158.793 34.932 160.82 36.916C162.868 38.8787 163.892 41.6413 163.892 45.204C163.892 48.788 162.868 51.572 160.82 53.556C158.793 55.5187 155.935 56.5 152.244 56.5H145.908ZM151.988 53.14C157.172 53.14 159.764 50.4947 159.764 45.204C159.764 39.9347 157.172 37.3 151.988 37.3H148.052V53.14H151.988ZM179.761 52.212C180.124 52.212 180.412 52.3507 180.625 52.628C180.86 52.9053 180.977 53.2787 180.977 53.748C180.977 54.4093 180.582 54.964 179.793 55.412C179.068 55.8173 178.246 56.148 177.329 56.404C176.412 56.6387 175.537 56.756 174.705 56.756C172.188 56.756 170.193 56.0307 168.721 54.58C167.249 53.1293 166.513 51.1453 166.513 48.628C166.513 47.028 166.833 45.6093 167.473 44.372C168.113 43.1347 169.009 42.1747 170.161 41.492C171.334 40.8093 172.657 40.468 174.129 40.468C175.537 40.468 176.764 40.7773 177.809 41.396C178.854 42.0147 179.665 42.8893 180.241 44.02C180.817 45.1507 181.105 46.484 181.105 48.02C181.105 48.9373 180.7 49.396 179.889 49.396H170.449C170.577 50.868 170.993 51.956 171.697 52.66C172.401 53.3427 173.425 53.684 174.769 53.684C175.452 53.684 176.049 53.5987 176.561 53.428C177.094 53.2573 177.692 53.0227 178.353 52.724C178.993 52.3827 179.462 52.212 179.761 52.212ZM174.225 43.284C173.137 43.284 172.262 43.6253 171.601 44.308C170.961 44.9907 170.577 45.972 170.449 47.252H177.681C177.638 45.9507 177.318 44.9693 176.721 44.308C176.124 43.6253 175.292 43.284 174.225 43.284ZM193.049 40.468C194.393 40.468 195.588 40.8093 196.633 41.492C197.7 42.1747 198.521 43.1453 199.097 44.404C199.694 45.6413 199.993 47.0707 199.993 48.692C199.993 50.3133 199.694 51.732 199.097 52.948C198.521 54.164 197.71 55.1027 196.665 55.764C195.62 56.4253 194.414 56.756 193.049 56.756C191.94 56.756 190.948 56.5213 190.073 56.052C189.198 55.5827 188.526 54.932 188.057 54.1V60.628C188.057 61.1827 187.876 61.62 187.513 61.94C187.15 62.26 186.67 62.42 186.073 62.42C185.476 62.42 184.985 62.2493 184.601 61.908C184.238 61.5667 184.057 61.1187 184.057 60.564V42.42C184.057 41.844 184.228 41.3853 184.569 41.044C184.932 40.7027 185.412 40.532 186.009 40.532C186.606 40.532 187.086 40.7027 187.449 41.044C187.812 41.3853 187.993 41.844 187.993 42.42V43.22C188.462 42.3453 189.134 41.6733 190.009 41.204C190.905 40.7133 191.918 40.468 193.049 40.468ZM191.993 53.652C193.252 53.652 194.233 53.2253 194.937 52.372C195.641 51.4973 195.993 50.2707 195.993 48.692C195.993 47.0707 195.641 45.812 194.937 44.916C194.233 44.02 193.252 43.572 191.993 43.572C190.713 43.572 189.721 44.0093 189.017 44.884C188.334 45.7587 187.993 47.0067 187.993 48.628C187.993 50.228 188.334 51.4653 189.017 52.34C189.721 53.2147 190.713 53.652 191.993 53.652ZM204.94 56.692C204.364 56.692 203.884 56.532 203.5 56.212C203.137 55.8707 202.956 55.3907 202.956 54.772V35.668C202.956 35.0493 203.137 34.58 203.5 34.26C203.884 33.94 204.364 33.78 204.94 33.78C205.516 33.78 205.996 33.94 206.38 34.26C206.764 34.58 206.956 35.0493 206.956 35.668V54.772C206.956 55.3907 206.764 55.8707 206.38 56.212C205.996 56.532 205.516 56.692 204.94 56.692ZM217.897 56.756C216.297 56.756 214.889 56.4253 213.673 55.764C212.478 55.1027 211.55 54.1533 210.889 52.916C210.227 51.6787 209.897 50.2387 209.897 48.596C209.897 46.9533 210.227 45.524 210.889 44.308C211.55 43.0707 212.478 42.1213 213.673 41.46C214.889 40.7987 216.297 40.468 217.897 40.468C219.497 40.468 220.894 40.7987 222.089 41.46C223.305 42.1213 224.233 43.0707 224.873 44.308C225.534 45.524 225.865 46.9533 225.865 48.596C225.865 50.2387 225.534 51.6787 224.873 52.916C224.233 54.1533 223.305 55.1027 222.089 55.764C220.894 56.4253 219.497 56.756 217.897 56.756ZM217.865 53.652C219.166 53.652 220.158 53.2253 220.841 52.372C221.523 51.5187 221.865 50.26 221.865 48.596C221.865 46.9533 221.523 45.7053 220.841 44.852C220.158 43.9773 219.177 43.54 217.897 43.54C216.617 43.54 215.625 43.9773 214.921 44.852C214.238 45.7053 213.897 46.9533 213.897 48.596C213.897 50.26 214.238 51.5187 214.921 52.372C215.603 53.2253 216.585 53.652 217.865 53.652ZM239.509 41.684C239.68 41.3 239.904 41.0227 240.181 40.852C240.48 40.66 240.8 40.564 241.141 40.564C241.632 40.564 242.069 40.7347 242.453 41.076C242.858 41.396 243.061 41.8013 243.061 42.292C243.061 42.5267 242.997 42.772 242.869 43.028L234.133 61.332C233.77 62.0573 233.205 62.42 232.437 62.42C231.946 62.42 231.509 62.26 231.125 61.94C230.762 61.6413 230.581 61.2573 230.581 60.788C230.581 60.5533 230.645 60.2867 230.773 59.988L232.949 55.412L226.997 43.028C226.89 42.8147 226.837 42.5693 226.837 42.292C226.837 41.8013 227.04 41.3853 227.445 41.044C227.872 40.7027 228.352 40.532 228.885 40.532C229.248 40.532 229.578 40.628 229.877 40.82C230.176 40.9907 230.41 41.268 230.581 41.652L235.061 51.54L239.509 41.684ZM274.64 41.716C274.789 41.332 275.003 41.044 275.28 40.852C275.579 40.66 275.899 40.564 276.24 40.564C276.731 40.564 277.168 40.7347 277.552 41.076C277.957 41.396 278.16 41.8013 278.16 42.292C278.16 42.5693 278.107 42.8147 278 43.028L272.72 55.412C272.549 55.8173 272.283 56.1267 271.92 56.34C271.579 56.5533 271.195 56.66 270.768 56.66C270.363 56.66 269.979 56.5533 269.616 56.34C269.275 56.1267 269.019 55.8173 268.848 55.412L265.04 46.26L261.36 55.412C261.189 55.8173 260.923 56.1267 260.56 56.34C260.219 56.5533 259.835 56.66 259.408 56.66C259.003 56.66 258.619 56.5533 258.256 56.34C257.893 56.1267 257.627 55.8173 257.456 55.412L252.208 43.028C252.101 42.7507 252.048 42.516 252.048 42.324C252.048 41.8333 252.261 41.4173 252.688 41.076C253.115 40.7133 253.584 40.532 254.096 40.532C254.459 40.532 254.789 40.628 255.088 40.82C255.387 41.012 255.611 41.3 255.76 41.684L259.536 51.444L263.408 41.78C263.579 41.3747 263.824 41.076 264.144 40.884C264.464 40.6707 264.816 40.564 265.2 40.564C265.584 40.564 265.936 40.6707 266.256 40.884C266.576 41.076 266.821 41.3747 266.992 41.78L270.896 51.476L274.64 41.716ZM283.09 56.692C282.514 56.692 282.034 56.532 281.65 56.212C281.287 55.8707 281.106 55.3907 281.106 54.772V42.42C281.106 41.8013 281.287 41.332 281.65 41.012C282.034 40.692 282.514 40.532 283.09 40.532C283.666 40.532 284.146 40.692 284.53 41.012C284.914 41.332 285.106 41.8013 285.106 42.42V54.772C285.106 55.3907 284.914 55.8707 284.53 56.212C284.146 56.532 283.666 56.692 283.09 56.692ZM283.09 37.684C282.364 37.684 281.788 37.492 281.362 37.108C280.935 36.7027 280.722 36.18 280.722 35.54C280.722 34.9 280.935 34.388 281.362 34.004C281.788 33.62 282.364 33.428 283.09 33.428C283.794 33.428 284.359 33.62 284.786 34.004C285.234 34.388 285.458 34.9 285.458 35.54C285.458 36.18 285.244 36.7027 284.818 37.108C284.391 37.492 283.815 37.684 283.09 37.684ZM297.726 53.716C298.793 53.78 299.326 54.26 299.326 55.156C299.326 55.668 299.113 56.0627 298.686 56.34C298.281 56.596 297.694 56.7027 296.926 56.66L296.062 56.596C292.478 56.34 290.686 54.42 290.686 50.836V43.86H289.086C288.51 43.86 288.062 43.732 287.742 43.476C287.443 43.22 287.294 42.8467 287.294 42.356C287.294 41.8653 287.443 41.492 287.742 41.236C288.062 40.98 288.51 40.852 289.086 40.852H290.686V37.908C290.686 37.332 290.867 36.8733 291.23 36.532C291.593 36.1907 292.083 36.02 292.702 36.02C293.299 36.02 293.779 36.1907 294.142 36.532C294.505 36.8733 294.686 37.332 294.686 37.908V40.852H297.406C297.982 40.852 298.419 40.98 298.718 41.236C299.038 41.492 299.198 41.8653 299.198 42.356C299.198 42.8467 299.038 43.22 298.718 43.476C298.419 43.732 297.982 43.86 297.406 43.86H294.686V51.124C294.686 52.7027 295.411 53.5453 296.862 53.652L297.726 53.716ZM310.243 40.468C313.912 40.468 315.747 42.612 315.747 46.9V54.772C315.747 55.3693 315.565 55.8387 315.203 56.18C314.861 56.5213 314.381 56.692 313.763 56.692C313.144 56.692 312.653 56.5213 312.291 56.18C311.928 55.8387 311.747 55.3693 311.747 54.772V46.9C311.747 45.7693 311.512 44.948 311.043 44.436C310.595 43.9027 309.88 43.636 308.899 43.636C307.747 43.636 306.819 43.9987 306.115 44.724C305.432 45.4493 305.091 46.42 305.091 47.636V54.772C305.091 55.3693 304.909 55.8387 304.547 56.18C304.184 56.5213 303.693 56.692 303.075 56.692C302.456 56.692 301.965 56.5213 301.603 56.18C301.261 55.8387 301.091 55.3693 301.091 54.772V35.636C301.091 35.0813 301.272 34.6333 301.635 34.292C302.019 33.9507 302.509 33.78 303.107 33.78C303.704 33.78 304.184 33.94 304.547 34.26C304.909 34.58 305.091 35.0173 305.091 35.572V43.028C305.624 42.196 306.328 41.5667 307.203 41.14C308.099 40.692 309.112 40.468 310.243 40.468ZM336.017 56.788C334.374 56.788 332.817 56.5747 331.345 56.148C329.894 55.7 328.71 55.1027 327.793 54.356C327.302 53.9933 327.057 53.4813 327.057 52.82C327.057 52.372 327.185 51.988 327.441 51.668C327.718 51.3267 328.038 51.156 328.401 51.156C328.785 51.156 329.222 51.3053 329.713 51.604C330.63 52.2653 331.59 52.7453 332.593 53.044C333.596 53.3427 334.705 53.492 335.921 53.492C337.478 53.492 338.673 53.2253 339.505 52.692C340.337 52.1373 340.753 51.3373 340.753 50.292C340.753 49.4813 340.358 48.8627 339.569 48.436C338.801 47.988 337.51 47.5613 335.697 47.156C333.82 46.7507 332.294 46.2813 331.121 45.748C329.948 45.2147 329.062 44.532 328.465 43.7C327.868 42.868 327.569 41.812 327.569 40.532C327.569 39.2093 327.942 38.0253 328.689 36.98C329.436 35.9347 330.47 35.124 331.793 34.548C333.137 33.9507 334.641 33.652 336.305 33.652C339.356 33.652 341.841 34.4627 343.761 36.084C344.038 36.3187 344.23 36.5533 344.337 36.788C344.465 37.0013 344.529 37.2787 344.529 37.62C344.529 38.068 344.39 38.4627 344.113 38.804C343.857 39.124 343.548 39.284 343.185 39.284C342.972 39.284 342.769 39.252 342.577 39.188C342.406 39.124 342.172 39.0067 341.873 38.836C340.998 38.196 340.145 37.7267 339.313 37.428C338.502 37.108 337.5 36.948 336.305 36.948C334.854 36.948 333.702 37.2467 332.849 37.844C332.017 38.42 331.601 39.2307 331.601 40.276C331.601 41.1507 331.974 41.8227 332.721 42.292C333.468 42.7613 334.737 43.1987 336.529 43.604C338.428 44.0307 339.964 44.5107 341.137 45.044C342.332 45.556 343.238 46.2173 343.857 47.028C344.497 47.8387 344.817 48.852 344.817 50.068C344.817 51.3907 344.444 52.564 343.697 53.588C342.972 54.5907 341.937 55.38 340.593 55.956C339.27 56.5107 337.745 56.788 336.017 56.788ZM349.927 56.692C349.351 56.692 348.871 56.532 348.487 56.212C348.124 55.8707 347.943 55.3907 347.943 54.772V42.42C347.943 41.8013 348.124 41.332 348.487 41.012C348.871 40.692 349.351 40.532 349.927 40.532C350.503 40.532 350.983 40.692 351.367 41.012C351.751 41.332 351.943 41.8013 351.943 42.42V54.772C351.943 55.3907 351.751 55.8707 351.367 56.212C350.983 56.532 350.503 56.692 349.927 56.692ZM349.927 37.684C349.202 37.684 348.626 37.492 348.199 37.108C347.772 36.7027 347.559 36.18 347.559 35.54C347.559 34.9 347.772 34.388 348.199 34.004C348.626 33.62 349.202 33.428 349.927 33.428C350.631 33.428 351.196 33.62 351.623 34.004C352.071 34.388 352.295 34.9 352.295 35.54C352.295 36.18 352.082 36.7027 351.655 37.108C351.228 37.492 350.652 37.684 349.927 37.684ZM364.836 40.468C366.713 40.468 368.111 41.0013 369.028 42.068C369.945 43.1347 370.404 44.7453 370.404 46.9V54.772C370.404 55.3693 370.223 55.8387 369.86 56.18C369.519 56.5213 369.039 56.692 368.42 56.692C367.801 56.692 367.311 56.5213 366.948 56.18C366.585 55.8387 366.404 55.3693 366.404 54.772V47.124C366.404 45.908 366.169 45.0227 365.7 44.468C365.252 43.9133 364.537 43.636 363.556 43.636C362.404 43.636 361.476 43.9987 360.772 44.724C360.089 45.4493 359.748 46.42 359.748 47.636V54.772C359.748 55.3693 359.567 55.8387 359.204 56.18C358.841 56.5213 358.351 56.692 357.732 56.692C357.113 56.692 356.623 56.5213 356.26 56.18C355.919 55.8387 355.748 55.3693 355.748 54.772V42.388C355.748 41.8333 355.929 41.3853 356.292 41.044C356.655 40.7027 357.145 40.532 357.764 40.532C358.319 40.532 358.767 40.7027 359.108 41.044C359.471 41.364 359.652 41.7907 359.652 42.324V43.188C360.185 42.3133 360.9 41.6413 361.796 41.172C362.692 40.7027 363.705 40.468 364.836 40.468ZM387.395 40.532C387.992 40.532 388.472 40.7027 388.835 41.044C389.198 41.3853 389.379 41.844 389.379 42.42V55.06C389.379 57.5133 388.696 59.3693 387.331 60.628C385.966 61.8867 383.95 62.516 381.283 62.516C378.958 62.516 377.016 62.0787 375.459 61.204C374.67 60.7347 374.275 60.1693 374.275 59.508C374.275 59.0387 374.382 58.6653 374.595 58.388C374.83 58.1107 375.128 57.972 375.491 57.972C375.683 57.972 375.918 58.0147 376.195 58.1C376.472 58.2067 376.76 58.324 377.059 58.452C377.827 58.772 378.51 59.0173 379.107 59.188C379.726 59.3587 380.43 59.444 381.219 59.444C384.014 59.444 385.411 58.0787 385.411 55.348V53.3C384.942 54.1747 384.259 54.8573 383.363 55.348C382.467 55.8173 381.443 56.052 380.291 56.052C378.926 56.052 377.71 55.732 376.643 55.092C375.598 54.4307 374.776 53.5133 374.179 52.34C373.582 51.1667 373.283 49.812 373.283 48.276C373.283 46.74 373.571 45.3853 374.147 44.212C374.744 43.0173 375.576 42.1 376.643 41.46C377.71 40.7987 378.926 40.468 380.291 40.468C381.443 40.468 382.467 40.7133 383.363 41.204C384.259 41.6733 384.942 42.3453 385.411 43.22V42.388C385.411 41.8333 385.592 41.3853 385.955 41.044C386.318 40.7027 386.798 40.532 387.395 40.532ZM381.347 52.948C382.627 52.948 383.619 52.532 384.323 51.7C385.048 50.868 385.411 49.7267 385.411 48.276C385.411 46.804 385.048 45.652 384.323 44.82C383.619 43.988 382.627 43.572 381.347 43.572C380.088 43.572 379.096 43.988 378.371 44.82C377.646 45.652 377.283 46.804 377.283 48.276C377.283 49.7267 377.646 50.868 378.371 51.7C379.096 52.532 380.088 52.948 381.347 52.948ZM395.186 56.692C394.61 56.692 394.13 56.532 393.746 56.212C393.383 55.8707 393.202 55.3907 393.202 54.772V35.668C393.202 35.0493 393.383 34.58 393.746 34.26C394.13 33.94 394.61 33.78 395.186 33.78C395.762 33.78 396.242 33.94 396.626 34.26C397.01 34.58 397.202 35.0493 397.202 35.668V54.772C397.202 55.3907 397.01 55.8707 396.626 56.212C396.242 56.532 395.762 56.692 395.186 56.692ZM413.391 52.212C413.754 52.212 414.042 52.3507 414.255 52.628C414.49 52.9053 414.607 53.2787 414.607 53.748C414.607 54.4093 414.212 54.964 413.423 55.412C412.698 55.8173 411.876 56.148 410.959 56.404C410.042 56.6387 409.167 56.756 408.335 56.756C405.818 56.756 403.823 56.0307 402.351 54.58C400.879 53.1293 400.143 51.1453 400.143 48.628C400.143 47.028 400.463 45.6093 401.103 44.372C401.743 43.1347 402.639 42.1747 403.791 41.492C404.964 40.8093 406.287 40.468 407.759 40.468C409.167 40.468 410.394 40.7773 411.439 41.396C412.484 42.0147 413.295 42.8893 413.871 44.02C414.447 45.1507 414.735 46.484 414.735 48.02C414.735 48.9373 414.33 49.396 413.519 49.396H404.079C404.207 50.868 404.623 51.956 405.327 52.66C406.031 53.3427 407.055 53.684 408.399 53.684C409.082 53.684 409.679 53.5987 410.191 53.428C410.724 53.2573 411.322 53.0227 411.983 52.724C412.623 52.3827 413.092 52.212 413.391 52.212ZM407.855 43.284C406.767 43.284 405.892 43.6253 405.231 44.308C404.591 44.9907 404.207 45.972 404.079 47.252H411.311C411.268 45.9507 410.948 44.9693 410.351 44.308C409.754 43.6253 408.922 43.284 407.855 43.284ZM419.671 56.692C419.095 56.692 418.615 56.532 418.231 56.212C417.868 55.8707 417.687 55.3907 417.687 54.772V35.668C417.687 35.0493 417.868 34.58 418.231 34.26C418.615 33.94 419.095 33.78 419.671 33.78C420.247 33.78 420.727 33.94 421.111 34.26C421.495 34.58 421.687 35.0493 421.687 35.668V54.772C421.687 55.3907 421.495 55.8707 421.111 56.212C420.727 56.532 420.247 56.692 419.671 56.692ZM427.476 56.692C426.9 56.692 426.42 56.532 426.036 56.212C425.673 55.8707 425.492 55.3907 425.492 54.772V42.42C425.492 41.8013 425.673 41.332 426.036 41.012C426.42 40.692 426.9 40.532 427.476 40.532C428.052 40.532 428.532 40.692 428.916 41.012C429.3 41.332 429.492 41.8013 429.492 42.42V54.772C429.492 55.3907 429.3 55.8707 428.916 56.212C428.532 56.532 428.052 56.692 427.476 56.692ZM427.476 37.684C426.751 37.684 426.175 37.492 425.748 37.108C425.321 36.7027 425.108 36.18 425.108 35.54C425.108 34.9 425.321 34.388 425.748 34.004C426.175 33.62 426.751 33.428 427.476 33.428C428.18 33.428 428.745 33.62 429.172 34.004C429.62 34.388 429.844 34.9 429.844 35.54C429.844 36.18 429.631 36.7027 429.204 37.108C428.777 37.492 428.201 37.684 427.476 37.684ZM442.385 40.468C444.262 40.468 445.66 41.0013 446.577 42.068C447.494 43.1347 447.953 44.7453 447.953 46.9V54.772C447.953 55.3693 447.772 55.8387 447.409 56.18C447.068 56.5213 446.588 56.692 445.969 56.692C445.35 56.692 444.86 56.5213 444.497 56.18C444.134 55.8387 443.953 55.3693 443.953 54.772V47.124C443.953 45.908 443.718 45.0227 443.249 44.468C442.801 43.9133 442.086 43.636 441.105 43.636C439.953 43.636 439.025 43.9987 438.321 44.724C437.638 45.4493 437.297 46.42 437.297 47.636V54.772C437.297 55.3693 437.116 55.8387 436.753 56.18C436.39 56.5213 435.9 56.692 435.281 56.692C434.662 56.692 434.172 56.5213 433.809 56.18C433.468 55.8387 433.297 55.3693 433.297 54.772V42.388C433.297 41.8333 433.478 41.3853 433.841 41.044C434.204 40.7027 434.694 40.532 435.313 40.532C435.868 40.532 436.316 40.7027 436.657 41.044C437.02 41.364 437.201 41.7907 437.201 42.324V43.188C437.734 42.3133 438.449 41.6413 439.345 41.172C440.241 40.7027 441.254 40.468 442.385 40.468ZM465.616 53.396C466.042 53.8013 466.256 54.26 466.256 54.772C466.256 55.2627 466.074 55.7 465.712 56.084C465.37 56.468 464.965 56.66 464.496 56.66C464.026 56.66 463.589 56.468 463.184 56.084L455.696 49.3V54.772C455.696 55.3907 455.504 55.86 455.12 56.18C454.736 56.5 454.256 56.66 453.68 56.66C453.104 56.66 452.624 56.5 452.24 56.18C451.877 55.86 451.696 55.3907 451.696 54.772V35.668C451.696 35.0493 451.877 34.58 452.24 34.26C452.624 33.94 453.104 33.78 453.68 33.78C454.256 33.78 454.736 33.94 455.12 34.26C455.504 34.58 455.696 35.0493 455.696 35.668V47.7L462.544 41.14C462.928 40.756 463.365 40.564 463.856 40.564C464.346 40.564 464.773 40.7453 465.136 41.108C465.498 41.4707 465.68 41.8973 465.68 42.388C465.68 42.8787 465.477 43.3267 465.072 43.732L460.048 48.404L465.616 53.396ZM487.331 56.788C485.155 56.788 483.246 56.3187 481.603 55.38C479.982 54.4413 478.734 53.0973 477.859 51.348C476.985 49.5987 476.547 47.5507 476.547 45.204C476.547 42.8573 476.985 40.82 477.859 39.092C478.734 37.3427 479.982 35.9987 481.603 35.06C483.246 34.1213 485.155 33.652 487.331 33.652C488.739 33.652 490.062 33.8653 491.299 34.292C492.537 34.6973 493.635 35.2947 494.595 36.084C494.873 36.2973 495.065 36.5213 495.171 36.756C495.278 36.9907 495.331 37.2787 495.331 37.62C495.331 38.0893 495.203 38.484 494.947 38.804C494.691 39.124 494.382 39.284 494.019 39.284C493.593 39.284 493.155 39.1347 492.707 38.836C491.79 38.1533 490.937 37.684 490.147 37.428C489.358 37.1507 488.483 37.012 487.523 37.012C485.305 37.012 483.619 37.7053 482.467 39.092C481.337 40.4787 480.771 42.516 480.771 45.204C480.771 47.9133 481.337 49.9613 482.467 51.348C483.619 52.7347 485.305 53.428 487.523 53.428C488.441 53.428 489.283 53.2893 490.051 53.012C490.841 52.7347 491.726 52.2653 492.707 51.604C492.921 51.476 493.134 51.3693 493.347 51.284C493.561 51.1987 493.785 51.156 494.019 51.156C494.382 51.156 494.691 51.316 494.947 51.636C495.203 51.956 495.331 52.3507 495.331 52.82C495.331 53.14 495.278 53.428 495.171 53.684C495.065 53.9187 494.873 54.1427 494.595 54.356C493.635 55.1453 492.537 55.7533 491.299 56.18C490.062 56.5853 488.739 56.788 487.331 56.788ZM500.251 56.692C499.675 56.692 499.195 56.532 498.811 56.212C498.448 55.8707 498.267 55.3907 498.267 54.772V35.668C498.267 35.0493 498.448 34.58 498.811 34.26C499.195 33.94 499.675 33.78 500.251 33.78C500.827 33.78 501.307 33.94 501.691 34.26C502.075 34.58 502.267 35.0493 502.267 35.668V54.772C502.267 55.3907 502.075 55.8707 501.691 56.212C501.307 56.532 500.827 56.692 500.251 56.692ZM513.208 56.756C511.608 56.756 510.2 56.4253 508.984 55.764C507.789 55.1027 506.861 54.1533 506.2 52.916C505.539 51.6787 505.208 50.2387 505.208 48.596C505.208 46.9533 505.539 45.524 506.2 44.308C506.861 43.0707 507.789 42.1213 508.984 41.46C510.2 40.7987 511.608 40.468 513.208 40.468C514.808 40.468 516.205 40.7987 517.4 41.46C518.616 42.1213 519.544 43.0707 520.184 44.308C520.845 45.524 521.176 46.9533 521.176 48.596C521.176 50.2387 520.845 51.6787 520.184 52.916C519.544 54.1533 518.616 55.1027 517.4 55.764C516.205 56.4253 514.808 56.756 513.208 56.756ZM513.176 53.652C514.477 53.652 515.469 53.2253 516.152 52.372C516.835 51.5187 517.176 50.26 517.176 48.596C517.176 46.9533 516.835 45.7053 516.152 44.852C515.469 43.9773 514.488 43.54 513.208 43.54C511.928 43.54 510.936 43.9773 510.232 44.852C509.549 45.7053 509.208 46.9533 509.208 48.596C509.208 50.26 509.549 51.5187 510.232 52.372C510.915 53.2253 511.896 53.652 513.176 53.652ZM536.51 40.532C537.129 40.532 537.619 40.7027 537.982 41.044C538.345 41.3853 538.526 41.844 538.526 42.42V54.836C538.526 55.3907 538.334 55.8387 537.95 56.18C537.587 56.5213 537.107 56.692 536.51 56.692C535.934 56.692 535.475 56.532 535.134 56.212C534.793 55.892 534.622 55.4547 534.622 54.9V54.1C534.131 54.9533 533.47 55.6147 532.638 56.084C531.806 56.532 530.867 56.756 529.822 56.756C525.982 56.756 524.062 54.6013 524.062 50.292V42.42C524.062 41.844 524.243 41.3853 524.606 41.044C524.969 40.7027 525.449 40.532 526.046 40.532C526.665 40.532 527.155 40.7027 527.518 41.044C527.881 41.3853 528.062 41.844 528.062 42.42V50.324C528.062 51.4333 528.286 52.2547 528.734 52.788C529.182 53.3213 529.886 53.588 530.846 53.588C531.955 53.588 532.841 53.2253 533.502 52.5C534.185 51.7533 534.526 50.772 534.526 49.556V42.42C534.526 41.844 534.707 41.3853 535.07 41.044C535.433 40.7027 535.913 40.532 536.51 40.532ZM555.425 33.78C556.023 33.78 556.513 33.9507 556.897 34.292C557.281 34.6333 557.473 35.0813 557.473 35.636V54.772C557.473 55.348 557.292 55.8067 556.929 56.148C556.567 56.4893 556.087 56.66 555.489 56.66C554.892 56.66 554.412 56.4893 554.049 56.148C553.687 55.8067 553.505 55.348 553.505 54.772V53.972C553.036 54.8467 552.353 55.5293 551.457 56.02C550.583 56.5107 549.58 56.756 548.449 56.756C547.105 56.756 545.9 56.4147 544.833 55.732C543.788 55.0493 542.967 54.0893 542.369 52.852C541.793 51.5933 541.505 50.1533 541.505 48.532C541.505 46.9107 541.793 45.492 542.369 44.276C542.967 43.06 543.788 42.1213 544.833 41.46C545.879 40.7987 547.084 40.468 548.449 40.468C549.58 40.468 550.583 40.7027 551.457 41.172C552.332 41.6413 553.004 42.3027 553.473 43.156V35.572C553.473 35.0387 553.644 34.612 553.985 34.292C554.348 33.9507 554.828 33.78 555.425 33.78ZM549.505 53.652C550.785 53.652 551.767 53.2147 552.449 52.34C553.153 51.4653 553.505 50.2173 553.505 48.596C553.505 46.9747 553.153 45.7373 552.449 44.884C551.767 44.0093 550.796 43.572 549.537 43.572C548.257 43.572 547.265 43.9987 546.561 44.852C545.857 45.7053 545.505 46.932 545.505 48.532C545.505 50.1533 545.857 51.412 546.561 52.308C547.265 53.204 548.247 53.652 549.505 53.652Z" fill="white"/>
<defs>
<linearGradient id="paint0_linear" x1="296" y1="0" x2="296" y2="91" gradientUnits="userSpaceOnUse">
<stop stop-color="#8686FF"/>
<stop offset="1" stop-color="#5353EC"/>
</linearGradient>
<radialGradient id="paint1_radial" cx="0" cy="0" r="1" gradientUnits="userSpaceOnUse" gradientTransform="translate(64.8075 35.9873) rotate(128.654) scale(17.6815 14.6173)">
<stop stop-color="white"/>
<stop offset="1" stop-color="white" stop-opacity="0"/>
</radialGradient>
</defs>
</svg>
