<svg width="46" height="55" viewBox="0 0 46 55" fill="none" xmlns="http://www.w3.org/2000/svg">
<path d="M5.9994 32.0397C7.958 28.6473 14.9005 25.0077 20.2505 22.5985C23.6629 21.0619 27.4572 23.2526 27.8326 26.9761C28.4212 32.8138 28.7405 40.6461 26.7819 44.0385C23.4685 49.7774 16.1302 51.7437 10.3913 48.4303C4.65233 45.1169 2.68603 37.7786 5.9994 32.0397Z" fill="#1127EF"/>
<g style="mix-blend-mode:hard-light">
<path d="M39.2806 22.39C37.322 25.7824 30.3795 29.422 25.0295 31.8312C21.6172 33.3678 17.8228 31.1771 17.4474 27.4536C16.8588 21.6159 16.5395 13.7836 18.4981 10.3912C21.8115 4.65232 29.1498 2.68602 34.8887 5.99939C40.6277 9.31276 42.594 16.6511 39.2806 22.39Z" fill="#03D2D4"/>
</g>
</svg>
