<svg width="80" height="80" viewBox="0 0 80 80" fill="none" xmlns="http://www.w3.org/2000/svg">
<mask id="mask0" mask-type="alpha" maskUnits="userSpaceOnUse" x="3" y="3" width="73" height="73">
<path fill-rule="evenodd" clip-rule="evenodd" d="M39.5 76C59.6584 76 76 59.6584 76 39.5C76 19.3416 59.6584 3 39.5 3C19.3416 3 3 19.3416 3 39.5C3 59.6584 19.3416 76 39.5 76ZM39 58C48.9411 58 57 49.9411 57 40C57 30.0589 48.9411 22 39 22C29.0589 22 21 30.0589 21 40C21 49.9411 29.0589 58 39 58Z" fill="#5353EC"/>
</mask>
<g mask="url(#mask0)">
<path fill-rule="evenodd" clip-rule="evenodd" d="M39.5 76C59.6584 76 76 59.6584 76 39.5C76 19.3416 59.6584 3 39.5 3C19.3416 3 3 19.3416 3 39.5C3 59.6584 19.3416 76 39.5 76ZM39 58C48.9411 58 57 49.9411 57 40C57 30.0589 48.9411 22 39 22C29.0589 22 21 30.0589 21 40C21 49.9411 29.0589 58 39 58Z" fill="#5353EC"/>
<rect x="28" y="-13" width="23" height="105" fill="white" fill-opacity="0.3"/>
<rect x="92" y="28" width="23" height="105" transform="rotate(90 92 28)" fill="white" fill-opacity="0.3"/>
</g>
<rect x="1" y="1" width="78" height="78" rx="26" stroke="#5353EC" stroke-opacity="0.35" stroke-width="2"/>
<rect x="37" width="5" height="5" rx="2" fill="#8787F2"/>
<rect x="75" y="37" width="5" height="5" rx="2" fill="#8787F2"/>
<rect x="37" y="75" width="5" height="5" rx="2" fill="#8787F2"/>
<rect y="37" width="5" height="5" rx="2" fill="#8787F2"/>
</svg>
