<svg width="400" height="79" viewBox="0 0 400 79" fill="none" xmlns="http://www.w3.org/2000/svg">
<path d="M84.493 53.2003C84.2394 53.5997 84.2982 54.1246 84.6534 54.437C88.2445 57.5951 93.3875 59.2654 98.9826 59.2654C108.356 59.2654 113.475 54.6029 113.475 48.5059C113.475 40.3286 106.048 38.6071 99.992 37.316C95.8823 36.3835 92.4215 35.451 92.4215 32.797C92.4215 30.3582 94.945 28.9236 98.9105 28.9236C102.632 28.9236 106.034 30.2509 108.243 32.129C108.759 32.5676 109.575 32.4905 109.923 31.9094L111.967 28.4893C112.214 28.0757 112.133 27.5426 111.758 27.2399C108.634 24.7168 104.366 22.8982 98.8384 22.8982C90.0422 22.8982 85.1394 27.7759 85.1394 33.4426C85.1394 41.1894 92.2773 42.7675 98.2616 44.0586C102.515 44.9911 106.193 46.0671 106.193 49.0797C106.193 51.662 103.885 53.3118 99.3431 53.3118C95.3203 53.3118 91.0713 51.4552 88.4492 49.2866C87.9521 48.8755 87.1873 48.9561 86.8416 49.5008L84.493 53.2003Z" fill="black"/>
<path d="M126.285 18.0206C128.881 18.0206 130.972 15.9404 130.972 13.3581C130.972 10.7758 128.881 8.69565 126.285 8.69565C123.762 8.69565 121.599 10.7758 121.599 13.3581C121.599 15.9404 123.762 18.0206 126.285 18.0206ZM122.536 57.4046C122.536 57.9569 122.984 58.4046 123.536 58.4046H129.107C129.659 58.4046 130.107 57.9569 130.107 57.4046V24.759C130.107 24.2067 129.659 23.759 129.107 23.759H123.536C122.984 23.759 122.536 24.2067 122.536 24.759V57.4046Z" fill="black"/>
<path d="M164.874 57.4046C164.874 57.9569 165.322 58.4046 165.874 58.4046H171.444C171.997 58.4046 172.444 57.9569 172.444 57.4046V34.0164C172.444 26.9151 168.695 22.8982 161.197 22.8982C156.998 22.8982 153.391 24.5833 150.897 26.5975C150.172 27.1827 148.94 26.6954 148.94 25.7639V24.759C148.94 24.2067 148.492 23.759 147.94 23.759H142.369C141.817 23.759 141.369 24.2067 141.369 24.759V57.4046C141.369 57.9569 141.817 58.4046 142.369 58.4046H147.94C148.492 58.4046 148.94 57.9569 148.94 57.4046V34.5581C148.94 34.3459 149.006 34.1386 149.137 33.9715C150.914 31.6992 154.13 29.5691 157.88 29.5691C162.134 29.5691 164.874 31.3624 164.874 36.7421V57.4046Z" fill="black"/>
<path d="M183.748 66.5872C183.482 66.9979 183.552 67.5436 183.925 67.8599C187.984 71.2983 192.234 72.4638 197.851 72.4638C206.431 72.4638 215.732 69.0924 215.732 56.6114V24.759C215.732 24.2067 215.284 23.759 214.732 23.759H209.161C208.609 23.759 208.161 24.2067 208.161 24.759V25.623C208.161 26.578 206.878 27.0455 206.164 26.4104C203.599 24.1261 200.425 22.8982 196.986 22.8982C188.046 22.8982 181.557 29.4974 181.557 40.6873C181.557 52.0924 188.118 58.4764 196.986 58.4764C200.506 58.4764 203.68 57.0977 206.172 54.8745C206.883 54.24 208.161 54.7082 208.161 55.6613V56.8983C208.161 63.9996 202.826 66.295 197.851 66.295C193.725 66.295 190.405 65.3198 187.739 62.8051C187.255 62.3491 186.46 62.4034 186.098 62.9612L183.748 66.5872ZM208.161 46.8496C208.161 47.0412 208.108 47.2297 207.998 47.3866C206.266 49.8549 202.642 51.8055 199.221 51.8055C193.237 51.8055 189.415 47.3582 189.415 40.6873C189.415 34.0164 193.237 29.5691 199.221 29.5691C202.642 29.5691 206.266 31.5197 207.998 33.988C208.108 34.1449 208.161 34.3334 208.161 34.525V46.8496Z" fill="black"/>
<path d="M226.985 57.4046C226.985 57.9569 227.433 58.4046 227.985 58.4046H233.556C234.108 58.4046 234.556 57.9569 234.556 57.4046V11.5606C234.556 11.0083 234.108 10.5606 233.556 10.5606H227.985C227.433 10.5606 226.985 11.0083 226.985 11.5606V57.4046Z" fill="black"/>
<path d="M243.655 41.0459C243.655 52.0207 251.442 59.2654 261.897 59.2654C267.116 59.2654 271.954 57.7436 275.39 54.8191C275.766 54.4989 275.819 53.9452 275.536 53.5403L273.249 50.2697C272.893 49.7608 272.164 49.6976 271.677 50.0818C269.21 52.025 265.695 53.0966 262.69 53.0966C256.596 53.0966 252.741 49.3835 251.761 44.6589C251.64 44.0757 252.107 43.5565 252.703 43.5565H277.48C278.032 43.5565 278.48 43.1088 278.48 42.5565V41.7632C278.48 30.8603 271.774 22.8982 261.32 22.8982C251.01 22.8982 243.655 31.0037 243.655 41.0459ZM261.32 29.067C267.603 29.067 270.489 33.3528 271.034 37.2176C271.113 37.7782 270.656 38.2485 270.09 38.2485H252.603C252.017 38.2485 251.553 37.7463 251.661 37.1704C252.396 33.22 255.376 29.067 261.32 29.067Z" fill="black"/>
<path d="M287.394 57.4046C287.394 57.9569 287.842 58.4046 288.394 58.4046H293.965C294.517 58.4046 294.965 57.9569 294.965 57.4046V11.5606C294.965 11.0083 294.517 10.5606 293.965 10.5606H288.394C287.842 10.5606 287.394 11.0083 287.394 11.5606V57.4046Z" fill="black"/>
<path d="M309.977 18.0206C312.572 18.0206 314.663 15.9404 314.663 13.3581C314.663 10.7758 312.572 8.69565 309.977 8.69565C307.453 8.69565 305.29 10.7758 305.29 13.3581C305.29 15.9404 307.453 18.0206 309.977 18.0206ZM306.227 57.4046C306.227 57.9569 306.675 58.4046 307.227 58.4046H312.798C313.35 58.4046 313.798 57.9569 313.798 57.4046V24.759C313.798 24.2067 313.35 23.759 312.798 23.759H307.227C306.675 23.759 306.227 24.2067 306.227 24.759V57.4046Z" fill="black"/>
<path d="M348.565 57.4046C348.565 57.9569 349.013 58.4046 349.565 58.4046H355.136C355.688 58.4046 356.136 57.9569 356.136 57.4046V34.0164C356.136 26.9151 352.386 22.8982 344.888 22.8982C340.689 22.8982 337.082 24.5833 334.588 26.5975C333.863 27.1827 332.631 26.6954 332.631 25.7639V24.759C332.631 24.2067 332.183 23.759 331.631 23.759H326.061C325.508 23.759 325.061 24.2067 325.061 24.759V57.4046C325.061 57.9569 325.508 58.4046 326.061 58.4046H331.631C332.183 58.4046 332.631 57.9569 332.631 57.4046V34.5581C332.631 34.3459 332.697 34.1386 332.828 33.9715C334.606 31.6992 337.821 29.5691 341.571 29.5691C345.825 29.5691 348.565 31.3624 348.565 36.7421V57.4046Z" fill="black"/>
<path d="M390.183 58.0034C390.372 58.2559 390.668 58.4046 390.984 58.4046H397.951C398.784 58.4046 399.252 57.446 398.739 56.7894L385.742 40.1372C385.441 39.7512 385.463 39.2038 385.795 38.8438L398.163 25.437C398.754 24.7964 398.3 23.759 397.428 23.759H390.778C390.498 23.759 390.231 23.8763 390.041 24.0824L376.718 38.5825C376.101 39.2536 374.981 38.8173 374.981 37.9059V11.5606C374.981 11.0083 374.534 10.5606 373.981 10.5606H368.411C367.859 10.5606 367.411 11.0083 367.411 11.5606V57.4046C367.411 57.9569 367.859 58.4046 368.411 58.4046H373.981C374.534 58.4046 374.981 57.9569 374.981 57.4046V49.4868C374.981 49.2258 375.083 48.9752 375.266 48.7884L378.995 44.967C379.424 44.5275 380.144 44.5749 380.512 45.0667L390.183 58.0034Z" fill="black"/>
<path d="M8.69565 46.439C12.4179 39.9919 28.5598 32.9287 35.6329 30.0775C37.3684 29.3779 39.2573 30.4684 39.5192 32.3212C40.5865 39.8723 42.5406 57.3832 38.8183 63.8304C34.0158 72.1485 23.3794 74.9985 15.0613 70.196C6.74318 65.3935 3.89318 54.7572 8.69565 46.439Z" fill="#1127EF"/>
<g style="mix-blend-mode:hard-light">
<path d="M56.9342 32.4526C53.2119 38.8998 37.07 45.963 29.997 48.8142C28.2615 49.5138 26.3726 48.4232 26.1107 46.5704C25.0434 39.0194 23.0893 21.5085 26.8116 15.0613C31.6141 6.74318 42.2504 3.89318 50.5686 8.69565C58.8867 13.4981 61.7367 24.1345 56.9342 32.4526Z" fill="#03D2D4"/>
</g>
</svg>
