<svg width="24" height="24" viewBox="0 0 24 24" fill="none" xmlns="http://www.w3.org/2000/svg">
<path d="M4.55993 16.7373C3.22279 18.0344 4.97707 19.423 2.28564 21.3087C2.28564 21.3087 3.8685 21.8401 5.30279 20.0344C5.79422 19.4116 6.36564 19.1544 6.36564 19.1544C6.55993 19.2687 6.41136 19.903 5.71993 20.423C5.71993 20.423 6.79993 20.4516 7.47422 19.7773C8.1485 19.103 8.60564 18.1316 8.60564 18.1316C9.0685 18.943 7.9085 19.9716 7.9085 19.9716C7.9085 19.9716 8.99993 19.6859 10.2971 18.3887C11.3028 17.383 12.0228 14.8744 10.5771 13.4344C9.13136 11.9944 6.55422 12.2516 5.29136 13.5201C4.73707 14.0744 4.17136 14.9373 4.09707 15.6459C4.09707 15.6459 5.15993 14.4973 5.53707 14.983C5.53707 14.983 3.73707 16.0687 3.44564 17.103C3.45136 17.103 4.3485 16.5659 4.55993 16.7373Z" fill="url(#paint0_linear)"/>
<path d="M3.56575 17.7261C2.16575 18.2861 3.06861 19.4632 2.46289 20.0689C2.46289 20.0689 3.26861 19.6289 3.25718 18.7661C3.24575 18.0632 3.56575 17.7261 3.56575 17.7261Z" fill="url(#paint1_linear)"/>
<path d="M3.89136 21.8117C4.25136 21.7717 4.85707 20.726 5.67993 20.8974C5.67993 20.8974 4.94279 21.9717 3.89136 21.8117Z" fill="url(#paint2_linear)"/>
<path opacity="0.5" d="M8.31995 19.7144C8.75995 19.5487 9.50852 19.183 10.2971 18.3887C11.1828 17.503 11.92 14.9887 10.4685 13.543C9.05138 12.1259 6.56567 12.4116 5.37138 13.6059C4.94281 14.0344 4.48567 14.6802 4.30281 15.2744C4.55995 15.0459 4.94281 14.7602 5.26281 14.7259C5.42852 14.7087 5.55995 14.7659 5.65138 14.8802L5.74281 14.9944L5.58281 15.0916C5.56567 15.103 4.17138 15.9544 3.6971 16.823C4.02281 16.6573 4.46852 16.4744 4.65138 16.623L4.75424 16.7087L4.63424 16.8287C4.1371 17.3144 4.10852 17.8116 4.08567 18.3887C4.04567 19.2173 3.99995 20.1487 2.59424 21.2287C3.07424 21.2916 4.16567 21.263 5.19995 19.9659C5.71424 19.3144 6.30852 19.0402 6.33138 19.0287L6.39995 19.0002L6.45138 19.0287C6.54852 19.0859 6.59424 19.2116 6.5771 19.3773C6.55424 19.6059 6.40567 19.9316 6.08567 20.263C6.43995 20.2173 6.99424 20.0859 7.38852 19.6916C8.03424 19.0459 8.47995 18.1087 8.48567 18.0973L8.61138 17.8287L8.73138 18.0402C9.03995 18.5887 8.69709 19.2573 8.31995 19.7144Z" fill="url(#paint3_linear)"/>
<path d="M2.46289 20.0689C2.85718 19.7489 3.26289 19.1204 3.25718 18.7661C3.25146 18.4404 3.34289 17.9832 3.56575 17.7261C2.58289 18.1432 2.72003 18.8004 2.84575 19.1261C2.90289 19.2689 2.8286 19.6918 2.46289 20.0689Z" fill="url(#paint4_radial)"/>
<path d="M3.2229 21.0346C5.08576 20.4232 5.5829 18.3089 6.77719 17.9432C7.97719 17.5775 7.67433 18.7204 7.21147 19.2404C7.21147 19.2404 8.79433 17.6518 8.80004 16.4118C8.81147 15.1718 10.4743 17.1089 9.96004 18.1146C9.96004 18.1146 12.5029 15.5718 10.4686 13.5432C8.43433 11.5146 5.73147 13.5375 5.73147 13.5375C5.73147 13.5375 7.27433 13.4746 7.13719 14.5946C7.13719 14.5946 5.94861 15.0461 5.01147 15.7946C5.01147 15.7946 5.46862 15.8461 5.7829 16.3146C5.7829 16.3146 4.3829 17.2804 4.44004 18.1089C4.52004 19.1775 3.8229 20.8404 3.2229 21.0346Z" fill="url(#paint5_linear)"/>
<path d="M4.52563 19.4287C5.39421 19.2115 6.15992 17.1772 7.38278 17.2915C8.05706 17.3544 7.90278 17.9372 7.90278 17.9372C7.90278 17.9372 8.37135 17.2687 8.47992 16.3715C8.58849 15.4744 10.2628 15.7772 10.1885 17.4687C10.1885 17.4687 12.0285 15.0744 9.79421 13.5487C7.33135 11.8687 5.52564 13.9772 5.52564 13.9772C5.52564 13.9772 7.21135 13.4172 7.47421 14.7544C7.47421 14.7544 6.07992 15.1429 5.56564 15.6572C5.56564 15.6572 6.15992 15.7429 6.30278 16.3772C6.30278 16.3772 4.93135 17.3829 4.97135 17.7829C5.06849 18.7372 4.52563 19.4287 4.52563 19.4287Z" fill="url(#paint6_linear)"/>
<path opacity="0.5" d="M4.55993 16.7373C3.22279 18.0344 4.97707 19.423 2.28564 21.3087C2.28564 21.3087 3.8685 21.8401 5.30279 20.0344C5.79422 19.4116 6.36564 19.1544 6.36564 19.1544C6.55993 19.2687 6.41136 19.903 5.71993 20.423C5.71993 20.423 6.79993 20.4516 7.47422 19.7773C8.1485 19.103 8.60564 18.1316 8.60564 18.1316C9.0685 18.943 7.9085 19.9716 7.9085 19.9716C7.9085 19.9716 8.99993 19.6859 10.2971 18.3887C11.3028 17.383 12.0228 14.8744 10.5771 13.4344C9.13136 11.9944 6.55422 12.2516 5.29136 13.5201C4.73707 14.0744 4.17136 14.9373 4.09707 15.6459C4.09707 15.6459 5.15993 14.4973 5.53707 14.983C5.53707 14.983 3.73707 16.0687 3.44564 17.103C3.45136 17.103 4.3485 16.5659 4.55993 16.7373Z" fill="url(#paint7_radial)"/>
<path opacity="0.5" d="M4.55993 16.7373C3.22279 18.0344 4.97707 19.423 2.28564 21.3087C2.28564 21.3087 3.8685 21.8401 5.30279 20.0344C5.79422 19.4116 6.36564 19.1544 6.36564 19.1544C6.55993 19.2687 6.41136 19.903 5.71993 20.423C5.71993 20.423 6.79993 20.4516 7.47422 19.7773C8.1485 19.103 8.60564 18.1316 8.60564 18.1316C9.0685 18.943 7.9085 19.9716 7.9085 19.9716C7.9085 19.9716 8.99993 19.6859 10.2971 18.3887C11.3028 17.383 12.0228 14.8744 10.5771 13.4344C9.13136 11.9944 6.55422 12.2516 5.29136 13.5201C4.73707 14.0744 4.17136 14.9373 4.09707 15.6459C4.09707 15.6459 5.15993 14.4973 5.53707 14.983C5.53707 14.983 3.73707 16.0687 3.44564 17.103C3.45136 17.103 4.3485 16.5659 4.55993 16.7373Z" fill="url(#paint8_radial)"/>
<path d="M9.62281 18.8174C10.9257 17.4288 11.6628 14.9488 10.3028 13.5888C8.94281 12.2288 6.43995 13.3717 5.33138 14.3945C5.33138 14.3945 6.21709 14.0231 6.91424 14.4688C7.61138 14.9145 5.61709 15.686 5.19995 16.9088C5.19995 16.9088 6.9771 15.8402 7.5371 16.2917C8.0971 16.7431 7.53138 18.166 6.99424 18.7031C6.99424 18.7031 8.26852 18.0517 8.95424 17.2117C9.99995 15.926 9.62281 18.8174 9.62281 18.8174Z" fill="url(#paint9_radial)"/>
<path opacity="0.5" d="M4.55993 16.7373C3.22279 18.0344 4.97707 19.423 2.28564 21.3087C2.28564 21.3087 3.8685 21.8401 5.30279 20.0344C5.79422 19.4116 6.36564 19.1544 6.36564 19.1544C6.55993 19.2687 6.41136 19.903 5.71993 20.423C5.71993 20.423 6.79993 20.4516 7.47422 19.7773C8.1485 19.103 8.60564 18.1316 8.60564 18.1316C9.0685 18.943 7.9085 19.9716 7.9085 19.9716C7.9085 19.9716 8.99993 19.6859 10.2971 18.3887C11.3028 17.383 12.0228 14.8744 10.5771 13.4344C9.13136 11.9944 6.55422 12.2516 5.29136 13.5201C4.73707 14.0744 4.17136 14.9373 4.09707 15.6459C4.09707 15.6459 5.15993 14.4973 5.53707 14.983C5.53707 14.983 3.73707 16.0687 3.44564 17.103C3.45136 17.103 4.3485 16.5659 4.55993 16.7373Z" fill="url(#paint10_radial)"/>
<path opacity="0.5" d="M3.56575 17.7261C2.16575 18.2861 3.06861 19.4632 2.46289 20.0689C2.46289 20.0689 3.26861 19.6289 3.25718 18.7661C3.24575 18.0632 3.56575 17.7261 3.56575 17.7261Z" fill="url(#paint11_radial)"/>
<path d="M3.89136 21.8113C4.25136 21.7713 4.77707 21.0341 5.67993 20.897C5.67993 20.897 4.94279 21.9713 3.89136 21.8113Z" fill="url(#paint12_radial)"/>
<path opacity="0.5" d="M3.89136 21.8117C4.25136 21.7717 4.85707 20.726 5.67993 20.8974C5.67993 20.8974 4.94279 21.9717 3.89136 21.8117Z" fill="url(#paint13_radial)"/>
<path opacity="0.5" d="M4.55993 16.7373C3.22279 18.0344 4.97707 19.423 2.28564 21.3087C2.28564 21.3087 3.8685 21.8401 5.30279 20.0344C5.79422 19.4116 6.36564 19.1544 6.36564 19.1544C6.55993 19.2687 6.41136 19.903 5.71993 20.423C5.71993 20.423 6.79993 20.4516 7.47422 19.7773C8.1485 19.103 8.60564 18.1316 8.60564 18.1316C9.0685 18.943 7.9085 19.9716 7.9085 19.9716C7.9085 19.9716 8.99993 19.6859 10.2971 18.3887C11.3028 17.383 12.0228 14.8744 10.5771 13.4344C9.13136 11.9944 6.55422 12.2516 5.29136 13.5201C4.73707 14.0744 4.17136 14.9373 4.09707 15.6459C4.09707 15.6459 5.15993 14.4973 5.53707 14.983C5.53707 14.983 3.73707 16.0687 3.44564 17.103C3.45136 17.103 4.3485 16.5659 4.55993 16.7373Z" fill="url(#paint14_radial)"/>
<path opacity="0.25" d="M4.55993 16.7373C3.22279 18.0344 4.97707 19.423 2.28564 21.3087C2.28564 21.3087 3.8685 21.8401 5.30279 20.0344C5.79422 19.4116 6.36564 19.1544 6.36564 19.1544C6.55993 19.2687 6.41136 19.903 5.71993 20.423C5.71993 20.423 6.79993 20.4516 7.47422 19.7773C8.1485 19.103 8.60564 18.1316 8.60564 18.1316C9.0685 18.943 7.9085 19.9716 7.9085 19.9716C7.9085 19.9716 8.99993 19.6859 10.2971 18.3887C11.3028 17.383 12.0228 14.8744 10.5771 13.4344C9.13136 11.9944 6.55422 12.2516 5.29136 13.5201C4.73707 14.0744 4.17136 14.9373 4.09707 15.6459C4.09707 15.6459 5.15993 14.4973 5.53707 14.983C5.53707 14.983 3.73707 16.0687 3.44564 17.103C3.45136 17.103 4.3485 16.5659 4.55993 16.7373Z" fill="url(#paint15_radial)"/>
<path opacity="0.75" d="M4.55993 16.7373C3.22279 18.0344 4.97707 19.423 2.28564 21.3087C2.28564 21.3087 3.8685 21.8401 5.30279 20.0344C5.79422 19.4116 6.36564 19.1544 6.36564 19.1544C6.55993 19.2687 6.41136 19.903 5.71993 20.423C5.71993 20.423 6.79993 20.4516 7.47422 19.7773C8.1485 19.103 8.60564 18.1316 8.60564 18.1316C9.0685 18.943 7.9085 19.9716 7.9085 19.9716C7.9085 19.9716 8.99993 19.6859 10.2971 18.3887C11.3028 17.383 12.0228 14.8744 10.5771 13.4344C9.13136 11.9944 6.55422 12.2516 5.29136 13.5201C4.73707 14.0744 4.17136 14.9373 4.09707 15.6459C4.09707 15.6459 5.15993 14.4973 5.53707 14.983C5.53707 14.983 3.73707 16.0687 3.44564 17.103C3.45136 17.103 4.3485 16.5659 4.55993 16.7373Z" fill="url(#paint16_radial)"/>
<path d="M15.3541 15.4631C15.2226 14.1889 15.5198 12.8346 16.1941 11.6117L16.4055 11.2231L13.1083 13.3774L12.8341 15.3603L11.5483 16.5946C11.8226 17.6689 11.8341 18.7203 11.8341 18.7203C14.0226 17.4117 15.3541 15.4631 15.3541 15.4631Z" fill="url(#paint17_linear)"/>
<path d="M11.8399 18.7258C11.8399 18.7258 11.8342 17.6629 11.5542 16.6001L12.0971 16.0801C12.2628 16.4458 12.5885 17.2687 12.6685 18.1772C12.4056 18.3601 12.1313 18.5544 11.8399 18.7258Z" fill="url(#paint18_linear)"/>
<path opacity="0.75" d="M15.3541 15.4631C15.2226 14.1889 15.5198 12.8346 16.1941 11.6117L16.4055 11.2231L13.1083 13.3774L12.8341 15.3603L11.5483 16.5946C11.8226 17.6689 11.8341 18.7203 11.8341 18.7203C14.0226 17.4117 15.3541 15.4631 15.3541 15.4631Z" fill="url(#paint19_radial)"/>
<path d="M15.6741 12.7942C15.8113 12.3942 15.9827 11.9942 16.1941 11.6113L16.3141 11.3942C16.2855 11.3771 16.257 11.3599 16.2284 11.3428L13.1141 13.3828L12.9255 14.7199C13.6341 14.4285 14.6398 13.8342 15.6741 12.7942Z" fill="url(#paint20_linear)"/>
<path d="M12.097 7.82862C12.0627 7.74862 12.0455 7.69147 12.017 7.61719C10.7884 8.20004 9.39983 8.36576 8.06269 8.11433C8.06269 8.11433 6.08555 9.41147 4.86841 11.7086C4.86841 11.7086 5.99984 11.8172 7.18841 12.2229L8.40555 10.9143L10.3713 10.8C10.8113 9.81147 11.3427 8.75433 12.097 7.82862Z" fill="url(#paint21_linear)"/>
<path d="M4.86841 11.7028C4.86841 11.7028 5.99984 11.8114 7.18841 12.2171L7.70841 11.6571C7.29127 11.44 6.38841 11.0228 5.38841 10.8457C5.20555 11.1143 5.02841 11.4 4.86841 11.7028Z" fill="url(#paint22_linear)"/>
<path opacity="0.75" d="M12.097 7.82862C12.0627 7.74862 12.0455 7.69147 12.017 7.61719C10.7884 8.20004 9.39983 8.36576 8.06269 8.11433C8.06269 8.11433 6.08555 9.41147 4.86841 11.7086C4.86841 11.7086 5.99984 11.8172 7.18841 12.2229L8.40555 10.9143L10.3713 10.8C10.8113 9.81147 11.3427 8.75433 12.097 7.82862Z" fill="url(#paint23_radial)"/>
<path d="M12.0171 7.61133C11.5371 7.97704 10.0343 9.42847 9.50854 10.8399L10.3657 10.7885C10.8057 9.81133 11.4743 8.73133 12.2285 7.80561L12.0171 7.61133Z" fill="url(#paint24_linear)"/>
<path d="M12.5371 7.33182C13.0457 8.16039 13.72 8.98325 14.4685 9.71468C14.5028 9.74896 14.5428 9.78325 14.5771 9.81753C15.2114 10.4232 15.8971 10.9604 16.5943 11.389C16.6571 11.3261 16.72 11.269 16.7828 11.2061C18.5828 9.40611 19.6285 8.05182 20.5257 6.33182C19.8857 5.09182 18.8343 4.04039 17.5943 3.40039C15.8743 4.29753 14.5257 5.33753 12.72 7.14325C12.6571 7.20611 12.5943 7.26896 12.5371 7.33182Z" fill="url(#paint25_linear)"/>
<path d="M20.5198 6.33157C21.7369 3.99443 21.5827 2.73728 21.3827 2.53728C21.1827 2.33728 19.9312 2.183 17.5884 3.40014C18.8284 4.04014 19.8798 5.09157 20.5198 6.33157Z" fill="url(#paint26_linear)"/>
<path d="M10.4742 13.4515C11.12 14.0973 11.7142 14.5715 11.8742 14.5715C13.3257 13.9373 15.0571 12.8744 16.5943 11.3887C15.9028 10.9601 15.2114 10.423 14.5771 9.81726C14.5428 9.78297 14.5028 9.74869 14.4685 9.7144C13.72 8.98297 13.0457 8.16011 12.5371 7.33154C11.0514 8.86869 9.98853 10.6115 9.35425 12.063C9.37711 12.2401 9.83996 12.823 10.4742 13.4515Z" fill="url(#paint27_linear)"/>
<path opacity="0.75" d="M10.4742 13.4515C11.12 14.0973 11.7142 14.5715 11.8742 14.5715C13.3257 13.9373 15.0571 12.8744 16.5943 11.3887C15.9028 10.9601 15.2114 10.423 14.5771 9.81726C14.5428 9.78297 14.5028 9.74869 14.4685 9.7144C13.72 8.98297 13.0457 8.16011 12.5371 7.33154C11.0514 8.86869 9.98853 10.6115 9.35425 12.063C9.37711 12.2401 9.83996 12.823 10.4742 13.4515Z" fill="url(#paint28_radial)"/>
<path opacity="0.5" d="M14.5771 9.81726C14.5428 9.78297 14.5028 9.74869 14.4685 9.7144C13.72 8.98297 13.0457 8.16011 12.5371 7.33154C12.4971 7.37154 12.4628 7.41154 12.4285 7.45154C13.4685 9.41726 16.6457 11.2915 14.2228 12.2801C12.6343 12.9315 11.92 13.703 11.5371 14.3887C11.6971 14.5087 11.8228 14.5715 11.88 14.5715C13.3314 13.9373 15.0628 12.8744 16.6 11.3887C15.8971 10.9601 15.2114 10.423 14.5771 9.81726Z" fill="url(#paint29_radial)"/>
<path d="M10.4741 13.4516C9.84555 12.823 9.38269 12.2401 9.35412 12.063L8.46269 12.4573C8.35983 12.5601 8.94269 13.3201 9.77698 14.1487C10.6055 14.9773 11.3655 15.5658 11.4684 15.463L11.8741 14.5716C11.7141 14.5716 11.1198 14.0973 10.4741 13.4516Z" fill="url(#paint30_linear)"/>
<path d="M10.4741 13.4516C9.84555 12.823 9.38269 12.2401 9.35412 12.063L8.46269 12.4573C8.35983 12.5601 8.94269 13.3201 9.77698 14.1487C10.6055 14.9773 11.3655 15.5658 11.4684 15.463L11.8741 14.5716C11.7141 14.5716 11.1198 14.0973 10.4741 13.4516Z" fill="url(#paint31_linear)"/>
<path d="M20.2743 6.78896C20.2857 6.77182 20.5143 6.34896 20.52 6.33182C19.88 5.09182 18.8285 4.04039 17.5885 3.40039C17.5714 3.41182 17.5543 3.41753 17.5371 3.42896C18.7543 4.12039 20.1314 5.67468 20.2743 6.78896Z" fill="url(#paint32_linear)"/>
<path opacity="0.75" d="M21.3829 2.53728C21.1829 2.33728 19.9315 2.183 17.5886 3.40014C15.8686 4.29728 14.5201 5.33729 12.7143 7.143C12.6515 7.20586 12.5943 7.26871 12.5315 7.33157C11.0458 8.86871 9.98292 10.6116 9.34863 12.063C9.3772 12.2401 9.84006 12.823 10.4686 13.4516C11.1143 14.0973 11.7086 14.5716 11.8686 14.5716C13.3201 13.9373 15.0515 12.8744 16.5886 11.3887C16.6515 11.3259 16.7144 11.2687 16.7772 11.2059C18.5772 9.40586 19.6229 8.05157 20.5201 6.33157C21.7429 3.99443 21.5886 2.73728 21.3829 2.53728Z" fill="url(#paint33_radial)"/>
<path d="M9.09132 16.3662C11.0113 14.8176 12.5142 13.0919 12.5542 13.0462L12.257 12.749C12.257 12.749 10.6913 14.4576 8.82275 16.0976L9.09132 16.3662Z" fill="url(#paint34_linear)"/>
<path d="M12.2513 12.7489C12.5999 12.0861 13.1884 11.2518 13.9427 10.3547C13.9256 10.3375 13.9084 10.3204 13.8856 10.3032C13.0684 11.0804 12.257 11.7832 11.5313 12.4004L10.6856 13.6404L9.41128 14.8918C9.18842 15.4518 8.81128 16.0975 8.81128 16.0975C10.6856 14.4575 12.2513 12.7489 12.2513 12.7489Z" fill="url(#paint35_linear)"/>
<path d="M9.47975 15.5031C9.47975 15.5031 9.92547 14.6974 9.88547 14.4346L9.41689 14.8974C9.19404 15.4574 8.81689 16.1031 8.81689 16.1031C9.04547 15.8974 9.26261 15.6974 9.47975 15.5031Z" fill="url(#paint36_linear)"/>
<path d="M12.5542 13.0464C12.8056 12.2807 13.3713 11.4236 14.097 10.4921C14.0456 10.4464 13.9999 10.4007 13.9485 10.355C13.1942 11.2521 12.6056 12.0864 12.257 12.7493C12.257 12.7493 10.6913 14.4578 8.82275 16.0978L9.09704 16.3664C11.0342 14.8007 12.5542 13.0464 12.5542 13.0464Z" fill="url(#paint37_linear)"/>
<path d="M9.09132 16.3662C11.0113 14.8176 12.5142 13.0919 12.5542 13.0462L12.257 12.749C12.257 12.749 10.6913 14.4576 8.82275 16.0976L9.09132 16.3662Z" fill="url(#paint38_linear)"/>
<path opacity="0.75" d="M12.2513 12.7489C12.5999 12.0861 13.1884 11.2518 13.9427 10.3547C13.9256 10.3375 13.9084 10.3204 13.8856 10.3032C13.0684 11.0804 12.257 11.7832 11.5313 12.4004L10.6856 13.6404L9.41128 14.8918C9.18842 15.4518 8.81128 16.0975 8.81128 16.0975C10.6856 14.4575 12.2513 12.7489 12.2513 12.7489Z" fill="url(#paint39_radial)"/>
<path opacity="0.75" d="M21.3829 2.53728C21.1829 2.33728 19.9315 2.183 17.5886 3.40014C15.8686 4.29728 14.5201 5.33729 12.7143 7.143C12.6515 7.20586 12.5943 7.26871 12.5315 7.33157C11.0458 8.86871 9.98292 10.6116 9.34863 12.063C9.3772 12.2401 9.84006 12.823 10.4686 13.4516C11.1143 14.0973 11.7086 14.5716 11.8686 14.5716C13.3201 13.9373 15.0515 12.8744 16.5886 11.3887C16.6515 11.3259 16.7144 11.2687 16.7772 11.2059C18.5772 9.40586 19.6229 8.05157 20.5201 6.33157C21.7429 3.99443 21.5886 2.73728 21.3829 2.53728Z" fill="url(#paint40_radial)"/>
<g opacity="0.16">
<path opacity="0.16" d="M17.2971 10.6916C16.5428 10.2459 15.7599 9.64019 15.0171 8.90305C14.2799 8.16591 13.6742 7.38305 13.2285 6.62305" stroke="black" stroke-width="0.5" stroke-miterlimit="10" stroke-linecap="round" stroke-linejoin="round"/>
<path opacity="0.16" d="M19.5371 6.61768C19.7085 6.8291 19.8628 7.03482 20.0114 7.24053" stroke="black" stroke-width="0.5" stroke-miterlimit="10" stroke-linecap="round" stroke-linejoin="round"/>
<g opacity="0.16">
<path opacity="0.16" d="M18.6112 4.03467C18.5369 4.0861 18.4626 4.14324 18.3884 4.20038C16.8912 5.32038 15.6226 6.4461 13.8226 8.2461C13.7598 8.30896 13.6969 8.37181 13.6398 8.43467C13.5826 8.49753 13.5198 8.55467 13.4626 8.61753" stroke="black" stroke-width="0.5" stroke-miterlimit="10" stroke-linecap="round" stroke-linejoin="round"/>
</g>
<path opacity="0.16" d="M16.5027 10.1719C18.0855 8.56047 19.097 7.33761 20.0512 5.86332C20.0912 5.80618 20.1255 5.74904 20.1598 5.69189" stroke="black" stroke-width="0.5" stroke-miterlimit="10" stroke-linecap="round" stroke-linejoin="round"/>
</g>
<path opacity="0.75" d="M11.4685 14.1657C12.7828 13.4 14.4114 12.2229 15.9371 10.7314Z" fill="url(#paint41_radial)"/>
<path d="M17.3598 7.48588C16.6284 8.16016 15.5427 8.16588 14.9369 7.4973C14.3312 6.82873 14.4398 5.7373 15.1712 5.06302C15.9027 4.38873 16.9884 4.38302 17.5941 5.05159C18.1998 5.72016 18.0912 6.81159 17.3598 7.48588Z" fill="url(#paint42_linear)"/>
<path d="M17.0455 7.10857C16.4455 7.66285 15.5541 7.66857 15.057 7.11999C14.5598 6.57142 14.6455 5.67428 15.2512 5.11999C15.8513 4.56571 16.7427 4.55999 17.2398 5.10857C17.7313 5.65714 17.6455 6.55428 17.0455 7.10857Z" fill="url(#paint43_linear)"/>
<path d="M16.9027 6.96018C16.3655 7.45732 15.5712 7.45732 15.1312 6.9716C14.6912 6.48018 14.7655 5.68589 15.3026 5.18875C15.8398 4.69161 16.6341 4.69161 17.0741 5.17732C17.5141 5.66304 17.4398 6.46303 16.9027 6.96018Z" fill="url(#paint44_radial)"/>
<path opacity="0.5" d="M16.9027 6.96018C16.3655 7.45732 15.5712 7.45732 15.1312 6.9716C14.6912 6.48018 14.7655 5.68589 15.3026 5.18875C15.8398 4.69161 16.6341 4.69161 17.0741 5.17732C17.5141 5.66304 17.4398 6.46303 16.9027 6.96018Z" fill="url(#paint45_radial)"/>
<path opacity="0.5" d="M16.9712 5.54324C17.1712 5.7661 17.2798 6.0461 17.3026 6.33753C17.4283 5.93181 17.3598 5.49181 17.0741 5.17753C16.6341 4.6861 15.8398 4.69181 15.3026 5.18896C15.2512 5.24039 15.1998 5.29181 15.1541 5.34896C15.7655 4.97753 16.5198 5.0461 16.9712 5.54324Z" fill="black"/>
<path d="M17.0741 5.17753C16.6341 4.6861 15.8398 4.69181 15.3026 5.18896C14.7655 5.6861 14.6912 6.48038 15.1312 6.97181C15.1769 7.02324 15.2226 7.05753 15.1941 7.03467C14.7998 6.64038 14.9198 5.82896 15.4284 5.32038C15.8398 4.90896 16.6284 4.76039 17.0741 5.17753Z" fill="url(#paint46_linear)"/>
<path opacity="0.5" d="M17.0742 5.17732C16.6285 4.75447 15.8342 4.90875 15.4285 5.31447C14.9428 5.80018 14.8114 6.56589 15.1428 6.97732C15.1942 7.00589 15.2171 7.05732 15.1885 7.03447C15.1714 7.01732 15.1542 7.00018 15.1428 6.97732C15.1371 6.97732 15.1314 6.97161 15.1256 6.97161C15.5656 7.46304 16.3599 7.45732 16.8971 6.96018C17.4399 6.46304 17.5199 5.66875 17.0742 5.17732Z" fill="url(#paint47_radial)"/>
<path d="M20.5313 6.31439C19.8913 5.07439 18.8513 4.02867 17.6113 3.38867" stroke="#008EE6" stroke-width="0.75" stroke-miterlimit="10" stroke-linecap="round" stroke-linejoin="round"/>
<path d="M16.5943 11.3887C15.9028 10.9601 15.2114 10.423 14.5771 9.81726C14.5428 9.78297 14.5028 9.74869 14.4685 9.7144C13.72 8.98297 13.0457 8.16011 12.5371 7.33154" stroke="#008EE6" stroke-width="0.75" stroke-miterlimit="10" stroke-linecap="round" stroke-linejoin="round"/>
<defs>
<linearGradient id="paint0_linear" x1="10.2589" y1="12.687" x2="1.15966" y2="24.6995" gradientUnits="userSpaceOnUse">
<stop stop-color="#FF0000"/>
<stop offset="0.2317" stop-color="#FF1500"/>
<stop offset="0.7367" stop-color="#FF3D00"/>
<stop offset="0.9987" stop-color="#FF4C00"/>
</linearGradient>
<linearGradient id="paint1_linear" x1="8.51118" y1="11.5569" x2="-0.47839" y2="23.4246" gradientUnits="userSpaceOnUse">
<stop stop-color="#FF0000"/>
<stop offset="0.2317" stop-color="#FF1500"/>
<stop offset="0.7367" stop-color="#FF3D00"/>
<stop offset="0.9987" stop-color="#FF4C00"/>
</linearGradient>
<linearGradient id="paint2_linear" x1="11.0782" y1="13.0501" x2="1.85678" y2="25.2237" gradientUnits="userSpaceOnUse">
<stop stop-color="#FF0000"/>
<stop offset="0.2317" stop-color="#FF1500"/>
<stop offset="0.7367" stop-color="#FF3D00"/>
<stop offset="0.9987" stop-color="#FF4C00"/>
</linearGradient>
<linearGradient id="paint3_linear" x1="8.45606" y1="14.5703" x2="2.59621" y2="26.7449" gradientUnits="userSpaceOnUse">
<stop stop-color="#FF8000"/>
<stop offset="0.6388" stop-color="#FF5B00"/>
<stop offset="0.9987" stop-color="#FF4C00"/>
</linearGradient>
<radialGradient id="paint4_radial" cx="0" cy="0" r="1" gradientUnits="userSpaceOnUse" gradientTransform="translate(0.0871973 20.9423) rotate(-135) scale(4.72606 6.00135)">
<stop offset="0.00134333" stop-color="#FFED1C" stop-opacity="0.6"/>
<stop offset="0.9477" stop-color="#FFED1C" stop-opacity="0.0264782"/>
<stop offset="0.9914" stop-color="#FFED1C" stop-opacity="0"/>
</radialGradient>
<linearGradient id="paint5_linear" x1="3.70411" y1="21.8225" x2="8.99203" y2="14.2401" gradientUnits="userSpaceOnUse">
<stop stop-color="#FF8000"/>
<stop offset="0.022669" stop-color="#FE7F02" stop-opacity="0.9773"/>
<stop offset="0.6663" stop-color="#ED582A" stop-opacity="0.3337"/>
<stop offset="1" stop-color="#E74939" stop-opacity="0"/>
</linearGradient>
<linearGradient id="paint6_linear" x1="9.7793" y1="13.9798" x2="4.99737" y2="18.2642" gradientUnits="userSpaceOnUse">
<stop stop-color="#FFBC47"/>
<stop offset="0.1869" stop-color="#FFB137" stop-opacity="0.8131"/>
<stop offset="0.7223" stop-color="#FF940F" stop-opacity="0.2777"/>
<stop offset="1" stop-color="#FF8900" stop-opacity="0"/>
</linearGradient>
<radialGradient id="paint7_radial" cx="0" cy="0" r="1" gradientUnits="userSpaceOnUse" gradientTransform="translate(8.56496 15.249) rotate(-135) scale(3.65587 3.7683)">
<stop offset="0.00134333" stop-color="#FFBC47"/>
<stop offset="0.2941" stop-color="#FFBF4B" stop-opacity="0.7068"/>
<stop offset="0.5624" stop-color="#FEC656" stop-opacity="0.4382"/>
<stop offset="0.8201" stop-color="#FCD368" stop-opacity="0.1801"/>
<stop offset="1" stop-color="#FBE07A" stop-opacity="0"/>
</radialGradient>
<radialGradient id="paint8_radial" cx="0" cy="0" r="1" gradientUnits="userSpaceOnUse" gradientTransform="translate(8.43003 15.384) rotate(-135) scale(3.54322 3.65218)">
<stop offset="0.00134333" stop-color="white"/>
<stop offset="1" stop-color="white" stop-opacity="0"/>
</radialGradient>
<radialGradient id="paint9_radial" cx="0" cy="0" r="1" gradientUnits="userSpaceOnUse" gradientTransform="translate(10.1423 15.869) rotate(-135) scale(4.35259 6.43605)">
<stop offset="0.00134333" stop-color="#FFED1C" stop-opacity="0.6"/>
<stop offset="0.9477" stop-color="#FFED1C" stop-opacity="0.0264782"/>
<stop offset="0.9914" stop-color="#FFED1C" stop-opacity="0"/>
</radialGradient>
<radialGradient id="paint10_radial" cx="0" cy="0" r="1" gradientUnits="userSpaceOnUse" gradientTransform="translate(8.48378 15.3551) rotate(-42.7273) scale(1.74655 1.11729)">
<stop offset="0.00134333" stop-color="white"/>
<stop offset="1" stop-color="white" stop-opacity="0"/>
</radialGradient>
<radialGradient id="paint11_radial" cx="0" cy="0" r="1" gradientUnits="userSpaceOnUse" gradientTransform="translate(2.54239 20.1962) rotate(-135) scale(1.56145 1.98279)">
<stop offset="0.00134333" stop-color="#FFED1C"/>
<stop offset="0.1997" stop-color="#FFEE2B" stop-opacity="0.8013"/>
<stop offset="0.5839" stop-color="#FFF254" stop-opacity="0.4167"/>
<stop offset="1" stop-color="#FFF686" stop-opacity="0"/>
</radialGradient>
<radialGradient id="paint12_radial" cx="0" cy="0" r="1" gradientUnits="userSpaceOnUse" gradientTransform="translate(5.06149 21.3239) rotate(162.598) scale(1.51008 0.305545)">
<stop offset="0.00134333" stop-color="#FFED1C" stop-opacity="0.6"/>
<stop offset="0.9477" stop-color="#FFED1C" stop-opacity="0.0264782"/>
<stop offset="0.9914" stop-color="#FFED1C" stop-opacity="0"/>
</radialGradient>
<radialGradient id="paint13_radial" cx="0" cy="0" r="1" gradientUnits="userSpaceOnUse" gradientTransform="translate(3.99226 22.0321) rotate(-41.019) scale(1.4413 0.457928)">
<stop offset="0.00134333" stop-color="#FFED1C"/>
<stop offset="0.1997" stop-color="#FFEE2B" stop-opacity="0.8013"/>
<stop offset="0.5839" stop-color="#FFF254" stop-opacity="0.4167"/>
<stop offset="1" stop-color="#FFF686" stop-opacity="0"/>
</radialGradient>
<radialGradient id="paint14_radial" cx="0" cy="0" r="1" gradientUnits="userSpaceOnUse" gradientTransform="translate(2.60771 20.6213) rotate(-135) scale(4.87219 6.1869)">
<stop offset="0.00134333" stop-color="#FF4C00"/>
<stop offset="0.135" stop-color="#FF5B0C" stop-opacity="0.8661"/>
<stop offset="0.3941" stop-color="#FF842C" stop-opacity="0.6067"/>
<stop offset="0.7491" stop-color="#FFC45F" stop-opacity="0.2512"/>
<stop offset="1" stop-color="#FFF686" stop-opacity="0"/>
</radialGradient>
<radialGradient id="paint15_radial" cx="0" cy="0" r="1" gradientUnits="userSpaceOnUse" gradientTransform="translate(4.58504 15.5101) rotate(-135) scale(2.58608 3.28391)">
<stop offset="0.00134333" stop-color="#FFED1C"/>
<stop offset="0.1997" stop-color="#FFEE2B" stop-opacity="0.8013"/>
<stop offset="0.5839" stop-color="#FFF254" stop-opacity="0.4167"/>
<stop offset="1" stop-color="#FFF686" stop-opacity="0"/>
</radialGradient>
<radialGradient id="paint16_radial" cx="0" cy="0" r="1" gradientUnits="userSpaceOnUse" gradientTransform="translate(8.4275 15.6293) rotate(-135) scale(5.40781 6.86706)">
<stop offset="0.00134333" stop-color="#FFED1C"/>
<stop offset="0.1997" stop-color="#FFEE2B" stop-opacity="0.8013"/>
<stop offset="0.5839" stop-color="#FFF254" stop-opacity="0.4167"/>
<stop offset="1" stop-color="#FFF686" stop-opacity="0"/>
</radialGradient>
<linearGradient id="paint17_linear" x1="9.80373" y1="19.2642" x2="15.664" y2="12.9443" gradientUnits="userSpaceOnUse">
<stop stop-color="#BD2719"/>
<stop offset="0.2151" stop-color="#D41A10"/>
<stop offset="0.5049" stop-color="#EC0C07"/>
<stop offset="0.774" stop-color="#FA0302"/>
<stop offset="1" stop-color="#FF0000"/>
</linearGradient>
<linearGradient id="paint18_linear" x1="13.2109" y1="16.3029" x2="11.3724" y2="18.1086" gradientUnits="userSpaceOnUse">
<stop stop-color="#FC8D41"/>
<stop offset="0.0900324" stop-color="#FC7837"/>
<stop offset="0.294" stop-color="#FD4D24"/>
<stop offset="0.4922" stop-color="#FE2C14"/>
<stop offset="0.6802" stop-color="#FF1409"/>
<stop offset="0.854" stop-color="#FF0502"/>
<stop offset="1" stop-color="#FF0000"/>
</linearGradient>
<radialGradient id="paint19_radial" cx="0" cy="0" r="1" gradientUnits="userSpaceOnUse" gradientTransform="translate(8.95846 18.4661) rotate(45) scale(7.92842)">
<stop offset="0.00134333" stop-color="#FFED1C"/>
<stop offset="0.1997" stop-color="#FFEE2B" stop-opacity="0.8013"/>
<stop offset="0.5839" stop-color="#FFF254" stop-opacity="0.4167"/>
<stop offset="1" stop-color="#FFF686" stop-opacity="0"/>
</radialGradient>
<linearGradient id="paint20_linear" x1="13.348" y1="14.3002" x2="22.4311" y2="3.77241" gradientUnits="userSpaceOnUse">
<stop stop-color="#BD2719"/>
<stop offset="0.2151" stop-color="#D41A10"/>
<stop offset="0.5049" stop-color="#EC0C07"/>
<stop offset="0.774" stop-color="#FA0302"/>
<stop offset="1" stop-color="#FF0000"/>
</linearGradient>
<linearGradient id="paint21_linear" x1="4.16584" y1="11.9278" x2="9.70004" y2="9.21178" gradientUnits="userSpaceOnUse">
<stop stop-color="#BD2719"/>
<stop offset="0.2151" stop-color="#D41A10"/>
<stop offset="0.5049" stop-color="#EC0C07"/>
<stop offset="0.774" stop-color="#FA0302"/>
<stop offset="1" stop-color="#FF0000"/>
</linearGradient>
<linearGradient id="paint22_linear" x1="7.32509" y1="10.3243" x2="5.58505" y2="12.3926" gradientUnits="userSpaceOnUse">
<stop stop-color="#FC8D41"/>
<stop offset="0.0900324" stop-color="#FC7837"/>
<stop offset="0.294" stop-color="#FD4D24"/>
<stop offset="0.4922" stop-color="#FE2C14"/>
<stop offset="0.6802" stop-color="#FF1409"/>
<stop offset="0.854" stop-color="#FF0502"/>
<stop offset="1" stop-color="#FF0000"/>
</linearGradient>
<radialGradient id="paint23_radial" cx="0" cy="0" r="1" gradientUnits="userSpaceOnUse" gradientTransform="translate(8.17058 15.3141) rotate(45) scale(8.5278)">
<stop offset="0.00134333" stop-color="#FFED1C"/>
<stop offset="0.1997" stop-color="#FFEE2B" stop-opacity="0.8013"/>
<stop offset="0.5839" stop-color="#FFF254" stop-opacity="0.4167"/>
<stop offset="1" stop-color="#FFF686" stop-opacity="0"/>
</radialGradient>
<linearGradient id="paint24_linear" x1="11.8189" y1="9.17714" x2="2.89342" y2="9.59452" gradientUnits="userSpaceOnUse">
<stop stop-color="#BD2719"/>
<stop offset="0.2151" stop-color="#D41A10"/>
<stop offset="0.5049" stop-color="#EC0C07"/>
<stop offset="0.774" stop-color="#FA0302"/>
<stop offset="1" stop-color="#FF0000"/>
</linearGradient>
<linearGradient id="paint25_linear" x1="15.0481" y1="5.35093" x2="18.64" y2="8.94283" gradientUnits="userSpaceOnUse">
<stop stop-color="#BBCACC"/>
<stop offset="0.3717" stop-color="white"/>
<stop offset="1" stop-color="#99AFB3"/>
</linearGradient>
<linearGradient id="paint26_linear" x1="21.1365" y1="5.10762" x2="19.1811" y2="2.56991" gradientUnits="userSpaceOnUse">
<stop stop-color="#008EE6"/>
<stop offset="0.688" stop-color="#80DAFE"/>
<stop offset="0.7325" stop-color="#76D5FB"/>
<stop offset="0.8071" stop-color="#5CC8F3"/>
<stop offset="0.9026" stop-color="#32B2E6"/>
<stop offset="1" stop-color="#0099D6"/>
</linearGradient>
<linearGradient id="paint27_linear" x1="14.2566" y1="13.1281" x2="10.1747" y2="9.06808" gradientUnits="userSpaceOnUse">
<stop stop-color="#008EE6"/>
<stop offset="0.688" stop-color="#80DAFE"/>
<stop offset="0.7325" stop-color="#76D5FB"/>
<stop offset="0.8071" stop-color="#5CC8F3"/>
<stop offset="0.9026" stop-color="#32B2E6"/>
<stop offset="1" stop-color="#0099D6"/>
</linearGradient>
<radialGradient id="paint28_radial" cx="0" cy="0" r="1" gradientUnits="userSpaceOnUse" gradientTransform="translate(11.4855 14.4744) rotate(45) scale(3.88398 7.10881)">
<stop stop-opacity="0.75"/>
<stop offset="1" stop-opacity="0"/>
</radialGradient>
<radialGradient id="paint29_radial" cx="0" cy="0" r="1" gradientUnits="userSpaceOnUse" gradientTransform="translate(16.0118 13.5594) rotate(45) scale(3.88398 7.10881)">
<stop stop-opacity="0.75"/>
<stop offset="1" stop-opacity="0"/>
</radialGradient>
<linearGradient id="paint30_linear" x1="8.9706" y1="12.0284" x2="11.5309" y2="15.3902" gradientUnits="userSpaceOnUse">
<stop/>
<stop offset="0.1962" stop-color="#4D4D4C"/>
<stop offset="0.7655"/>
</linearGradient>
<linearGradient id="paint31_linear" x1="8.9706" y1="12.0284" x2="11.5309" y2="15.3902" gradientUnits="userSpaceOnUse">
<stop stop-opacity="0"/>
<stop offset="0.1975" stop-color="#CFDCDE" stop-opacity="0.5"/>
<stop offset="0.7655" stop-opacity="0"/>
</linearGradient>
<linearGradient id="paint32_linear" x1="14.3333" y1="4.04492" x2="20.2046" y2="5.38551" gradientUnits="userSpaceOnUse">
<stop stop-color="#BBCACC"/>
<stop offset="0.3717" stop-color="white"/>
<stop offset="1" stop-color="#99AFB3"/>
</linearGradient>
<radialGradient id="paint33_radial" cx="0" cy="0" r="1" gradientUnits="userSpaceOnUse" gradientTransform="translate(16.076 11.4008) rotate(44.2342) scale(2.50596 8.11509)">
<stop stop-color="#440063" stop-opacity="0.75"/>
<stop offset="1" stop-color="#420061" stop-opacity="0"/>
</radialGradient>
<linearGradient id="paint34_linear" x1="8.66073" y1="15.8565" x2="15.4075" y2="11.5064" gradientUnits="userSpaceOnUse">
<stop stop-color="#BD2719"/>
<stop offset="0.2151" stop-color="#D41A10"/>
<stop offset="0.5049" stop-color="#EC0C07"/>
<stop offset="0.774" stop-color="#FA0302"/>
<stop offset="1" stop-color="#FF0000"/>
</linearGradient>
<linearGradient id="paint35_linear" x1="7.56475" y1="16.0858" x2="11.0444" y2="13.4365" gradientUnits="userSpaceOnUse">
<stop stop-color="#BD2719"/>
<stop offset="0.2151" stop-color="#D41A10"/>
<stop offset="0.5049" stop-color="#EC0C07"/>
<stop offset="0.774" stop-color="#FA0302"/>
<stop offset="1" stop-color="#FF0000"/>
</linearGradient>
<linearGradient id="paint36_linear" x1="10.8746" y1="13.8555" x2="8.88284" y2="15.7159" gradientUnits="userSpaceOnUse">
<stop stop-color="#FC8D41"/>
<stop offset="0.0900324" stop-color="#FC7837"/>
<stop offset="0.294" stop-color="#FD4D24"/>
<stop offset="0.4922" stop-color="#FE2C14"/>
<stop offset="0.6802" stop-color="#FF1409"/>
<stop offset="0.854" stop-color="#FF0502"/>
<stop offset="1" stop-color="#FF0000"/>
</linearGradient>
<linearGradient id="paint37_linear" x1="10.8094" y1="15.1451" x2="13.1698" y2="8.39036" gradientUnits="userSpaceOnUse">
<stop stop-color="#BD2719"/>
<stop offset="0.2151" stop-color="#D41A10"/>
<stop offset="0.5049" stop-color="#EC0C07"/>
<stop offset="0.774" stop-color="#FA0302"/>
<stop offset="1" stop-color="#FF0000"/>
</linearGradient>
<linearGradient id="paint38_linear" x1="8.66073" y1="15.8565" x2="15.4075" y2="11.5064" gradientUnits="userSpaceOnUse">
<stop stop-color="#BD2719"/>
<stop offset="0.2151" stop-color="#D41A10"/>
<stop offset="0.5049" stop-color="#EC0C07"/>
<stop offset="0.774" stop-color="#FA0302"/>
<stop offset="1" stop-color="#FF0000"/>
</linearGradient>
<radialGradient id="paint39_radial" cx="0" cy="0" r="1" gradientUnits="userSpaceOnUse" gradientTransform="translate(8.60239 15.2652) rotate(-39.0499) scale(5.97524 2.00375)">
<stop offset="0.00134333" stop-color="#FFED1C"/>
<stop offset="0.1997" stop-color="#FFEE2B" stop-opacity="0.8013"/>
<stop offset="0.5839" stop-color="#FFF254" stop-opacity="0.4167"/>
<stop offset="1" stop-color="#FFF686" stop-opacity="0"/>
</radialGradient>
<radialGradient id="paint40_radial" cx="0" cy="0" r="1" gradientUnits="userSpaceOnUse" gradientTransform="translate(14.3426 7.31489) rotate(44.2342) scale(2.50596 8.11509)">
<stop stop-color="white" stop-opacity="0.5"/>
<stop offset="1" stop-color="white" stop-opacity="0"/>
</radialGradient>
<radialGradient id="paint41_radial" cx="0" cy="0" r="1" gradientUnits="userSpaceOnUse" gradientTransform="translate(13.7872 13.0483) rotate(43.8644) scale(0.608449 2.92153)">
<stop stop-color="#440063" stop-opacity="0.75"/>
<stop offset="1" stop-color="#420061" stop-opacity="0"/>
</radialGradient>
<linearGradient id="paint42_linear" x1="15.3192" y1="8.31134" x2="17.2033" y2="4.25406" gradientUnits="userSpaceOnUse">
<stop stop-color="#BD2719"/>
<stop offset="0.2151" stop-color="#D41A10"/>
<stop offset="0.5049" stop-color="#EC0C07"/>
<stop offset="0.774" stop-color="#FA0302"/>
<stop offset="1" stop-color="#FF0000"/>
</linearGradient>
<linearGradient id="paint43_linear" x1="16.6621" y1="4.40303" x2="15.6361" y2="7.80922" gradientUnits="userSpaceOnUse">
<stop stop-color="#FC8D41"/>
<stop offset="0.0900324" stop-color="#FC7837"/>
<stop offset="0.294" stop-color="#FD4D24"/>
<stop offset="0.4922" stop-color="#FE2C14"/>
<stop offset="0.6802" stop-color="#FF1409"/>
<stop offset="0.854" stop-color="#FF0502"/>
<stop offset="1" stop-color="#FF0000"/>
</linearGradient>
<radialGradient id="paint44_radial" cx="0" cy="0" r="1" gradientUnits="userSpaceOnUse" gradientTransform="translate(15.6207 6.12733) rotate(44.996) scale(3.31364 3.31341)">
<stop stop-color="#512D00"/>
<stop offset="1"/>
</radialGradient>
<radialGradient id="paint45_radial" cx="0" cy="0" r="1" gradientUnits="userSpaceOnUse" gradientTransform="translate(16.2658 5.47137) scale(2.90715)">
<stop offset="0.4873" stop-color="#F5CBC0" stop-opacity="0"/>
<stop offset="1" stop-color="#E67E62"/>
</radialGradient>
<linearGradient id="paint46_linear" x1="15.9966" y1="5.06274" x2="16.1204" y2="2.86505" gradientUnits="userSpaceOnUse">
<stop stop-color="#BD2719"/>
<stop offset="0.0422031" stop-color="#B42717"/>
<stop offset="0.257" stop-color="#89250F"/>
<stop offset="0.4654" stop-color="#682408"/>
<stop offset="0.6634" stop-color="#502304"/>
<stop offset="0.8464" stop-color="#412201"/>
<stop offset="1" stop-color="#3C2200"/>
</linearGradient>
<radialGradient id="paint47_radial" cx="0" cy="0" r="1" gradientUnits="userSpaceOnUse" gradientTransform="translate(12.1646 4.75945) scale(3.94219)">
<stop stop-color="white" stop-opacity="0.5"/>
<stop offset="1" stop-color="white" stop-opacity="0"/>
</radialGradient>
</defs>
</svg>
