<svg width="69" height="70" viewBox="0 0 69 70" fill="none" xmlns="http://www.w3.org/2000/svg">
<path fill-rule="evenodd" clip-rule="evenodd" d="M35.1943 2C34.2166 2 33.3822 2.70683 33.2215 3.6712L32.341 8.9537C32.2006 9.79651 31.5384 10.4496 30.7045 10.6356C29.945 10.8051 29.1979 11.0071 28.4646 11.2401C27.6475 11.4998 26.7434 11.2662 26.1985 10.6043L22.8579 6.54632C22.2365 5.79151 21.1605 5.59657 20.3138 6.08541L18.0522 7.39115C17.2055 7.87999 16.8363 8.90931 17.1793 9.82485L19.0452 14.8054C19.3434 15.6014 19.1006 16.4937 18.4775 17.0719C18.0756 17.4449 17.6853 17.8303 17.3072 18.2273C16.7278 18.8356 15.8461 19.0691 15.0594 18.7744L9.82485 16.8133C8.90931 16.4703 7.87999 16.8395 7.39115 17.6862L6.08541 19.9478C5.59657 20.7945 5.79151 21.8705 6.54632 22.4919L10.698 25.9098C11.3664 26.46 11.5975 27.3755 11.3265 28.1977C11.159 28.7057 11.0065 29.2205 10.8695 29.7416C10.6596 30.5397 10.0196 31.1634 9.20553 31.2991L3.6712 32.2215C2.70683 32.3822 2 33.2166 2 34.1943V36.8057C2 37.7834 2.70683 38.6178 3.6712 38.7785L8.74402 39.624C9.6153 39.7692 10.2804 40.4704 10.4407 41.3391C10.6371 42.4033 10.8971 43.4453 11.2165 44.4609C11.4731 45.2766 11.2388 46.1775 10.5786 46.7209L6.36313 50.1913C5.60832 50.8126 5.41338 51.8886 5.90222 52.7353L7.20797 54.997C7.69681 55.8437 8.72613 56.2128 9.64166 55.8698L14.792 53.9404C15.5885 53.6419 16.4813 53.8852 17.0595 54.5091C17.5279 55.0144 18.0157 55.5015 18.5218 55.9691C19.1475 56.5471 19.3919 57.4412 19.0931 58.2389L17.3625 62.8583C17.0195 63.7739 17.3887 64.8032 18.2353 65.292L20.497 66.5978C21.3437 67.0866 22.4197 66.8917 23.041 66.1369L26.1371 62.3761C26.6831 61.7127 27.5896 61.4797 28.4078 61.7417C29.2106 61.9989 30.0302 62.2188 30.8643 62.3995C31.7041 62.5814 32.3728 63.2365 32.514 64.0841L33.2215 68.3288C33.3822 69.2932 34.2166 70 35.1943 70H37.8057C38.7834 70 39.6178 69.2932 39.7785 68.3288L40.486 64.0841C40.6273 63.2365 41.2959 62.5814 42.1357 62.3995C42.9756 62.2176 43.8007 61.9958 44.6089 61.7363C45.4275 61.4735 46.3346 61.7065 46.881 62.3702L49.0081 64.9539C49.6295 65.7088 50.7055 65.9037 51.5522 65.4149L53.8138 64.1091C54.6605 63.6203 55.0297 62.591 54.6867 61.6754L53.5278 58.5821C53.2241 57.7715 53.4816 56.863 54.1278 56.2869C54.9724 55.5339 55.7685 54.7277 56.5108 53.8734C57.0852 53.2124 58.004 52.9453 58.824 53.2525L61.6754 54.3207C62.591 54.6637 63.6203 54.2945 64.1091 53.4478L65.4149 51.1862C65.9037 50.3395 65.7088 49.2635 64.9539 48.6421L62.462 46.5907C61.8047 46.0496 61.5693 45.1539 61.8209 44.3405C62.1544 43.2621 62.421 42.1541 62.6157 41.0216C62.767 40.1417 63.4359 39.4273 64.3166 39.2806L67.3288 38.7785C68.2932 38.6178 69 37.7834 69 36.8057V34.1943C69 33.2166 68.2932 32.3822 67.3288 32.2215L63.8831 31.6472C63.0594 31.5099 62.4149 30.8734 62.2128 30.0633C62.0788 29.5263 61.9284 28.9959 61.7623 28.4725C61.5029 27.6555 61.7366 26.7518 62.3983 26.207L65.6368 23.541C66.3916 22.9197 66.5865 21.8437 66.0977 20.997L64.792 18.7353C64.3031 17.8887 63.2738 17.5195 62.3583 17.8625L58.4513 19.3261C57.6456 19.628 56.7427 19.3755 56.1657 18.7372C55.5733 18.0817 54.9485 17.4559 54.2938 16.8624C53.6574 16.2853 53.4061 15.3836 53.7075 14.5791L55.3699 10.1417C55.7128 9.22621 55.3437 8.19689 54.497 7.70805L52.2353 6.4023C51.3887 5.91346 50.3126 6.1084 49.6913 6.86321L46.6507 10.5567C46.1085 11.2153 45.2104 11.4502 44.396 11.1963C43.7075 10.9817 43.0069 10.7944 42.2955 10.6357C41.4616 10.4496 40.7994 9.79654 40.659 8.95374L39.7785 3.6712C39.6178 2.70683 38.7834 2 37.8057 2H35.1943ZM36 56C47.0457 56 56 47.0457 56 36C56 24.9543 47.0457 16 36 16C24.9543 16 16 24.9543 16 36C16 47.0457 24.9543 56 36 56Z" fill="black" fill-opacity="0.85"/>
<path d="M41.0007 28.0005C29.501 24.0001 24.4581 32.5 28.0003 40.5001C17.5 26 32.501 20.0001 41.0007 28.0005Z" fill="black" fill-opacity="0.5"/>
<path fill-rule="evenodd" clip-rule="evenodd" d="M33.1943 0C32.2168 0 31.3823 0.706787 31.2217 1.67114L30.3408 6.95361C30.2007 7.79663 29.5386 8.44971 28.7046 8.63574C27.9448 8.80518 27.1978 9.00708 26.4644 9.24023C25.6475 9.49976 24.7437 9.26611 24.1987 8.60425L20.8579 4.54639C20.2363 3.7915 19.1606 3.59668 18.314 4.08545L16.0522 5.39111C15.2056 5.87988 14.8364 6.90942 15.1792 7.82495L17.0449 12.8054C17.3433 13.6016 17.1006 14.4937 16.4775 15.072C16.0757 15.4448 15.6855 15.8303 15.3071 16.2273C14.728 16.8357 13.8462 17.0691 13.0596 16.7744L7.82471 14.8132C6.90918 14.4705 5.87988 14.8396 5.39111 15.6863L4.08545 17.9478C3.59668 18.7944 3.7915 19.8706 4.54639 20.4919L8.69824 23.9097C9.36621 24.46 9.59766 25.3755 9.32666 26.1978C9.15918 26.7056 9.00635 27.2205 8.86963 27.7415C8.65967 28.5398 8.01953 29.1633 7.20557 29.2991L1.67139 30.2214C0.707031 30.3821 0 31.2166 0 32.1943V34.8057C0 35.7834 0.707031 36.6179 1.67139 36.7786L6.74414 37.624C7.61523 37.7693 8.28027 38.4705 8.44092 39.3391C8.63721 40.4033 8.89697 41.4453 9.21631 42.4609C9.47314 43.2766 9.23877 44.1775 8.57861 44.7209L4.36328 48.1912C3.6084 48.8127 3.41357 49.8887 3.90234 50.7354L5.20801 52.9971C5.69678 53.8438 6.72607 54.2129 7.6416 53.8699L12.792 51.9404C13.5884 51.6418 14.4814 51.8853 15.0596 52.509C15.5278 53.0144 16.0156 53.5015 16.522 53.969C17.1475 54.5471 17.3921 55.4412 17.0933 56.2388L15.3623 60.8584C15.0195 61.7739 15.3887 62.8032 16.2354 63.292L18.4971 64.5977C19.3438 65.0867 20.4194 64.8916 21.041 64.137L24.1372 60.376C24.6831 59.7126 25.5894 59.4797 26.4077 59.7417C26.8013 59.8679 27.1987 59.9849 27.6001 60.0928C28.0176 60.2051 28.439 60.3074 28.8643 60.3994C29.7041 60.5813 30.3726 61.2366 30.5142 62.0842L31.2217 66.3289C31.3823 67.2932 32.2168 68 33.1943 68H35.8057C36.7832 68 37.6177 67.2932 37.7783 66.3289L38.4858 62.084C38.6274 61.2366 39.2959 60.5813 40.1357 60.3994C40.9756 60.2175 41.8008 59.9958 42.6089 59.7363C43.4272 59.4736 44.3345 59.7065 44.8809 60.3701L47.0083 62.9539C47.6294 63.7087 48.7056 63.9038 49.5522 63.4148L51.814 62.1091C52.6606 61.6204 53.0298 60.5911 52.6865 59.6753L51.5278 56.582C51.2241 55.7715 51.4814 54.863 52.1279 54.2869C52.9727 53.5339 53.7686 52.7278 54.5107 51.8735C55.085 51.2124 56.0039 50.9453 56.8242 51.2524L59.6753 52.3208C60.5908 52.6638 61.6201 52.2944 62.1089 51.4478L63.415 49.1863C63.9038 48.3396 63.709 47.2634 62.9541 46.6421L60.4619 44.5906C59.8047 44.0496 59.5693 43.1538 59.8208 42.3406C60.1543 41.262 60.4209 40.1541 60.6157 39.0217C60.7671 38.1416 61.436 37.4272 62.3164 37.2805L65.3286 36.7786C66.293 36.6179 67 35.7834 67 34.8057V32.1943C67 31.2166 66.293 30.3821 65.3286 30.2214L61.8833 29.6472C61.0596 29.51 60.415 28.8735 60.2129 28.0632C60.0786 27.5264 59.9282 26.9958 59.7622 26.4724C59.5029 25.6555 59.7368 24.7517 60.3984 24.207L63.6367 21.541C64.3916 20.9197 64.5864 19.8438 64.0977 18.9971L62.792 16.7354C62.3032 15.8887 61.2739 15.5195 60.3584 15.8625L56.4512 17.3262C55.6455 17.6279 54.7427 17.3755 54.1655 16.7373C53.5732 16.0815 52.9482 15.4558 52.2939 14.8623C51.6572 14.2852 51.4062 13.3835 51.7075 12.5791L53.3696 8.14185C53.7129 7.22632 53.3438 6.19678 52.4971 5.70801L50.2354 4.40234C49.3887 3.91357 48.3125 4.1084 47.6914 4.86328L44.6509 8.55664C44.1084 9.21533 43.2104 9.4502 42.396 9.19629C41.7075 8.98169 41.0068 8.79443 40.2954 8.63574C39.4614 8.44971 38.7993 7.79663 38.6592 6.95386L37.7783 1.67114C37.6177 0.706787 36.7832 0 35.8057 0H33.1943ZM34 54C45.0459 54 54 45.0457 54 34C54 22.9543 45.0459 14 34 14C22.9541 14 14 22.9543 14 34C14 45.0457 22.9541 54 34 54Z" fill="url(#paint0_linear)"/>
<g filter="url(#filter0_i)">
<path fill-rule="evenodd" clip-rule="evenodd" d="M34 52C43.9411 52 52 43.9411 52 34C52 24.0589 43.9411 16 34 16C24.0589 16 16 24.0589 16 34C16 43.9411 24.0589 52 34 52ZM34 42C38.4183 42 42 38.4183 42 34C42 29.5817 38.4183 26 34 26C29.5817 26 26 29.5817 26 34C26 38.4183 29.5817 42 34 42Z" fill="url(#paint1_linear)"/>
</g>
<path d="M38 16.4666C28 16.9161 20.1897 21.7079 15 29C17.359 23.6828 25.2615 13.7321 38 16.4666Z" fill="black" fill-opacity="0.1"/>
<path fill-rule="evenodd" clip-rule="evenodd" d="M34 54C45.0457 54 54 45.0457 54 34C54 22.9543 45.0457 14 34 14C22.9543 14 14 22.9543 14 34C14 45.0457 22.9543 54 34 54ZM34 52C43.9411 52 52 43.9411 52 34C52 24.0589 43.9411 16 34 16C24.0589 16 16 24.0589 16 34C16 43.9411 24.0589 52 34 52Z" fill="url(#paint2_linear)"/>
<defs>
<filter id="filter0_i" x="16" y="16" width="38" height="37" filterUnits="userSpaceOnUse" color-interpolation-filters="sRGB">
<feFlood flood-opacity="0" result="BackgroundImageFix"/>
<feBlend mode="normal" in="SourceGraphic" in2="BackgroundImageFix" result="shape"/>
<feColorMatrix in="SourceAlpha" type="matrix" values="0 0 0 0 0 0 0 0 0 0 0 0 0 0 0 0 0 0 127 0" result="hardAlpha"/>
<feOffset dx="2" dy="1"/>
<feGaussianBlur stdDeviation="1.5"/>
<feComposite in2="hardAlpha" operator="arithmetic" k2="-1" k3="1"/>
<feColorMatrix type="matrix" values="0 0 0 0 0 0 0 0 0 0 0 0 0 0 0 0 0 0 0.25 0"/>
<feBlend mode="normal" in2="shape" result="effect1_innerShadow"/>
</filter>
<linearGradient id="paint0_linear" x1="33.5" y1="0" x2="33.5" y2="68" gradientUnits="userSpaceOnUse">
<stop stop-color="#C4C4C4"/>
<stop offset="1" stop-color="#969696"/>
</linearGradient>
<linearGradient id="paint1_linear" x1="54" y1="34" x2="13.5" y2="35" gradientUnits="userSpaceOnUse">
<stop stop-color="#929392"/>
<stop offset="1" stop-color="#5B5B5B"/>
</linearGradient>
<linearGradient id="paint2_linear" x1="54" y1="34" x2="13.5" y2="35" gradientUnits="userSpaceOnUse">
<stop stop-color="#929392"/>
<stop offset="0.296875" stop-color="#777777"/>
<stop offset="0.619792" stop-color="#BEBEBE"/>
<stop offset="0.953125" stop-color="#A2A2A2"/>
</linearGradient>
</defs>
</svg>
