<svg width="39" height="39" viewBox="0 0 39 39" fill="none" xmlns="http://www.w3.org/2000/svg">
<g clip-path="url(#clip0)">
<path d="M8 31.5H15.8276C18.589 31.5 20.8276 29.2614 20.8276 26.5V12.5C20.8276 9.73858 23.0662 7.5 25.8276 7.5H32" stroke="#5353EC" stroke-opacity="0.5" stroke-width="4" stroke-linecap="round" stroke-linejoin="round"/>
<path fill-rule="evenodd" clip-rule="evenodd" d="M36 7.5C36 9.98528 33.9853 12 31.5 12C30.4538 12 29.491 11.643 28.7268 11.0442C28.3276 10.7314 27.856 10.5 27.3488 10.5V10.5C26.0634 10.5 25.241 11.8276 26.1402 12.7462C27.5017 14.1369 29.4 15 31.5 15C35.6421 15 39 11.6421 39 7.5C39 3.35786 35.6421 0 31.5 0C29.4 0 27.5017 0.863054 26.1402 2.25381C25.241 3.17237 26.0634 4.5 27.3488 4.5V4.5C27.856 4.5 28.3276 4.26864 28.7268 3.95583C29.491 3.357 30.4538 3 31.5 3C33.9853 3 36 5.01472 36 7.5Z" fill="#5353EC"/>
<path fill-rule="evenodd" clip-rule="evenodd" d="M2.99999 31.5C2.99999 29.0147 5.01471 27 7.49999 27C8.54617 27 9.50896 27.357 10.2732 27.9558C10.6724 28.2686 11.144 28.5 11.6512 28.5V28.5C12.9366 28.5 13.759 27.1724 12.8598 26.2538C11.4983 24.8631 9.59995 24 7.49999 24C3.35786 24 -8.08608e-06 27.3579 -7.72397e-06 31.5C-7.36185e-06 35.6421 3.35786 39 7.49999 39C9.59996 39 11.4983 38.1369 12.8598 36.7462C13.759 35.8276 12.9366 34.5 11.6512 34.5V34.5C11.144 34.5 10.6724 34.7314 10.2732 35.0442C9.50896 35.643 8.54617 36 7.49999 36C5.01471 36 2.99999 33.9853 2.99999 31.5Z" fill="#5353EC"/>
</g>
<defs>
<clipPath id="clip0">
<rect width="39" height="39" fill="white"/>
</clipPath>
</defs>
</svg>
